<?xml version="1.0" encoding="UTF-8" standalone="no"?>
<!-- Created with Inkscape (http://www.inkscape.org/) -->

<svg
   xmlns:dc="http://purl.org/dc/elements/1.1/"
   xmlns:cc="http://creativecommons.org/ns#"
   xmlns:rdf="http://www.w3.org/1999/02/22-rdf-syntax-ns#"
   xmlns:svg="http://www.w3.org/2000/svg"
   xmlns="http://www.w3.org/2000/svg"
   xmlns:sodipodi="http://sodipodi.sourceforge.net/DTD/sodipodi-0.dtd"
   xmlns:inkscape="http://www.inkscape.org/namespaces/inkscape"
   width="40.278"
   height="14.657888"
   id="svg13801"
   sodipodi:version="0.32"
   inkscape:version="0.47 r22583"
   version="1.0"
   sodipodi:docname="ccLogo_001.svg"
   inkscape:output_extension="org.inkscape.output.svg.inkscape">
  <defs
     id="defs13803" />
  <sodipodi:namedview
     id="base"
     pagecolor="#ffffff"
     bordercolor="#666666"
     borderopacity="1.0"
     gridtolerance="10000"
     guidetolerance="10"
     objecttolerance="10"
     inkscape:pageopacity="0.0"
     inkscape:pageshadow="2"
     inkscape:zoom="1"
     inkscape:cx="271.222"
     inkscape:cy="77.214286"
     inkscape:document-units="px"
     inkscape:current-layer="layer1"
     showgrid="false"
     inkscape:window-width="828"
     inkscape:window-height="723"
     inkscape:window-x="634"
     inkscape:window-y="145" />
  <metadata
     id="metadata13806">
    <rdf:RDF>
      <cc:Work
         rdf:about="">
        <dc:format>image/svg+xml</dc:format>
        <dc:type
           rdf:resource="http://purl.org/dc/dcmitype/StillImage" />
      </cc:Work>
    </rdf:RDF>
  </metadata>
  <g
     inkscape:label="Layer 1"
     inkscape:groupmode="layer"
     id="layer1"
     transform="translate(-571.2896,-207.89038)">
    <g
       id="CCLogo"
       transform="translate(-1377.9734,-945.56573)">
      <g
         id="g7221">
        <g
           id="g7223">
          <path
             d="M 1956.282,1153.457 C 1952.392,1153.555 1949.263,1156.744 1949.263,1160.657 C 1949.263,1164.632 1952.489,1167.856 1956.463,1167.856 C 1960.439,1167.856 1963.664,1164.631 1963.664,1160.657 C 1963.664,1156.681 1960.438,1153.457 1956.463,1153.457 C 1956.402,1153.457 1956.342,1153.455 1956.282,1153.457 z"
             id="path7225" />
          <path
             d="M 1956.273,1154.694 C 1956.338,1154.691 1956.399,1154.694 1956.463,1154.694 C 1959.756,1154.694 1962.426,1157.365 1962.426,1160.657 C 1962.426,1163.948 1959.756,1166.62 1956.463,1166.62 C 1953.172,1166.62 1950.5,1163.948 1950.5,1160.657 C 1950.5,1157.43 1953.071,1154.796 1956.273,1154.694 z"
             id="path7227"
             style="fill:#ffffff" />
          <g
             id="g7229">
            <path
               d="M 1959.523,1161.212 L 1959.501,1161.269 C 1959.358,1161.623 1959.045,1161.866 1958.683,1161.865 C 1958.192,1161.864 1957.786,1161.417 1957.784,1160.854 L 1957.784,1160.46 C 1957.786,1159.897 1958.192,1159.45 1958.683,1159.448 C 1959.025,1159.448 1959.324,1159.663 1959.476,1159.984 L 1959.501,1160.038 L 1960.538,1159.469 L 1960.505,1159.418 C 1960.103,1158.789 1959.402,1158.371 1958.605,1158.371 C 1957.981,1158.371 1957.442,1158.628 1957.06,1159.043 C 1956.679,1159.456 1956.456,1160.027 1956.456,1160.655 C 1956.456,1161.286 1956.679,1161.856 1957.06,1162.27 C 1957.442,1162.685 1957.981,1162.942 1958.605,1162.942 C 1959.447,1162.942 1960.178,1162.478 1960.568,1161.791 L 1960.597,1161.738 L 1959.523,1161.212 z"
               id="path7231" />
            <path
               d="M 1955.375,1161.269 C 1955.232,1161.623 1954.919,1161.866 1954.557,1161.865 C 1954.066,1161.864 1953.658,1161.417 1953.658,1160.854 L 1953.658,1160.46 C 1953.658,1159.897 1954.066,1159.45 1954.557,1159.448 C 1954.899,1159.448 1955.198,1159.663 1955.35,1159.984 L 1955.375,1160.038 L 1956.411,1159.469 L 1956.378,1159.418 C 1955.976,1158.789 1955.276,1158.371 1954.479,1158.371 C 1953.855,1158.371 1953.315,1158.628 1952.935,1159.043 C 1952.554,1159.456 1952.331,1160.027 1952.331,1160.655 C 1952.331,1161.286 1952.554,1161.856 1952.935,1162.27 C 1953.315,1162.685 1953.855,1162.942 1954.479,1162.942 C 1955.319,1162.942 1956.052,1162.478 1956.442,1161.791 L 1956.471,1161.738 L 1955.398,1161.212 L 1955.375,1161.269 z"
               id="path7233" />
          </g>
        </g>
        <g
           id="g7235">
          <path
             d="M 1984.01,1153.713 C 1981.098,1153.786 1978.754,1156.175 1978.754,1159.106 C 1978.754,1162.083 1981.172,1164.5 1984.148,1164.5 C 1987.125,1164.5 1989.541,1162.083 1989.541,1159.106 C 1989.541,1156.129 1987.125,1153.713 1984.148,1153.713 C 1984.101,1153.713 1984.057,1153.712 1984.01,1153.713 z"
             id="path7237" />
          <path
             d="M 1984.006,1154.64 C 1984.054,1154.638 1984.1,1154.64 1984.148,1154.64 C 1986.614,1154.64 1988.614,1156.641 1988.614,1159.106 C 1988.614,1161.57 1986.614,1163.572 1984.148,1163.572 C 1981.683,1163.572 1979.682,1161.57 1979.682,1159.106 C 1979.682,1156.688 1981.607,1154.716 1984.006,1154.64 z"
             id="path7239"
             style="fill:#ffffff" />
          <path
             d="M 1983.077,1160.242 C 1983.425,1160.727 1984.485,1160.763 1984.848,1160.555 C 1984.981,1160.481 1985.014,1160.261 1985.014,1160.113 C 1985.014,1160.011 1984.989,1159.932 1984.935,1159.873 C 1984.877,1159.815 1984.735,1159.668 1984.568,1159.625 C 1983.723,1159.407 1983.136,1159.134 1982.908,1158.937 C 1982.623,1158.69 1982.577,1158.528 1982.577,1158.098 C 1982.577,1157.667 1982.699,1157.306 1982.98,1157.047 C 1983.258,1156.788 1983.666,1156.658 1984.198,1156.658 C 1984.708,1156.658 1985.423,1156.794 1985.772,1157.207 L 1985.19,1157.841 C 1984.862,1157.565 1984.618,1157.541 1984.215,1157.541 C 1983.962,1157.541 1983.83,1157.576 1983.724,1157.648 C 1983.617,1157.719 1983.564,1157.811 1983.564,1157.922 C 1983.564,1158.025 1983.613,1158.11 1983.71,1158.176 C 1983.809,1158.245 1984.065,1158.351 1984.577,1158.49 C 1985.151,1158.647 1985.542,1158.838 1985.747,1159.061 C 1985.949,1159.285 1986.051,1159.582 1986.051,1159.956 C 1986.051,1160.403 1985.893,1160.772 1985.577,1161.063 C 1985.265,1161.354 1984.88,1161.58 1984.326,1161.58 C 1983.613,1161.58 1982.663,1161.329 1982.4,1160.864"
             id="text1367" />
          <path
             d="M 1988.756,1160.471 L 1988.35,1161.362 L 1979.735,1157.48 L 1980.141,1156.59 L 1988.756,1160.471 z"
             id="rect2247" />
          <path
             d="M 1983.875,1155.882 L 1983.875,1157.035 L 1984.423,1157.035 L 1984.423,1155.882 L 1983.875,1155.882 z M 1983.875,1161.291 L 1983.875,1162.328 L 1984.423,1162.328 L 1984.423,1161.291 L 1983.875,1161.291 z"
             id="rect2278" />
        </g>
        <g
           id="layer3">
          <path
             d="M 1976.351,1159.105 C 1976.351,1161.622 1974.311,1163.663 1971.792,1163.663 C 1969.275,1163.663 1967.235,1161.622 1967.235,1159.105 C 1967.235,1156.587 1969.275,1154.546 1971.792,1154.546 C 1974.311,1154.547 1976.351,1156.588 1976.351,1159.105 z"
             id="path7255"
             style="fill:#ffffff" />
          <path
             d="M 1971.655,1153.713 C 1968.745,1153.786 1966.401,1156.175 1966.401,1159.106 C 1966.401,1162.083 1968.817,1164.5 1971.793,1164.5 C 1974.771,1164.5 1977.187,1162.083 1977.187,1159.106 C 1977.187,1156.129 1974.771,1153.713 1971.793,1153.713 C 1971.747,1153.713 1971.703,1153.712 1971.655,1153.713 z M 1971.651,1154.64 C 1971.699,1154.638 1971.745,1154.64 1971.793,1154.64 C 1974.259,1154.64 1976.26,1156.641 1976.26,1159.106 C 1976.26,1161.57 1974.259,1163.572 1971.793,1163.572 C 1969.329,1163.572 1967.327,1161.57 1967.327,1159.106 C 1967.327,1156.688 1969.251,1154.716 1971.651,1154.64 z"
             id="path1334_2_" />
          <g
             id="g6525">
            <path
               d="M 1972.573,1156.398 C 1972.573,1156.829 1972.223,1157.177 1971.793,1157.177 C 1971.363,1157.177 1971.015,1156.828 1971.015,1156.398 C 1971.015,1155.968 1971.363,1155.619 1971.793,1155.619 C 1972.223,1155.619 1972.573,1155.968 1972.573,1156.398 z"
               id="path2838" />
            <path
               d="M 1970.988,1162.593 L 1972.599,1162.593 L 1972.599,1160 L 1973.087,1160 C 1973.087,1160 1973.087,1158.147 1973.087,1157.855 C 1973.087,1157.78 1973.094,1157.626 1972.983,1157.515 C 1972.871,1157.403 1972.719,1157.41 1972.64,1157.411 C 1972.561,1157.411 1971.025,1157.411 1970.946,1157.411 C 1970.866,1157.41 1970.717,1157.403 1970.605,1157.515 C 1970.493,1157.626 1970.5,1157.78 1970.5,1157.855 C 1970.5,1158.147 1970.5,1160 1970.5,1160 L 1970.988,1160 L 1970.988,1162.593 L 1970.988,1162.593 z"
               id="path3572" />
          </g>
        </g>
        <g
           id="g7250">
          <path
             d="M 1969.54,1168 L 1969.54,1165.532 L 1970.753,1165.532 C 1971.037,1165.532 1971.232,1165.578 1971.334,1165.669 C 1971.438,1165.76 1971.489,1165.932 1971.489,1166.184 C 1971.489,1166.489 1971.368,1166.668 1971.126,1166.722 L 1971.126,1166.732 C 1971.407,1166.775 1971.549,1166.971 1971.549,1167.319 C 1971.549,1167.571 1971.494,1167.748 1971.386,1167.849 C 1971.278,1167.95 1971.088,1168 1970.819,1168 L 1969.54,1168 z M 1970.008,1166.568 L 1970.58,1166.568 C 1970.766,1166.568 1970.885,1166.547 1970.935,1166.506 C 1970.987,1166.465 1971.012,1166.37 1971.012,1166.222 C 1971.012,1166.025 1970.9,1165.926 1970.675,1165.926 L 1970.007,1165.926 L 1970.007,1166.568 L 1970.008,1166.568 z M 1970.008,1167.605 L 1970.521,1167.605 L 1970.686,1167.602 C 1970.843,1167.602 1970.948,1167.58 1970.998,1167.535 C 1971.048,1167.491 1971.073,1167.396 1971.073,1167.253 C 1971.073,1167.104 1971.047,1167.01 1970.994,1166.972 C 1970.942,1166.933 1970.812,1166.913 1970.606,1166.913 L 1970.008,1166.913 L 1970.008,1167.605 z"
             id="path7252" />
          <path
             d="M 1973.933,1165.532 L 1973.018,1167.058 L 1973.018,1168 L 1972.55,1168 L 1972.55,1167.059 L 1971.66,1165.533 L 1972.202,1165.533 L 1972.575,1166.184 C 1972.596,1166.22 1972.63,1166.287 1972.679,1166.384 L 1972.732,1166.484 L 1972.782,1166.584 L 1972.795,1166.584 L 1972.848,1166.484 L 1972.901,1166.384 C 1972.945,1166.295 1972.981,1166.228 1973.007,1166.184 L 1973.383,1165.533 L 1973.933,1165.533 L 1973.933,1165.532 z"
             id="path7254" />
        </g>
        <g
           id="g7256">
          <path
             d="M 1984.1,1165.625 L 1984.1,1168.093 L 1983.307,1168.093 L 1982.602,1166.739 C 1982.567,1166.671 1982.512,1166.553 1982.437,1166.385 L 1982.358,1166.207 L 1982.28,1166.03 L 1982.262,1166.03 L 1982.269,1166.192 L 1982.275,1166.353 L 1982.279,1166.677 L 1982.279,1168.092 L 1981.81,1168.092 L 1981.81,1165.624 L 1982.604,1165.624 L 1983.246,1166.875 C 1983.303,1166.986 1983.368,1167.12 1983.443,1167.278 L 1983.537,1167.478 L 1983.631,1167.681 L 1983.648,1167.681 L 1983.642,1167.522 L 1983.637,1167.363 L 1983.633,1167.045 L 1983.633,1165.624 L 1984.1,1165.624 L 1984.1,1165.625 z"
             id="path7258" />
          <path
             d="M 1986.059,1167.213 L 1986.529,1167.213 L 1986.529,1167.298 C 1986.529,1167.641 1986.467,1167.863 1986.341,1167.964 C 1986.216,1168.065 1985.939,1168.114 1985.51,1168.114 C 1985.023,1168.114 1984.724,1168.035 1984.612,1167.876 C 1984.5,1167.717 1984.444,1167.291 1984.444,1166.6 C 1984.444,1166.193 1984.519,1165.925 1984.672,1165.796 C 1984.823,1165.668 1985.142,1165.604 1985.624,1165.604 C 1985.977,1165.604 1986.211,1165.657 1986.329,1165.762 C 1986.447,1165.867 1986.507,1166.076 1986.507,1166.39 L 1986.509,1166.447 L 1986.038,1166.447 L 1986.038,1166.384 C 1986.038,1166.223 1986.008,1166.119 1985.947,1166.073 C 1985.886,1166.028 1985.747,1166.006 1985.53,1166.006 C 1985.24,1166.006 1985.065,1166.041 1985.007,1166.112 C 1984.949,1166.183 1984.92,1166.394 1984.92,1166.745 C 1984.92,1167.218 1984.945,1167.497 1984.998,1167.584 C 1985.051,1167.671 1985.22,1167.714 1985.507,1167.714 C 1985.739,1167.714 1985.891,1167.691 1985.96,1167.642 C 1986.029,1167.594 1986.064,1167.488 1986.064,1167.324 L 1986.059,1167.213 z"
             id="path7260" />
        </g>
      </g>
    </g>
  </g>
</svg>
