<?xml version="1.0" encoding="UTF-8" standalone="no"?>
<!-- Created with Inkscape (http://www.inkscape.org/) -->

<svg
   xmlns:dc="http://purl.org/dc/elements/1.1/"
   xmlns:cc="http://creativecommons.org/ns#"
   xmlns:rdf="http://www.w3.org/1999/02/22-rdf-syntax-ns#"
   xmlns:svg="http://www.w3.org/2000/svg"
   xmlns="http://www.w3.org/2000/svg"
   xmlns:sodipodi="http://sodipodi.sourceforge.net/DTD/sodipodi-0.dtd"
   xmlns:inkscape="http://www.inkscape.org/namespaces/inkscape"
   width="1159.4426"
   height="180.91667"
   id="svg13995"
   sodipodi:version="0.32"
   inkscape:version="0.48.0 r9654"
   version="1.0"
   sodipodi:docname="calFont_001.svg"
   inkscape:output_extension="org.inkscape.output.svg.inkscape">
  <defs
     id="defs13997" />
  <sodipodi:namedview
     id="base"
     pagecolor="#000000"
     bordercolor="#666666"
     borderopacity="1.0"
     gridtolerance="10000"
     guidetolerance="10"
     objecttolerance="10"
     inkscape:pageopacity="1"
     inkscape:pageshadow="2"
     inkscape:zoom="1"
     inkscape:cx="235.41636"
     inkscape:cy="143.34661"
     inkscape:document-units="px"
     inkscape:current-layer="year"
     showgrid="false"
     inkscape:window-width="1920"
     inkscape:window-height="1152"
     inkscape:window-x="0"
     inkscape:window-y="0"
     showguides="true"
     inkscape:guide-bbox="true"
     inkscape:window-maximized="0" />
  <metadata
     id="metadata14000">
    <rdf:RDF>
      <cc:Work
         rdf:about="">
        <dc:format>image/svg+xml</dc:format>
        <dc:type
           rdf:resource="http://purl.org/dc/dcmitype/StillImage" />
      </cc:Work>
    </rdf:RDF>
  </metadata>
  <g
     inkscape:label="Layer 1"
     inkscape:groupmode="layer"
     id="layer1"
     transform="translate(-37.42156,-71.7763)">
    <g
       filter=" "
       style="display:inline"
       id="day"
       inkscape:label="#g13944"
       transform="translate(-871.0207,-2303.9436)">
      <path
         d="M 1130.3734,2488.3708 C 1131.0244,2488.7128 1132.0674,2489.0548 1133.1274,2489.0548 C 1134.2684,2489.0548 1134.8714,2488.5818 1134.8714,2487.8488 C 1134.8714,2487.1808 1134.3504,2486.7728 1133.0294,2486.3168 C 1131.2044,2485.6648 1129.9984,2484.6548 1129.9984,2483.0418 C 1129.9984,2481.1678 1131.5794,2479.7498 1134.1534,2479.7498 C 1135.4084,2479.7498 1136.3044,2479.9948 1136.9574,2480.3038 L 1136.4024,2482.2918 C 1135.9784,2482.0798 1135.1804,2481.7708 1134.1214,2481.7708 C 1133.0464,2481.7708 1132.5244,2482.2758 1132.5244,2482.8298 C 1132.5244,2483.5308 1133.1274,2483.8398 1134.5614,2484.3938 C 1136.4994,2485.1108 1137.3964,2486.1218 1137.3964,2487.6858 C 1137.3964,2489.5268 1135.9954,2491.0918 1132.9804,2491.0918 C 1131.7254,2491.0918 1130.4874,2490.7498 1129.8684,2490.4068 L 1130.3734,2488.3708 z M 1145.1994,2488.9898 C 1145.1994,2489.7398 1145.2314,2490.4728 1145.3294,2490.9128 L 1143.0974,2490.9128 L 1142.9514,2490.1148 L 1142.9024,2490.1148 C 1142.3814,2490.7498 1141.5654,2491.0928 1140.6214,2491.0928 C 1139.0084,2491.0928 1138.0464,2489.9198 1138.0464,2488.6488 C 1138.0464,2486.5788 1139.9034,2485.6018 1142.7234,2485.6018 L 1142.7234,2485.5038 C 1142.7234,2485.0798 1142.4954,2484.4768 1141.2734,2484.4768 C 1140.4594,2484.4768 1139.5944,2484.7538 1139.0734,2485.0628 L 1138.6174,2483.4818 C 1139.1714,2483.1718 1140.2634,2482.7648 1141.7144,2482.7648 C 1144.3704,2482.7648 1145.2014,2484.3288 1145.2014,2486.2038 L 1145.2014,2488.9898 L 1145.1994,2488.9898 z M 1142.8034,2487.1488 C 1141.4994,2487.1488 1140.4894,2487.4588 1140.4894,2488.4038 C 1140.4894,2489.0398 1140.9134,2489.3488 1141.4674,2489.3488 C 1142.0714,2489.3488 1142.5924,2488.9418 1142.7554,2488.4358 C 1142.7874,2488.3058 1142.8044,2488.1588 1142.8044,2488.0118 L 1142.8044,2487.1488 L 1142.8034,2487.1488 z M 1149.4114,2480.7768 L 1149.4114,2482.9438 L 1151.1874,2482.9438 L 1151.1874,2484.7688 L 1149.4114,2484.7688 L 1149.4114,2487.6688 C 1149.4114,2488.6308 1149.6554,2489.0708 1150.3894,2489.0708 C 1150.7324,2489.0708 1150.8944,2489.0538 1151.1224,2489.0058 L 1151.1394,2490.8798 C 1150.8294,2490.9938 1150.2264,2491.0918 1149.5414,2491.0918 C 1148.7434,2491.0918 1148.0744,2490.8148 1147.6674,2490.4068 C 1147.2114,2489.9348 1146.9824,2489.1688 1146.9824,2488.0438 L 1146.9824,2484.7688 L 1145.9234,2484.7688 L 1145.9234,2482.9438 L 1146.9824,2482.9438 L 1146.9824,2481.4438 L 1149.4114,2480.7768 z"
         style="fill:#ffffff;fill-opacity:1"
         id="Sat" />
      <path
         d="M 911.87643,2488.3708 C 912.52743,2488.7128 913.57043,2489.0548 914.63043,2489.0548 C 915.77143,2489.0548 916.37443,2488.5818 916.37443,2487.8488 C 916.37443,2487.1808 915.85343,2486.7728 914.53243,2486.3168 C 912.70743,2485.6648 911.50143,2484.6548 911.50143,2483.0418 C 911.50143,2481.1678 913.08243,2479.7498 915.65643,2479.7498 C 916.91143,2479.7498 917.80743,2479.9948 918.46043,2480.3038 L 917.90543,2482.2918 C 917.48143,2482.0798 916.68343,2481.7708 915.62443,2481.7708 C 914.54943,2481.7708 914.02743,2482.2758 914.02743,2482.8298 C 914.02743,2483.5308 914.63043,2483.8398 916.06343,2484.3938 C 918.00243,2485.1108 918.89943,2486.1218 918.89943,2487.6858 C 918.89943,2489.5268 917.49843,2491.0918 914.48343,2491.0918 C 913.22843,2491.0918 911.99043,2490.7498 911.37043,2490.4068 L 911.87643,2488.3708 z M 927.48443,2488.3548 C 927.48443,2489.3978 927.51643,2490.2458 927.54943,2490.9138 L 925.39843,2490.9138 L 925.28443,2489.7888 L 925.23543,2489.7888 C 924.92543,2490.2778 924.17543,2491.0928 922.74243,2491.0928 C 921.11243,2491.0928 919.93943,2490.0828 919.93943,2487.6218 L 919.93943,2482.9448 L 922.41643,2482.9448 L 922.41643,2487.2308 C 922.41643,2488.3878 922.79143,2489.0888 923.67143,2489.0888 C 924.35643,2489.0888 924.76343,2488.6158 924.90943,2488.2248 C 924.97443,2488.0788 925.00743,2487.8988 925.00743,2487.6868 L 925.00743,2482.9448 L 927.48543,2482.9448 L 927.48543,2488.3548 L 927.48443,2488.3548 z M 929.03443,2485.4858 C 929.03443,2484.4918 929.00243,2483.6608 928.96943,2482.9438 L 931.12043,2482.9438 L 931.23443,2484.0518 L 931.28343,2484.0518 C 931.60943,2483.5308 932.40743,2482.7638 933.74443,2482.7638 C 935.37343,2482.7638 936.59643,2483.8558 936.59643,2486.2028 L 936.59643,2490.9118 L 934.11843,2490.9118 L 934.11843,2486.4948 C 934.11843,2485.4688 933.76043,2484.7678 932.86443,2484.7678 C 932.17943,2484.7678 931.77143,2485.2408 931.59343,2485.6968 C 931.52843,2485.8598 931.51143,2486.0878 931.51143,2486.3158 L 931.51143,2490.9118 L 929.03443,2490.9118 L 929.03443,2485.4858 z"
         style="fill:#ffffff;fill-opacity:1"
         id="Sun" />
      <path
         d="M 956.36543,2486.7088 C 956.31643,2485.3888 956.26743,2483.8078 956.26743,2482.1948 L 956.23543,2482.1948 C 955.87743,2483.5968 955.42043,2485.1608 954.99743,2486.4478 L 953.66043,2490.7338 L 951.72143,2490.7338 L 950.54843,2486.4968 C 950.19043,2485.1928 949.83143,2483.6448 949.55443,2482.1948 L 949.52143,2482.1948 C 949.47243,2483.6778 949.40843,2485.3728 949.34243,2486.7418 L 949.13043,2490.9138 L 946.83243,2490.9138 L 947.53343,2479.9298 L 950.84143,2479.9298 L 951.91743,2483.6128 C 952.27543,2484.8678 952.60143,2486.2368 952.84643,2487.5238 L 952.91143,2487.5238 C 953.20443,2486.2528 953.57943,2484.8188 953.95443,2483.5798 L 955.11043,2479.9298 L 958.37043,2479.9298 L 958.95743,2490.9138 L 956.54543,2490.9138 L 956.36543,2486.7088 z M 964.06643,2491.0918 C 961.73543,2491.0918 959.94343,2489.5598 959.94343,2486.9858 C 959.94343,2484.4108 961.63743,2482.7648 964.21343,2482.7648 C 966.64143,2482.7648 968.27143,2484.4438 968.27143,2486.8558 C 968.27143,2489.7558 966.20243,2491.0928 964.08343,2491.0928 L 964.06643,2491.0928 L 964.06643,2491.0918 z M 964.11543,2489.3158 C 965.09343,2489.3158 965.69543,2488.3548 965.69543,2486.9198 C 965.69543,2485.7468 965.23943,2484.5408 964.11543,2484.5408 C 962.94143,2484.5408 962.48543,2485.7468 962.48543,2486.9368 C 962.48543,2488.2898 963.05543,2489.3158 964.09843,2489.3158 L 964.11543,2489.3158 z M 969.34543,2485.4858 C 969.34543,2484.4918 969.31343,2483.6608 969.28043,2482.9438 L 971.43143,2482.9438 L 971.54543,2484.0518 L 971.59443,2484.0518 C 971.92043,2483.5308 972.71843,2482.7638 974.05543,2482.7638 C 975.68443,2482.7638 976.90743,2483.8558 976.90743,2486.2028 L 976.90743,2490.9118 L 974.42943,2490.9118 L 974.42943,2486.4948 C 974.42943,2485.4688 974.07143,2484.7678 973.17443,2484.7678 C 972.49043,2484.7678 972.08243,2485.2408 971.90343,2485.6968 C 971.83843,2485.8598 971.82143,2486.0878 971.82143,2486.3158 L 971.82143,2490.9118 L 969.34443,2490.9118 L 969.34443,2485.4858 L 969.34543,2485.4858 z"
         style="fill:#ffffff"
         id="Mon" />
      <path
         d="M 990.26443,2482.0148 L 987.29843,2482.0148 L 987.29843,2479.9288 L 995.73943,2479.9288 L 995.73943,2482.0148 L 992.74143,2482.0148 L 992.74143,2490.9128 L 990.26343,2490.9128 L 990.26343,2482.0148 L 990.26443,2482.0148 z M 1002.9124,2488.3548 C 1002.9124,2489.3978 1002.9444,2490.2458 1002.9774,2490.9138 L 1000.8264,2490.9138 L 1000.7124,2489.7888 L 1000.6634,2489.7888 C 1000.3534,2490.2778 999.60343,2491.0928 998.17043,2491.0928 C 996.54043,2491.0928 995.36743,2490.0828 995.36743,2487.6218 L 995.36743,2482.9448 L 997.84443,2482.9448 L 997.84443,2487.2308 C 997.84443,2488.3878 998.21943,2489.0888 999.09943,2489.0888 C 999.78443,2489.0888 1000.1914,2488.6158 1000.3374,2488.2248 C 1000.4024,2488.0788 1000.4354,2487.8988 1000.4354,2487.6868 L 1000.4354,2482.9448 L 1002.9134,2482.9448 L 1002.9134,2488.3548 L 1002.9124,2488.3548 z M 1006.3494,2487.7028 C 1006.4314,2488.7458 1007.4414,2489.2348 1008.5984,2489.2348 C 1009.4464,2489.2348 1010.1304,2489.1208 1010.7984,2488.8928 L 1011.1244,2490.5708 C 1010.3094,2490.9128 1009.3144,2491.0758 1008.2394,2491.0758 C 1005.5344,2491.0758 1003.9864,2489.5118 1003.9864,2487.0018 C 1003.9864,2484.9808 1005.2574,2482.7488 1008.0114,2482.7488 C 1010.5854,2482.7488 1011.5634,2484.7528 1011.5634,2486.7258 C 1011.5634,2487.1488 1011.5144,2487.5238 1011.4824,2487.7198 L 1006.3494,2487.7028 z M 1009.2664,2486.0078 C 1009.2664,2485.4218 1009.0054,2484.3948 1007.8814,2484.3948 C 1006.8214,2484.3948 1006.3984,2485.3558 1006.3334,2486.0078 L 1009.2664,2486.0078 z"
         style="fill:#ffffff;fill-opacity:1"
         id="Tue" />
      <path
         d="M 1025.2334,2490.9128 L 1022.6264,2479.9288 L 1025.2824,2479.9288 L 1026.1134,2484.4428 C 1026.3584,2485.7628 1026.5864,2487.1808 1026.7654,2488.3048 L 1026.7974,2488.3048 C 1026.9774,2487.0988 1027.2374,2485.7788 1027.5154,2484.4098 L 1028.4444,2479.9288 L 1031.0844,2479.9288 L 1031.9644,2484.5568 C 1032.2094,2485.8438 1032.3884,2487.0168 1032.5514,2488.2398 L 1032.5834,2488.2398 C 1032.7464,2487.0178 1032.9914,2485.7308 1033.2194,2484.4098 L 1034.1154,2479.9288 L 1036.6414,2479.9288 L 1033.8054,2490.9128 L 1031.1164,2490.9128 L 1030.1874,2486.1868 C 1029.9754,2485.0788 1029.7964,2484.0518 1029.6664,2482.7968 L 1029.6344,2482.7968 C 1029.4394,2484.0358 1029.2594,2485.0788 1028.9984,2486.1868 L 1027.9554,2490.9128 L 1025.2334,2490.9128 L 1025.2334,2490.9128 z M 1038.8324,2487.7028 C 1038.9144,2488.7458 1039.9244,2489.2348 1041.0814,2489.2348 C 1041.9294,2489.2348 1042.6134,2489.1208 1043.2814,2488.8928 L 1043.6074,2490.5708 C 1042.7924,2490.9128 1041.7974,2491.0758 1040.7224,2491.0758 C 1038.0174,2491.0758 1036.4694,2489.5118 1036.4694,2487.0018 C 1036.4694,2484.9808 1037.7404,2482.7488 1040.4944,2482.7488 C 1043.0684,2482.7488 1044.0464,2484.7528 1044.0464,2486.7258 C 1044.0464,2487.1488 1043.9974,2487.5238 1043.9654,2487.7198 L 1038.8324,2487.7028 z M 1041.7494,2486.0078 C 1041.7494,2485.4218 1041.4884,2484.3948 1040.3644,2484.3948 C 1039.3044,2484.3948 1038.8814,2485.3558 1038.8164,2486.0078 L 1041.7494,2486.0078 z M 1052.8974,2479.3428 L 1052.8974,2488.5338 C 1052.8974,2489.4468 1052.9294,2490.3758 1052.9624,2490.9128 L 1050.7624,2490.9128 L 1050.6644,2489.7558 L 1050.6154,2489.7558 C 1050.1264,2490.6358 1049.1484,2491.0918 1048.1214,2491.0918 C 1046.2314,2491.0918 1044.7164,2489.4788 1044.7164,2487.0018 C 1044.6994,2484.3288 1046.3784,2482.7648 1048.2844,2482.7648 C 1049.2784,2482.7648 1050.0284,2483.1238 1050.3874,2483.6608 L 1050.4194,2483.6608 L 1050.4194,2479.3428 L 1052.8974,2479.3428 L 1052.8974,2479.3428 z M 1050.4204,2486.3338 C 1050.4204,2486.1868 1050.4204,2486.0238 1050.3884,2485.8768 C 1050.2424,2485.2088 1049.7034,2484.6708 1048.9384,2484.6708 C 1047.7974,2484.6708 1047.2274,2485.6818 1047.2274,2486.9358 C 1047.2274,2488.2718 1047.8954,2489.1198 1048.9214,2489.1198 C 1049.6384,2489.1198 1050.2254,2488.6308 1050.3714,2487.9298 C 1050.4044,2487.7668 1050.4204,2487.5718 1050.4204,2487.3758 L 1050.4204,2486.3338 z"
         style="fill:#ffffff"
         id="Wed" />
      <path
         d="M 1062.2174,2482.0148 L 1059.2514,2482.0148 L 1059.2514,2479.9288 L 1067.6924,2479.9288 L 1067.6924,2482.0148 L 1064.6944,2482.0148 L 1064.6944,2490.9128 L 1062.2164,2490.9128 L 1062.2164,2482.0148 L 1062.2174,2482.0148 z M 1068.4314,2479.3428 L 1070.9084,2479.3428 L 1070.9084,2483.9058 L 1070.9414,2483.9058 C 1071.2024,2483.5468 1071.5284,2483.2698 1071.9194,2483.0748 C 1072.2944,2482.8788 1072.7504,2482.7648 1073.2064,2482.7648 C 1074.7874,2482.7648 1075.9934,2483.8568 1075.9934,2486.2688 L 1075.9934,2490.9138 L 1073.5154,2490.9138 L 1073.5154,2486.5298 C 1073.5154,2485.4868 1073.1574,2484.7698 1072.2284,2484.7698 C 1071.5774,2484.7698 1071.1684,2485.1928 1070.9904,2485.6498 C 1070.9254,2485.7958 1070.9084,2486.0078 1070.9084,2486.1878 L 1070.9084,2490.9138 L 1068.4314,2490.9138 L 1068.4314,2479.3428 L 1068.4314,2479.3428 z M 1084.9764,2488.3548 C 1084.9764,2489.3978 1085.0084,2490.2458 1085.0414,2490.9138 L 1082.8904,2490.9138 L 1082.7764,2489.7888 L 1082.7274,2489.7888 C 1082.4174,2490.2778 1081.6674,2491.0928 1080.2344,2491.0928 C 1078.6044,2491.0928 1077.4314,2490.0828 1077.4314,2487.6218 L 1077.4314,2482.9448 L 1079.9084,2482.9448 L 1079.9084,2487.2308 C 1079.9084,2488.3878 1080.2834,2489.0888 1081.1634,2489.0888 C 1081.8484,2489.0888 1082.2554,2488.6158 1082.4014,2488.2248 C 1082.4664,2488.0788 1082.4994,2487.8988 1082.4994,2487.6868 L 1082.4994,2482.9448 L 1084.9774,2482.9448 L 1084.9774,2488.3548 L 1084.9764,2488.3548 z"
         style="fill:#ffffff"
         id="Thu" />
      <path
         d="M 1098.7704,2479.9288 L 1105.4684,2479.9288 L 1105.4684,2481.9658 L 1101.2474,2481.9658 L 1101.2474,2484.4758 L 1105.1904,2484.4758 L 1105.1904,2486.4968 L 1101.2474,2486.4968 L 1101.2474,2490.9138 L 1098.7694,2490.9138 L 1098.7694,2479.9288 L 1098.7704,2479.9288 z M 1106.3584,2485.5678 C 1106.3584,2484.3948 1106.3414,2483.6288 1106.2934,2482.9438 L 1108.4114,2482.9438 L 1108.5094,2484.4268 L 1108.5744,2484.4268 C 1108.9814,2483.2538 1109.9434,2482.7638 1110.7254,2482.7638 C 1110.9544,2482.7638 1111.0674,2482.7808 1111.2464,2482.8128 L 1111.2464,2485.1428 C 1111.0344,2485.1098 1110.8394,2485.0778 1110.5614,2485.0778 C 1109.6484,2485.0778 1109.0294,2485.5508 1108.8674,2486.3328 C 1108.8344,2486.4958 1108.8174,2486.6748 1108.8174,2486.8868 L 1108.8174,2490.9118 L 1106.3404,2490.9118 L 1106.3584,2485.5678 z M 1113.2134,2481.9008 C 1112.3824,2481.9008 1111.8454,2481.3138 1111.8454,2480.5808 C 1111.8454,2479.8308 1112.3994,2479.2608 1113.2464,2479.2608 C 1114.0934,2479.2608 1114.6154,2479.8308 1114.6314,2480.5808 C 1114.6314,2481.3138 1114.0944,2481.9008 1113.2304,2481.9008 L 1113.2134,2481.9008 z M 1111.9924,2490.9128 L 1111.9924,2482.9438 L 1114.4694,2482.9438 L 1114.4694,2490.9128 L 1111.9924,2490.9128 z"
         style="fill:#ffffff"
         id="Fri" />
    </g>
    <g
       style="display:inline"
       id="date"
       inkscape:label="#g13953"
       transform="translate(-879.0207,-2303.9436)">
      <path
         style="fill:#ffffff"
         id="date_1"
         d="M 919.8126,2519.1453 L 919.7686,2519.1453 L 917.0436,2520.4413 L 916.4936,2517.9363 L 920.2956,2516.1783 L 923.0426,2516.1783 L 923.0426,2530.4603 L 919.8126,2530.4603 L 919.8126,2519.1453 z"
         inkscape:label="#path13272" />
      <path
         style="fill:#ffffff"
         id="date_2"
         d="M 953.1756,2530.4613 L 953.1756,2528.4403 L 954.9986,2526.7923 C 958.1406,2523.9803 959.6566,2522.3753 959.6796,2520.7063 C 959.6796,2519.5413 958.9976,2518.6193 957.3496,2518.6193 C 956.1196,2518.6193 955.0426,2519.2343 954.2956,2519.7843 L 953.3516,2517.4113 C 954.4066,2516.5983 956.0976,2515.9393 958.0096,2515.9393 C 961.2616,2515.9393 963.0196,2517.8293 963.0196,2520.4213 C 963.0196,2522.8163 961.3046,2524.7283 959.2176,2526.5733 L 957.8996,2527.6723 L 957.8996,2527.7163 L 963.3046,2527.7163 L 963.3046,2530.4633 L 953.1756,2530.4633 L 953.1756,2530.4613 z"
         inkscape:label="#path13282" />
      <path
         style="fill:#ffffff"
         id="date_3"
         d="M 992.3276,2527.1873 C 992.9216,2527.5173 994.2836,2528.0663 995.6456,2528.0663 C 997.3816,2528.0663 998.2606,2527.2313 998.2606,2526.1763 C 998.2606,2524.7483 996.8546,2524.1113 995.4036,2524.1113 L 994.0426,2524.1113 L 994.0426,2521.7163 L 995.3386,2521.7163 C 996.4586,2521.7163 997.8646,2521.2773 997.8646,2520.0683 C 997.8646,2519.2113 997.1836,2518.5743 995.7556,2518.5743 C 994.5916,2518.5743 993.3606,2519.0793 992.7896,2519.4313 L 992.1086,2517.0143 C 992.9646,2516.4653 994.6576,2515.9373 996.5246,2515.9373 C 999.5566,2515.9373 1001.2496,2517.5413 1001.2496,2519.4973 C 1001.2496,2521.0133 1000.3926,2522.2223 998.6346,2522.8153 L 998.6346,2522.8593 C 1000.3486,2523.1673 1001.7326,2524.4633 1001.7326,2526.3533 C 1001.7326,2528.8583 999.5136,2530.7043 995.8886,2530.7043 C 994.0426,2530.7043 992.4826,2530.2213 991.6476,2529.7153 L 992.3276,2527.1873 z"
         inkscape:label="#path13292" />
      <path
         style="fill:#ffffff"
         id="date_4"
         d="M 1031.9976,2530.4613 L 1031.9976,2527.0553 L 1025.6696,2527.0553 L 1025.6696,2524.8803 L 1031.0526,2516.1793 L 1035.1616,2516.1793 L 1035.1616,2524.5513 L 1036.8526,2524.5513 L 1036.8526,2527.0563 L 1035.1616,2527.0563 L 1035.1616,2530.4623 L 1031.9976,2530.4623 L 1031.9976,2530.4613 z M 1031.9976,2524.5513 L 1031.9976,2521.3873 C 1031.9976,2520.5303 1032.0406,2519.6513 1032.0856,2518.7283 L 1032.0196,2518.7283 C 1031.5586,2519.6513 1031.1626,2520.4863 1030.6796,2521.3873 L 1028.7886,2524.5073 L 1028.7676,2524.5513 L 1031.9976,2524.5513 z"
         inkscape:label="#path13302" />
      <path
         inkscape:label="#path13312"
         style="fill:#ffffff"
         id="date_5"
         d="M 1069.7045,2518.9263 L 1064.1676,2518.9263 L 1063.8595,2521.1013 C 1064.1676,2521.0793 1064.4305,2521.0573 1064.7825,2521.0573 C 1066.1445,2521.0573 1067.5515,2521.3653 1068.5405,2522.0903 C 1069.6165,2522.8153 1070.2755,2524.0023 1070.2755,2525.6943 C 1070.2755,2528.3533 1067.9905,2530.7043 1064.1455,2530.7043 C 1062.4095,2530.7043 1060.9586,2530.3083 1060.1676,2529.8913 L 1060.7825,2527.3863 C 1061.3975,2527.6943 1062.6935,2528.0893 1063.9905,2528.0893 C 1065.3755,2528.0893 1066.8465,2527.4303 1066.8465,2525.9143 C 1066.8465,2524.4203 1065.6816,2523.5193 1062.8255,2523.5193 C 1062.0345,2523.5193 1061.4845,2523.5633 1060.9135,2523.6513 L 1061.8365,2516.1803 L 1069.7025,2516.1803 L 1069.7025,2518.9263 L 1069.7045,2518.9263 z" />
      <path
         inkscape:label="#path13252"
         style="fill:#ffffff;fill-opacity:1"
         id="date_6"
         d="M 1100.2747,2518.5543 C 1099.9017,2518.5323 1099.5057,2518.5543 1098.9787,2518.5983 C 1096.0127,2518.8183 1094.6947,2520.3563 1094.3207,2522.0043 L 1094.3858,2522.0043 C 1095.0888,2521.3013 1096.1007,2520.8833 1097.4187,2520.8833 C 1099.8137,2520.8833 1101.8347,2522.5753 1101.8347,2525.5413 C 1101.8347,2528.3753 1099.6587,2530.7053 1096.5827,2530.7053 C 1092.7607,2530.7053 1090.8927,2527.8713 1090.8927,2524.4653 C 1090.8927,2521.7843 1091.8817,2519.5433 1093.4417,2518.0933 C 1094.8478,2516.7973 1096.7157,2516.1153 1098.9347,2516.0063 C 1099.5497,2515.9403 1099.9677,2515.9623 1100.2747,2515.9843 L 1100.2747,2518.5543 L 1100.2747,2518.5543 z M 1096.5397,2528.2443 C 1097.7037,2528.2443 1098.4507,2527.1673 1098.4507,2525.7173 C 1098.4507,2524.3993 1097.7477,2523.2563 1096.3188,2523.2563 C 1095.4187,2523.2563 1094.6717,2523.8053 1094.3637,2524.5083 C 1094.2547,2524.7063 1094.2097,2524.9693 1094.2097,2525.3653 C 1094.2758,2526.8813 1095.0007,2528.2433 1096.5177,2528.2433 L 1096.5397,2528.2433 L 1096.5397,2528.2443 z" />
      <path
         inkscape:label="#path13356"
         style="fill:#ffffff;fill-opacity:1"
         id="date_7"
         d="M 1131.9207,2515.3272 L 1131.9207,2517.4142 L 1126.0317,2529.6092 L 1122.4947,2529.6092 L 1128.3837,2518.1172 L 1128.3837,2518.0732 L 1121.8347,2518.0732 L 1121.8347,2515.3262 L 1131.9207,2515.3262 L 1131.9207,2515.3272 z" />
      <path
         inkscape:label="#path13366"
         style="fill:#ffffff"
         id="date_8"
         d="M 1157.4357,2515.0852 C 1160.7757,2515.0852 1162.1597,2517.0192 1162.1597,2518.7542 C 1162.1597,2519.9842 1161.5007,2521.1932 1160.0727,2521.8962 L 1160.0727,2521.9622 C 1161.4787,2522.4892 1162.7097,2523.6762 1162.7097,2525.5002 C 1162.7097,2528.0932 1160.5337,2529.8512 1157.2157,2529.8512 C 1153.5907,2529.8512 1151.9207,2527.8082 1151.9207,2525.8742 C 1151.9207,2524.1602 1152.9087,2522.9742 1154.4697,2522.2922 L 1154.4697,2522.2482 C 1153.0847,2521.5232 1152.4047,2520.3582 1152.4047,2519.1062 C 1152.4047,2516.6892 1154.5797,2515.0852 1157.4147,2515.0852 L 1157.4357,2515.0852 L 1157.4357,2515.0852 z M 1157.3687,2527.5442 C 1158.5327,2527.5442 1159.3237,2526.7752 1159.3237,2525.7642 C 1159.3237,2524.5122 1158.3797,2523.7642 1157.0837,2523.4132 C 1155.9837,2523.7212 1155.3477,2524.5122 1155.3477,2525.5442 C 1155.3267,2526.5772 1156.1177,2527.5442 1157.3477,2527.5442 L 1157.3687,2527.5442 z M 1157.3247,2517.3482 C 1156.1817,2517.3482 1155.6107,2518.1172 1155.6107,2518.9962 C 1155.6107,2519.9632 1156.4677,2520.5782 1157.6107,2520.9302 C 1158.3797,2520.7102 1159.0597,2520.0072 1159.0597,2519.1282 C 1159.0597,2518.2272 1158.5547,2517.3482 1157.3467,2517.3482 L 1157.3247,2517.3482 z" />
      <path
         inkscape:label="#path13376"
         style="fill:#ffffff"
         id="date_9"
         d="M 1184.0047,2527.1922 C 1184.4437,2527.2582 1184.7957,2527.2362 1185.4557,2527.1922 C 1186.4877,2527.1482 1187.5197,2526.8402 1188.2897,2526.3132 C 1189.2347,2525.6982 1189.8507,2524.7532 1190.0917,2523.6762 L 1190.0477,2523.6542 C 1189.3887,2524.3132 1188.4657,2524.6872 1187.1477,2524.6872 C 1184.7307,2524.6872 1182.7097,2523.0172 1182.7097,2520.2272 C 1182.7097,2517.4372 1184.9507,2515.0852 1188.0937,2515.0852 C 1191.7627,2515.0852 1193.4977,2517.8972 1193.4977,2521.2372 C 1193.4977,2524.2252 1192.5537,2526.3792 1191.0157,2527.8072 C 1189.6537,2529.0592 1187.7637,2529.7192 1185.5227,2529.8072 C 1184.9727,2529.8512 1184.4027,2529.8292 1184.0057,2529.8072 L 1184.0057,2527.1922 L 1184.0047,2527.1922 z M 1187.9817,2517.5242 C 1186.8617,2517.5242 1186.0257,2518.5352 1186.0257,2520.0292 C 1186.0257,2521.2592 1186.7077,2522.3142 1188.0467,2522.3142 C 1188.9917,2522.3142 1189.6077,2521.8972 1189.9377,2521.3912 C 1190.0467,2521.1712 1190.0907,2520.9522 1190.0907,2520.5342 C 1190.1127,2519.0182 1189.5197,2517.5242 1188.0037,2517.5242 L 1187.9817,2517.5242 z" />
      <path
         inkscape:label="#path13386"
         d="M 1216.8167,2518.2932 L 1216.7727,2518.2932 L 1214.0477,2519.5892 L 1213.4977,2517.0842 L 1217.2997,2515.3262 L 1220.0467,2515.3262 L 1220.0467,2529.6082 L 1216.8167,2529.6082 L 1216.8167,2518.2932 z M 1227.6557,2529.8512 C 1223.9647,2529.8512 1222.3387,2526.5332 1222.3167,2522.4902 C 1222.3167,2518.3372 1224.0517,2515.0852 1227.7437,2515.0852 C 1231.5457,2515.0852 1233.0607,2518.4912 1233.0607,2522.4022 C 1233.0607,2526.7972 1231.2817,2529.8512 1227.6777,2529.8512 L 1227.6557,2529.8512 z M 1227.6987,2527.3242 C 1228.9957,2527.3242 1229.6987,2525.6982 1229.6987,2522.4462 C 1229.6987,2519.2822 1229.0167,2517.6122 1227.6777,2517.6122 C 1226.4247,2517.6122 1225.6337,2519.2162 1225.6337,2522.4462 C 1225.6117,2525.7422 1226.4027,2527.3242 1227.6777,2527.3242 L 1227.6987,2527.3242 z"
         style="fill:#ffffff"
         id="date_10" />
      <path
         inkscape:label="#path13398"
         d="M 1256.3797,2518.2932 L 1256.3357,2518.2932 L 1253.6107,2519.5892 L 1253.0607,2517.0842 L 1256.8627,2515.3262 L 1259.6097,2515.3262 L 1259.6097,2529.6082 L 1256.3797,2529.6082 L 1256.3797,2518.2932 z M 1265.2917,2518.2932 L 1265.2477,2518.2932 L 1262.5227,2519.5892 L 1261.9727,2517.0842 L 1265.7747,2515.3262 L 1268.5217,2515.3262 L 1268.5217,2529.6082 L 1265.2917,2529.6082 L 1265.2917,2518.2932 z"
         style="fill:#ffffff"
         id="date_11" />
      <path
         id="date_12"
         style="fill:#ffffff"
         d="M 1291.8397,2518.2932 L 1291.7957,2518.2932 L 1289.0707,2519.5892 L 1288.5217,2517.0842 L 1292.3227,2515.3262 L 1295.0687,2515.3262 L 1295.0687,2529.6082 L 1291.8397,2529.6082 L 1291.8397,2518.2932 z M 1297.1937,2529.6092 L 1297.1937,2527.5882 L 1299.0177,2525.9402 C 1302.1607,2523.1282 1303.6757,2521.5232 1303.6977,2519.8542 C 1303.6977,2518.6892 1303.0167,2517.7672 1301.3697,2517.7672 C 1300.1397,2517.7672 1299.0617,2518.3822 1298.3147,2518.9322 L 1297.3697,2516.5592 C 1298.4247,2515.7462 1300.1167,2515.0872 1302.0277,2515.0872 C 1305.2797,2515.0872 1307.0377,2516.9772 1307.0377,2519.5692 C 1307.0377,2521.9642 1305.3247,2523.8762 1303.2367,2525.7212 L 1301.9187,2526.8202 L 1301.9187,2526.8642 L 1307.3237,2526.8642 L 1307.3237,2529.6112 L 1297.1937,2529.6112 L 1297.1937,2529.6092 z"
         inkscape:label="#path13410" />
      <path
         inkscape:label="#path13344"
         d="M 1330.6427,2518.2952 L 1330.5987,2518.2952 L 1327.8737,2519.5912 L 1327.3237,2517.0862 L 1331.1257,2515.3282 L 1333.8727,2515.3282 L 1333.8727,2529.6102 L 1330.6427,2529.6102 L 1330.6427,2518.2952 z M 1336.5737,2526.3372 C 1337.1667,2526.6672 1338.5287,2527.2162 1339.8907,2527.2162 C 1341.6257,2527.2162 1342.5047,2526.3812 1342.5047,2525.3262 C 1342.5047,2523.8982 1341.0987,2523.2612 1339.6497,2523.2612 L 1338.2867,2523.2612 L 1338.2867,2520.8662 L 1339.5837,2520.8662 C 1340.7047,2520.8662 1342.1107,2520.4272 1342.1107,2519.2182 C 1342.1107,2518.3612 1341.4287,2517.7242 1340.0017,2517.7242 C 1338.8367,2517.7242 1337.6057,2518.2292 1337.0347,2518.5812 L 1336.3527,2516.1642 C 1337.2097,2515.6152 1338.9017,2515.0872 1340.7697,2515.0872 C 1343.8017,2515.0872 1345.4937,2516.6912 1345.4937,2518.6472 C 1345.4937,2520.1632 1344.6377,2521.3722 1342.8797,2521.9652 L 1342.8797,2522.0092 C 1344.5937,2522.3172 1345.9787,2523.6132 1345.9787,2525.5032 C 1345.9787,2528.0082 1343.7587,2529.8542 1340.1327,2529.8542 C 1338.2867,2529.8542 1336.7277,2529.3712 1335.8927,2528.8652 L 1336.5737,2526.3372 z"
         style="fill:#ffffff;fill-opacity:1"
         id="date_13" />
      <path
         inkscape:label="#path13469"
         d="M 1369.2977,2518.1731 L 1369.2537,2518.1731 L 1366.5287,2519.4691 L 1365.9787,2516.9641 L 1369.7807,2515.2061 L 1372.5277,2515.2061 L 1372.5277,2529.4881 L 1369.2977,2529.4881 L 1369.2977,2518.1731 z M 1380.5497,2529.4891 L 1380.5497,2526.0831 L 1374.2217,2526.0831 L 1374.2217,2523.9081 L 1379.6057,2515.2071 L 1383.7137,2515.2071 L 1383.7137,2523.5791 L 1385.4057,2523.5791 L 1385.4057,2526.0841 L 1383.7137,2526.0841 L 1383.7137,2529.4901 L 1380.5497,2529.4901 L 1380.5497,2529.4891 z M 1380.5497,2523.5781 L 1380.5497,2520.4141 C 1380.5497,2519.5571 1380.5947,2518.6781 1380.6377,2517.7551 L 1380.5727,2517.7551 C 1380.1107,2518.6781 1379.7167,2519.5131 1379.2317,2520.4141 L 1377.3427,2523.5341 L 1377.3207,2523.5781 L 1380.5497,2523.5781 z"
         style="fill:#ffffff;fill-opacity:1"
         id="date_14" />
      <path
         inkscape:label="#path13481"
         d="M 1408.7237,2518.1731 L 1408.6797,2518.1731 L 1405.9547,2519.4691 L 1405.4057,2516.9641 L 1409.2067,2515.2061 L 1411.9527,2515.2061 L 1411.9527,2529.4881 L 1408.7237,2529.4881 L 1408.7237,2518.1731 z M 1423.6497,2517.9531 L 1418.1127,2517.9531 L 1417.8047,2520.1281 C 1418.1127,2520.1061 1418.3757,2520.0841 1418.7277,2520.0841 C 1420.0897,2520.0841 1421.4967,2520.3921 1422.4847,2521.1171 C 1423.5617,2521.8421 1424.2207,2523.0291 1424.2207,2524.7211 C 1424.2207,2527.3801 1421.9357,2529.7311 1418.0897,2529.7311 C 1416.3547,2529.7311 1414.9037,2529.3351 1414.1127,2528.9181 L 1414.7277,2526.4131 C 1415.3427,2526.7211 1416.6397,2527.1161 1417.9357,2527.1161 C 1419.3197,2527.1161 1420.7917,2526.4571 1420.7917,2524.9411 C 1420.7917,2523.4471 1419.6277,2522.5461 1416.7707,2522.5461 C 1415.9797,2522.5461 1415.4307,2522.5901 1414.8597,2522.6781 L 1415.7827,2515.2071 L 1423.6487,2515.2071 L 1423.6487,2517.9531 L 1423.6497,2517.9531 z"
         style="fill:#ffffff"
         id="date_15" />
      <path
         inkscape:label="#path13493"
         d="M 1447.5387,2518.1731 L 1447.4947,2518.1731 L 1444.7697,2519.4691 L 1444.2207,2516.9641 L 1448.0217,2515.2061 L 1450.7677,2515.2061 L 1450.7677,2529.4881 L 1447.5387,2529.4881 L 1447.5387,2518.1731 z M 1462.2717,2517.5801 C 1461.8977,2517.5581 1461.5017,2517.5801 1460.9747,2517.6241 C 1458.0077,2517.8441 1456.6897,2519.3821 1456.3167,2521.0301 L 1456.3827,2521.0301 C 1457.0857,2520.3271 1458.0957,2519.9091 1459.4137,2519.9091 C 1461.8097,2519.9091 1463.8307,2521.6011 1463.8307,2524.5671 C 1463.8307,2527.4011 1461.6557,2529.7311 1458.5797,2529.7311 C 1454.7557,2529.7311 1452.8887,2526.8971 1452.8887,2523.4911 C 1452.8887,2520.8101 1453.8767,2518.5691 1455.4377,2517.1191 C 1456.8437,2515.8231 1458.7107,2515.1411 1460.9307,2515.0321 C 1461.5457,2514.9661 1461.9627,2514.9881 1462.2717,2515.0101 L 1462.2717,2517.5801 L 1462.2717,2517.5801 z M 1458.5357,2527.2701 C 1459.7007,2527.2701 1460.4477,2526.1931 1460.4477,2524.7431 C 1460.4477,2523.4251 1459.7447,2522.2821 1458.3167,2522.2821 C 1457.4157,2522.2821 1456.6687,2522.8311 1456.3607,2523.5341 C 1456.2507,2523.7321 1456.2077,2523.9951 1456.2077,2524.3911 C 1456.2727,2525.9071 1456.9987,2527.2691 1458.5147,2527.2691 L 1458.5357,2527.2691 L 1458.5357,2527.2701 z"
         style="fill:#ffffff"
         id="date_16" />
      <path
         inkscape:label="#path13505"
         d="M 1487.1497,2518.1731 L 1487.1057,2518.1731 L 1484.3807,2519.4691 L 1483.8307,2516.9641 L 1487.6327,2515.2061 L 1490.3797,2515.2061 L 1490.3797,2529.4881 L 1487.1497,2529.4881 L 1487.1497,2518.1731 z M 1502.5517,2515.2071 L 1502.5517,2517.2941 L 1496.6627,2529.4891 L 1493.1247,2529.4891 L 1499.0137,2517.9971 L 1499.0137,2517.9531 L 1492.4667,2517.9531 L 1492.4667,2515.2061 L 1502.5517,2515.2061 L 1502.5517,2515.2071 z"
         style="fill:#ffffff"
         id="date_17" />
      <path
         inkscape:label="#path13517"
         d="M 1525.8707,2518.1731 L 1525.8267,2518.1731 L 1523.1017,2519.4691 L 1522.5517,2516.9641 L 1526.3537,2515.2061 L 1529.1007,2515.2061 L 1529.1007,2529.4881 L 1525.8707,2529.4881 L 1525.8707,2518.1731 z M 1536.8007,2514.9651 C 1540.1407,2514.9651 1541.5247,2516.8991 1541.5247,2518.6341 C 1541.5247,2519.8641 1540.8657,2521.0731 1539.4377,2521.7761 L 1539.4377,2521.8421 C 1540.8437,2522.3691 1542.0747,2523.5561 1542.0747,2525.3801 C 1542.0747,2527.9731 1539.8987,2529.7311 1536.5807,2529.7311 C 1532.9557,2529.7311 1531.2857,2527.6881 1531.2857,2525.7541 C 1531.2857,2524.0401 1532.2737,2522.8541 1533.8347,2522.1721 L 1533.8347,2522.1281 C 1532.4497,2521.4031 1531.7697,2520.2381 1531.7697,2518.9861 C 1531.7697,2516.5691 1533.9447,2514.9651 1536.7797,2514.9651 L 1536.8007,2514.9651 L 1536.8007,2514.9651 z M 1536.7347,2527.4241 C 1537.8987,2527.4241 1538.6897,2526.6551 1538.6897,2525.6441 C 1538.6897,2524.3921 1537.7457,2523.6441 1536.4497,2523.2931 C 1535.3497,2523.6011 1534.7137,2524.3921 1534.7137,2525.4241 C 1534.6927,2526.4571 1535.4837,2527.4241 1536.7137,2527.4241 L 1536.7347,2527.4241 z M 1536.6907,2517.2281 C 1535.5477,2517.2281 1534.9767,2517.9971 1534.9767,2518.8761 C 1534.9767,2519.8431 1535.8337,2520.4581 1536.9767,2520.8101 C 1537.7457,2520.5901 1538.4257,2519.8871 1538.4257,2519.0081 C 1538.4257,2518.1071 1537.9207,2517.2281 1536.7127,2517.2281 L 1536.6907,2517.2281 z"
         style="fill:#ffffff"
         id="date_18" />
      <path
         inkscape:label="#path13529"
         d="M 1565.3927,2518.1731 L 1565.3487,2518.1731 L 1562.6237,2519.4691 L 1562.0747,2516.9641 L 1565.8757,2515.2061 L 1568.6217,2515.2061 L 1568.6217,2529.4881 L 1565.3927,2529.4881 L 1565.3927,2518.1731 z M 1571.9947,2527.0721 C 1572.4337,2527.1381 1572.7857,2527.1161 1573.4457,2527.0721 C 1574.4777,2527.0281 1575.5097,2526.7201 1576.2797,2526.1931 C 1577.2247,2525.5781 1577.8407,2524.6331 1578.0817,2523.5561 L 1578.0377,2523.5341 C 1577.3787,2524.1931 1576.4557,2524.5671 1575.1377,2524.5671 C 1572.7207,2524.5671 1570.6997,2522.8971 1570.6997,2520.1071 C 1570.6997,2517.3171 1572.9407,2514.9651 1576.0837,2514.9651 C 1579.7527,2514.9651 1581.4877,2517.7771 1581.4877,2521.1171 C 1581.4877,2524.1051 1580.5437,2526.2591 1579.0057,2527.6871 C 1577.6437,2528.9391 1575.7537,2529.5991 1573.5127,2529.6871 C 1572.9627,2529.7311 1572.3927,2529.7091 1571.9957,2529.6871 L 1571.9957,2527.0721 L 1571.9947,2527.0721 z M 1575.9727,2517.4041 C 1574.8527,2517.4041 1574.0167,2518.4151 1574.0167,2519.9091 C 1574.0167,2521.1391 1574.6987,2522.1941 1576.0377,2522.1941 C 1576.9827,2522.1941 1577.5987,2521.7771 1577.9287,2521.2711 C 1578.0377,2521.0511 1578.0817,2520.8321 1578.0817,2520.4141 C 1578.1037,2518.8981 1577.5107,2517.4041 1575.9947,2517.4041 L 1575.9727,2517.4041 z"
         style="fill:#ffffff"
         id="date_19" />
      <path
         inkscape:label="#path13457"
         d="M 1601.4877,2529.4911 L 1601.4877,2527.4701 L 1603.3107,2525.8221 C 1606.4527,2523.0101 1607.9687,2521.4051 1607.9917,2519.7361 C 1607.9917,2518.5711 1607.3097,2517.6491 1605.6617,2517.6491 C 1604.4317,2517.6491 1603.3547,2518.2641 1602.6077,2518.8141 L 1601.6637,2516.4411 C 1602.7187,2515.6281 1604.4097,2514.9691 1606.3217,2514.9691 C 1609.5737,2514.9691 1611.3317,2516.8591 1611.3317,2519.4511 C 1611.3317,2521.8461 1609.6167,2523.7581 1607.5297,2525.6031 L 1606.2117,2526.7021 L 1606.2117,2526.7461 L 1611.6167,2526.7461 L 1611.6167,2529.4931 L 1601.4877,2529.4931 L 1601.4877,2529.4911 z M 1617.4617,2529.7331 C 1613.7707,2529.7331 1612.1447,2526.4151 1612.1227,2522.3721 C 1612.1227,2518.2191 1613.8577,2514.9671 1617.5497,2514.9671 C 1621.3517,2514.9671 1622.8667,2518.3731 1622.8667,2522.2841 C 1622.8667,2526.6791 1621.0877,2529.7331 1617.4837,2529.7331 L 1617.4617,2529.7331 z M 1617.5057,2527.2061 C 1618.8027,2527.2061 1619.5057,2525.5801 1619.5057,2522.3281 C 1619.5057,2519.1641 1618.8237,2517.4941 1617.4847,2517.4941 C 1616.2317,2517.4941 1615.4407,2519.0981 1615.4407,2522.3281 C 1615.4187,2525.6241 1616.2097,2527.2061 1617.4847,2527.2061 L 1617.5057,2527.2061 z"
         style="fill:#ffffff;fill-opacity:1"
         id="date_20" />
      <path
         inkscape:label="#path13541"
         d="M 1642.8667,2529.4921 L 1642.8667,2527.4711 L 1644.6907,2525.8231 C 1647.8337,2523.0111 1649.3487,2521.4061 1649.3707,2519.7371 C 1649.3707,2518.5721 1648.6898,2517.6501 1647.0428,2517.6501 C 1645.8127,2517.6501 1644.7348,2518.2651 1643.9877,2518.8151 L 1643.0428,2516.4421 C 1644.0978,2515.6291 1645.7898,2514.9701 1647.7008,2514.9701 C 1650.9528,2514.9701 1652.7107,2516.8601 1652.7107,2519.4521 C 1652.7107,2521.8471 1650.9977,2523.7591 1648.9097,2525.6041 L 1647.5918,2526.7031 L 1647.5918,2526.7471 L 1652.9967,2526.7471 L 1652.9967,2529.4941 L 1642.8667,2529.4941 L 1642.8667,2529.4921 z M 1657.0708,2518.1761 L 1657.0268,2518.1761 L 1654.3018,2519.4721 L 1653.7528,2516.9671 L 1657.5538,2515.2091 L 1660.2997,2515.2091 L 1660.2997,2529.4911 L 1657.0708,2529.4911 L 1657.0708,2518.1761 z"
         style="fill:#ffffff;fill-opacity:1"
         id="date_21" />
      <path
         inkscape:label="#path13553"
         d="M 1680.2997,2529.4921 L 1680.2997,2527.4711 L 1682.1236,2525.8231 C 1685.2666,2523.0111 1686.7817,2521.4061 1686.8037,2519.7371 C 1686.8037,2518.5721 1686.1227,2517.6501 1684.4756,2517.6501 C 1683.2457,2517.6501 1682.1676,2518.2651 1681.4206,2518.8151 L 1680.4756,2516.4421 C 1681.5307,2515.6291 1683.2227,2514.9701 1685.1337,2514.9701 C 1688.3857,2514.9701 1690.1436,2516.8601 1690.1436,2519.4521 C 1690.1436,2521.8471 1688.4307,2523.7591 1686.3426,2525.6041 L 1685.0246,2526.7031 L 1685.0246,2526.7471 L 1690.4296,2526.7471 L 1690.4296,2529.4941 L 1680.2997,2529.4941 L 1680.2997,2529.4921 z M 1691.0416,2529.4921 L 1691.0416,2527.4711 L 1692.8657,2525.8231 C 1696.0087,2523.0111 1697.5236,2521.4061 1697.5456,2519.7371 C 1697.5456,2518.5721 1696.8646,2517.6501 1695.2176,2517.6501 C 1693.9876,2517.6501 1692.9096,2518.2651 1692.1627,2518.8151 L 1691.2176,2516.4421 C 1692.2727,2515.6291 1693.9646,2514.9701 1695.8756,2514.9701 C 1699.1276,2514.9701 1700.8857,2516.8601 1700.8857,2519.4521 C 1700.8857,2521.8471 1699.1726,2523.7591 1697.0847,2525.6041 L 1695.7666,2526.7031 L 1695.7666,2526.7471 L 1701.1717,2526.7471 L 1701.1717,2529.4941 L 1691.0416,2529.4941 L 1691.0416,2529.4921 z"
         style="fill:#ffffff;fill-opacity:1"
         id="date_22" />
      <path
         inkscape:label="#path13565"
         d="M 1721.1717,2529.4921 L 1721.1717,2527.4711 L 1722.9948,2525.8231 C 1726.1367,2523.0111 1727.6528,2521.4061 1727.6758,2519.7371 C 1727.6758,2518.5721 1726.9937,2517.6501 1725.3458,2517.6501 C 1724.1158,2517.6501 1723.0388,2518.2651 1722.2917,2518.8151 L 1721.3478,2516.4421 C 1722.4028,2515.6291 1724.0937,2514.9701 1726.0058,2514.9701 C 1729.2578,2514.9701 1731.0157,2516.8601 1731.0157,2519.4521 C 1731.0157,2521.8471 1729.3007,2523.7591 1727.2137,2525.6041 L 1725.8957,2526.7031 L 1725.8957,2526.7471 L 1731.3007,2526.7471 L 1731.3007,2529.4941 L 1721.1717,2529.4941 L 1721.1717,2529.4921 z M 1732.5438,2526.2181 C 1733.1367,2526.5481 1734.4988,2527.0971 1735.8608,2527.0971 C 1737.5958,2527.0971 1738.4748,2526.2621 1738.4748,2525.2071 C 1738.4748,2523.7791 1737.0688,2523.1421 1735.6198,2523.1421 L 1734.2567,2523.1421 L 1734.2567,2520.7471 L 1735.5537,2520.7471 C 1736.6747,2520.7471 1738.0807,2520.3081 1738.0807,2519.0991 C 1738.0807,2518.2421 1737.3988,2517.6051 1735.9717,2517.6051 C 1734.8068,2517.6051 1733.5758,2518.1101 1733.0047,2518.4621 L 1732.3227,2516.0451 C 1733.1798,2515.4961 1734.8718,2514.9681 1736.7398,2514.9681 C 1739.7717,2514.9681 1741.4637,2516.5721 1741.4637,2518.5281 C 1741.4637,2520.0441 1740.6077,2521.2531 1738.8498,2521.8461 L 1738.8498,2521.8901 C 1740.5638,2522.1981 1741.9487,2523.4941 1741.9487,2525.3841 C 1741.9487,2527.8891 1739.7288,2529.7351 1736.1027,2529.7351 C 1734.2567,2529.7351 1732.6978,2529.2521 1731.8628,2528.7461 L 1732.5438,2526.2181 z"
         style="fill:#ffffff"
         id="date_23" />
      <path
         inkscape:label="#path13577"
         d="M 1761.9487,2529.4921 L 1761.9487,2527.4711 L 1763.7727,2525.8231 C 1766.9157,2523.0111 1768.4307,2521.4061 1768.4527,2519.7371 C 1768.4527,2518.5721 1767.7718,2517.6501 1766.1248,2517.6501 C 1764.8948,2517.6501 1763.8168,2518.2651 1763.0697,2518.8151 L 1762.1248,2516.4421 C 1763.1797,2515.6291 1764.8718,2514.9701 1766.7828,2514.9701 C 1770.0348,2514.9701 1771.7927,2516.8601 1771.7927,2519.4521 C 1771.7927,2521.8471 1770.0798,2523.7591 1767.9917,2525.6041 L 1766.6738,2526.7031 L 1766.6738,2526.7471 L 1772.0787,2526.7471 L 1772.0787,2529.4941 L 1761.9487,2529.4941 L 1761.9487,2529.4921 z M 1778.6048,2529.4921 L 1778.6048,2526.0861 L 1772.2768,2526.0861 L 1772.2768,2523.9111 L 1777.6598,2515.2101 L 1781.7687,2515.2101 L 1781.7687,2523.5821 L 1783.4597,2523.5821 L 1783.4597,2526.0871 L 1781.7687,2526.0871 L 1781.7687,2529.4931 L 1778.6048,2529.4931 L 1778.6048,2529.4921 z M 1778.6048,2523.5811 L 1778.6048,2520.4171 C 1778.6048,2519.5601 1778.6477,2518.6811 1778.6927,2517.7581 L 1778.6268,2517.7581 C 1778.1657,2518.6811 1777.7698,2519.5161 1777.2867,2520.4171 L 1775.3957,2523.5371 L 1775.3748,2523.5811 L 1778.6048,2523.5811 z"
         style="fill:#ffffff"
         id="date_24" />
      <path
         inkscape:label="#path13589"
         d="M 1803.4597,2529.4921 L 1803.4597,2527.4711 L 1805.2827,2525.8231 C 1808.4248,2523.0111 1809.9408,2521.4061 1809.9637,2519.7371 C 1809.9637,2518.5721 1809.2818,2517.6501 1807.6337,2517.6501 C 1806.4037,2517.6501 1805.3268,2518.2651 1804.5797,2518.8151 L 1803.6357,2516.4421 C 1804.6908,2515.6291 1806.3817,2514.9701 1808.2937,2514.9701 C 1811.5458,2514.9701 1813.3037,2516.8601 1813.3037,2519.4521 C 1813.3037,2521.8471 1811.5887,2523.7591 1809.5017,2525.6041 L 1808.1838,2526.7031 L 1808.1838,2526.7471 L 1813.5887,2526.7471 L 1813.5887,2529.4941 L 1803.4597,2529.4941 L 1803.4597,2529.4921 z M 1823.7268,2517.9561 L 1818.1897,2517.9561 L 1817.8817,2520.1311 C 1818.1897,2520.1091 1818.4527,2520.0871 1818.8048,2520.0871 C 1820.1668,2520.0871 1821.5737,2520.3951 1822.5627,2521.1201 C 1823.6387,2521.8451 1824.2978,2523.0321 1824.2978,2524.7241 C 1824.2978,2527.3831 1822.0127,2529.7341 1818.1677,2529.7341 C 1816.4318,2529.7341 1814.9808,2529.3381 1814.1897,2528.9211 L 1814.8048,2526.4161 C 1815.4197,2526.7241 1816.7158,2527.1191 1818.0127,2527.1191 C 1819.3978,2527.1191 1820.8688,2526.4601 1820.8688,2524.9441 C 1820.8688,2523.4501 1819.7038,2522.5491 1816.8477,2522.5491 C 1816.0568,2522.5491 1815.5067,2522.5931 1814.9358,2522.6811 L 1815.8587,2515.2101 L 1823.7248,2515.2101 L 1823.7248,2517.9561 L 1823.7268,2517.9561 z"
         style="fill:#ffffff"
         id="date_25" />
      <path
         inkscape:label="#path13601"
         d="M 1844.2978,2529.4921 L 1844.2978,2527.4711 L 1846.1209,2525.8231 C 1849.2629,2523.0111 1850.7789,2521.4061 1850.8018,2519.7371 C 1850.8018,2518.5721 1850.1198,2517.6501 1848.4718,2517.6501 C 1847.2418,2517.6501 1846.1649,2518.2651 1845.4179,2518.8151 L 1844.4738,2516.4421 C 1845.5289,2515.6291 1847.2198,2514.9701 1849.1319,2514.9701 C 1852.3838,2514.9701 1854.1418,2516.8601 1854.1418,2519.4521 C 1854.1418,2521.8471 1852.4269,2523.7591 1850.3398,2525.6041 L 1849.0219,2526.7031 L 1849.0219,2526.7471 L 1854.4269,2526.7471 L 1854.4269,2529.4941 L 1844.2978,2529.4941 L 1844.2978,2529.4921 z M 1864.0969,2517.5831 C 1863.7238,2517.5611 1863.3279,2517.5831 1862.8009,2517.6271 C 1859.8348,2517.8471 1858.5168,2519.3851 1858.1429,2521.0331 L 1858.2079,2521.0331 C 1858.9109,2520.3301 1859.9228,2519.9121 1861.2409,2519.9121 C 1863.6359,2519.9121 1865.6569,2521.6041 1865.6569,2524.5701 C 1865.6569,2527.4041 1863.4808,2529.7341 1860.4048,2529.7341 C 1856.5828,2529.7341 1854.7148,2526.9001 1854.7148,2523.4941 C 1854.7148,2520.8131 1855.7038,2518.5721 1857.2638,2517.1221 C 1858.6699,2515.8261 1860.5379,2515.1441 1862.7569,2515.0351 C 1863.3718,2514.9691 1863.7899,2514.9911 1864.0969,2515.0131 L 1864.0969,2517.5831 L 1864.0969,2517.5831 z M 1860.3618,2527.2731 C 1861.5258,2527.2731 1862.2728,2526.1961 1862.2728,2524.7461 C 1862.2728,2523.4281 1861.5698,2522.2851 1860.1409,2522.2851 C 1859.2409,2522.2851 1858.4938,2522.8341 1858.1859,2523.5371 C 1858.0768,2523.7351 1858.0318,2523.9981 1858.0318,2524.3941 C 1858.0979,2525.9101 1858.8228,2527.2721 1860.3398,2527.2721 L 1860.3618,2527.2721 L 1860.3618,2527.2731 z"
         style="fill:#ffffff"
         id="date_26" />
      <path
         inkscape:label="#path13613"
         d="M 1885.6569,2529.4941 L 1885.6569,2527.4731 L 1887.4808,2525.8251 C 1890.6239,2523.0131 1892.1389,2521.4081 1892.1609,2519.7391 C 1892.1609,2518.5741 1891.4798,2517.6521 1889.8329,2517.6521 C 1888.6029,2517.6521 1887.5249,2518.2671 1886.7778,2518.8171 L 1885.8329,2516.4441 C 1886.8878,2515.6311 1888.5798,2514.9721 1890.4908,2514.9721 C 1893.7428,2514.9721 1895.5009,2516.8621 1895.5009,2519.4541 C 1895.5009,2521.8491 1893.7878,2523.7611 1891.6998,2525.6061 L 1890.3819,2526.7051 L 1890.3819,2526.7491 L 1895.7868,2526.7491 L 1895.7868,2529.4961 L 1885.6569,2529.4961 L 1885.6569,2529.4941 z M 1906.3509,2515.2121 L 1906.3509,2517.2991 L 1900.4618,2529.4941 L 1896.9238,2529.4941 L 1902.8129,2518.0021 L 1902.8129,2517.9581 L 1896.2659,2517.9581 L 1896.2659,2515.2111 L 1906.3509,2515.2111 L 1906.3509,2515.2121 z"
         style="fill:#ffffff"
         id="date_27" />
      <path
         inkscape:label="#path13625"
         d="M 1926.3509,2530.9344 L 1926.3509,2528.9134 L 1928.1739,2527.2654 C 1931.3159,2524.4534 1932.8319,2522.8484 1932.8549,2521.1794 C 1932.8549,2520.0144 1932.1729,2519.0924 1930.5249,2519.0924 C 1929.2949,2519.0924 1928.2179,2519.7074 1927.4709,2520.2574 L 1926.5269,2517.8844 C 1927.5819,2517.0714 1929.2729,2516.4124 1931.1849,2516.4124 C 1934.4369,2516.4124 1936.1949,2518.3024 1936.1949,2520.8944 C 1936.1949,2523.2894 1934.4799,2525.2014 1932.3929,2527.0464 L 1931.0749,2528.1454 L 1931.0749,2528.1894 L 1936.4799,2528.1894 L 1936.4799,2530.9364 L 1926.3509,2530.9364 L 1926.3509,2530.9344 z M 1942.4899,2516.4104 C 1945.8299,2516.4104 1947.2139,2518.3444 1947.2139,2520.0794 C 1947.2139,2521.3094 1946.5549,2522.5184 1945.1269,2523.2214 L 1945.1269,2523.2874 C 1946.5329,2523.8144 1947.7639,2525.0014 1947.7639,2526.8254 C 1947.7639,2529.4184 1945.5879,2531.1764 1942.2699,2531.1764 C 1938.6449,2531.1764 1936.9749,2529.1334 1936.9749,2527.1994 C 1936.9749,2525.4854 1937.9629,2524.2994 1939.5239,2523.6174 L 1939.5239,2523.5734 C 1938.1389,2522.8484 1937.4589,2521.6834 1937.4589,2520.4314 C 1937.4589,2518.0144 1939.6339,2516.4104 1942.4689,2516.4104 L 1942.4899,2516.4104 L 1942.4899,2516.4104 z M 1942.4229,2528.8694 C 1943.5869,2528.8694 1944.3779,2528.1004 1944.3779,2527.0894 C 1944.3779,2525.8374 1943.4339,2525.0894 1942.1379,2524.7384 C 1941.0379,2525.0464 1940.4019,2525.8374 1940.4019,2526.8694 C 1940.3809,2527.9024 1941.1719,2528.8694 1942.4019,2528.8694 L 1942.4229,2528.8694 z M 1942.3789,2518.6734 C 1941.2359,2518.6734 1940.6649,2519.4424 1940.6649,2520.3214 C 1940.6649,2521.2884 1941.5219,2521.9034 1942.6649,2522.2554 C 1943.4339,2522.0354 1944.1139,2521.3324 1944.1139,2520.4534 C 1944.1139,2519.5524 1943.6089,2518.6734 1942.4009,2518.6734 L 1942.3789,2518.6734 z"
         style="fill:#ffffff"
         id="date_28" />
      <path
         inkscape:label="#path13637"
         d="M 1967.7639,2530.9344 L 1967.7639,2528.9134 L 1969.5879,2527.2654 C 1972.7309,2524.4534 1974.2459,2522.8484 1974.2679,2521.1794 C 1974.2679,2520.0144 1973.5869,2519.0924 1971.9399,2519.0924 C 1970.7099,2519.0924 1969.6319,2519.7074 1968.8849,2520.2574 L 1967.9399,2517.8844 C 1968.9949,2517.0714 1970.6869,2516.4124 1972.5979,2516.4124 C 1975.8499,2516.4124 1977.6079,2518.3024 1977.6079,2520.8944 C 1977.6079,2523.2894 1975.8949,2525.2014 1973.8069,2527.0464 L 1972.4889,2528.1454 L 1972.4889,2528.1894 L 1977.8939,2528.1894 L 1977.8939,2530.9364 L 1967.7639,2530.9364 L 1967.7639,2530.9344 z M 1979.5409,2528.5174 C 1979.9799,2528.5834 1980.3319,2528.5614 1980.9919,2528.5174 C 1982.0239,2528.4734 1983.0559,2528.1654 1983.8259,2527.6384 C 1984.7709,2527.0234 1985.3869,2526.0784 1985.6279,2525.0014 L 1985.5839,2524.9794 C 1984.9249,2525.6384 1984.0019,2526.0124 1982.6839,2526.0124 C 1980.2669,2526.0124 1978.2459,2524.3424 1978.2459,2521.5524 C 1978.2459,2518.7624 1980.4869,2516.4104 1983.6299,2516.4104 C 1987.2989,2516.4104 1989.0339,2519.2224 1989.0339,2522.5624 C 1989.0339,2525.5504 1988.0899,2527.7044 1986.5519,2529.1324 C 1985.1899,2530.3844 1983.2999,2531.0444 1981.0589,2531.1324 C 1980.5089,2531.1764 1979.9389,2531.1544 1979.5419,2531.1324 L 1979.5419,2528.5174 L 1979.5409,2528.5174 z M 1983.5179,2518.8494 C 1982.3979,2518.8494 1981.5619,2519.8604 1981.5619,2521.3544 C 1981.5619,2522.5844 1982.2439,2523.6394 1983.5829,2523.6394 C 1984.5279,2523.6394 1985.1439,2523.2224 1985.4739,2522.7164 C 1985.5829,2522.4964 1985.6269,2522.2774 1985.6269,2521.8594 C 1985.6489,2520.3434 1985.0559,2518.8494 1983.5399,2518.8494 L 1983.5179,2518.8494 z"
         style="fill:#ffffff"
         id="date_29" />
      <path
         inkscape:label="#path13649"
         d="M 2009.7149,2527.6604 C 2010.3079,2527.9904 2011.6699,2528.5394 2013.0319,2528.5394 C 2014.7669,2528.5394 2015.6459,2527.7044 2015.6459,2526.6494 C 2015.6459,2525.2214 2014.2399,2524.5844 2012.7909,2524.5844 L 2011.4279,2524.5844 L 2011.4279,2522.1894 L 2012.7249,2522.1894 C 2013.8459,2522.1894 2015.2519,2521.7504 2015.2519,2520.5414 C 2015.2519,2519.6844 2014.5699,2519.0474 2013.1429,2519.0474 C 2011.9779,2519.0474 2010.7469,2519.5524 2010.1759,2519.9044 L 2009.4939,2517.4874 C 2010.3509,2516.9384 2012.0429,2516.4104 2013.9109,2516.4104 C 2016.9429,2516.4104 2018.6349,2518.0144 2018.6349,2519.9704 C 2018.6349,2521.4864 2017.7789,2522.6954 2016.0209,2523.2884 L 2016.0209,2523.3324 C 2017.7349,2523.6404 2019.1199,2524.9364 2019.1199,2526.8264 C 2019.1199,2529.3314 2016.8999,2531.1774 2013.2739,2531.1774 C 2011.4279,2531.1774 2009.8689,2530.6944 2009.0339,2530.1884 L 2009.7149,2527.6604 z M 2025.0389,2531.1764 C 2021.3479,2531.1764 2019.7219,2527.8584 2019.6999,2523.8154 C 2019.6999,2519.6624 2021.4349,2516.4104 2025.1269,2516.4104 C 2028.9289,2516.4104 2030.4439,2519.8164 2030.4439,2523.7274 C 2030.4439,2528.1224 2028.6649,2531.1764 2025.0609,2531.1764 L 2025.0389,2531.1764 z M 2025.0829,2528.6494 C 2026.3799,2528.6494 2027.0829,2527.0234 2027.0829,2523.7714 C 2027.0829,2520.6074 2026.4009,2518.9374 2025.0619,2518.9374 C 2023.8089,2518.9374 2023.0179,2520.5414 2023.0179,2523.7714 C 2022.9959,2527.0674 2023.7869,2528.6494 2025.0619,2528.6494 L 2025.0829,2528.6494 z"
         style="fill:#ffffff"
         id="date_30" />
      <path
         inkscape:label="#path13661"
         d="M 2051.1239,2527.6604 C 2051.7179,2527.9904 2053.0799,2528.5394 2054.4419,2528.5394 C 2056.1779,2528.5394 2057.0569,2527.7044 2057.0569,2526.6494 C 2057.0569,2525.2214 2055.6509,2524.5844 2054.1999,2524.5844 L 2052.8389,2524.5844 L 2052.8389,2522.1894 L 2054.1349,2522.1894 C 2055.2549,2522.1894 2056.6609,2521.7504 2056.6609,2520.5414 C 2056.6609,2519.6844 2055.9799,2519.0474 2054.5519,2519.0474 C 2053.3879,2519.0474 2052.1569,2519.5524 2051.5859,2519.9044 L 2050.9049,2517.4874 C 2051.7609,2516.9384 2053.4539,2516.4104 2055.3209,2516.4104 C 2058.3529,2516.4104 2060.0459,2518.0144 2060.0459,2519.9704 C 2060.0459,2521.4864 2059.1889,2522.6954 2057.4309,2523.2884 L 2057.4309,2523.3324 C 2059.1449,2523.6404 2060.5289,2524.9364 2060.5289,2526.8264 C 2060.5289,2529.3314 2058.3099,2531.1774 2054.6849,2531.1774 C 2052.8389,2531.1774 2051.2789,2530.6944 2050.4439,2530.1884 L 2051.1239,2527.6604 z M 2064.6549,2519.6184 L 2064.6109,2519.6184 L 2061.8859,2520.9144 L 2061.3359,2518.4094 L 2065.1379,2516.6514 L 2067.8849,2516.6514 L 2067.8849,2530.9334 L 2064.6549,2530.9334 L 2064.6549,2519.6184 z"
         style="fill:#ffffff"
         id="date_31" />
    </g>
    <g
       style="display:inline"
       id="month"
       inkscape:label="#g13930"
       transform="translate(-871.0207,-2303.9436)">
      <path
         d="M 988.20326,2416.8716 L 1002.7883,2416.8716 L 1002.7883,2421.2966 L 993.61926,2421.2966 L 993.61926,2426.7476 L 1002.1863,2426.7476 L 1002.1863,2431.1376 L 993.61926,2431.1376 L 993.61926,2440.7316 L 988.20326,2440.7316 L 988.20326,2416.8716 z M 1009.3013,2433.7936 C 1009.4783,2436.0236 1011.6733,2437.0856 1014.1863,2437.0856 C 1016.0273,2437.0856 1017.5143,2436.8376 1018.9653,2436.3776 L 1019.6733,2440.0236 C 1017.9023,2440.7316 1015.7433,2441.1216 1013.4073,2441.1216 C 1007.5313,2441.1216 1004.1673,2437.6876 1004.1673,2432.2706 C 1004.1673,2427.8806 1006.8933,2423.0316 1012.9113,2423.0316 C 1018.5043,2423.0316 1020.6282,2427.3856 1020.6282,2431.6696 C 1020.6282,2432.5896 1020.5222,2433.4036 1020.4512,2433.7936 L 1009.3013,2433.7936 z M 1015.6383,2430.1116 C 1015.6383,2428.8016 1015.0723,2426.6066 1012.5943,2426.6066 C 1010.3283,2426.6066 1009.4073,2428.6606 1009.2663,2430.1116 L 1015.6383,2430.1116 z M 1023.0332,2415.5976 L 1028.4143,2415.5976 L 1028.4143,2425.4736 L 1028.4852,2425.4736 C 1029.5113,2423.9876 1031.3173,2423.0316 1033.7242,2423.0316 C 1037.8663,2423.0316 1040.9103,2426.4656 1040.8743,2431.7756 C 1040.8743,2438.0056 1036.9093,2441.1216 1032.9443,2441.1216 C 1030.9262,2441.1216 1028.9792,2440.3776 1027.7403,2438.3246 L 1027.6693,2438.3246 L 1027.4573,2440.7316 L 1022.8903,2440.7316 C 1022.9613,2439.5986 1023.0322,2437.5096 1023.0322,2435.5636 L 1023.0322,2415.5976 L 1023.0332,2415.5976 z M 1028.4143,2433.3686 C 1028.4143,2433.7226 1028.4502,2434.0416 1028.5203,2434.3246 C 1028.8743,2435.7756 1030.1133,2436.8736 1031.6703,2436.8736 C 1033.9713,2436.8736 1035.3873,2435.1026 1035.3873,2431.9876 C 1035.3873,2429.2976 1034.1833,2427.1736 1031.6703,2427.1736 C 1030.2192,2427.1736 1028.8743,2428.2716 1028.5203,2429.8286 C 1028.4493,2430.1466 1028.4143,2430.4656 1028.4143,2430.8196 L 1028.4143,2433.3686 z"
         style="fill:#ffffff;fill-opacity:1"
         id="Feb" />
      <path
         d="M 1091.5856,2431.5986 C 1091.4796,2428.7306 1091.3736,2425.2626 1091.3736,2421.7926 L 1091.2667,2421.7926 C 1090.5237,2424.8376 1089.5327,2428.2356 1088.6117,2431.0326 L 1085.7087,2440.3426 L 1081.4957,2440.3426 L 1078.9467,2431.1386 C 1078.1687,2428.3066 1077.3537,2424.9086 1076.7876,2421.7926 L 1076.7167,2421.7926 C 1076.5747,2425.0146 1076.4687,2428.6956 1076.2917,2431.6696 L 1075.8666,2440.7316 L 1070.8746,2440.7316 L 1072.3966,2416.8716 L 1079.5837,2416.8716 L 1081.9197,2424.8366 C 1082.6636,2427.5626 1083.4067,2430.5706 1083.9377,2433.3676 L 1084.0437,2433.3676 C 1084.7167,2430.6066 1085.5306,2427.4556 1086.3096,2424.8006 L 1088.8587,2416.8706 L 1095.9036,2416.8706 L 1097.2136,2440.7306 L 1091.9397,2440.7306 L 1091.5856,2431.5986 z M 1114.7796,2436.5186 C 1114.7796,2438.1826 1114.8497,2439.7756 1115.0276,2440.7316 L 1110.1777,2440.7316 L 1109.8597,2438.9976 L 1109.7537,2438.9976 C 1108.6207,2440.3776 1106.8517,2441.1216 1104.7976,2441.1216 C 1101.2937,2441.1216 1099.2047,2438.5726 1099.2047,2435.8106 C 1099.2047,2431.3146 1103.2396,2429.1556 1109.3646,2429.1906 L 1109.3646,2428.9426 C 1109.3646,2428.0216 1108.8687,2426.7126 1106.2136,2426.7126 C 1104.4436,2426.7126 1102.5676,2427.3146 1101.4346,2428.0226 L 1100.4436,2424.5536 C 1101.6477,2423.8806 1104.0196,2423.0316 1107.1697,2423.0316 C 1112.9406,2423.0316 1114.7806,2426.4296 1114.7806,2430.5016 L 1114.7806,2436.5186 L 1114.7796,2436.5186 z M 1109.5406,2432.5536 C 1106.7087,2432.5186 1104.5137,2433.1916 1104.5137,2435.2796 C 1104.5137,2436.6596 1105.4346,2437.3326 1106.6377,2437.3326 C 1107.9836,2437.3326 1109.0807,2436.4476 1109.4346,2435.3506 C 1109.5057,2435.0676 1109.5406,2434.7486 1109.5406,2434.4306 L 1109.5406,2432.5536 z M 1118.0086,2429.1206 C 1118.0086,2426.5716 1117.9377,2424.9076 1117.8666,2423.4216 L 1122.5038,2423.4216 L 1122.6808,2426.6076 L 1122.8228,2426.6076 C 1123.7078,2424.0946 1125.8318,2423.0326 1127.4958,2423.0326 C 1127.9907,2423.0326 1128.2387,2423.0326 1128.6288,2423.1036 L 1128.6288,2428.2016 C 1128.2387,2428.0956 1127.7787,2428.0246 1127.1768,2428.0246 C 1125.1948,2428.0246 1123.8488,2429.0866 1123.4948,2430.7506 C 1123.4237,2431.1046 1123.3888,2431.5296 1123.3888,2431.9546 L 1123.3888,2440.7336 L 1118.0077,2440.7336 L 1118.0077,2429.1206 L 1118.0086,2429.1206 z"
         style="fill:#ffffff;fill-opacity:1"
         id="Mar" />
      <path
         d="M 1165.9208,2434.6076 L 1164.2217,2440.7316 L 1158.6288,2440.7316 L 1165.9208,2416.8716 L 1173.0007,2416.8716 L 1180.3998,2440.7316 L 1174.5938,2440.7316 L 1172.7528,2434.6076 L 1165.9208,2434.6076 z M 1171.9737,2430.5716 L 1170.4868,2425.5096 C 1170.0618,2424.0936 1169.6367,2422.3236 1169.2828,2420.9076 L 1169.2117,2420.9076 C 1168.8577,2422.3236 1168.5037,2424.1296 1168.1147,2425.5096 L 1166.6988,2430.5716 L 1171.9737,2430.5716 z M 1182.1588,2429.2266 C 1182.1588,2426.9606 1182.0877,2425.0136 1182.0168,2423.4206 L 1186.6898,2423.4206 L 1186.9378,2425.8276 L 1187.0087,2425.8276 C 1188.2828,2423.9866 1190.2658,2423.0306 1192.7797,2423.0306 C 1196.5677,2423.0306 1199.9658,2426.3226 1199.9658,2431.8446 C 1199.9658,2438.1466 1195.9658,2441.1196 1192.1067,2441.1196 C 1190.0178,2441.1196 1188.3898,2440.2696 1187.6108,2439.1376 L 1187.5407,2439.1376 L 1187.5407,2447.7396 L 1182.1598,2447.7396 L 1182.1598,2429.2266 L 1182.1588,2429.2266 z M 1187.5397,2433.2976 C 1187.5397,2433.7226 1187.5748,2434.1116 1187.6458,2434.4306 C 1187.9997,2435.8826 1189.2388,2436.9796 1190.7968,2436.9796 C 1193.1328,2436.9796 1194.5138,2435.0326 1194.5138,2432.0946 C 1194.5138,2429.3336 1193.2748,2427.2446 1190.8677,2427.2446 C 1189.3457,2427.2446 1188.0007,2428.3776 1187.6467,2429.9706 C 1187.5758,2430.2536 1187.5407,2430.6076 1187.5407,2430.9266 L 1187.5407,2433.2976 L 1187.5397,2433.2976 z M 1202.3757,2429.1206 C 1202.3757,2426.5716 1202.3048,2424.9076 1202.2337,2423.4216 L 1206.8708,2423.4216 L 1207.0477,2426.6076 L 1207.1898,2426.6076 C 1208.0748,2424.0946 1210.1988,2423.0326 1211.8628,2423.0326 C 1212.3577,2423.0326 1212.6057,2423.0326 1212.9958,2423.1036 L 1212.9958,2428.2016 C 1212.6057,2428.0956 1212.1458,2428.0246 1211.5438,2428.0246 C 1209.5618,2428.0246 1208.2158,2429.0866 1207.8618,2430.7506 C 1207.7907,2431.1046 1207.7558,2431.5296 1207.7558,2431.9546 L 1207.7558,2440.7336 L 1202.3747,2440.7336 L 1202.3747,2429.1206 L 1202.3757,2429.1206 z"
         style="fill:#ffffff;fill-opacity:1"
         id="Apr" />
      <path
         d="M 1263.7058,2431.5986 C 1263.5998,2428.7306 1263.4937,2425.2626 1263.4937,2421.7926 L 1263.3878,2421.7926 C 1262.6447,2424.8376 1261.6537,2428.2356 1260.7327,2431.0326 L 1257.8297,2440.3426 L 1253.6167,2440.3426 L 1251.0677,2431.1386 C 1250.2897,2428.3066 1249.4747,2424.9086 1248.9088,2421.7926 L 1248.8377,2421.7926 C 1248.6958,2425.0146 1248.5897,2428.6956 1248.4128,2431.6696 L 1247.9878,2440.7316 L 1242.9958,2440.7316 L 1244.5178,2416.8716 L 1251.7048,2416.8716 L 1254.0407,2424.8366 C 1254.7848,2427.5626 1255.5278,2430.5706 1256.0587,2433.3676 L 1256.1647,2433.3676 C 1256.8377,2430.6066 1257.6518,2427.4556 1258.4308,2424.8006 L 1260.9798,2416.8706 L 1268.0247,2416.8706 L 1269.3348,2440.7306 L 1264.0607,2440.7306 L 1263.7058,2431.5986 z M 1286.8998,2436.5186 C 1286.8998,2438.1826 1286.9698,2439.7756 1287.1477,2440.7316 L 1282.2977,2440.7316 L 1281.9798,2438.9976 L 1281.8738,2438.9976 C 1280.7407,2440.3776 1278.9717,2441.1216 1276.9177,2441.1216 C 1273.4137,2441.1216 1271.3248,2438.5726 1271.3248,2435.8106 C 1271.3248,2431.3146 1275.3597,2429.1556 1281.4847,2429.1906 L 1281.4847,2428.9426 C 1281.4847,2428.0216 1280.9888,2426.7126 1278.3338,2426.7126 C 1276.5638,2426.7126 1274.6878,2427.3146 1273.5548,2428.0226 L 1272.5638,2424.5536 C 1273.7678,2423.8806 1276.1398,2423.0316 1279.2897,2423.0316 C 1285.0607,2423.0316 1286.9008,2426.4296 1286.9008,2430.5016 L 1286.9008,2436.5186 L 1286.8998,2436.5186 z M 1281.6608,2432.5536 C 1278.8287,2432.5186 1276.6338,2433.1916 1276.6338,2435.2796 C 1276.6338,2436.6596 1277.5548,2437.3326 1278.7578,2437.3326 C 1280.1038,2437.3326 1281.2008,2436.4476 1281.5548,2435.3506 C 1281.6257,2435.0676 1281.6608,2434.7486 1281.6608,2434.4306 L 1281.6608,2432.5536 L 1281.6608,2432.5536 z M 1293.3638,2423.4216 L 1295.9478,2431.9176 C 1296.2307,2432.9436 1296.5848,2434.2186 1296.7977,2435.1386 L 1296.9037,2435.1386 C 1297.1518,2434.2186 1297.4347,2432.9086 1297.6818,2431.9176 L 1299.8058,2423.4216 L 1305.5767,2423.4216 L 1301.5417,2434.8196 C 1299.0627,2441.6876 1297.3988,2444.4486 1295.4527,2446.1836 C 1293.5767,2447.8116 1291.5938,2448.3786 1290.2488,2448.5556 L 1289.1157,2443.9896 C 1289.7878,2443.8836 1290.6377,2443.5646 1291.4517,2443.0696 C 1292.2658,2442.6446 1293.1508,2441.7956 1293.6818,2440.9096 C 1293.8588,2440.6616 1293.9647,2440.3786 1293.9647,2440.1316 C 1293.9647,2439.9546 1293.9298,2439.6716 1293.7168,2439.2466 L 1287.3808,2423.4226 L 1293.3638,2423.4226 L 1293.3638,2423.4216 z"
         style="fill:#ffffff;fill-opacity:1"
         id="May" />
      <path
         d="M 1342.6217,2416.8716 L 1348.0027,2416.8716 L 1348.0027,2431.9526 C 1348.0027,2438.7496 1344.7446,2441.1216 1339.5066,2441.1216 C 1338.2676,2441.1216 1336.6386,2440.9086 1335.5767,2440.5556 L 1336.1786,2436.2016 C 1336.9217,2436.4496 1337.8777,2436.6266 1338.9407,2436.6266 C 1341.2066,2436.6266 1342.6226,2435.6006 1342.6226,2431.8826 L 1342.6226,2416.8716 L 1342.6217,2416.8716 z M 1367.6706,2435.1736 C 1367.6706,2437.4396 1367.7406,2439.2796 1367.8116,2440.7316 L 1363.1396,2440.7316 L 1362.8917,2438.2896 L 1362.7856,2438.2896 C 1362.1127,2439.3516 1360.4846,2441.1216 1357.3696,2441.1216 C 1353.8647,2441.1216 1351.2807,2438.9266 1351.2807,2433.5806 L 1351.2807,2423.4206 L 1356.6966,2423.4206 L 1356.6966,2432.7306 C 1356.6966,2435.2436 1357.5107,2436.7666 1359.3867,2436.7666 C 1360.8737,2436.7666 1361.7237,2435.7406 1362.0767,2434.8906 C 1362.2186,2434.5716 1362.2536,2434.1466 1362.2536,2433.7226 L 1362.2536,2423.4216 L 1367.6706,2423.4216 L 1367.6706,2435.1736 z M 1371.0256,2428.9436 C 1371.0256,2426.7836 1370.9556,2424.9436 1370.8837,2423.4216 L 1375.5567,2423.4216 L 1375.8047,2425.7936 L 1375.9106,2425.7936 C 1376.6186,2424.6966 1378.3886,2423.0326 1381.2566,2423.0326 C 1384.7957,2423.0326 1387.4506,2425.3686 1387.4506,2430.4666 L 1387.4506,2440.7326 L 1382.0697,2440.7326 L 1382.0697,2431.1386 C 1382.0697,2428.9086 1381.2916,2427.3866 1379.3436,2427.3866 C 1377.8577,2427.3866 1376.9717,2428.4126 1376.6177,2429.4046 C 1376.4756,2429.7586 1376.4047,2430.2546 1376.4047,2430.7496 L 1376.4047,2440.7326 L 1371.0236,2440.7326 L 1371.0236,2428.9436 L 1371.0256,2428.9436 z"
         style="fill:#ffffff;fill-opacity:1"
         id="Jun" />
      <path
         d="M 1424.4956,2416.8716 L 1429.8765,2416.8716 L 1429.8765,2431.9526 C 1429.8765,2438.7496 1426.6185,2441.1216 1421.3806,2441.1216 C 1420.1416,2441.1216 1418.5126,2440.9086 1417.4506,2440.5556 L 1418.0526,2436.2016 C 1418.7956,2436.4496 1419.7515,2436.6266 1420.8145,2436.6266 C 1423.0805,2436.6266 1424.4966,2435.6006 1424.4966,2431.8826 L 1424.4966,2416.8716 L 1424.4956,2416.8716 z M 1449.5436,2435.1736 C 1449.5436,2437.4396 1449.6136,2439.2796 1449.6845,2440.7316 L 1445.0126,2440.7316 L 1444.7646,2438.2896 L 1444.6596,2438.2896 C 1443.9856,2439.3516 1442.3585,2441.1216 1439.2435,2441.1216 C 1435.7376,2441.1216 1433.1545,2438.9266 1433.1545,2433.5806 L 1433.1545,2423.4206 L 1438.5706,2423.4206 L 1438.5706,2432.7306 C 1438.5706,2435.2436 1439.3845,2436.7666 1441.2615,2436.7666 C 1442.7476,2436.7666 1443.5975,2435.7406 1443.9506,2434.8906 C 1444.0936,2434.5716 1444.1286,2434.1466 1444.1286,2433.7226 L 1444.1286,2423.4216 L 1449.5446,2423.4216 L 1449.5446,2435.1736 L 1449.5436,2435.1736 z M 1452.8916,2415.5976 L 1458.2725,2415.5976 L 1458.2725,2440.7316 L 1452.8916,2440.7316 L 1452.8916,2415.5976 L 1452.8916,2415.5976 z"
         style="fill:#ffffff;fill-opacity:1"
         id="Jul" />
      <path
         d="M 1495.5656,2434.6076 L 1493.8665,2440.7316 L 1488.2725,2440.7316 L 1495.5656,2416.8716 L 1502.6455,2416.8716 L 1510.0436,2440.7316 L 1504.2386,2440.7316 L 1502.3966,2434.6076 L 1495.5656,2434.6076 z M 1501.6185,2430.5716 L 1500.1326,2425.5096 C 1499.7086,2424.0936 1499.2825,2422.3236 1498.9296,2420.9076 L 1498.8595,2420.9076 C 1498.5046,2422.3236 1498.1506,2424.1296 1497.7615,2425.5096 L 1496.3456,2430.5716 L 1501.6185,2430.5716 z M 1527.8256,2435.1736 C 1527.8256,2437.4396 1527.8955,2439.2796 1527.9666,2440.7316 L 1523.2946,2440.7316 L 1523.0466,2438.2896 L 1522.9416,2438.2896 C 1522.2676,2439.3516 1520.6405,2441.1216 1517.5256,2441.1216 C 1514.0195,2441.1216 1511.4355,2438.9266 1511.4355,2433.5806 L 1511.4355,2423.4206 L 1516.8516,2423.4206 L 1516.8516,2432.7306 C 1516.8516,2435.2436 1517.6655,2436.7666 1519.5425,2436.7666 C 1521.0285,2436.7666 1521.8786,2435.7406 1522.2315,2434.8906 C 1522.3745,2434.5716 1522.4096,2434.1466 1522.4096,2433.7226 L 1522.4096,2423.4216 L 1527.8256,2423.4216 L 1527.8256,2435.1736 z M 1547.5985,2438.2176 C 1547.5985,2441.5456 1546.9265,2444.2716 1544.9796,2446.0056 C 1543.0675,2447.6346 1540.4836,2448.1296 1537.9345,2448.1296 C 1535.6686,2448.1296 1533.2625,2447.6696 1531.7046,2446.7846 L 1532.7666,2442.7136 C 1533.8646,2443.3506 1535.7745,2444.0236 1537.7936,2444.0236 C 1540.3426,2444.0236 1542.2876,2442.6436 1542.2876,2439.4576 L 1542.2876,2438.3246 L 1542.2176,2438.3246 C 1541.1925,2439.7756 1539.5285,2440.5906 1537.5456,2440.5906 C 1533.2625,2440.5906 1530.2176,2437.1216 1530.2176,2432.1296 C 1530.2176,2426.5716 1533.8285,2423.0316 1538.0765,2423.0316 C 1540.4476,2423.0316 1541.9335,2424.0576 1542.8185,2425.4736 L 1542.8905,2425.4736 L 1543.0666,2423.4206 L 1547.7405,2423.4206 C 1547.6686,2424.5176 1547.5975,2425.9696 1547.5975,2428.5536 L 1547.5975,2438.2176 L 1547.5985,2438.2176 z M 1542.2176,2430.4656 C 1542.2176,2430.1116 1542.1825,2429.7576 1542.1126,2429.4746 C 1541.7215,2428.0586 1540.6966,2427.1026 1539.2106,2427.1026 C 1537.2635,2427.1026 1535.6696,2428.8726 1535.6696,2432.0226 C 1535.6696,2434.6066 1536.9445,2436.6246 1539.2106,2436.6246 C 1540.5895,2436.6246 1541.6875,2435.7046 1542.0425,2434.4296 C 1542.1835,2434.0406 1542.2186,2433.4736 1542.2186,2433.0136 L 1542.2186,2430.4656 L 1542.2176,2430.4656 z"
         style="fill:#ffffff;fill-opacity:1"
         id="Aug" />
      <path
         d="M 1578.8395,2435.1736 C 1580.2905,2435.9166 1582.5215,2436.6596 1584.8215,2436.6596 C 1587.2985,2436.6596 1588.6085,2435.6336 1588.6085,2434.0756 C 1588.6085,2432.5886 1587.4755,2431.7396 1584.6085,2430.7126 C 1580.6434,2429.3326 1578.0595,2427.1376 1578.0595,2423.6686 C 1578.0595,2419.5976 1581.4574,2416.4826 1587.0865,2416.4826 C 1589.7754,2416.4826 1591.7585,2417.0486 1593.1744,2417.6856 L 1591.9715,2422.0396 C 1591.0164,2421.5796 1589.3174,2420.9066 1586.9794,2420.9066 C 1584.6434,2420.9066 1583.5105,2421.9686 1583.5105,2423.2076 C 1583.5105,2424.7296 1584.8565,2425.4026 1587.9365,2426.5706 C 1592.1494,2428.1286 1594.1314,2430.3226 1594.1314,2433.6856 C 1594.1314,2437.6856 1591.0514,2441.1206 1584.5025,2441.1206 C 1581.7754,2441.1206 1579.0844,2440.3766 1577.7405,2439.6336 L 1578.8395,2435.1736 z M 1600.7515,2433.7936 C 1600.9294,2436.0236 1603.1224,2437.0856 1605.6364,2437.0856 C 1607.4784,2437.0856 1608.9645,2436.8376 1610.4155,2436.3776 L 1611.1244,2440.0236 C 1609.3534,2440.7316 1607.1944,2441.1216 1604.8565,2441.1216 C 1598.9815,2441.1216 1595.6184,2437.6876 1595.6184,2432.2706 C 1595.6184,2427.8806 1598.3434,2423.0316 1604.3624,2423.0316 C 1609.9545,2423.0316 1612.0795,2427.3856 1612.0795,2431.6696 C 1612.0795,2432.5896 1611.9745,2433.4036 1611.9015,2433.7936 L 1600.7515,2433.7936 z M 1607.0874,2430.1116 C 1607.0874,2428.8016 1606.5215,2426.6066 1604.0444,2426.6066 C 1601.7785,2426.6066 1600.8565,2428.6606 1600.7165,2430.1116 L 1607.0874,2430.1116 z M 1614.4845,2429.2266 C 1614.4845,2426.9606 1614.4145,2425.0136 1614.3415,2423.4206 L 1619.0154,2423.4206 L 1619.2635,2425.8276 L 1619.3334,2425.8276 C 1620.6065,2423.9866 1622.5894,2423.0306 1625.1034,2423.0306 C 1628.8925,2423.0306 1632.2915,2426.3226 1632.2915,2431.8446 C 1632.2915,2438.1466 1628.2915,2441.1196 1624.4325,2441.1196 C 1622.3444,2441.1196 1620.7155,2440.2696 1619.9365,2439.1376 L 1619.8665,2439.1376 L 1619.8665,2447.7396 L 1614.4855,2447.7396 L 1614.4855,2429.2266 L 1614.4845,2429.2266 z M 1619.8655,2433.2976 C 1619.8655,2433.7226 1619.9004,2434.1116 1619.9705,2434.4306 C 1620.3244,2435.8826 1621.5644,2436.9796 1623.1205,2436.9796 C 1625.4584,2436.9796 1626.8374,2435.0326 1626.8374,2432.0946 C 1626.8374,2429.3336 1625.5995,2427.2446 1623.1924,2427.2446 C 1621.6694,2427.2446 1620.3234,2428.3776 1619.9694,2429.9706 C 1619.8995,2430.2536 1619.8644,2430.6076 1619.8644,2430.9266 L 1619.8644,2433.2976 L 1619.8655,2433.2976 z"
         style="fill:#ffffff;fill-opacity:1"
         id="Sep" />
      <path
         d="M 1685.2315,2428.5536 C 1685.2315,2436.3766 1680.4875,2441.1206 1673.5144,2441.1206 C 1666.4344,2441.1206 1662.2915,2435.7746 1662.2915,2428.9776 C 1662.2915,2421.8266 1666.8575,2416.4816 1673.9025,2416.4816 C 1681.2315,2416.4826 1685.2315,2421.9696 1685.2315,2428.5536 z M 1667.9915,2428.8726 C 1667.9915,2433.5456 1670.1865,2436.8376 1673.7985,2436.8376 C 1677.4445,2436.8376 1679.5324,2433.3686 1679.5324,2428.7306 C 1679.5324,2424.4476 1677.4794,2420.7656 1673.7625,2420.7656 C 1670.1165,2420.7656 1667.9915,2424.2346 1667.9915,2428.8726 z M 1700.7195,2440.3066 C 1699.7625,2440.7316 1697.9574,2441.1206 1695.9055,2441.1206 C 1690.3115,2441.1206 1686.7355,2437.6866 1686.7355,2432.2346 C 1686.7355,2427.1726 1690.2065,2423.0306 1696.6475,2423.0306 C 1698.0634,2423.0306 1699.6224,2423.2786 1700.7544,2423.7036 L 1699.9045,2427.7036 C 1699.2674,2427.4206 1698.3105,2427.1726 1696.8944,2427.1726 C 1694.0624,2427.1726 1692.2225,2429.1906 1692.2575,2432.0226 C 1692.2575,2435.2086 1694.3804,2436.8726 1697.0015,2436.8726 C 1698.2744,2436.8726 1699.2674,2436.6596 1700.0794,2436.3066 L 1700.7195,2440.3066 z M 1709.2705,2418.7126 L 1709.2705,2423.4206 L 1713.1294,2423.4206 L 1713.1294,2427.3856 L 1709.2705,2427.3856 L 1709.2705,2433.6516 C 1709.2705,2435.7406 1709.7665,2436.6956 1711.3955,2436.6956 C 1712.1375,2436.6956 1712.4564,2436.6596 1712.9875,2436.5536 L 1713.0225,2440.6246 C 1712.3155,2440.9076 1711.0405,2441.1206 1709.5185,2441.1206 C 1707.7845,2441.1206 1706.3324,2440.4826 1705.4835,2439.5986 C 1704.4915,2438.5726 1703.9954,2436.9086 1703.9954,2434.4656 L 1703.9954,2427.3856 L 1701.6945,2427.3856 L 1701.6945,2423.4206 L 1703.9954,2423.4206 L 1703.9954,2420.1636 L 1709.2705,2418.7126 z"
         style="fill:#ffffff;fill-opacity:1"
         id="Oct" />
      <path
         d="M 1743.1294,2440.7316 L 1743.1294,2416.8716 L 1749.4303,2416.8716 L 1754.3874,2425.6156 C 1755.8033,2428.1296 1757.2193,2431.1026 1758.2804,2433.7936 L 1758.3874,2433.7936 C 1758.0333,2430.6436 1757.9263,2427.4216 1757.9263,2423.8106 L 1757.9263,2416.8726 L 1762.8833,2416.8726 L 1762.8833,2440.7326 L 1757.2193,2440.7326 L 1752.1214,2431.5286 C 1750.7054,2428.9796 1749.1464,2425.8996 1747.9783,2423.1036 L 1747.8733,2423.1396 C 1748.0144,2426.2896 1748.0844,2429.6536 1748.0844,2433.5466 L 1748.0844,2440.7336 L 1743.1294,2440.7336 L 1743.1294,2440.7316 z M 1783.6053,2431.8816 C 1783.6053,2438.2176 1779.1094,2441.1216 1774.4724,2441.1216 C 1769.4103,2441.1216 1765.5154,2437.7936 1765.5154,2432.2006 C 1765.5154,2426.6066 1769.1974,2423.0316 1774.7554,2423.0316 C 1780.0664,2423.0316 1783.6053,2426.6776 1783.6053,2431.8816 z M 1771.0743,2432.0586 C 1771.0743,2435.0326 1772.3123,2437.2626 1774.6133,2437.2626 C 1776.7033,2437.2626 1778.0493,2435.1746 1778.0493,2432.0586 C 1778.0493,2429.4746 1777.0574,2426.8546 1774.6133,2426.8546 C 1772.0293,2426.8546 1771.0743,2429.5096 1771.0743,2432.0586 z M 1789.3323,2423.4216 L 1791.6703,2431.4576 C 1792.0943,2432.9096 1792.4123,2434.2896 1792.6604,2435.6696 L 1792.7674,2435.6696 C 1793.0504,2434.2536 1793.3333,2432.9436 1793.7224,2431.4576 L 1795.9523,2423.4216 L 1801.6163,2423.4216 L 1795.1734,2440.7326 L 1789.7923,2440.7326 L 1783.4913,2423.4216 L 1789.3323,2423.4216 L 1789.3323,2423.4216 z"
         style="fill:#ffffff;fill-opacity:1"
         id="Nov" />
      <path
         d="M 1831.6163,2417.1906 C 1833.5983,2416.8716 1836.1824,2416.6946 1838.9093,2416.6946 C 1843.4403,2416.6946 1846.3783,2417.5086 1848.6794,2419.2436 C 1851.1583,2421.0846 1852.7144,2424.0226 1852.7144,2428.2356 C 1852.7144,2432.8016 1851.0523,2435.9526 1848.7494,2437.8996 C 1846.2373,2439.9886 1842.4133,2440.9796 1837.7413,2440.9796 C 1834.9443,2440.9796 1832.9623,2440.8026 1831.6163,2440.6256 L 1831.6163,2417.1906 L 1831.6163,2417.1906 z M 1837.0323,2436.6606 C 1837.4933,2436.7666 1838.2353,2436.7666 1838.9093,2436.7666 C 1843.7944,2436.8016 1846.9794,2434.1116 1846.9794,2428.4126 C 1847.0143,2423.4566 1844.1123,2420.8366 1839.4754,2420.8366 C 1838.2704,2420.8366 1837.4933,2420.9426 1837.0323,2421.0486 L 1837.0323,2436.6606 z M 1859.2604,2433.7936 C 1859.4383,2436.0236 1861.6314,2437.0856 1864.1453,2437.0856 C 1865.9873,2437.0856 1867.4733,2436.8376 1868.9243,2436.3776 L 1869.6334,2440.0236 C 1867.8623,2440.7316 1865.7033,2441.1216 1863.3654,2441.1216 C 1857.4904,2441.1216 1854.1273,2437.6876 1854.1273,2432.2706 C 1854.1273,2427.8806 1856.8524,2423.0316 1862.8714,2423.0316 C 1868.4633,2423.0316 1870.5883,2427.3856 1870.5883,2431.6696 C 1870.5883,2432.5896 1870.4833,2433.4036 1870.4104,2433.7936 L 1859.2604,2433.7936 z M 1865.5964,2430.1116 C 1865.5964,2428.8016 1865.0303,2426.6066 1862.5533,2426.6066 C 1860.2874,2426.6066 1859.3654,2428.6606 1859.2254,2430.1116 L 1865.5964,2430.1116 z M 1886.0004,2440.3066 C 1885.0453,2440.7316 1883.2384,2441.1206 1881.1863,2441.1206 C 1875.5923,2441.1206 1872.0183,2437.6866 1872.0183,2432.2346 C 1872.0183,2427.1726 1875.4873,2423.0306 1881.9304,2423.0306 C 1883.3464,2423.0306 1884.9034,2423.2786 1886.0354,2423.7036 L 1885.1854,2427.7036 C 1884.5484,2427.4206 1883.5934,2427.1726 1882.1773,2427.1726 C 1879.3454,2427.1726 1877.5033,2429.1906 1877.5383,2432.0226 C 1877.5383,2435.2086 1879.6633,2436.8726 1882.2823,2436.8726 C 1883.5574,2436.8726 1884.5484,2436.6596 1885.3623,2436.3066 L 1886.0004,2440.3066 z"
         style="fill:#ffffff;fill-opacity:1"
         id="Dec" />
      <path
         d="M 915.48626,2416.8716 L 920.86726,2416.8716 L 920.86726,2431.9526 C 920.86726,2438.7496 917.61026,2441.1216 912.37126,2441.1216 C 911.13226,2441.1216 909.50326,2440.9086 908.44226,2440.5556 L 909.04426,2436.2016 C 909.78726,2436.4496 910.74326,2436.6266 911.80526,2436.6266 C 914.07126,2436.6266 915.48726,2435.6006 915.48726,2431.8826 L 915.48726,2416.8716 L 915.48626,2416.8716 z M 938.54926,2436.5186 C 938.54926,2438.1826 938.62026,2439.7756 938.79726,2440.7316 L 933.94726,2440.7316 L 933.62826,2438.9976 L 933.52226,2438.9976 C 932.38926,2440.3776 930.61926,2441.1216 928.56626,2441.1216 C 925.06126,2441.1216 922.97226,2438.5726 922.97226,2435.8106 C 922.97226,2431.3146 927.00826,2429.1556 933.13226,2429.1906 L 933.13226,2428.9426 C 933.13226,2428.0216 932.63626,2426.7126 929.98226,2426.7126 C 928.21126,2426.7126 926.33626,2427.3146 925.20326,2428.0226 L 924.21226,2424.5536 C 925.41626,2423.8806 927.78726,2423.0316 930.93826,2423.0316 C 936.70826,2423.0316 938.54926,2426.4296 938.54926,2430.5016 L 938.54926,2436.5186 z M 933.31026,2432.5536 C 930.47826,2432.5186 928.28426,2433.1916 928.28426,2435.2796 C 928.28426,2436.6596 929.20426,2437.3326 930.40826,2437.3326 C 931.75326,2437.3326 932.85026,2436.4476 933.20426,2435.3506 C 933.27526,2435.0676 933.31026,2434.7486 933.31026,2434.4306 L 933.31026,2432.5536 z M 941.77826,2428.9436 C 941.77826,2426.7836 941.70826,2424.9436 941.63626,2423.4216 L 946.30926,2423.4216 L 946.55726,2425.7936 L 946.66326,2425.7936 C 947.37126,2424.6966 949.14126,2423.0326 952.00826,2423.0326 C 955.54826,2423.0326 958.20326,2425.3686 958.20326,2430.4666 L 958.20326,2440.7326 L 952.82226,2440.7326 L 952.82226,2431.1386 C 952.82226,2428.9086 952.04426,2427.3866 950.09626,2427.3866 C 948.60926,2427.3866 947.72426,2428.4126 947.37026,2429.4046 C 947.22826,2429.7586 947.15726,2430.2546 947.15726,2430.7496 L 947.15726,2440.7326 L 941.77626,2440.7326 L 941.77626,2428.9436 L 941.77826,2428.9436 z"
         style="opacity:1;fill:#ffffff;fill-opacity:1"
         id="Jan" />
    </g>
    <g
       id="horizon_day"
       transform="translate(-67.142857,-2.1428571)">
      <path
         id="horizon_Mon"
         d="M 111.58337,252.2594 C 111.54736,251.47567 111.50218,250.53025 111.51135,249.70133 L 111.48452,249.70133 C 111.28612,250.44905 111.03406,251.26879 110.76363,252.03416 L 109.88105,254.66425 L 109.02601,254.66425 L 108.21545,252.07017 C 107.98103,251.29562 107.76498,250.4667 107.60329,249.70203 L 107.58564,249.70203 C 107.5581,250.50412 107.5228,251.46719 107.47761,252.29611 L 107.34275,254.73698 L 106.30696,254.73698 L 106.71224,248.66624 L 108.17167,248.66624 L 108.96458,251.1071 C 109.18064,251.81881 109.36986,252.539 109.52308,253.214 L 109.55061,253.214 C 109.7123,252.55665 109.91989,251.80963 110.15359,251.09792 L 110.99169,248.66624 L 112.43277,248.66624 L 112.78439,254.73698 L 111.7034,254.73698 L 111.58337,252.2594 z"
         style="fill:#ffffff"
         inkscape:label="#horizon_Mon " />
      <path
         id="horizon_Tue"
         d="M 130.65629,249.5933 L 128.92713,249.5933 L 128.92713,248.66624 L 133.51161,248.66624 L 133.51161,249.5933 L 131.7641,249.5933 L 131.7641,254.73627 L 130.65629,254.73627 L 130.65629,249.5933 L 130.65629,249.5933 z"
         style="fill:#ffffff"
         inkscape:label="#horizon_Tue  " />
      <path
         id="horizon_Wed"
         d="M 150.60331,254.73627 L 149.11704,248.66553 L 150.29687,248.66553 L 150.87302,251.4213 C 151.02624,252.15984 151.17027,252.93439 151.26983,253.53808 L 151.28748,253.53808 C 151.38633,252.89839 151.5579,252.17749 151.72877,251.41212 L 152.38612,248.66482 L 153.5483,248.66482 L 154.15198,251.4566 C 154.3052,252.17749 154.43159,252.8532 154.52126,253.50984 L 154.53891,253.50984 C 154.64694,252.84402 154.79097,252.14996 154.95337,251.41141 L 155.58388,248.66412 L 156.70935,248.66412 L 155.07905,254.73486 L 153.89003,254.73486 L 153.25952,251.87954 C 153.1063,251.18618 152.99828,250.60933 152.92626,249.95269 L 152.9086,249.95269 C 152.80058,250.60085 152.68337,251.18618 152.50332,251.87954 L 151.80079,254.73486 L 150.60331,254.73486 L 150.60331,254.73627 z"
         style="fill:#ffffff" />
      <path
         id="horizon_Thu"
         d="M 174.00863,249.5933 L 172.27948,249.5933 L 172.27948,248.66624 L 176.86395,248.66624 L 176.86395,249.5933 L 175.11644,249.5933 L 175.11644,254.73627 L 174.00863,254.73627 L 174.00863,249.5933 z"
         style="fill:#ffffff" />
      <path
         id="horizon_Fri"
         d="M 194.59464,248.66553 L 198.09813,248.66553 L 198.09813,249.57494 L 195.70245,249.57494 L 195.70245,251.25043 L 197.93644,251.25043 L 197.93644,252.15984 L 195.70245,252.15984 L 195.70245,254.73556 L 194.59464,254.73556 L 194.59464,248.66553 z"
         style="fill:#ffffff" />
      <path
         id="horizon_Sat"
         d="M 216.19879,253.52961 C 216.55888,253.73648 217.09902,253.91653 217.6667,253.91653 C 218.37841,253.91653 218.77451,253.58327 218.77451,253.08832 C 218.77451,252.62867 218.46808,252.35825 217.69353,252.07935 C 216.69374,251.71855 216.05475,251.18689 216.05475,250.31348 C 216.05475,249.32288 216.88296,248.56598 218.19836,248.56598 C 218.85571,248.56598 219.34219,248.71001 219.6578,248.87241 L 219.38737,249.76417 C 219.17132,249.64767 218.74768,249.47609 218.18071,249.47609 C 217.47818,249.47609 217.17174,249.85454 217.17174,250.20616 C 217.17174,250.67428 217.52336,250.89034 218.33393,251.20524 C 219.38808,251.60205 219.90139,252.13301 219.90139,253.00712 C 219.90139,253.98008 219.16285,254.83583 217.59538,254.83583 C 216.95569,254.83583 216.28916,254.64589 215.9559,254.4482 L 216.19879,253.52961 z"
         style="fill:#ffffff" />
      <path
         id="horizon_Sun"
         d="M 237.87425,253.52961 C 238.23505,253.73648 238.77519,253.91653 239.34287,253.91653 C 240.05458,253.91653 240.45068,253.58327 240.45068,253.08832 C 240.45068,252.62867 240.14425,252.35825 239.3697,252.07935 C 238.36991,251.71855 237.73022,251.18689 237.73022,250.31348 C 237.73022,249.32288 238.55913,248.56598 239.87383,248.56598 C 240.53117,248.56598 241.01765,248.71001 241.33256,248.87241 L 241.06284,249.76417 C 240.84678,249.64767 240.42314,249.47609 239.85617,249.47609 C 239.15364,249.47609 238.84721,249.85454 238.84721,250.20616 C 238.84721,250.67428 239.19883,250.89034 240.00939,251.20524 C 241.06354,251.60205 241.57685,252.13301 241.57685,253.00712 C 241.57685,253.98008 240.83831,254.83583 239.27085,254.83583 C 238.63115,254.83583 237.96463,254.64589 237.63137,254.4482 L 237.87425,253.52961 z"
         style="fill:#ffffff" />
    </g>
    <g
       id="year">
      <path
         d="m 42.42837,83.1743 0,-1.586 1.432,-1.293 c 2.466,-2.207 3.655,-3.466 3.672,-4.776 0,-0.914 -0.534,-1.638 -1.827,-1.638 -0.966,0 -1.811,0.482 -2.396,0.914 l -0.742,-1.862 c 0.828,-0.638 2.156,-1.155 3.656,-1.155 2.552,0 3.931,1.483 3.931,3.518 0,1.879 -1.345,3.379 -2.982,4.828 l -1.035,0.862 0,0.035 4.242,0 0,2.155 -7.951,0 0,0 z m 12.986,0.189 c -2.896,0 -4.173,-2.604 -4.189,-5.776 0,-3.259 1.362,-5.811 4.259,-5.811 2.982,0 4.173,2.673 4.173,5.742 0,3.448 -1.397,5.845 -4.225,5.845 l -0.018,0 0,0 z m 0.034,-1.982 c 1.018,0 1.569,-1.276 1.569,-3.828 0,-2.483 -0.534,-3.793 -1.586,-3.793 -0.983,0 -1.604,1.259 -1.604,3.793 -0.018,2.586 0.604,3.828 1.604,3.828 l 0.017,0 z m 7.646,-7.087 -0.034,0 -2.139,1.018 -0.431,-1.966 2.982,-1.379 2.155,0 0,11.208 -2.534,0 0,-8.881 10e-4,0 z m 8.965,9.069 c -2.896,0 -4.173,-2.604 -4.189,-5.776 0,-3.259 1.362,-5.811 4.259,-5.811 2.982,0 4.173,2.673 4.173,5.742 0,3.448 -1.397,5.845 -4.225,5.845 l -0.018,0 0,0 z m 0.034,-1.982 c 1.018,0 1.569,-1.276 1.569,-3.828 0,-2.483 -0.534,-3.793 -1.586,-3.793 -0.983,0 -1.604,1.259 -1.604,3.793 -0.018,2.586 0.604,3.828 1.604,3.828 l 0.017,0 z"
         style="fill:#ffffff"
         id="year_2010"
         inkscape:connector-curvature="0" />
      <path
         style="fill:#ffffff"
         d="m 86.23406,71.7763 c -1.5,0 -2.82825,0.51825 -3.65625,1.15625 l 0.71875,1.875 c 0.585,-0.432 1.44025,-0.9375 2.40625,-0.9375 1.293,0 1.84375,0.74225 1.84375,1.65625 -0.017,1.31 -1.2215,2.57425 -3.6875,4.78125 l -1.4375,1.28125 0,1.59375 7.96875,0 0,-2.15625 -4.25,0 0,-0.03125 1.03125,-0.875 c 1.637,-1.449 2.96875,-2.9335 2.96875,-4.8125 0,-2.035 -1.35425,-3.53125 -3.90625,-3.53125 z m 9.25,0 c -2.897,0 -4.25,2.5535 -4.25,5.8125 0.016,3.172 1.2915,5.78125 4.1875,5.78125 2.828,0 4.25,-2.39575 4.25,-5.84375 0,-3.069 -1.2055,-5.75 -4.1875,-5.75 z m 14.15625,0.125 -3,1.375 0.4375,1.96875 2.15625,-1.03125 0.0312,0 0,8.90625 2.53125,0 0,-11.21875 -2.15625,0 z m -6.15625,0.0625 -3,1.375 0.4375,1.96875 2.125,-1 0.0312,0 0,8.875 2.5625,0 0,-11.21875 -2.15625,0 z m -8.0625,1.78125 c 1.052,0 1.59375,1.3295 1.59375,3.8125 0,2.552 -0.5445,3.8125 -1.5625,3.8125 l -0.03125,0 c -1,0 -1.61175,-1.2265 -1.59375,-3.8125 0,-2.534 0.61075,-3.8125 1.59375,-3.8125 z"
         id="year_2011"
         inkscape:connector-curvature="0" />
      <path
         id="year_2012"
         style="fill:#ffffff"
         d="m 147.0264,71.4722 c -1.5,0 -2.8283,0.5183 -3.6563,1.1563 l 0.7188,1.875 c 0.585,-0.432 1.4402,-0.9375 2.4062,-0.9375 1.293,0 1.8438,0.7422 1.8438,1.6562 -0.017,1.31 -1.2215,2.5743 -3.6875,4.7813 l -1.4375,1.2812 0,1.5938 7.9687,0 0,-2.1563 -4.25,0 0,-0.031 1.0313,-0.875 c 1.6369,-1.449 2.9687,-2.9335 2.9687,-4.8125 0,-2.035 -1.3542,-3.5313 -3.9062,-3.5313 z m -14.8125,1.9683 c 1.052,0 1.5937,1.3295 1.5937,3.8125 0,2.552 -0.5445,3.8125 -1.5625,3.8125 l -0.031,0 c -1,0 -1.6118,-1.2265 -1.5938,-3.8125 0,-2.534 0.6108,-3.8125 1.5938,-3.8125 z m 0.062,-1.9683 c -2.897,0 -4.25005,2.5535 -4.25005,5.8125 0.016,3.172 1.29155,5.7813 4.18755,5.7813 2.828,0 4.25,-2.3958 4.25,-5.8438 0,-3.069 -1.2055,-5.75 -4.1875,-5.75 z m 8.0005,0.187 -3,1.375 0.4375,1.9688 2.125,-1 0.031,0 0,8.875 2.5625,0 0,-11.2188 -2.1562,0 z m -17.25005,-0.187 c -1.5,0 -2.82825,0.5183 -3.65625,1.1563 l 0.71875,1.875 c 0.585,-0.432 1.44025,-0.9375 2.40625,-0.9375 1.293,0 1.84375,0.7422 1.84375,1.6562 -0.017,1.31 -1.2215,2.5743 -3.6875,4.7813 l -1.4375,1.2812 0,1.5938 7.96875,0 0,-2.1563 -4.25,0 0,-0.031 1.03125,-0.875 c 1.637,-1.449 2.96875,-2.9335 2.96875,-4.8125 0,-2.035 -1.35425,-3.5313 -3.90625,-3.5313 z"
         inkscape:connector-curvature="0" />
      <path
         inkscape:label="#path13272"
         d="m 391.24919,74.022149 -0.0342,0 -2.11945,1.008002 -0.42778,-1.948337 2.95712,-1.367335 2.13656,0 0,11.108242 -2.51223,0 0,-8.800572 z"
         id="path3864"
         style="fill:#ffffff"
         inkscape:connector-curvature="0" />
      <path
         inkscape:label="#path13282"
         d="m 307.24883,82.915273 0,-1.571892 1.41789,-1.28178 c 2.44378,-2.187114 3.62289,-3.43545 3.64078,-4.733563 0,-0.906113 -0.53044,-1.623225 -1.81222,-1.623225 -0.95667,0 -1.79434,0.478334 -2.37534,0.906111 l -0.73422,-1.845669 c 0.82055,-0.632335 2.13578,-1.144892 3.62289,-1.144892 2.52934,0 3.89668,1.470004 3.89668,3.486007 0,1.862781 -1.3339,3.349895 -2.95712,4.784897 l -1.02511,0.854779 0,0.03423 4.20389,0 0,2.13656 -7.87812,0 0,0 z"
         id="path3866"
         style="fill:#ffffff"
         inkscape:connector-curvature="0" />
      <path
         inkscape:label="#path13292"
         d="m 338.55698,80.275878 c 0.462,0.256667 1.52134,0.683669 2.58068,0.683669 1.35022,0 2.03388,-0.649446 2.03388,-1.470004 0,-1.110668 -1.09355,-1.606113 -2.22211,-1.606113 l -1.05855,0 0,-1.862782 1.00799,0 c 0.87112,0 1.96467,-0.341445 1.96467,-1.28178 0,-0.666556 -0.52967,-1.162001 -1.64033,-1.162001 -0.90533,0 -1.86279,0.392778 -2.3069,0.666557 l -0.52967,-1.879893 c 0.66579,-0.427 1.98257,-0.837668 3.43468,-0.837668 2.35822,0 3.675,1.247557 3.675,2.768895 0,1.179113 -0.66655,2.119446 -2.03389,2.58067 l 0,0.03423 c 1.33311,0.239556 2.40956,1.247558 2.40956,2.717561 0,1.948337 -1.7259,3.384117 -4.54533,3.384117 -1.43578,0 -2.64912,-0.375666 -3.29857,-0.769223 l 0.52889,-1.966225 z"
         id="path3868"
         style="fill:#ffffff"
         inkscape:connector-curvature="0" />
      <path
         inkscape:label="#path13302"
         d="m 363.18524,82.822331 0,-2.649116 -4.92179,0 0,-1.691669 4.18679,-6.767456 3.19589,0 0,6.511566 1.31523,0 0,1.948337 -1.31523,0 0,2.649116 -2.46089,0 0,0 z m 0,-4.596675 0,-2.460893 c 0,-0.666557 0.0335,-1.350225 0.0685,-2.068114 l -0.0513,0 c -0.35856,0.717889 -0.66656,1.367335 -1.04222,2.068114 l -1.47079,2.426671 -0.0163,0.03423 2.51224,0 z"
         id="path3870"
         style="fill:#ffffff"
         inkscape:connector-curvature="0" />
      <path
         d="m 386.22365,73.756153 -4.30649,0 -0.23963,1.691671 c 0.23963,-0.01711 0.4441,-0.03423 0.71789,-0.03423 1.05934,0 2.15367,0.239557 2.92289,0.803447 0.8369,0.56389 1.34945,1.487113 1.34945,2.803115 0,2.068117 -1.77722,3.896675 -4.76778,3.896675 -1.35022,0 -2.47871,-0.308001 -3.09393,-0.632335 l 0.47826,-1.948336 c 0.47833,0.239555 1.48633,0.546779 2.49511,0.546779 1.07723,0 2.22134,-0.512556 2.22134,-1.69167 0,-1.162002 -0.90604,-1.862781 -3.12745,-1.862781 -0.61522,0 -1.043,0.03423 -1.48711,0.102669 l 0.71789,-5.810787 6.118,0 0,2.13578 0,0 z"
         id="path3872"
         style="fill:#ffffff"
         inkscape:label="#path13312"
         inkscape:connector-curvature="0" />
      <path
         d="m 324.42409,73.551197 c -0.29011,-0.01711 -0.59811,0 -1.008,0.03423 -2.30689,0.171111 -3.332,1.367335 -3.62289,2.649115 l 0.0506,0 c 0.54678,-0.546779 1.33381,-0.87189 2.35893,-0.87189 1.86278,0 3.43468,1.316002 3.43468,3.622896 0,2.204226 -1.69245,4.016451 -4.0849,4.016451 -2.97268,0 -4.42556,-2.204227 -4.42556,-4.853342 0,-2.085226 0.76922,-3.828229 1.98255,-4.956008 1.09364,-1.008003 2.54645,-1.538448 4.27235,-1.623225 0.47833,-0.05133 0.80344,-0.03423 1.04222,-0.01711 l 0,1.998893 0,0 z m -2.905,7.53668 c 0.90534,0 1.48634,-0.837668 1.48634,-1.965448 0,-1.025113 -0.54678,-1.914114 -1.65815,-1.914114 -0.70008,0 -1.28108,0.427 -1.52064,0.973779 -0.0848,0.154 -0.11977,0.358556 -0.11977,0.666557 0.0513,1.179112 0.61522,2.238448 1.79511,2.238448 l 0.0171,0 0,7.78e-4 z"
         id="path3874"
         style="fill:#ffffff;fill-opacity:1"
         inkscape:label="#path13252"
         inkscape:connector-curvature="0" />
      <path
         d="m 376.80605,71.714871 0,1.623224 -4.58034,9.485018 -2.75102,0 4.58035,-8.938238 0,-0.03423 -5.09368,0 0,-2.136559 7.84469,0 0,0 z"
         id="path3876"
         style="fill:#ffffff;fill-opacity:1"
         inkscape:label="#path13356"
         inkscape:connector-curvature="0" />
      <path
         d="m 352.16144,71.526264 c 2.59779,0 3.67423,1.504224 3.67423,2.853671 0,0.956669 -0.51256,1.897004 -1.62321,2.443782 l 0,0.05133 c 1.09354,0.409889 2.05099,1.333113 2.05099,2.751782 0,2.016782 -1.69245,3.384118 -4.27313,3.384118 -2.81943,0 -4.11833,-1.589003 -4.11833,-3.093228 0,-1.333114 0.76846,-2.25556 1.98256,-2.786005 l 0,-0.03423 c -1.07722,-0.56389 -1.60611,-1.470002 -1.60611,-2.443781 0,-1.879893 1.69166,-3.12745 3.89668,-3.12745 l 0.0163,0 0,0 z m -0.0521,9.69035 c 0.90533,0 1.52055,-0.598112 1.52055,-1.384448 0,-0.973779 -0.73422,-1.555557 -1.74223,-1.828558 -0.85555,0.239555 -1.35021,0.854779 -1.35021,1.657447 -0.0163,0.803447 0.59889,1.555559 1.55555,1.555559 l 0.0163,0 z m -0.0342,-7.930237 c -0.889,0 -1.33311,0.598113 -1.33311,1.28178 0,0.752113 0.66656,1.230447 1.55556,1.504226 0.59811,-0.171112 1.127,-0.71789 1.127,-1.401558 0,-0.70078 -0.39277,-1.384448 -1.33234,-1.384448 l -0.0171,0 z"
         id="path3878"
         style="fill:#ffffff"
         inkscape:label="#path13366"
         inkscape:connector-curvature="0" />
      <path
         d="m 328.64462,80.950056 c 0.34145,0.05134 0.61523,0.03423 1.12856,0 0.80266,-0.03423 1.60533,-0.273778 2.20423,-0.683667 0.735,-0.478335 1.21411,-1.213336 1.40155,-2.051004 l -0.0342,-0.01711 c -0.51257,0.512557 -1.23046,0.803447 -2.25556,0.803447 -1.8799,0 -3.45179,-1.298892 -3.45179,-3.468896 0,-2.170004 1.743,-3.999339 4.18756,-3.999339 2.85368,0 4.20312,2.187115 4.20312,4.784896 0,2.324005 -0.73422,3.999341 -1.93045,5.110009 -1.05933,0.973779 -2.52934,1.487114 -4.27234,1.555559 -0.42777,0.03423 -0.87112,0.01711 -1.17989,0 l 0,-2.033893 -7.8e-4,0 z m 3.09323,-7.519568 c -0.87111,0 -1.52134,0.786334 -1.52134,1.948337 0,0.956668 0.53044,1.777224 1.5719,1.777224 0.735,0 1.21411,-0.324333 1.47077,-0.717889 0.0848,-0.171111 0.119,-0.341445 0.119,-0.666557 0.0171,-1.179114 -0.44411,-2.341115 -1.62322,-2.341115 l -0.0171,0 z"
         id="path3880"
         style="fill:#ffffff"
         inkscape:label="#path13376"
         inkscape:connector-curvature="0" />
      <path
         id="year_2013"
         style="fill:#ffffff"
         d="m 183.69694,80.275878 c 0.462,0.256667 1.52134,0.683669 2.58068,0.683669 1.35022,0 2.03388,-0.649446 2.03388,-1.470004 0,-1.110668 -1.09355,-1.606113 -2.22211,-1.606113 l -1.05855,0 0,-1.862782 1.00799,0 c 0.87112,0 1.96467,-0.341445 1.96467,-1.28178 0,-0.666556 -0.52967,-1.162001 -1.64033,-1.162001 -0.90533,0 -1.86279,0.392778 -2.3069,0.666557 l -0.52967,-1.879893 c 0.66579,-0.427 1.98257,-0.837668 3.43468,-0.837668 2.35822,0 3.675,1.247557 3.675,2.768895 0,1.179113 -0.66655,2.119446 -2.03389,2.58067 l 0,0.03423 c 1.33311,0.239556 2.40956,1.247558 2.40956,2.717561 0,1.948337 -1.7259,3.384117 -4.54533,3.384117 -1.43578,0 -2.64912,-0.375666 -3.29857,-0.769223 l 0.52889,-1.966225 z M 163.02635,71.4722 c -1.5,0 -2.82825,0.5183 -3.65625,1.1563 l 0.71875,1.875 c 0.585,-0.432 1.44025,-0.9375 2.40625,-0.9375 1.293,0 1.84375,0.7422 1.84375,1.6562 -0.017,1.31 -1.2215,2.5743 -3.6875,4.7813 l -1.4375,1.2812 0,1.5938 7.96875,0 0,-2.1563 -4.25,0 0,-0.031 1.03125,-0.875 c 1.637,-1.449 2.96875,-2.9335 2.96875,-4.8125 0,-2.035 -1.35425,-3.5313 -3.90625,-3.5313 z m 17.25005,0.187 -3,1.375 0.4375,1.9688 2.125,-1 0.031,0 0,8.875 2.5625,0 0,-11.2188 -2.1562,0 z m -8.0005,-0.187 c -2.897,0 -4.25005,2.5535 -4.25005,5.8125 0.016,3.172 1.29155,5.7813 4.18755,5.7813 2.828,0 4.25,-2.3958 4.25,-5.8438 0,-3.069 -1.2055,-5.75 -4.1875,-5.75 z m -0.062,1.9683 c 1.052,0 1.5937,1.3295 1.5937,3.8125 0,2.552 -0.5445,3.8125 -1.5625,3.8125 l -0.031,0 c -1,0 -1.6118,-1.2265 -1.5938,-3.8125 0,-2.534 0.6108,-3.8125 1.5938,-3.8125 z" />
      <path
         id="year_2014"
         style="fill:#ffffff"
         d="m 228.3252,82.822331 0,-2.649116 -4.92179,0 0,-1.691669 4.18679,-6.767456 3.19589,0 0,6.511566 1.31523,0 0,1.948337 -1.31523,0 0,2.649116 -2.46089,0 0,0 z m 0,-4.596675 0,-2.460893 c 0,-0.666557 0.0335,-1.350225 0.0685,-2.068114 l -0.0513,0 c -0.35856,0.717889 -0.66656,1.367335 -1.04222,2.068114 l -1.47079,2.426671 -0.0163,0.03423 2.51224,0 z M 203.02635,71.4722 c -1.5,0 -2.82825,0.5183 -3.65625,1.1563 l 0.71875,1.875 c 0.585,-0.432 1.44025,-0.9375 2.40625,-0.9375 1.293,0 1.84375,0.7422 1.84375,1.6562 -0.017,1.31 -1.2215,2.5743 -3.6875,4.7813 l -1.4375,1.2812 0,1.5938 7.96875,0 0,-2.1563 -4.25,0 0,-0.031 1.03125,-0.875 c 1.637,-1.449 2.96875,-2.9335 2.96875,-4.8125 0,-2.035 -1.35425,-3.5313 -3.90625,-3.5313 z m 17.25005,0.187 -3,1.375 0.4375,1.9688 2.125,-1 0.031,0 0,8.875 2.5625,0 0,-11.2188 -2.1562,0 z m -8.0005,-0.187 c -2.897,0 -4.25005,2.5535 -4.25005,5.8125 0.016,3.172 1.29155,5.7813 4.18755,5.7813 2.828,0 4.25,-2.3958 4.25,-5.8438 0,-3.069 -1.2055,-5.75 -4.1875,-5.75 z m -0.062,1.9683 c 1.052,0 1.5937,1.3295 1.5937,3.8125 0,2.552 -0.5445,3.8125 -1.5625,3.8125 l -0.031,0 c -1,0 -1.6118,-1.2265 -1.5938,-3.8125 0,-2.534 0.6108,-3.8125 1.5938,-3.8125 z" />
      <path
         id="year_2015"
         style="fill:#ffffff"
         d="m 270.86868,73.756153 -4.30649,0 -0.23963,1.691671 c 0.23963,-0.01711 0.4441,-0.03423 0.71789,-0.03423 1.05934,0 2.15367,0.239557 2.92289,0.803447 0.8369,0.56389 1.34945,1.487113 1.34945,2.803115 0,2.068117 -1.77722,3.896675 -4.76778,3.896675 -1.35022,0 -2.47871,-0.308001 -3.09393,-0.632335 l 0.47826,-1.948336 c 0.47833,0.239555 1.48633,0.546779 2.49511,0.546779 1.07723,0 2.22134,-0.512556 2.22134,-1.69167 0,-1.162002 -0.90604,-1.862781 -3.12745,-1.862781 -0.61522,0 -1.043,0.03423 -1.48711,0.102669 l 0.71789,-5.810787 6.118,0 0,2.13578 0,0 z M 243.02635,71.4722 c -1.5,0 -2.82825,0.5183 -3.65625,1.1563 l 0.71875,1.875 c 0.585,-0.432 1.44025,-0.9375 2.40625,-0.9375 1.293,0 1.84375,0.7422 1.84375,1.6562 -0.017,1.31 -1.2215,2.5743 -3.6875,4.7813 l -1.4375,1.2812 0,1.5938 7.96875,0 0,-2.1563 -4.25,0 0,-0.031 1.03125,-0.875 c 1.637,-1.449 2.96875,-2.9335 2.96875,-4.8125 0,-2.035 -1.35425,-3.5313 -3.90625,-3.5313 z m 17.25005,0.187 -3,1.375 0.4375,1.9688 2.125,-1 0.031,0 0,8.875 2.5625,0 0,-11.2188 -2.1562,0 z m -8.0005,-0.187 c -2.897,0 -4.25005,2.5535 -4.25005,5.8125 0.016,3.172 1.29155,5.7813 4.18755,5.7813 2.828,0 4.25,-2.3958 4.25,-5.8438 0,-3.069 -1.2055,-5.75 -4.1875,-5.75 z m -0.062,1.9683 c 1.052,0 1.5937,1.3295 1.5937,3.8125 0,2.552 -0.5445,3.8125 -1.5625,3.8125 l -0.031,0 c -1,0 -1.6118,-1.2265 -1.5938,-3.8125 0,-2.534 0.6108,-3.8125 1.5938,-3.8125 z" />
    </g>
  </g>
</svg>
