<?xml version="1.0" encoding="UTF-8" standalone="no"?>
<!-- Created with Inkscape (http://www.inkscape.org/) -->

<svg
   xmlns:dc="http://purl.org/dc/elements/1.1/"
   xmlns:cc="http://creativecommons.org/ns#"
   xmlns:rdf="http://www.w3.org/1999/02/22-rdf-syntax-ns#"
   xmlns:svg="http://www.w3.org/2000/svg"
   xmlns="http://www.w3.org/2000/svg"
   xmlns:sodipodi="http://sodipodi.sourceforge.net/DTD/sodipodi-0.dtd"
   xmlns:inkscape="http://www.inkscape.org/namespaces/inkscape"
   version="1.0"
   width="62.580898"
   height="31.684999"
   id="svg13995"
   inkscape:version="0.47 r22583"
   sodipodi:docname="calFont_001_plain.svg">
  <metadata
     id="metadata788">
    <rdf:RDF>
      <cc:Work
         rdf:about="">
        <dc:format>image/svg+xml</dc:format>
        <dc:type
           rdf:resource="http://purl.org/dc/dcmitype/StillImage" />
      </cc:Work>
    </rdf:RDF>
  </metadata>
  <sodipodi:namedview
     pagecolor="#ffffff"
     bordercolor="#666666"
     borderopacity="1"
     objecttolerance="10"
     gridtolerance="10"
     guidetolerance="10"
     inkscape:pageopacity="0"
     inkscape:pageshadow="2"
     inkscape:window-width="640"
     inkscape:window-height="480"
     id="namedview786" />
  <defs
     id="defs13997" />
  <g
     id="layer1">
    <path
       d="M 0,11.398 L 0,9.8120002 L 1.432,8.5190002 C 3.898,6.3120002 5.087,5.0530002 5.104,3.7430002 C 5.104,2.829 4.57,2.105 3.277,2.105 C 2.311,2.105 1.466,2.587 0.881,3.019 L 0.139,1.157 C 0.967,0.519 2.295,0.002 3.795,0.002 C 6.347,0.002 7.726,1.485 7.726,3.52 C 7.726,5.3990002 6.381,6.8990002 4.744,8.3480002 L 3.709,9.2100002 L 3.709,9.2450002 L 7.951,9.2450002 L 7.951,11.4 L 0,11.4 L 0,11.398 z M 12.986,11.587 C 10.09,11.587 8.813,8.9830002 8.797,5.8110002 C 8.797,2.552 10.159,3.6401504e-23 13.056,3.6401504e-23 C 16.038,3.6401504e-23 17.229,2.673 17.229,5.7420002 C 17.229,9.1900002 15.832,11.587 13.004,11.587 L 12.986,11.587 L 12.986,11.587 z M 13.02,9.6050002 C 14.038,9.6050002 14.589,8.3290002 14.589,5.7770002 C 14.589,3.294 14.055,1.984 13.003,1.984 C 12.02,1.984 11.399,3.243 11.399,5.7770002 C 11.381,8.3630002 12.003,9.6050002 13.003,9.6050002 L 13.02,9.6050002 z M 20.666,2.518 L 20.632,2.518 L 18.493,3.536 L 18.062,1.57 L 21.044,0.191 L 23.199,0.191 L 23.199,11.399 L 20.665,11.399 L 20.665,2.518 L 20.666,2.518 z M 29.631,11.587 C 26.735,11.587 25.458,8.9830002 25.442,5.8110002 C 25.442,2.552 26.804,3.6401504e-23 29.701,3.6401504e-23 C 32.683,3.6401504e-23 33.874,2.673 33.874,5.7420002 C 33.874,9.1900002 32.477,11.587 29.649,11.587 L 29.631,11.587 L 29.631,11.587 z M 29.665,9.6050002 C 30.683,9.6050002 31.234,8.3290002 31.234,5.7770002 C 31.234,3.294 30.7,1.984 29.648,1.984 C 28.665,1.984 28.044,3.243 28.044,5.7770002 C 28.026,8.3630002 28.648,9.6050002 29.648,9.6050002 L 29.665,9.6050002 z"
       id="year_2010"
       style="fill:#ffffff" />
    <path
       d="M 0.505,8.621 C 1.156,8.963 2.199,9.305 3.259,9.305 C 4.4,9.305 5.003,8.832 5.003,8.099 C 5.003,7.431 4.482,7.023 3.161,6.567 C 1.336,5.915 0.13,4.905 0.13,3.292 C 0.13,1.418 1.711,3.6401504e-23 4.285,3.6401504e-23 C 5.54,3.6401504e-23 6.436,0.245 7.089,0.554 L 6.534,2.542 C 6.11,2.33 5.312,2.021 4.253,2.021 C 3.178,2.021 2.656,2.526 2.656,3.08 C 2.656,3.781 3.259,4.09 4.693,4.644 C 6.631,5.361 7.528,6.372 7.528,7.936 C 7.528,9.777 6.127,11.342 3.112,11.342 C 1.857,11.342 0.619,11 0,10.657 L 0.505,8.621 z M 15.331,9.24 C 15.331,9.99 15.363,10.723 15.461,11.163 L 13.229,11.163 L 13.083,10.365 L 13.034,10.365 C 12.513,11 11.697,11.343 10.753,11.343 C 9.14,11.343 8.178,10.17 8.178,8.899 C 8.178,6.829 10.035,5.852 12.855,5.852 L 12.855,5.754 C 12.855,5.33 12.627,4.727 11.405,4.727 C 10.591,4.727 9.726,5.004 9.205,5.313 L 8.749,3.732 C 9.303,3.422 10.395,3.015 11.846,3.015 C 14.502,3.015 15.333,4.579 15.333,6.454 L 15.333,9.24 L 15.331,9.24 z M 12.935,7.399 C 11.631,7.399 10.621,7.709 10.621,8.654 C 10.621,9.29 11.045,9.599 11.599,9.599 C 12.203,9.599 12.724,9.192 12.887,8.686 C 12.919,8.556 12.936,8.409 12.936,8.262 L 12.936,7.399 L 12.935,7.399 z M 19.543,1.027 L 19.543,3.194 L 21.319,3.194 L 21.319,5.019 L 19.543,5.019 L 19.543,7.919 C 19.543,8.881 19.787,9.321 20.521,9.321 C 20.864,9.321 21.026,9.304 21.254,9.256 L 21.271,11.13 C 20.961,11.244 20.358,11.342 19.673,11.342 C 18.875,11.342 18.206,11.065 17.799,10.657 C 17.343,10.185 17.114,9.419 17.114,8.294 L 17.114,5.019 L 16.055,5.019 L 16.055,3.194 L 17.114,3.194 L 17.114,1.694 L 19.543,1.027 z"
       id="Sat"
       style="fill:#ffffff;fill-opacity:1" />
    <path
       d="M 0.506,8.621 C 1.1569998,8.963 2.1999998,9.305 3.2599998,9.305 C 4.4009998,9.305 5.0039998,8.832 5.0039998,8.099 C 5.0039998,7.431 4.4829998,7.023 3.1619998,6.567 C 1.3369998,5.915 0.131,4.905 0.131,3.292 C 0.131,1.418 1.7119998,3.6401504e-23 4.2859998,3.6401504e-23 C 5.5409998,3.6401504e-23 6.4369998,0.245 7.0899998,0.554 L 6.5349998,2.542 C 6.1109998,2.33 5.3129998,2.021 4.2539998,2.021 C 3.1789998,2.021 2.6569998,2.526 2.6569998,3.08 C 2.6569998,3.781 3.2599998,4.09 4.6929998,4.644 C 6.6319998,5.361 7.5289998,6.372 7.5289998,7.936 C 7.5289998,9.777 6.1279998,11.342 3.1129998,11.342 C 1.8579998,11.342 0.62,11 0,10.657 L 0.506,8.621 z M 16.114,8.605 C 16.114,9.648 16.146,10.496 16.179,11.164 L 14.028,11.164 L 13.914,10.039 L 13.865,10.039 C 13.555,10.528 12.805,11.343 11.372,11.343 C 9.7419998,11.343 8.5689998,10.333 8.5689998,7.872 L 8.5689998,3.195 L 11.046,3.195 L 11.046,7.481 C 11.046,8.638 11.421,9.339 12.301,9.339 C 12.986,9.339 13.393,8.866 13.539,8.475 C 13.604,8.329 13.637,8.149 13.637,7.937 L 13.637,3.195 L 16.115,3.195 L 16.115,8.605 L 16.114,8.605 z M 17.664,5.736 C 17.664,4.742 17.632,3.911 17.599,3.194 L 19.75,3.194 L 19.864,4.302 L 19.913,4.302 C 20.239,3.781 21.037,3.014 22.374,3.014 C 24.003,3.014 25.226,4.106 25.226,6.453 L 25.226,11.162 L 22.748,11.162 L 22.748,6.745 C 22.748,5.719 22.39,5.018 21.494,5.018 C 20.809,5.018 20.401,5.491 20.223,5.947 C 20.158,6.11 20.141,6.338 20.141,6.566 L 20.141,11.162 L 17.664,11.162 L 17.664,5.736 z"
       id="Sun"
       style="fill:#ffffff;fill-opacity:1" />
    <path
       d="M 9.533,6.779 C 9.484,5.459 9.435,3.878 9.435,2.265 L 9.403,2.265 C 9.045,3.667 8.588,5.231 8.165,6.518 L 6.828,10.804 L 4.889,10.804 L 3.716,6.567 C 3.358,5.263 2.999,3.715 2.722,2.265 L 2.689,2.265 C 2.64,3.748 2.576,5.443 2.51,6.812 L 2.298,10.984 L 0,10.984 L 0.701,2.1316282e-14 L 4.009,2.1316282e-14 L 5.085,3.683 C 5.443,4.938 5.769,6.307 6.014,7.594 L 6.079,7.594 C 6.372,6.323 6.747,4.889 7.122,3.65 L 8.278,2.1316282e-14 L 11.538,2.1316282e-14 L 12.125,10.984 L 9.713,10.984 L 9.533,6.779 z M 17.234,11.162 C 14.903,11.162 13.111,9.63 13.111,7.056 C 13.111,4.481 14.805,2.835 17.381,2.835 C 19.809,2.835 21.439,4.514 21.439,6.926 C 21.439,9.826 19.37,11.163 17.251,11.163 L 17.234,11.163 L 17.234,11.162 z M 17.283,9.386 C 18.261,9.386 18.863,8.425 18.863,6.99 C 18.863,5.817 18.407,4.611 17.283,4.611 C 16.109,4.611 15.653,5.817 15.653,7.007 C 15.653,8.36 16.223,9.386 17.266,9.386 L 17.283,9.386 z M 22.513,5.556 C 22.513,4.562 22.481,3.731 22.448,3.014 L 24.599,3.014 L 24.713,4.122 L 24.762,4.122 C 25.088,3.601 25.886,2.834 27.223,2.834 C 28.852,2.834 30.075,3.926 30.075,6.273 L 30.075,10.982 L 27.597,10.982 L 27.597,6.565 C 27.597,5.539 27.239,4.838 26.342,4.838 C 25.658,4.838 25.25,5.311 25.071,5.767 C 25.006,5.93 24.989,6.158 24.989,6.386 L 24.989,10.982 L 22.512,10.982 L 22.512,5.556 L 22.513,5.556 z"
       id="Mon"
       style="fill:#ffffff" />
    <path
       d="M 2.966,2.086 L 0,2.086 L 0,-1.776357e-15 L 8.441,-1.776357e-15 L 8.441,2.086 L 5.443,2.086 L 5.443,10.984 L 2.965,10.984 L 2.965,2.086 L 2.966,2.086 z M 15.613973,8.426 C 15.613973,9.469 15.645973,10.317 15.678973,10.985 L 13.52797,10.985 L 13.41397,9.86 L 13.36497,9.86 C 13.05497,10.349 12.305,11.164 10.872,11.164 C 9.242,11.164 8.069,10.154 8.069,7.693 L 8.069,3.016 L 10.546,3.016 L 10.546,7.302 C 10.546,8.459 10.921,9.16 11.801,9.16 C 12.486,9.16 12.89297,8.687 13.03897,8.296 C 13.10397,8.15 13.13697,7.97 13.13697,7.758 L 13.13697,3.016 L 15.614973,3.016 L 15.614973,8.426 L 15.613973,8.426 z M 19.050973,7.774 C 19.132973,8.817 20.142973,9.306 21.299973,9.306 C 22.147973,9.306 22.831973,9.192 23.499973,8.964 L 23.825973,10.642 C 23.010973,10.984 22.015973,11.147 20.940973,11.147 C 18.235973,11.147 16.687973,9.583 16.687973,7.073 C 16.687973,5.052 17.958973,2.82 20.712973,2.82 C 23.286973,2.82 24.264973,4.824 24.264973,6.797 C 24.264973,7.22 24.215973,7.595 24.183973,7.791 L 19.050973,7.774 z M 21.967973,6.079 C 21.967973,5.493 21.706973,4.466 20.582973,4.466 C 19.522973,4.466 19.099973,5.427 19.034973,6.079 L 21.967973,6.079 z"
       id="Tue"
       style="fill:#ffffff;fill-opacity:1" />
    <path
       d="M 2.607,11.57 L 0,0.586 L 2.656,0.586 L 3.487,5.1 C 3.732,6.42 3.96,7.838 4.139,8.962 L 4.171,8.962 C 4.351,7.756 4.611,6.436 4.889,5.067 L 5.818,0.586 L 8.458,0.586 L 9.338,5.214 C 9.583,6.501 9.762,7.674 9.925,8.897 L 9.957,8.897 C 10.12,7.675 10.365,6.388 10.593,5.067 L 11.489,0.586 L 14.015,0.586 L 11.179,11.57 L 8.49,11.57 L 7.561,6.844 C 7.349,5.736 7.17,4.709 7.04,3.454 L 7.008,3.454 C 6.813,4.693 6.633,5.736 6.372,6.844 L 5.329,11.57 L 2.607,11.57 L 2.607,11.57 z M 16.206,8.36 C 16.288,9.403 17.298,9.892 18.455,9.892 C 19.303,9.892 19.987,9.778 20.655,9.55 L 20.981,11.228 C 20.166,11.57 19.171,11.733 18.096,11.733 C 15.391,11.733 13.843,10.169 13.843,7.659 C 13.843,5.638 15.114,3.406 17.868,3.406 C 20.442,3.406 21.42,5.41 21.42,7.383 C 21.42,7.806 21.371,8.181 21.339,8.377 L 16.206,8.36 z M 19.123,6.665 C 19.123,6.079 18.862,5.052 17.738,5.052 C 16.678,5.052 16.255,6.013 16.19,6.665 L 19.123,6.665 z M 30.271,7.1054273e-15 L 30.271,9.191 C 30.271,10.104 30.303,11.033 30.336,11.57 L 28.136,11.57 L 28.038,10.413 L 27.989,10.413 C 27.5,11.293 26.522,11.749 25.495,11.749 C 23.605,11.749 22.09,10.136 22.09,7.659 C 22.073,4.986 23.752,3.422 25.658,3.422 C 26.652,3.422 27.402,3.781 27.761,4.318 L 27.793,4.318 L 27.793,7.1054273e-15 L 30.271,7.1054273e-15 L 30.271,7.1054273e-15 z M 27.794,6.991 C 27.794,6.844 27.794,6.681 27.762,6.534 C 27.616,5.866 27.077,5.328 26.312,5.328 C 25.171,5.328 24.601,6.339 24.601,7.593 C 24.601,8.929 25.269,9.777 26.295,9.777 C 27.012,9.777 27.599,9.288 27.745,8.587 C 27.778,8.424 27.794,8.229 27.794,8.033 L 27.794,6.991 z"
       id="Wed"
       style="fill:#ffffff" />
    <path
       d="M 2.966,2.672 L 0,2.672 L 0,0.586 L 8.441,0.586 L 8.441,2.672 L 5.443,2.672 L 5.443,11.57 L 2.965,11.57 L 2.965,2.672 L 2.966,2.672 z M 9.18,1.0658141e-14 L 11.657,1.0658141e-14 L 11.657,4.563 L 11.69,4.563 C 11.951,4.204 12.277,3.927 12.668,3.732 C 13.043,3.536 13.499,3.422 13.955,3.422 C 15.536,3.422 16.742,4.514 16.742,6.926 L 16.742,11.571 L 14.264,11.571 L 14.264,7.187 C 14.264,6.144 13.906,5.427 12.977,5.427 C 12.326,5.427 11.917,5.85 11.739,6.307 C 11.674,6.453 11.657,6.665 11.657,6.845 L 11.657,11.571 L 9.18,11.571 L 9.18,1.0658141e-14 L 9.18,1.0658141e-14 z M 25.725,9.012 C 25.725,10.055 25.757,10.903 25.79,11.571 L 23.639,11.571 L 23.525,10.446 L 23.476,10.446 C 23.166,10.935 22.416,11.75 20.983,11.75 C 19.353,11.75 18.18,10.74 18.18,8.279 L 18.18,3.602 L 20.657,3.602 L 20.657,7.888 C 20.657,9.045 21.032,9.746 21.912,9.746 C 22.597,9.746 23.004,9.273 23.15,8.882 C 23.215,8.736 23.248,8.556 23.248,8.344 L 23.248,3.602 L 25.726,3.602 L 25.726,9.012 L 25.725,9.012 z"
       id="Thu"
       style="fill:#ffffff" />
    <path
       d="M 0.001,0.668 L 6.699,0.668 L 6.699,2.705 L 2.478,2.705 L 2.478,5.215 L 6.421,5.215 L 6.421,7.236 L 2.478,7.236 L 2.478,11.653 L 0,11.653 L 0,0.668 L 0.001,0.668 z M 7.589,6.307 C 7.589,5.134 7.572,4.368 7.524,3.683 L 9.642,3.683 L 9.74,5.166 L 9.805,5.166 C 10.212,3.993 11.174,3.503 11.956,3.503 C 12.185,3.503 12.298,3.52 12.477,3.552 L 12.477,5.882 C 12.265,5.849 12.07,5.817 11.792,5.817 C 10.879,5.817 10.26,6.29 10.098,7.072 C 10.065,7.235 10.048,7.414 10.048,7.626 L 10.048,11.651 L 7.571,11.651 L 7.589,6.307 z M 14.444,2.64 C 13.613,2.64 13.076,2.053 13.076,1.32 C 13.076,0.57 13.63,1.7763568e-15 14.477,1.7763568e-15 C 15.324,1.7763568e-15 15.846,0.57 15.862,1.32 C 15.862,2.053 15.325,2.64 14.461,2.64 L 14.444,2.64 z M 13.223,11.652 L 13.223,3.683 L 15.7,3.683 L 15.7,11.652 L 13.223,11.652 z"
       id="Fri"
       style="fill:#ffffff" />
    <path
       d="M 3.319,2.967 L 3.275,2.967 L 0.55,4.263 L 0,1.758 L 3.802,2.1316282e-14 L 6.549,2.1316282e-14 L 6.549,14.282 L 3.319,14.282 L 3.319,2.967 z"
       id="date_1"
       style="fill:#ffffff" />
    <path
       d="M 0,14.522 L 0,12.501 L 1.823,10.853 C 4.965,8.041 6.481,6.436 6.504,4.767 C 6.504,3.602 5.822,2.68 4.174,2.68 C 2.944,2.68 1.867,3.295 1.12,3.845 L 0.176,1.472 C 1.231,0.659 2.922,1.2434498e-14 4.834,1.2434498e-14 C 8.086,1.2434498e-14 9.844,1.89 9.844,4.482 C 9.844,6.877 8.129,8.789 6.042,10.634 L 4.724,11.733 L 4.724,11.777 L 10.129,11.777 L 10.129,14.524 L 0,14.524 L 0,14.522 z"
       id="date_2"
       style="fill:#ffffff" />
    <path
       d="M 0.68,11.25 C 1.274,11.58 2.636,12.129 3.998,12.129 C 5.734,12.129 6.613,11.294 6.613,10.239 C 6.613,8.811 5.207,8.174 3.756,8.174 L 2.395,8.174 L 2.395,5.779 L 3.691,5.779 C 4.811,5.779 6.217,5.34 6.217,4.131 C 6.217,3.274 5.536,2.637 4.108,2.637 C 2.944,2.637 1.713,3.142 1.142,3.494 L 0.461,1.077 C 1.317,0.528 3.01,7.1054273e-15 4.877,7.1054273e-15 C 7.909,7.1054273e-15 9.602,1.604 9.602,3.56 C 9.602,5.076 8.745,6.285 6.987,6.878 L 6.987,6.922 C 8.701,7.23 10.085,8.526 10.085,10.416 C 10.085,12.921 7.866,14.767 4.241,14.767 C 2.395,14.767 0.835,14.284 0,13.778 L 0.68,11.25 z"
       id="date_3"
       style="fill:#ffffff" />
    <path
       d="M 6.328,14.282 L 6.328,10.876 L 0,10.876 L 0,8.701 L 5.383,-1.776357e-15 L 9.492,-1.776357e-15 L 9.492,8.372 L 11.183,8.372 L 11.183,10.877 L 9.492,10.877 L 9.492,14.283 L 6.328,14.283 L 6.328,14.282 z M 6.328,8.372 L 6.328,5.208 C 6.328,4.351 6.371,3.472 6.416,2.549 L 6.35,2.549 C 5.889,3.472 5.493,4.307 5.01,5.208 L 3.119,8.328 L 3.098,8.372 L 6.328,8.372 z"
       id="date_4"
       style="fill:#ffffff" />
    <path
       d="M 9.5369,2.746 L 4,2.746 L 3.6919,4.921 C 4,4.899 4.2629,4.877 4.6149,4.877 C 5.9769,4.877 7.3839,5.185 8.3729,5.91 C 9.4489,6.635 10.1079,7.822 10.1079,9.514 C 10.1079,12.173 7.8229,14.524 3.9779,14.524 C 2.2419,14.524 0.791,14.128 0,13.711 L 0.6149,11.206 C 1.2299,11.514 2.5259,11.909 3.8229,11.909 C 5.2079,11.909 6.6789,11.25 6.6789,9.734 C 6.6789,8.24 5.514,7.339 2.6579,7.339 C 1.8669,7.339 1.3169,7.383 0.7459,7.471 L 1.6689,1.2434498e-14 L 9.5349,1.2434498e-14 L 9.5349,2.746 L 9.5369,2.746 z"
       id="date_5"
       style="fill:#ffffff" />
    <path
       d="M 9.382,2.592 C 9.009,2.57 8.613,2.592 8.086,2.636 C 5.12,2.856 3.802,4.394 3.428,6.042 L 3.4931,6.042 C 4.1961,5.339 5.208,4.921 6.526,4.921 C 8.921,4.921 10.942,6.613 10.942,9.579 C 10.942,12.413 8.766,14.743 5.69,14.743 C 1.868,14.743 0,11.909 0,8.503 C 0,5.822 0.989,3.581 2.549,2.131 C 3.9551,0.835 5.823,0.153 8.042,0.044 C 8.657,-0.022 9.075,7.1054273e-15 9.382,0.022 L 9.382,2.592 L 9.382,2.592 z M 5.647,12.282 C 6.811,12.282 7.558,11.205 7.558,9.755 C 7.558,8.437 6.855,7.294 5.4261,7.294 C 4.526,7.294 3.779,7.843 3.471,8.546 C 3.362,8.744 3.317,9.007 3.317,9.403 C 3.3831,10.919 4.108,12.281 5.625,12.281 L 5.647,12.281 L 5.647,12.282 z"
       id="date_6"
       style="fill:#ffffff;fill-opacity:1" />
    <path
       d="M 10.086,0.001 L 10.086,2.088 L 4.197,14.283 L 0.66,14.283 L 6.549,2.791 L 6.549,2.747 L 0,2.747 L 0,-1.776357e-15 L 10.086,-1.776357e-15 L 10.086,0.001 z"
       id="date_7"
       style="fill:#ffffff;fill-opacity:1" />
    <path
       d="M 5.515,1.7763568e-15 C 8.855,1.7763568e-15 10.239,1.934 10.239,3.669 C 10.239,4.899 9.58,6.108 8.152,6.811 L 8.152,6.877 C 9.558,7.404 10.789,8.591 10.789,10.415 C 10.789,13.008 8.613,14.766 5.295,14.766 C 1.67,14.766 0,12.723 0,10.789 C 0,9.075 0.988,7.889 2.549,7.207 L 2.549,7.163 C 1.164,6.438 0.484,5.273 0.484,4.021 C 0.484,1.604 2.659,1.7763568e-15 5.494,1.7763568e-15 L 5.515,1.7763568e-15 L 5.515,1.7763568e-15 z M 5.448,12.459 C 6.612,12.459 7.403,11.69 7.403,10.679 C 7.403,9.427 6.459,8.679 5.163,8.328 C 4.063,8.636 3.427,9.427 3.427,10.459 C 3.406,11.492 4.197,12.459 5.427,12.459 L 5.448,12.459 z M 5.404,2.263 C 4.261,2.263 3.69,3.032 3.69,3.911 C 3.69,4.878 4.547,5.493 5.69,5.845 C 6.459,5.625 7.139,4.922 7.139,4.043 C 7.139,3.142 6.634,2.263 5.426,2.263 L 5.404,2.263 z"
       id="date_8"
       style="fill:#ffffff" />
    <path
       d="M 1.295,12.107 C 1.734,12.173 2.086,12.151 2.746,12.107 C 3.778,12.063 4.81,11.755 5.58,11.228 C 6.525,10.613 7.141,9.6679996 7.382,8.5909996 L 7.338,8.5689996 C 6.679,9.2279996 5.756,9.6019996 4.438,9.6019996 C 2.021,9.6019996 0,7.9319996 0,5.1419996 C 0,2.352 2.241,3.5527136e-15 5.384,3.5527136e-15 C 9.053,3.5527136e-15 10.788,2.812 10.788,6.1519996 C 10.788,9.1399996 9.844,11.294 8.306,12.722 C 6.944,13.974 5.054,14.634 2.813,14.722 C 2.263,14.766 1.693,14.744 1.296,14.722 L 1.296,12.107 L 1.295,12.107 z M 5.272,2.439 C 4.152,2.439 3.316,3.45 3.316,4.9439996 C 3.316,6.1739996 3.998,7.2289996 5.337,7.2289996 C 6.282,7.2289996 6.898,6.8119996 7.228,6.3059996 C 7.337,6.0859996 7.381,5.8669996 7.381,5.4489996 C 7.403,3.933 6.81,2.439 5.294,2.439 L 5.272,2.439 z"
       id="date_9"
       style="fill:#ffffff" />
    <path
       d="M 3.319,3.2080005 L 3.275,3.2080005 L 0.55,4.5040005 L 0,1.9990005 L 3.802,0.24100047 L 6.549,0.24100047 L 6.549,14.523 L 3.319,14.523 L 3.319,3.2080005 z M 14.158,14.766 C 10.467,14.766 8.841,11.448 8.819,7.405 C 8.819,3.2520005 10.554,4.6972657e-07 14.246,4.6972657e-07 C 18.048,4.6972657e-07 19.563,3.4060005 19.563,7.317 C 19.563,11.712 17.784,14.766 14.18,14.766 L 14.158,14.766 z M 14.201,12.239 C 15.498,12.239 16.201,10.613 16.201,7.361 C 16.201,4.1970005 15.519,2.5270005 14.18,2.5270005 C 12.927,2.5270005 12.136,4.1310005 12.136,7.361 C 12.114,10.657 12.905,12.239 14.18,12.239 L 14.201,12.239 z"
       id="date_10"
       style="fill:#ffffff" />
    <path
       d="M 3.319,2.967 L 3.275,2.967 L 0.55,4.263 L 0,1.758 L 3.802,2.1316282e-14 L 6.549,2.1316282e-14 L 6.549,14.282 L 3.319,14.282 L 3.319,2.967 z M 12.231,2.967 L 12.187,2.967 L 9.462,4.263 L 8.912,1.758 L 12.714,2.1316282e-14 L 15.461,2.1316282e-14 L 15.461,14.282 L 12.231,14.282 L 12.231,2.967 z"
       id="date_11"
       style="fill:#ffffff" />
    <path
       d="M 3.318,3.206 L 3.274,3.206 L 0.549,4.502 L 0,1.997 L 3.801,0.239 L 6.547,0.239 L 6.547,14.521 L 3.318,14.521 L 3.318,3.206 z M 8.672,14.522 L 8.672,12.501 L 10.496,10.853 C 13.639,8.041 15.154,6.436 15.176,4.767 C 15.176,3.602 14.495,2.68 12.848,2.68 C 11.618,2.68 10.54,3.295 9.793,3.845 L 8.848,1.472 C 9.903,0.659 11.595,1.2434498e-14 13.506,1.2434498e-14 C 16.758,1.2434498e-14 18.516,1.89 18.516,4.482 C 18.516,6.877 16.803,8.789 14.715,10.634 L 13.397,11.733 L 13.397,11.777 L 18.802,11.777 L 18.802,14.524 L 8.672,14.524 L 8.672,14.522 z"
       id="date_12"
       style="fill:#ffffff" />
    <path
       d="M 3.319,3.208 L 3.275,3.208 L 0.55,4.504 L 0,1.999 L 3.802,0.241 L 6.549,0.241 L 6.549,14.523 L 3.319,14.523 L 3.319,3.208 z M 9.25,11.25 C 9.843,11.58 11.205,12.129 12.567,12.129 C 14.302,12.129 15.181,11.294 15.181,10.239 C 15.181,8.811 13.775,8.174 12.326,8.174 L 10.963,8.174 L 10.963,5.779 L 12.26,5.779 C 13.381,5.779 14.787,5.34 14.787,4.131 C 14.787,3.274 14.105,2.637 12.678,2.637 C 11.513,2.637 10.282,3.142 9.711,3.494 L 9.029,1.077 C 9.886,0.528 11.578,7.1054273e-15 13.446,7.1054273e-15 C 16.478,7.1054273e-15 18.17,1.604 18.17,3.56 C 18.17,5.076 17.314,6.285 15.556,6.878 L 15.556,6.922 C 17.27,7.23 18.655,8.526 18.655,10.416 C 18.655,12.921 16.435,14.767 12.809,14.767 C 10.963,14.767 9.404,14.284 8.569,13.778 L 9.25,11.25 z"
       id="date_13"
       style="fill:#ffffff;fill-opacity:1" />
    <path
       d="M 3.319,2.967 L 3.275,2.967 L 0.55,4.263 L 0,1.758 L 3.802,3.5527136e-15 L 6.549,3.5527136e-15 L 6.549,14.282 L 3.319,14.282 L 3.319,2.967 z M 14.571,14.283 L 14.571,10.877 L 8.243,10.877 L 8.243,8.702 L 13.627,0.001 L 17.735,0.001 L 17.735,8.373 L 19.427,8.373 L 19.427,10.878 L 17.735,10.878 L 17.735,14.284 L 14.571,14.284 L 14.571,14.283 z M 14.571,8.372 L 14.571,5.208 C 14.571,4.351 14.616,3.472 14.659,2.549 L 14.594,2.549 C 14.132,3.472 13.738,4.307 13.253,5.208 L 11.364,8.328 L 11.342,8.372 L 14.571,8.372 z"
       id="date_14"
       style="fill:#ffffff;fill-opacity:1" />
    <path
       d="M 3.318,2.967 L 3.274,2.967 L 0.549,4.263 L 0,1.758 L 3.801,1.5987212e-14 L 6.547,1.5987212e-14 L 6.547,14.282 L 3.318,14.282 L 3.318,2.967 z M 18.244,2.747 L 12.707,2.747 L 12.399,4.922 C 12.707,4.9 12.97,4.878 13.322,4.878 C 14.684,4.878 16.091,5.186 17.079,5.911 C 18.156,6.636 18.815,7.823 18.815,9.515 C 18.815,12.174 16.53,14.525 12.684,14.525 C 10.949,14.525 9.498,14.129 8.707,13.712 L 9.322,11.207 C 9.937,11.515 11.234,11.91 12.53,11.91 C 13.914,11.91 15.386,11.251 15.386,9.735 C 15.386,8.241 14.222,7.34 11.365,7.34 C 10.574,7.34 10.025,7.384 9.454,7.472 L 10.377,0.001 L 18.243,0.001 L 18.243,2.747 L 18.244,2.747 z"
       id="date_15"
       style="fill:#ffffff" />
    <path
       d="M 3.318,3.185 L 3.274,3.185 L 0.549,4.481 L 0,1.976 L 3.801,0.218 L 6.547,0.218 L 6.547,14.5 L 3.318,14.5 L 3.318,3.185 z M 18.051,2.592 C 17.677,2.57 17.281,2.592 16.754,2.636 C 13.787,2.856 12.469,4.394 12.096,6.042 L 12.162,6.042 C 12.865,5.339 13.875,4.921 15.193,4.921 C 17.589,4.921 19.61,6.613 19.61,9.579 C 19.61,12.413 17.435,14.743 14.359,14.743 C 10.535,14.743 8.668,11.909 8.668,8.503 C 8.668,5.822 9.656,3.581 11.217,2.131 C 12.623,0.835 14.49,0.153 16.71,0.044 C 17.325,-0.022 17.742,7.1054273e-15 18.051,0.022 L 18.051,2.592 L 18.051,2.592 z M 14.315,12.282 C 15.48,12.282 16.227,11.205 16.227,9.755 C 16.227,8.437 15.524,7.294 14.096,7.294 C 13.195,7.294 12.448,7.843 12.14,8.546 C 12.03,8.744 11.987,9.007 11.987,9.403 C 12.052,10.919 12.778,12.281 14.294,12.281 L 14.315,12.281 L 14.315,12.282 z"
       id="date_16"
       style="fill:#ffffff" />
    <path
       d="M 3.319,2.967 L 3.275,2.967 L 0.55,4.263 L 0,1.758 L 3.802,-1.776357e-15 L 6.549,-1.776357e-15 L 6.549,14.282 L 3.319,14.282 L 3.319,2.967 z M 18.721,0.001 L 18.721,2.088 L 12.832,14.283 L 9.294,14.283 L 15.183,2.791 L 15.183,2.747 L 8.636,2.747 L 8.636,-1.776357e-15 L 18.721,-1.776357e-15 L 18.721,0.001 z"
       id="date_17"
       style="fill:#ffffff" />
    <path
       d="M 3.319,3.208 L 3.275,3.208 L 0.55,4.504 L 0,1.999 L 3.802,0.241 L 6.549,0.241 L 6.549,14.523 L 3.319,14.523 L 3.319,3.208 z M 14.249,1.7763568e-15 C 17.589,1.7763568e-15 18.973,1.934 18.973,3.669 C 18.973,4.899 18.314,6.108 16.886,6.811 L 16.886,6.877 C 18.292,7.404 19.523,8.591 19.523,10.415 C 19.523,13.008 17.347,14.766 14.029,14.766 C 10.404,14.766 8.734,12.723 8.734,10.789 C 8.734,9.075 9.722,7.889 11.283,7.207 L 11.283,7.163 C 9.898,6.438 9.218,5.273 9.218,4.021 C 9.218,1.604 11.393,1.7763568e-15 14.228,1.7763568e-15 L 14.249,1.7763568e-15 L 14.249,1.7763568e-15 z M 14.183,12.459 C 15.347,12.459 16.138,11.69 16.138,10.679 C 16.138,9.427 15.194,8.679 13.898,8.328 C 12.798,8.636 12.162,9.427 12.162,10.459 C 12.141,11.492 12.932,12.459 14.162,12.459 L 14.183,12.459 z M 14.139,2.263 C 12.996,2.263 12.425,3.032 12.425,3.911 C 12.425,4.878 13.282,5.493 14.425,5.845 C 15.194,5.625 15.874,4.922 15.874,4.043 C 15.874,3.142 15.369,2.263 14.161,2.263 L 14.139,2.263 z"
       id="date_18"
       style="fill:#ffffff" />
    <path
       d="M 3.318,3.208 L 3.274,3.208 L 0.549,4.504 L 0,1.999 L 3.801,0.241 L 6.547,0.241 L 6.547,14.523 L 3.318,14.523 L 3.318,3.208 z M 9.92,12.107 C 10.359,12.173 10.711,12.151 11.371,12.107 C 12.403,12.063 13.435,11.755 14.205,11.228 C 15.15,10.613 15.766,9.6679996 16.007,8.5909996 L 15.963,8.5689996 C 15.304,9.2279996 14.381,9.6019996 13.063,9.6019996 C 10.646,9.6019996 8.625,7.9319996 8.625,5.1419996 C 8.625,2.352 10.866,3.5527136e-15 14.009,3.5527136e-15 C 17.678,3.5527136e-15 19.413,2.812 19.413,6.1519996 C 19.413,9.1399996 18.469,11.294 16.931,12.722 C 15.569,13.974 13.679,14.634 11.438,14.722 C 10.888,14.766 10.318,14.744 9.921,14.722 L 9.921,12.107 L 9.92,12.107 z M 13.898,2.439 C 12.778,2.439 11.942,3.45 11.942,4.9439996 C 11.942,6.1739996 12.624,7.2289996 13.963,7.2289996 C 14.908,7.2289996 15.524,6.8119996 15.854,6.3059996 C 15.963,6.0859996 16.007,5.8669996 16.007,5.4489996 C 16.029,3.933 15.436,2.439 13.92,2.439 L 13.898,2.439 z"
       id="date_19"
       style="fill:#ffffff" />
    <path
       d="M 0,14.524 L 0,12.503 L 1.823,10.855 C 4.965,8.043 6.481,6.438 6.504,4.769 C 6.504,3.6040005 5.822,2.6820005 4.174,2.6820005 C 2.944,2.6820005 1.867,3.2970005 1.12,3.8470005 L 0.176,1.4740005 C 1.231,0.66100047 2.922,0.0020004697 4.834,0.0020004697 C 8.086,0.0020004697 9.844,1.8920005 9.844,4.4840005 C 9.844,6.879 8.129,8.791 6.042,10.636 L 4.724,11.735 L 4.724,11.779 L 10.129,11.779 L 10.129,14.526 L 0,14.526 L 0,14.524 z M 15.974,14.766 C 12.283,14.766 10.657,11.448 10.635,7.405 C 10.635,3.2520005 12.37,4.6972657e-07 16.062,4.6972657e-07 C 19.864,4.6972657e-07 21.379,3.4060005 21.379,7.317 C 21.379,11.712 19.6,14.766 15.996,14.766 L 15.974,14.766 z M 16.018,12.239 C 17.315,12.239 18.018,10.613 18.018,7.361 C 18.018,4.1970005 17.336,2.5270005 15.997,2.5270005 C 14.744,2.5270005 13.953,4.1310005 13.953,7.361 C 13.931,10.657 14.722,12.239 15.997,12.239 L 16.018,12.239 z"
       id="date_20"
       style="fill:#ffffff;fill-opacity:1" />
    <path
       d="M 0,14.522 L 0,12.501 L 1.824,10.853 C 4.967,8.041 6.482,6.436 6.504,4.767 C 6.504,3.602 5.8231,2.68 4.1761,2.68 C 2.946,2.68 1.8681,3.295 1.121,3.845 L 0.1761,1.472 C 1.2311,0.659 2.9231,1.2434498e-14 4.8341,1.2434498e-14 C 8.0861,1.2434498e-14 9.844,1.89 9.844,4.482 C 9.844,6.877 8.131,8.789 6.043,10.634 L 4.7251,11.733 L 4.7251,11.777 L 10.13,11.777 L 10.13,14.524 L 0,14.524 L 0,14.522 z M 14.2041,3.206 L 14.1601,3.206 L 11.4351,4.502 L 10.8861,1.997 L 14.6871,0.239 L 17.433,0.239 L 17.433,14.521 L 14.2041,14.521 L 14.2041,3.206 z"
       id="date_21"
       style="fill:#ffffff;fill-opacity:1" />
    <path
       d="M 0,14.522 L 0,12.501 L 1.8239,10.853 C 4.9669,8.041 6.482,6.436 6.504,4.767 C 6.504,3.602 5.823,2.68 4.1759,2.68 C 2.946,2.68 1.8679,3.295 1.1209,3.845 L 0.1759,1.472 C 1.231,0.659 2.923,1.2434498e-14 4.834,1.2434498e-14 C 8.086,1.2434498e-14 9.8439,1.89 9.8439,4.482 C 9.8439,6.877 8.131,8.789 6.0429,10.634 L 4.7249,11.733 L 4.7249,11.777 L 10.1299,11.777 L 10.1299,14.524 L 0,14.524 L 0,14.522 z M 10.7419,14.522 L 10.7419,12.501 L 12.566,10.853 C 15.709,8.041 17.2239,6.436 17.2459,4.767 C 17.2459,3.602 16.5649,2.68 14.9179,2.68 C 13.6879,2.68 12.6099,3.295 11.863,3.845 L 10.9179,1.472 C 11.973,0.659 13.6649,1.2434498e-14 15.5759,1.2434498e-14 C 18.8279,1.2434498e-14 20.586,1.89 20.586,4.482 C 20.586,6.877 18.8729,8.789 16.785,10.634 L 15.4669,11.733 L 15.4669,11.777 L 20.872,11.777 L 20.872,14.524 L 10.7419,14.524 L 10.7419,14.522 z"
       id="date_22"
       style="fill:#ffffff;fill-opacity:1" />
    <path
       d="M 0,14.524 L 0,12.503 L 1.8231,10.855 C 4.965,8.043 6.4811,6.438 6.5041,4.769 C 6.5041,3.604 5.822,2.682 4.1741,2.682 C 2.9441,2.682 1.8671,3.297 1.12,3.847 L 0.1761,1.474 C 1.2311,0.661 2.922,0.002 4.8341,0.002 C 8.0861,0.002 9.844,1.892 9.844,4.484 C 9.844,6.879 8.129,8.791 6.042,10.636 L 4.724,11.735 L 4.724,11.779 L 10.129,11.779 L 10.129,14.526 L 0,14.526 L 0,14.524 z M 11.3721,11.25 C 11.965,11.58 13.3271,12.129 14.6891,12.129 C 16.4241,12.129 17.3031,11.294 17.3031,10.239 C 17.3031,8.811 15.8971,8.174 14.4481,8.174 L 13.085,8.174 L 13.085,5.779 L 14.382,5.779 C 15.503,5.779 16.909,5.34 16.909,4.131 C 16.909,3.274 16.2271,2.637 14.8,2.637 C 13.6351,2.637 12.4041,3.142 11.833,3.494 L 11.151,1.077 C 12.0081,0.528 13.7001,7.1054273e-15 15.5681,7.1054273e-15 C 18.6,7.1054273e-15 20.292,1.604 20.292,3.56 C 20.292,5.076 19.436,6.285 17.6781,6.878 L 17.6781,6.922 C 19.3921,7.23 20.777,8.526 20.777,10.416 C 20.777,12.921 18.5571,14.767 14.931,14.767 C 13.085,14.767 11.5261,14.284 10.6911,13.778 L 11.3721,11.25 z"
       id="date_23"
       style="fill:#ffffff" />
    <path
       d="M 0,14.522 L 0,12.501 L 1.824,10.853 C 4.967,8.041 6.482,6.436 6.504,4.767 C 6.504,3.602 5.8231,2.68 4.1761,2.68 C 2.9461,2.68 1.8681,3.295 1.121,3.845 L 0.1761,1.472 C 1.231,0.659 2.9231,1.2434498e-14 4.8341,1.2434498e-14 C 8.0861,1.2434498e-14 9.844,1.89 9.844,4.482 C 9.844,6.877 8.1311,8.789 6.043,10.634 L 4.7251,11.733 L 4.7251,11.777 L 10.13,11.777 L 10.13,14.524 L 0,14.524 L 0,14.522 z M 16.6561,14.522 L 16.6561,11.116 L 10.3281,11.116 L 10.3281,8.941 L 15.7111,0.24 L 19.82,0.24 L 19.82,8.612 L 21.511,8.612 L 21.511,11.117 L 19.82,11.117 L 19.82,14.523 L 16.6561,14.523 L 16.6561,14.522 z M 16.6561,8.611 L 16.6561,5.447 C 16.6561,4.59 16.699,3.711 16.744,2.788 L 16.6781,2.788 C 16.217,3.711 15.8211,4.546 15.338,5.447 L 13.447,8.567 L 13.4261,8.611 L 16.6561,8.611 z"
       id="date_24"
       style="fill:#ffffff" />
    <path
       d="M 0,14.522 L 0,12.501 L 1.823,10.853 C 4.9651,8.0410004 6.4811,6.4360004 6.504,4.7670004 C 6.504,3.602 5.8221,2.68 4.174,2.68 C 2.944,2.68 1.8671,3.295 1.12,3.845 L 0.176,1.472 C 1.2311,0.659 2.922,1.7763568e-15 4.834,1.7763568e-15 C 8.0861,1.7763568e-15 9.844,1.89 9.844,4.482 C 9.844,6.8770004 8.129,8.7890004 6.042,10.634 L 4.7241,11.733 L 4.7241,11.777 L 10.129,11.777 L 10.129,14.524 L 0,14.524 L 0,14.522 z M 20.2671,2.986 L 14.73,2.986 L 14.422,5.1610004 C 14.73,5.1390004 14.993,5.1170004 15.3451,5.1170004 C 16.7071,5.1170004 18.114,5.4250004 19.103,6.1500004 C 20.179,6.8750004 20.8381,8.0620004 20.8381,9.7540004 C 20.8381,12.413 18.553,14.764 14.708,14.764 C 12.9721,14.764 11.5211,14.368 10.73,13.951 L 11.3451,11.446 C 11.96,11.754 13.2561,12.149 14.553,12.149 C 15.9381,12.149 17.4091,11.49 17.4091,9.9740004 C 17.4091,8.4800004 16.2441,7.5790004 13.388,7.5790004 C 12.5971,7.5790004 12.047,7.6230004 11.4761,7.7110004 L 12.399,0.24 L 20.2651,0.24 L 20.2651,2.986 L 20.2671,2.986 z"
       id="date_25"
       style="fill:#ffffff" />
    <path
       d="M 0,14.522 L 0,12.501 L 1.8231,10.853 C 4.9651,8.041 6.4811,6.436 6.504,4.767 C 6.504,3.602 5.822,2.68 4.174,2.68 C 2.944,2.68 1.8671,3.295 1.1201,3.845 L 0.176,1.472 C 1.2311,0.659 2.922,2.1316282e-14 4.8341,2.1316282e-14 C 8.086,2.1316282e-14 9.844,1.89 9.844,4.482 C 9.844,6.877 8.1291,8.789 6.042,10.634 L 4.7241,11.733 L 4.7241,11.777 L 10.1291,11.777 L 10.1291,14.524 L 0,14.524 L 0,14.522 z M 19.7991,2.613 C 19.426,2.591 19.0301,2.613 18.5031,2.657 C 15.537,2.877 14.219,4.415 13.8451,6.063 L 13.9101,6.063 C 14.6131,5.36 15.625,4.942 16.9431,4.942 C 19.3381,4.942 21.3591,6.634 21.3591,9.6 C 21.3591,12.434 19.183,14.764 16.107,14.764 C 12.285,14.764 10.417,11.93 10.417,8.524 C 10.417,5.843 11.406,3.602 12.966,2.152 C 14.3721,0.856 16.2401,0.174 18.4591,0.065 C 19.074,-0.001 19.4921,0.021 19.7991,0.043 L 19.7991,2.613 L 19.7991,2.613 z M 16.064,12.303 C 17.228,12.303 17.975,11.226 17.975,9.776 C 17.975,8.458 17.272,7.315 15.8431,7.315 C 14.9431,7.315 14.196,7.864 13.8881,8.567 C 13.779,8.765 13.734,9.028 13.734,9.424 C 13.8001,10.94 14.525,12.302 16.042,12.302 L 16.064,12.302 L 16.064,12.303 z"
       id="date_26"
       style="fill:#ffffff" />
    <path
       d="M 0,14.522 L 0,12.501 L 1.8239,10.853 C 4.967,8.041 6.482,6.436 6.504,4.767 C 6.504,3.602 5.8229,2.68 4.176,2.68 C 2.946,2.68 1.868,3.295 1.1209,3.845 L 0.176,1.472 C 1.2309,0.659 2.9229,1.2434498e-14 4.8339,1.2434498e-14 C 8.0859,1.2434498e-14 9.844,1.89 9.844,4.482 C 9.844,6.877 8.1309,8.789 6.0429,10.634 L 4.725,11.733 L 4.725,11.777 L 10.1299,11.777 L 10.1299,14.524 L 0,14.524 L 0,14.522 z M 20.69397,0.24 L 20.69397,2.327 L 14.8049,14.522 L 11.2669,14.522 L 17.15597,3.03 L 17.15597,2.986 L 10.609,2.986 L 10.609,0.239 L 20.69397,0.239 L 20.69397,0.24 z"
       id="date_27"
       style="fill:#ffffff" />
    <path
       d="M 0,14.524 L 0,12.503 L 1.823,10.855 C 4.965,8.043 6.481,6.438 6.504,4.769 C 6.504,3.604 5.822,2.682 4.174,2.682 C 2.944,2.682 1.867,3.297 1.12,3.847 L 0.176,1.474 C 1.231,0.661 2.922,0.002 4.834,0.002 C 8.086,0.002 9.844,1.892 9.844,4.484 C 9.844,6.879 8.129,8.791 6.042,10.636 L 4.724,11.735 L 4.724,11.779 L 10.129,11.779 L 10.129,14.526 L 0,14.526 L 0,14.524 z M 16.139,1.7763568e-15 C 19.479,1.7763568e-15 20.863,1.934 20.863,3.669 C 20.863,4.899 20.204,6.108 18.776,6.811 L 18.776,6.877 C 20.182,7.404 21.413,8.591 21.413,10.415 C 21.413,13.008 19.237,14.766 15.919,14.766 C 12.294,14.766 10.624,12.723 10.624,10.789 C 10.624,9.075 11.612,7.889 13.173,7.207 L 13.173,7.163 C 11.788,6.438 11.108,5.273 11.108,4.021 C 11.108,1.604 13.283,1.7763568e-15 16.118,1.7763568e-15 L 16.139,1.7763568e-15 L 16.139,1.7763568e-15 z M 16.072,12.459 C 17.236,12.459 18.027,11.69 18.027,10.679 C 18.027,9.427 17.083,8.679 15.787,8.328 C 14.687,8.636 14.051,9.427 14.051,10.459 C 14.03,11.492 14.821,12.459 16.051,12.459 L 16.072,12.459 z M 16.028,2.263 C 14.885,2.263 14.314,3.032 14.314,3.911 C 14.314,4.878 15.171,5.493 16.314,5.845 C 17.083,5.625 17.763,4.922 17.763,4.043 C 17.763,3.142 17.258,2.263 16.05,2.263 L 16.028,2.263 z"
       id="date_28"
       style="fill:#ffffff" />
    <path
       d="M 0,14.524 L 0,12.503 L 1.824,10.855 C 4.967,8.0429996 6.482,6.4379996 6.504,4.7689996 C 6.504,3.604 5.823,2.682 4.176,2.682 C 2.946,2.682 1.868,3.297 1.121,3.847 L 0.176,1.474 C 1.231,0.661 2.923,0.002 4.834,0.002 C 8.086,0.002 9.844,1.892 9.844,4.484 C 9.844,6.8789996 8.131,8.7909996 6.043,10.636 L 4.725,11.735 L 4.725,11.779 L 10.13,11.779 L 10.13,14.526 L 0,14.526 L 0,14.524 z M 11.777,12.107 C 12.216,12.173 12.568,12.151 13.228,12.107 C 14.26,12.063 15.292,11.755 16.062,11.228 C 17.007,10.613 17.623,9.6679996 17.864,8.5909996 L 17.82,8.5689996 C 17.161,9.2279996 16.238,9.6019996 14.92,9.6019996 C 12.503,9.6019996 10.482,7.9319996 10.482,5.1419996 C 10.482,2.352 12.723,3.5527136e-15 15.866,3.5527136e-15 C 19.535,3.5527136e-15 21.27,2.812 21.27,6.1519996 C 21.27,9.1399996 20.326,11.294 18.788,12.722 C 17.426,13.974 15.536,14.634 13.295,14.722 C 12.745,14.766 12.175,14.744 11.778,14.722 L 11.778,12.107 L 11.777,12.107 z M 15.754,2.439 C 14.634,2.439 13.798,3.45 13.798,4.9439996 C 13.798,6.1739996 14.48,7.2289996 15.819,7.2289996 C 16.764,7.2289996 17.38,6.8119996 17.71,6.3059996 C 17.819,6.0859996 17.863,5.8669996 17.863,5.4489996 C 17.885,3.933 17.292,2.439 15.776,2.439 L 15.754,2.439 z"
       id="date_29"
       style="fill:#ffffff" />
    <path
       d="M 0.681,11.25 C 1.274,11.58 2.636,12.129 3.998,12.129 C 5.733,12.129 6.612,11.294 6.612,10.239 C 6.612,8.8109997 5.206,8.1739997 3.757,8.1739997 L 2.394,8.1739997 L 2.394,5.7789997 L 3.691,5.7789997 C 4.812,5.7789997 6.218,5.3399997 6.218,4.131 C 6.218,3.274 5.536,2.637 4.109,2.637 C 2.944,2.637 1.713,3.142 1.142,3.494 L 0.46,1.077 C 1.317,0.528 3.009,1.2434498e-14 4.877,1.2434498e-14 C 7.909,1.2434498e-14 9.601,1.604 9.601,3.56 C 9.601,5.0759997 8.745,6.2849997 6.987,6.8779997 L 6.987,6.9219997 C 8.701,7.2299997 10.086,8.5259997 10.086,10.416 C 10.086,12.921 7.866,14.767 4.24,14.767 C 2.394,14.767 0.835,14.284 0,13.778 L 0.681,11.25 z M 16.005,14.766 C 12.314,14.766 10.688,11.448 10.666,7.4049997 C 10.666,3.252 12.401,1.2434498e-14 16.093,1.2434498e-14 C 19.895,1.2434498e-14 21.41,3.406 21.41,7.3169997 C 21.41,11.712 19.631,14.766 16.027,14.766 L 16.005,14.766 z M 16.049,12.239 C 17.346,12.239 18.049,10.613 18.049,7.3609997 C 18.049,4.197 17.367,2.527 16.028,2.527 C 14.775,2.527 13.984,4.131 13.984,7.3609997 C 13.962,10.657 14.753,12.239 16.028,12.239 L 16.049,12.239 z"
       id="date_30"
       style="fill:#ffffff" />
    <path
       d="M 0.68,11.25 C 1.274,11.58 2.636,12.129 3.998,12.129 C 5.734,12.129 6.613,11.294 6.613,10.239 C 6.613,8.811 5.207,8.174 3.756,8.174 L 2.395,8.174 L 2.395,5.779 L 3.691,5.779 C 4.811,5.779 6.217,5.34 6.217,4.131 C 6.217,3.274 5.536,2.637 4.108,2.637 C 2.944,2.637 1.713,3.142 1.142,3.494 L 0.461,1.077 C 1.317,0.528 3.01,7.1054273e-15 4.877,7.1054273e-15 C 7.909,7.1054273e-15 9.602,1.604 9.602,3.56 C 9.602,5.076 8.745,6.285 6.987,6.878 L 6.987,6.922 C 8.701,7.23 10.085,8.526 10.085,10.416 C 10.085,12.921 7.866,14.767 4.241,14.767 C 2.395,14.767 0.835,14.284 0,13.778 L 0.68,11.25 z M 14.211,3.208 L 14.167,3.208 L 11.442,4.504 L 10.892,1.999 L 14.694,0.241 L 17.441,0.241 L 17.441,14.523 L 14.211,14.523 L 14.211,3.208 z"
       id="date_31"
       style="fill:#ffffff" />
    <path
       d="M 0,1.274 L 14.585043,1.274 L 14.585043,5.699 L 5.416,5.699 L 5.416,11.15 L 13.983043,11.15 L 13.983043,15.54 L 5.416,15.54 L 5.416,25.134 L 0,25.134 L 0,1.274 z M 21.098043,18.196 C 21.275043,20.426 23.470043,21.488 25.983043,21.488 C 27.824043,21.488 29.311043,21.24 30.762043,20.78 L 31.470043,24.426 C 29.699043,25.134 27.540043,25.524 25.204043,25.524 C 19.328043,25.524 15.964043,22.09 15.964043,16.673 C 15.964043,12.283 18.690043,7.434 24.708043,7.434 C 30.301043,7.434 32.424943,11.788 32.424943,16.072 C 32.424943,16.992 32.318943,17.806 32.247943,18.196 L 21.098043,18.196 z M 27.435043,14.514 C 27.435043,13.204 26.869043,11.009 24.391043,11.009 C 22.125043,11.009 21.204043,13.063 21.063043,14.514 L 27.435043,14.514 z M 34.829943,1.0658141e-14 L 40.211043,1.0658141e-14 L 40.211043,9.876 L 40.281943,9.876 C 41.308043,8.39 43.114043,7.434 45.520943,7.434 C 49.663043,7.434 52.707043,10.868 52.671043,16.178 C 52.671043,22.408 48.706043,25.524 44.741043,25.524 C 42.722943,25.524 40.775943,24.78 39.537043,22.727 L 39.466043,22.727 L 39.254043,25.134 L 34.687043,25.134 C 34.758043,24.001 34.828943,21.912 34.828943,19.966 L 34.828943,1.0658141e-14 L 34.829943,1.0658141e-14 z M 40.211043,17.771 C 40.211043,18.125 40.246943,18.444 40.317043,18.727 C 40.671043,20.178 41.910043,21.276 43.467043,21.276 C 45.768043,21.276 47.184043,19.505 47.184043,16.39 C 47.184043,13.7 45.980043,11.576 43.467043,11.576 C 42.015943,11.576 40.671043,12.674 40.317043,14.231 C 40.246043,14.549 40.211043,14.868 40.211043,15.222 L 40.211043,17.771 z"
       id="Feb"
       style="fill:#ffffff;fill-opacity:1" />
    <path
       d="M 20.711,14.728 C 20.605,11.86 20.499,8.392 20.499,4.922 L 20.3921,4.922 C 19.6491,7.967 18.6581,11.365 17.7371,14.162 L 14.8341,23.472 L 10.6211,23.472 L 8.0721,14.268 C 7.2941,11.436 6.4791,8.038 5.913,4.922 L 5.8421,4.922 C 5.7001,8.144 5.5941,11.825 5.4171,14.799 L 4.992,23.861 L 0,23.861 L 1.522,0.001 L 8.7091,0.001 L 11.0451,7.966 C 11.789,10.692 12.5321,13.7 13.0631,16.497 L 13.1691,16.497 C 13.8421,13.736 14.656,10.585 15.435,7.93 L 17.9841,1.4210855e-14 L 25.029,1.4210855e-14 L 26.339,23.86 L 21.0651,23.86 L 20.711,14.728 z M 43.905,19.648 C 43.905,21.312 43.9751,22.905 44.153,23.861 L 39.3031,23.861 L 38.9851,22.127 L 38.8791,22.127 C 37.7461,23.507 35.9771,24.251 33.923,24.251 C 30.4191,24.251 28.3301,21.702 28.3301,18.94 C 28.3301,14.444 32.365,12.285 38.49,12.32 L 38.49,12.072 C 38.49,11.151 37.9941,9.842 35.339,9.842 C 33.569,9.842 31.693,10.444 30.56,11.152 L 29.569,7.683 C 30.7731,7.01 33.145,6.161 36.2951,6.161 C 42.066,6.161 43.906,9.559 43.906,13.631 L 43.906,19.648 L 43.905,19.648 z M 38.666,15.683 C 35.8341,15.648 33.6391,16.321 33.6391,18.409 C 33.6391,19.789 34.56,20.462 35.7631,20.462 C 37.109,20.462 38.2061,19.577 38.56,18.48 C 38.6311,18.197 38.666,17.878 38.666,17.56 L 38.666,15.683 z M 47.134,12.25 C 47.134,9.701 47.0631,8.037 46.992,6.551 L 51.6292,6.551 L 51.8062,9.737 L 51.9482,9.737 C 52.8332,7.224 54.9572,6.162 56.6212,6.162 C 57.1161,6.162 57.3641,6.162 57.7542,6.233 L 57.7542,11.331 C 57.3641,11.225 56.9041,11.154 56.3022,11.154 C 54.3202,11.154 52.9742,12.216 52.6202,13.88 C 52.5491,14.234 52.5142,14.659 52.5142,15.084 L 52.5142,23.863 L 47.1331,23.863 L 47.1331,12.25 L 47.134,12.25 z"
       id="Mar"
       style="fill:#ffffff;fill-opacity:1" />
    <path
       d="M 7.292,17.736 L 5.5929,23.86 L 0,23.86 L 7.292,7.1054273e-15 L 14.3719,7.1054273e-15 L 21.771,23.86 L 15.965,23.86 L 14.124,17.736 L 7.292,17.736 z M 13.3449,13.7 L 11.858,8.638 C 11.433,7.222 11.0079,5.452 10.654,4.036 L 10.5829,4.036 C 10.2289,5.452 9.8749,7.258 9.4859,8.638 L 8.07,13.7 L 13.3449,13.7 z M 23.53,12.355 C 23.53,10.089 23.4589,8.142 23.388,6.549 L 28.061,6.549 L 28.309,8.956 L 28.3799,8.956 C 29.654,7.115 31.637,6.159 34.1509,6.159 C 37.9389,6.159 41.337,9.451 41.337,14.973 C 41.337,21.275 37.337,24.248 33.4779,24.248 C 31.389,24.248 29.761,23.398 28.982,22.266 L 28.9119,22.266 L 28.9119,30.868 L 23.531,30.868 L 23.531,12.355 L 23.53,12.355 z M 28.9109,16.426 C 28.9109,16.851 28.946,17.24 29.017,17.559 C 29.3709,19.011 30.61,20.108 32.168,20.108 C 34.504,20.108 35.885,18.161 35.885,15.223 C 35.885,12.462 34.646,10.373 32.2389,10.373 C 30.7169,10.373 29.3719,11.506 29.0179,13.099 C 28.947,13.382 28.9119,13.736 28.9119,14.055 L 28.9119,16.426 L 28.9109,16.426 z M 43.7469,12.249 C 43.7469,9.7 43.676,8.036 43.6049,6.55 L 48.242,6.55 L 48.4189,9.736 L 48.561,9.736 C 49.446,7.223 51.57,6.161 53.234,6.161 C 53.7289,6.161 53.9769,6.161 54.367,6.232 L 54.367,11.33 C 53.9769,11.224 53.517,11.153 52.915,11.153 C 50.933,11.153 49.587,12.215 49.233,13.879 C 49.1619,14.233 49.127,14.658 49.127,15.083 L 49.127,23.862 L 43.7459,23.862 L 43.7459,12.249 L 43.7469,12.249 z"
       id="Apr"
       style="fill:#ffffff;fill-opacity:1" />
    <path
       d="M 20.71,14.728 C 20.604,11.86 20.4979,8.392 20.4979,4.922 L 20.392,4.922 C 19.6489,7.967 18.6579,11.365 17.7369,14.162 L 14.8339,23.472 L 10.6209,23.472 L 8.0719,14.268 C 7.2939,11.436 6.4789,8.038 5.913,4.922 L 5.8419,4.922 C 5.7,8.144 5.5939,11.825 5.417,14.799 L 4.992,23.861 L 0,23.861 L 1.522,0.001 L 8.709,0.001 L 11.0449,7.966 C 11.789,10.692 12.532,13.7 13.0629,16.497 L 13.1689,16.497 C 13.8419,13.736 14.656,10.585 15.435,7.93 L 17.984,1.4210855e-14 L 25.0289,1.4210855e-14 L 26.339,23.86 L 21.0649,23.86 L 20.71,14.728 z M 43.904,19.648 C 43.904,21.312 43.974,22.905 44.1519,23.861 L 39.3019,23.861 L 38.984,22.127 L 38.878,22.127 C 37.7449,23.507 35.9759,24.251 33.9219,24.251 C 30.4179,24.251 28.329,21.702 28.329,18.94 C 28.329,14.444 32.3639,12.285 38.4889,12.32 L 38.4889,12.072 C 38.4889,11.151 37.993,9.842 35.338,9.842 C 33.568,9.842 31.692,10.444 30.559,11.152 L 29.568,7.683 C 30.772,7.01 33.144,6.161 36.2939,6.161 C 42.0649,6.161 43.905,9.559 43.905,13.631 L 43.905,19.648 L 43.904,19.648 z M 38.665,15.683 C 35.8329,15.648 33.638,16.321 33.638,18.409 C 33.638,19.789 34.559,20.462 35.762,20.462 C 37.108,20.462 38.205,19.577 38.559,18.48 C 38.6299,18.197 38.665,17.878 38.665,17.56 L 38.665,15.683 L 38.665,15.683 z M 50.368,6.551 L 52.952,15.047 C 53.2349,16.073 53.589,17.348 53.8019,18.268 L 53.9079,18.268 C 54.156,17.348 54.4389,16.038 54.686,15.047 L 56.81,6.551 L 62.5809,6.551 L 58.5459,17.949 C 56.0669,24.817 54.403,27.578 52.4569,29.313 C 50.5809,30.941 48.598,31.508 47.253,31.685 L 46.1199,27.119 C 46.792,27.013 47.6419,26.694 48.4559,26.199 C 49.27,25.774 50.155,24.925 50.686,24.039 C 50.863,23.791 50.9689,23.508 50.9689,23.261 C 50.9689,23.084 50.934,22.801 50.721,22.376 L 44.385,6.552 L 50.368,6.552 L 50.368,6.551 z"
       id="May"
       style="fill:#ffffff;fill-opacity:1" />
    <path
       d="M 7.045,1.0658141e-14 L 12.426,1.0658141e-14 L 12.426,15.081 C 12.426,21.878 9.1679,24.25 3.9299,24.25 C 2.6909,24.25 1.0619,24.037 0,23.684 L 0.6019,19.33 C 1.345,19.578 2.301,19.755 3.364,19.755 C 5.6299,19.755 7.0459,18.729 7.0459,15.011 L 7.0459,1.0658141e-14 L 7.045,1.0658141e-14 z M 32.0939,18.302 C 32.0939,20.568 32.1639,22.408 32.2349,23.86 L 27.5629,23.86 L 27.315,21.418 L 27.2089,21.418 C 26.536,22.48 24.9079,24.25 21.7929,24.25 C 18.288,24.25 15.704,22.055 15.704,16.709 L 15.704,6.549 L 21.1199,6.549 L 21.1199,15.859 C 21.1199,18.372 21.934,19.895 23.81,19.895 C 25.297,19.895 26.147,18.869 26.5,18.019 C 26.6419,17.7 26.6769,17.275 26.6769,16.851 L 26.6769,6.55 L 32.0939,6.55 L 32.0939,18.302 z M 35.4489,12.072 C 35.4489,9.912 35.3789,8.072 35.307,6.55 L 39.98,6.55 L 40.228,8.922 L 40.3339,8.922 C 41.0419,7.825 42.8119,6.161 45.6799,6.161 C 49.219,6.161 51.8739,8.497 51.8739,13.595 L 51.8739,23.861 L 46.493,23.861 L 46.493,14.267 C 46.493,12.037 45.7149,10.515 43.7669,10.515 C 42.281,10.515 41.395,11.541 41.041,12.533 C 40.8989,12.887 40.828,13.383 40.828,13.878 L 40.828,23.861 L 35.4469,23.861 L 35.4469,12.072 L 35.4489,12.072 z"
       id="Jun"
       style="fill:#ffffff;fill-opacity:1" />
    <path
       d="M 7.045,1.274 L 12.4259,1.274 L 12.4259,16.355 C 12.4259,23.152 9.1679,25.524 3.93,25.524 C 2.691,25.524 1.062,25.311 0,24.958 L 0.602,20.604 C 1.345,20.852 2.3009,21.029 3.3639,21.029 C 5.6299,21.029 7.046,20.003 7.046,16.285 L 7.046,1.274 L 7.045,1.274 z M 32.093,19.576 C 32.093,21.842 32.163,23.682 32.2339,25.134 L 27.562,25.134 L 27.314,22.692 L 27.209,22.692 C 26.535,23.754 24.9079,25.524 21.7929,25.524 C 18.287,25.524 15.7039,23.329 15.7039,17.983 L 15.7039,7.823 L 21.12,7.823 L 21.12,17.133 C 21.12,19.646 21.9339,21.169 23.8109,21.169 C 25.297,21.169 26.1469,20.143 26.5,19.293 C 26.643,18.974 26.678,18.549 26.678,18.125 L 26.678,7.824 L 32.094,7.824 L 32.094,19.576 L 32.093,19.576 z M 35.441,1.0658141e-14 L 40.8219,1.0658141e-14 L 40.8219,25.134 L 35.441,25.134 L 35.441,1.0658141e-14 L 35.441,1.0658141e-14 z"
       id="Jul"
       style="fill:#ffffff;fill-opacity:1" />
    <path
       d="M 7.2931,17.736 L 5.594,23.86 L 0,23.86 L 7.2931,2.1316282e-14 L 14.373,2.1316282e-14 L 21.7711,23.86 L 15.9661,23.86 L 14.1241,17.736 L 7.2931,17.736 z M 13.346,13.7 L 11.8601,8.638 C 11.4361,7.222 11.01,5.452 10.6571,4.036 L 10.587,4.036 C 10.2321,5.452 9.8781,7.258 9.489,8.638 L 8.0731,13.7 L 13.346,13.7 z M 39.5531,18.302 C 39.5531,20.568 39.623,22.408 39.6941,23.86 L 35.0221,23.86 L 34.7741,21.418 L 34.6691,21.418 C 33.9951,22.48 32.368,24.25 29.2531,24.25 C 25.747,24.25 23.163,22.055 23.163,16.709 L 23.163,6.549 L 28.5791,6.549 L 28.5791,15.859 C 28.5791,18.372 29.393,19.895 31.27,19.895 C 32.756,19.895 33.6061,18.869 33.959,18.019 C 34.102,17.7 34.1371,17.275 34.1371,16.851 L 34.1371,6.55 L 39.5531,6.55 L 39.5531,18.302 z M 59.326,21.346 C 59.326,24.674 58.654,27.4 56.7071,29.134 C 54.795,30.763 52.2111,31.258 49.662,31.258 C 47.3961,31.258 44.99,30.798 43.4321,29.913 L 44.4941,25.842 C 45.5921,26.479 47.502,27.152 49.5211,27.152 C 52.0701,27.152 54.0151,25.772 54.0151,22.586 L 54.0151,21.453 L 53.9451,21.453 C 52.92,22.904 51.256,23.719 49.2731,23.719 C 44.99,23.719 41.9451,20.25 41.9451,15.258 C 41.9451,9.7 45.556,6.16 49.804,6.16 C 52.1751,6.16 53.661,7.186 54.546,8.602 L 54.618,8.602 L 54.7941,6.549 L 59.468,6.549 C 59.3961,7.646 59.325,9.098 59.325,11.682 L 59.325,21.346 L 59.326,21.346 z M 53.9451,13.594 C 53.9451,13.24 53.91,12.886 53.8401,12.603 C 53.449,11.187 52.4241,10.231 50.9381,10.231 C 48.991,10.231 47.3971,12.001 47.3971,15.151 C 47.3971,17.735 48.672,19.753 50.9381,19.753 C 52.317,19.753 53.415,18.833 53.77,17.558 C 53.911,17.169 53.9461,16.602 53.9461,16.142 L 53.9461,13.594 L 53.9451,13.594 z"
       id="Aug"
       style="fill:#ffffff;fill-opacity:1" />
    <path
       d="M 1.099,18.691 C 2.55,19.434 4.781,20.177 7.081,20.177 C 9.558,20.177 10.868,19.151 10.868,17.593 C 10.868,16.106 9.735,15.257 6.868,14.23 C 2.9029,12.85 0.319,10.655 0.319,7.186 C 0.319,3.115 3.7169,1.4210855e-14 9.346,1.4210855e-14 C 12.0349,1.4210855e-14 14.018,0.566 15.4339,1.203 L 14.231,5.557 C 13.2759,5.097 11.5769,4.424 9.2389,4.424 C 6.9029,4.424 5.77,5.486 5.77,6.725 C 5.77,8.247 7.116,8.92 10.196,10.088 C 14.4089,11.646 16.3909,13.84 16.3909,17.203 C 16.3909,21.203 13.3109,24.638 6.762,24.638 C 4.0349,24.638 1.3439,23.894 0,23.151 L 1.099,18.691 z M 23.011,17.311 C 23.1889,19.541 25.3819,20.603 27.8959,20.603 C 29.7379,20.603 31.224,20.355 32.675,19.895 L 33.3839,23.541 C 31.6129,24.249 29.4539,24.639 27.116,24.639 C 21.241,24.639 17.8779,21.205 17.8779,15.788 C 17.8779,11.398 20.6029,6.549 26.6219,6.549 C 32.214,6.549 34.339,10.903 34.339,15.187 C 34.339,16.107 34.234,16.921 34.161,17.311 L 23.011,17.311 z M 29.3469,13.629 C 29.3469,12.319 28.781,10.124 26.3039,10.124 C 24.038,10.124 23.116,12.178 22.976,13.629 L 29.3469,13.629 z M 36.744,12.744 C 36.744,10.478 36.674,8.531 36.601,6.938 L 41.2749,6.938 L 41.523,9.345 L 41.5929,9.345 C 42.866,7.504 44.8489,6.548 47.3629,6.548 C 51.152,6.548 54.551,9.84 54.551,15.362 C 54.551,21.664 50.551,24.637 46.692,24.637 C 44.6039,24.637 42.975,23.787 42.196,22.655 L 42.126,22.655 L 42.126,31.257 L 36.745,31.257 L 36.745,12.744 L 36.744,12.744 z M 42.125,16.815 C 42.125,17.24 42.1599,17.629 42.23,17.948 C 42.5839,19.4 43.8239,20.497 45.38,20.497 C 47.7179,20.497 49.0969,18.55 49.0969,15.612 C 49.0969,12.851 47.859,10.762 45.4519,10.762 C 43.9289,10.762 42.5829,11.895 42.2289,13.488 C 42.159,13.771 42.1239,14.125 42.1239,14.444 L 42.1239,16.815 L 42.125,16.815 z"
       id="Sep"
       style="fill:#ffffff;fill-opacity:1" />
    <path
       d="M 22.94,12.072 C 22.94,19.895 18.196,24.639 11.2229,24.639 C 4.1429,24.639 0,19.293 0,12.496 C 0,5.345 4.566,1.7763568e-14 11.611,1.7763568e-14 C 18.94,0.001 22.94,5.488 22.94,12.072 z M 5.7,12.391 C 5.7,17.064 7.895,20.356 11.507,20.356 C 15.153,20.356 17.2409,16.887 17.2409,12.249 C 17.2409,7.966 15.1879,4.284 11.471,4.284 C 7.825,4.284 5.7,7.753 5.7,12.391 z M 38.428,23.825 C 37.471,24.25 35.6659,24.639 33.614,24.639 C 28.02,24.639 24.444,21.205 24.444,15.753 C 24.444,10.691 27.915,6.549 34.356,6.549 C 35.7719,6.549 37.3309,6.797 38.4629,7.222 L 37.613,11.222 C 36.9759,10.939 36.019,10.691 34.6029,10.691 C 31.7709,10.691 29.931,12.709 29.966,15.541 C 29.966,18.727 32.0889,20.391 34.71,20.391 C 35.9829,20.391 36.9759,20.178 37.7879,19.825 L 38.428,23.825 z M 46.979,2.231 L 46.979,6.939 L 50.8379,6.939 L 50.8379,10.904 L 46.979,10.904 L 46.979,17.17 C 46.979,19.259 47.475,20.214 49.104,20.214 C 49.846,20.214 50.1649,20.178 50.696,20.072 L 50.731,24.143 C 50.024,24.426 48.749,24.639 47.227,24.639 C 45.493,24.639 44.0409,24.001 43.192,23.117 C 42.2,22.091 41.7039,20.427 41.7039,17.984 L 41.7039,10.904 L 39.403,10.904 L 39.403,6.939 L 41.7039,6.939 L 41.7039,3.682 L 46.979,2.231 z"
       id="Oct"
       style="fill:#ffffff;fill-opacity:1" />
    <path
       d="M 0,23.86 L 0,1.0658141e-14 L 6.30087,1.0658141e-14 L 11.25797,8.744 C 12.67387,11.258 14.08987,14.231 15.15097,16.922 L 15.25797,16.922 C 14.90387,13.772 14.79687,10.55 14.79687,6.939 L 14.79687,0.001 L 19.75387,0.001 L 19.75387,23.861 L 14.08987,23.861 L 8.99197,14.657 C 7.57597,12.108 6.01697,9.028 4.84887,6.232 L 4.74387,6.268 C 4.88497,9.418 4.95497,12.782 4.95497,16.675 L 4.95497,23.862 L 0,23.862 L 0,23.86 z M 40.47587,15.01 C 40.47587,21.346 35.97997,24.25 31.34297,24.25 C 26.28087,24.25 22.38597,20.922 22.38597,15.329 C 22.38597,9.735 26.06797,6.16 31.62597,6.16 C 36.93697,6.16 40.47587,9.806 40.47587,15.01 z M 27.94487,15.187 C 27.94487,18.161 29.18287,20.391 31.48387,20.391 C 33.57387,20.391 34.91987,18.303 34.91987,15.187 C 34.91987,12.603 33.92797,9.983 31.48387,9.983 C 28.89987,9.983 27.94487,12.638 27.94487,15.187 z M 46.20287,6.55 L 48.54087,14.586 C 48.96487,16.038 49.28287,17.418 49.53097,18.798 L 49.63797,18.798 C 49.92097,17.382 50.20387,16.072 50.59297,14.586 L 52.82287,6.55 L 58.48687,6.55 L 52.04397,23.861 L 46.66287,23.861 L 40.36187,6.55 L 46.20287,6.55 L 46.20287,6.55 z"
       id="Nov"
       style="fill:#ffffff;fill-opacity:1" />
    <path
       d="M 0,0.496 C 1.982,0.177 4.5661,3.5527136e-15 7.293,3.5527136e-15 C 11.824,3.5527136e-15 14.762,0.814 17.0631,2.549 C 19.542,4.39 21.0981,7.328 21.0981,11.541 C 21.0981,16.107 19.436,19.258 17.1331,21.205 C 14.621,23.294 10.797,24.285 6.125,24.285 C 3.328,24.285 1.346,24.108 0,23.931 L 0,0.496 L 0,0.496 z M 5.416,19.966 C 5.877,20.072 6.619,20.072 7.293,20.072 C 12.1781,20.107 15.3631,17.417 15.3631,11.718 C 15.398,6.762 12.496,4.142 7.8591,4.142 C 6.6541,4.142 5.877,4.248 5.416,4.354 L 5.416,19.966 z M 27.6441,17.099 C 27.822,19.329 30.0151,20.391 32.529,20.391 C 34.371,20.391 35.857,20.143 37.308,19.683 L 38.0171,23.329 C 36.246,24.037 34.087,24.427 31.7491,24.427 C 25.8741,24.427 22.511,20.993 22.511,15.576 C 22.511,11.186 25.2361,6.337 31.2551,6.337 C 36.847,6.337 38.972,10.691 38.972,14.975 C 38.972,15.895 38.867,16.709 38.7941,17.099 L 27.6441,17.099 z M 33.9801,13.417 C 33.9801,12.107 33.414,9.912 30.937,9.912 C 28.6711,9.912 27.7491,11.966 27.6091,13.417 L 33.9801,13.417 z M 54.3841,23.612 C 53.429,24.037 51.6221,24.426 49.57,24.426 C 43.976,24.426 40.402,20.992 40.402,15.54 C 40.402,10.478 43.871,6.336 50.3141,6.336 C 51.7301,6.336 53.2871,6.584 54.4191,7.009 L 53.5691,11.009 C 52.9321,10.726 51.9771,10.478 50.561,10.478 C 47.7291,10.478 45.887,12.496 45.922,15.328 C 45.922,18.514 48.047,20.178 50.666,20.178 C 51.9411,20.178 52.9321,19.965 53.746,19.612 L 54.3841,23.612 z"
       id="Dec"
       style="fill:#ffffff;fill-opacity:1" />
    <path
       d="M 7.0439998,1.0658141e-14 L 12.425,1.0658141e-14 L 12.425,15.081 C 12.425,21.878 9.1679998,24.25 3.9289998,24.25 C 2.69,24.25 1.061,24.037 0,23.684 L 0.602,19.33 C 1.345,19.578 2.301,19.755 3.363,19.755 C 5.6289998,19.755 7.0449998,18.729 7.0449998,15.011 L 7.0449998,1.0658141e-14 L 7.0439998,1.0658141e-14 z M 30.107,19.647 C 30.107,21.311 30.178,22.904 30.355,23.86 L 25.505,23.86 L 25.186,22.126 L 25.08,22.126 C 23.947,23.506 22.177,24.25 20.124,24.25 C 16.619,24.25 14.53,21.701 14.53,18.939 C 14.53,14.443 18.566,12.284 24.69,12.319 L 24.69,12.071 C 24.69,11.15 24.194,9.841 21.54,9.841 C 19.769,9.841 17.894,10.443 16.761,11.151 L 15.77,7.682 C 16.974,7.009 19.345,6.16 22.496,6.16 C 28.266,6.16 30.107,9.558 30.107,13.63 L 30.107,19.647 z M 24.868,15.682 C 22.036,15.647 19.842,16.32 19.842,18.408 C 19.842,19.788 20.762,20.461 21.966,20.461 C 23.311,20.461 24.408,19.576 24.762,18.479 C 24.833,18.196 24.868,17.877 24.868,17.559 L 24.868,15.682 z M 33.336,12.072 C 33.336,9.912 33.266,8.072 33.194,6.55 L 37.867,6.55 L 38.115,8.922 L 38.221,8.922 C 38.929,7.825 40.699,6.161 43.566,6.161 C 47.106,6.161 49.761,8.497 49.761,13.595 L 49.761,23.861 L 44.38,23.861 L 44.38,14.267 C 44.38,12.037 43.602,10.515 41.654,10.515 C 40.167,10.515 39.282,11.541 38.928,12.533 C 38.786,12.887 38.715,13.383 38.715,13.878 L 38.715,23.861 L 33.334,23.861 L 33.334,12.072 L 33.336,12.072 z"
       id="Jan"
       style="fill:#ffffff;fill-opacity:1" />
  </g>
</svg>
