<?xml version="1.0" encoding="UTF-8" standalone="no"?>
<!-- Generator: Adobe Illustrator 13.0.2, SVG Export Plug-In . SVG Version: 6.00 Build 14948)  -->

<svg
   xmlns:dc="http://purl.org/dc/elements/1.1/"
   xmlns:cc="http://creativecommons.org/ns#"
   xmlns:rdf="http://www.w3.org/1999/02/22-rdf-syntax-ns#"
   xmlns:svg="http://www.w3.org/2000/svg"
   xmlns="http://www.w3.org/2000/svg"
   xmlns:xlink="http://www.w3.org/1999/xlink"
   xmlns:sodipodi="http://sodipodi.sourceforge.net/DTD/sodipodi-0.dtd"
   xmlns:inkscape="http://www.inkscape.org/namespaces/inkscape"
   version="1.0"
   id="レイヤー_1"
   x="0px"
   y="0px"
   width="1060px"
   height="800px"
   viewBox="0 0 1060 800"
   style="enable-background:new 0 0 1060 800;"
   xml:space="preserve"
   sodipodi:version="0.32"
   inkscape:version="0.47 r22583"
   sodipodi:docname="personas_osx.svg"
   inkscape:output_extension="org.inkscape.output.svg.inkscape"><metadata
   id="metadata25381"><rdf:RDF><cc:Work
       rdf:about=""><dc:format>image/svg+xml</dc:format><dc:type
         rdf:resource="http://purl.org/dc/dcmitype/StillImage" /></cc:Work></rdf:RDF></metadata><defs
   id="defs25379"><linearGradient
     id="linearGradient2391"><stop
       style="stop-color:#ffffff;stop-opacity:1;"
       offset="0"
       id="stop2393" /><stop
       style="stop-color:#f6f6f6;stop-opacity:1;"
       offset="1"
       id="stop2395" /></linearGradient><linearGradient
     inkscape:collect="always"
     xlink:href="#linearGradient2391"
     id="linearGradient2397"
     x1="617.8653"
     y1="502.19174"
     x2="617.8653"
     y2="231.15034"
     gradientUnits="userSpaceOnUse" /></defs><sodipodi:namedview
   inkscape:window-height="1092"
   inkscape:window-width="1633"
   inkscape:pageshadow="2"
   inkscape:pageopacity="0.62352941"
   guidetolerance="10.0"
   gridtolerance="10.0"
   objecttolerance="10.0"
   borderopacity="1.0"
   bordercolor="#666666"
   pagecolor="#0078ff"
   id="base"
   showgrid="false"
   inkscape:zoom="1.1172351"
   inkscape:cx="485.26662"
   inkscape:cy="628.17265"
   inkscape:window-x="13"
   inkscape:window-y="16"
   inkscape:current-layer="g25364" />





<g
   inkscape:groupmode="layer"
   id="layer1"
   inkscape:label="layer1"><g
     id="g25737"><rect
       y="222"
       x="0"
       id="rect25356"
       height="536.98779"
       width="1060"
       style="enable-background:new 0 0 1060 800;fill:url(#linearGradient2397);fill-opacity:1" /><rect
       y="0"
       x="0"
       id="titleBar"
       height="24"
       width="1060"
       style="enable-background:new 0 0 1060 800;fill:#808080" /><g
       id="g25364"
       style="enable-background:new 0 0 1060 800">
	<g
   id="g25366"
   style="opacity:0.5"
   transform="translate(64.746118,-31.381808)">
		<path
   id="path25368"
   d="M 779.997,78.616 C 779.997,81.734 777.446,84.285 774.328,84.285 L 51.198,84.285 C 48.08,84.285 45.529,81.734 45.529,78.616 L 45.529,67.91 C 45.529,64.792 48.08,62.241 51.198,62.241 L 774.328,62.241 C 777.446,62.241 779.997,64.792 779.997,67.91 L 779.997,78.616 z"
   style="fill:#ffffff"
   sodipodi:nodetypes="ccccccccc" />
	</g>
	<path
   id="path25370"
   d="M 69.344,34.129 L 81.873,34.129 L 81.881,25.879 L 97.366,41.364 L 81.876,56.85 L 81.876,48.6 L 69.348,48.604 L 69.344,34.129 z"
   style="opacity:0.5;fill:#ffffff" />
	<path
   id="path25372"
   d="M 51.48,48.6 L 38.951,48.6 L 38.944,56.85 L 23.458,41.364 L 38.948,25.879 L 38.948,34.129 L 51.476,34.125 L 51.48,48.6 z"
   style="opacity:0.5;fill:#ffffff" />
	<polygon
   id="polygon25374"
   points="0,125.001 0,124 1060,124 1060,125.001 0,125.001 "
   style="opacity:0.5;fill:#ffffff"
   transform="translate(0,-40)" />
	<polygon
   id="polygon25376"
   points="0,175.001 0,174 1060,174 1060,175.001 0,175.001 "
   style="opacity:0.5;fill:#ffffff"
   transform="translate(0,-66)" />
<g
   id="g2631"
   style="opacity:0.5"
   transform="translate(258.74612,-31.381808)">
		<path
   id="path2633"
   d="M 789.997,78.616 C 789.997,81.734 787.446,84.285 784.328,84.285 L 609.198,84.285 C 606.08,84.285 603.529,81.734 603.529,78.616 L 603.529,67.91 C 603.529,64.792 606.08,62.241 609.198,62.241 L 784.328,62.241 C 787.446,62.241 789.997,64.792 789.997,67.91 L 789.997,78.616 z"
   style="fill:#ffffff"
   sodipodi:nodetypes="ccccccccc" />
	</g></g><path
       id="titleText"
       d="M 455.00095,7.257371 L 455.00095,17.30706 L 456.50682,17.30706 L 456.50682,7.257371 L 460.27942,7.257371 L 460.27942,5.9892714 L 451.22836,5.9892714 L 451.22836,7.257371 L 455.00095,7.257371 M 462.73983,7.6378008 L 462.73983,5.9892714 L 461.39247,5.9892714 L 461.39247,7.6378008 L 462.73983,7.6378008 M 461.39247,9.1119666 L 461.39247,17.30706 L 462.73983,17.30706 L 462.73983,9.1119666 L 461.39247,9.1119666 M 466.71304,9.1119666 L 466.71304,6.6550237 L 465.36569,6.6550237 L 465.36569,9.1119666 L 463.97078,9.1119666 L 463.97078,10.30081 L 465.36569,10.30081 L 465.36569,15.51587 C 465.36569,15.896301 465.40267,16.202758 465.47665,16.435242 C 465.55062,16.667727 465.66158,16.847375 465.80952,16.974184 C 465.96803,17.100994 466.16881,17.190818 466.41187,17.243655 C 466.66549,17.285925 466.96666,17.30706 467.31539,17.30706 L 468.34572,17.30706 L 468.34572,16.118217 L 467.72752,16.118217 C 467.51617,16.118218 467.34181,16.112934 467.20443,16.102366 C 467.07762,16.081232 466.97723,16.044246 466.90326,15.991407 C 466.82928,15.938571 466.77645,15.864598 466.74475,15.769489 C 466.72361,15.674384 466.71304,15.547574 466.71304,15.38906 L 466.71304,10.30081 L 468.34572,10.30081 L 468.34572,9.1119666 L 466.71304,9.1119666 M 469.93729,5.9892714 L 469.93729,17.30706 L 471.28464,17.30706 L 471.28464,5.9892714 L 469.93729,5.9892714 M 479.07801,12.424877 L 474.37019,12.424877 C 474.39132,12.107857 474.46001,11.811967 474.57625,11.537207 C 474.69249,11.251891 474.851,11.003555 475.05179,10.792199 C 475.25257,10.580855 475.49034,10.417059 475.7651,10.30081 C 476.05041,10.174007 476.36744,10.110602 476.71617,10.110595 C 477.05432,10.110602 477.36078,10.174007 477.63554,10.30081 C 477.92086,10.417059 478.16391,10.580855 478.3647,10.792199 C 478.57604,10.992987 478.73984,11.23604 478.85609,11.521356 C 478.98289,11.806684 479.05686,12.107857 479.07801,12.424877 M 480.37781,14.707456 L 479.0463,14.707456 C 478.93005,15.2464 478.687,15.647965 478.31715,15.912151 C 477.95784,16.176339 477.49288,16.308433 476.92224,16.308432 C 476.4784,16.308433 476.09268,16.23446 475.7651,16.086514 C 475.4375,15.938571 475.16803,15.743072 474.95668,15.500018 C 474.74533,15.2464 474.5921,14.961078 474.497,14.644051 C 474.40189,14.316462 474.35962,13.973018 474.37019,13.61372 L 480.50462,13.61372 C 480.52574,13.117052 480.47819,12.593961 480.36196,12.044447 C 480.25627,11.494943 480.05549,10.987704 479.75961,10.522727 C 479.47428,10.057765 479.08857,9.6773353 478.60247,9.3814378 C 478.12692,9.0749886 477.52458,8.9217601 476.79543,8.9217517 C 476.23534,8.9217601 475.71754,9.0274349 475.242,9.2387766 C 474.77703,9.4501344 474.37018,9.746024 474.02146,10.126446 C 473.6833,10.506883 473.41911,10.956001 473.2289,11.473802 C 473.03868,11.991615 472.94357,12.562259 472.94357,13.185737 C 472.96471,13.809222 473.05453,14.38515 473.21304,14.913522 C 473.38212,15.441899 473.63046,15.896301 473.95805,16.276729 C 474.28564,16.65716 474.68721,16.953049 475.16275,17.164399 C 475.64885,17.375749 476.21949,17.481424 476.87468,17.481424 C 477.80462,17.481424 478.57604,17.248939 479.18896,16.783969 C 479.80187,16.319 480.19815,15.62683 480.37781,14.707456 M 488.35817,10.871455 L 488.35817,9.1119666 L 486.59868,9.1119666 L 486.59868,10.871455 L 488.35817,10.871455 M 486.59868,15.547572 L 486.59868,17.30706 L 488.35817,17.30706 L 488.35817,15.547572 L 486.59868,15.547572 M 500.78059,12.424877 L 496.07277,12.424877 C 496.0939,12.107857 496.16259,11.811967 496.27883,11.537207 C 496.39508,11.251891 496.55359,11.003555 496.75437,10.792199 C 496.95515,10.580855 497.19292,10.417059 497.46768,10.30081 C 497.753,10.174007 498.07002,10.110602 498.41875,10.110595 C 498.75691,10.110602 499.06337,10.174007 499.33813,10.30081 C 499.62344,10.417059 499.86649,10.580855 500.06728,10.792199 C 500.27863,10.992987 500.44242,11.23604 500.55867,11.521356 C 500.68547,11.806684 500.75945,12.107857 500.78059,12.424877 M 502.08039,14.707456 L 500.74889,14.707456 C 500.63264,15.2464 500.38958,15.647965 500.01973,15.912151 C 499.66043,16.176339 499.19546,16.308433 498.62482,16.308432 C 498.18098,16.308433 497.79527,16.23446 497.46768,16.086514 C 497.14008,15.938571 496.87061,15.743072 496.65926,15.500018 C 496.44791,15.2464 496.29468,14.961078 496.19958,14.644051 C 496.10447,14.316462 496.0622,13.973018 496.07277,13.61372 L 502.2072,13.61372 C 502.22833,13.117052 502.18077,12.593961 502.06454,12.044447 C 501.95886,11.494943 501.75807,10.987704 501.46219,10.522727 C 501.17686,10.057765 500.79115,9.6773353 500.30505,9.3814378 C 499.82951,9.0749886 499.22716,8.9217601 498.49801,8.9217517 C 497.93793,8.9217601 497.42012,9.0274349 496.94459,9.2387766 C 496.47962,9.4501344 496.07277,9.746024 495.72404,10.126446 C 495.38588,10.506883 495.12169,10.956001 494.93148,11.473802 C 494.74126,11.991615 494.64616,12.562259 494.64616,13.185737 C 494.66729,13.809222 494.75711,14.38515 494.91563,14.913522 C 495.08471,15.441899 495.33304,15.896301 495.66064,16.276729 C 495.98823,16.65716 496.38979,16.953049 496.86533,17.164399 C 497.35143,17.375749 497.92208,17.481424 498.57727,17.481424 C 499.5072,17.481424 500.27863,17.248939 500.89155,16.783969 C 501.50445,16.319 501.90074,15.62683 502.08039,14.707456 M 503.60384,9.1119666 L 503.60384,17.30706 L 504.9512,17.30706 L 504.9512,12.678497 C 504.9512,12.308639 504.99875,11.97048 505.09386,11.664017 C 505.19953,11.346998 505.35276,11.072244 505.55355,10.839752 C 505.75433,10.607274 506.00266,10.427627 506.29855,10.30081 C 506.60501,10.174007 506.9643,10.110602 507.37644,10.110595 C 507.89424,10.110602 508.30109,10.258547 508.59698,10.55443 C 508.89287,10.850326 509.04081,11.251891 509.04082,11.759125 L 509.04082,17.30706 L 510.38818,17.30706 L 510.38818,11.917637 C 510.38817,11.473808 510.34061,11.072244 510.24551,10.712942 C 510.16097,10.343087 510.00774,10.026062 509.78583,9.7618677 C 509.5639,9.4976881 509.2733,9.2916221 508.91401,9.1436691 C 508.55471,8.9957325 508.10559,8.9217601 507.56665,8.9217517 C 506.35139,8.9217601 505.46372,9.4184319 504.90364,10.411769 L 504.87194,10.411769 L 504.87194,9.1119666 L 503.60384,9.1119666 M 513.8539,7.6378008 L 513.8539,5.9892714 L 512.50655,5.9892714 L 512.50655,7.6378008 L 513.8539,7.6378008 M 513.8539,18.337391 L 513.8539,9.1119666 L 512.50655,9.1119666 L 512.50655,18.115474 C 512.50655,18.538172 512.45371,18.828778 512.34803,18.987292 C 512.24236,19.15637 512.04158,19.24091 511.74569,19.240912 L 511.46037,19.240912 C 511.4181,19.24091 511.38111,19.235626 511.34941,19.225061 C 511.30714,19.225059 511.25958,19.219775 511.20675,19.20921 L 511.20675,20.366351 C 511.4181,20.408617 511.6453,20.429752 511.88835,20.429755 C 512.49069,20.429752 512.96623,20.260673 513.31496,19.922516 C 513.67425,19.594921 513.8539,19.066547 513.8539,18.337391 M 516.93945,13.217439 C 516.93944,12.720771 517.00285,12.282221 517.12966,11.901786 C 517.26704,11.510794 517.45197,11.183202 517.68445,10.919009 C 517.91694,10.654828 518.18641,10.454046 518.49287,10.316661 C 518.80989,10.179291 519.14276,10.110602 519.4915,10.110595 C 519.84022,10.110602 520.16781,10.179291 520.47427,10.316661 C 520.79129,10.454046 521.06605,10.654828 521.29854,10.919009 C 521.53102,11.183202 521.71066,11.510794 521.83748,11.901786 C 521.97485,12.282221 522.04354,12.720771 522.04355,13.217439 C 522.04354,13.714115 521.97485,14.157949 521.83748,14.548944 C 521.71066,14.929376 521.53102,15.251684 521.29854,15.51587 C 521.06605,15.769491 520.79129,15.96499 520.47427,16.102366 C 520.16781,16.239744 519.84022,16.308433 519.4915,16.308432 C 519.14276,16.308433 518.80989,16.239744 518.49287,16.102366 C 518.18641,15.96499 517.91694,15.769491 517.68445,15.51587 C 517.45197,15.251684 517.26704,14.929376 517.12966,14.548944 C 517.00285,14.157949 516.93944,13.714115 516.93945,13.217439 M 515.51283,13.217439 C 515.51283,13.81979 515.59737,14.379867 515.76645,14.897671 C 515.93553,15.41548 516.18915,15.869882 516.52731,16.260878 C 516.86547,16.641309 517.28289,16.942482 517.77956,17.164399 C 518.27623,17.375749 518.84687,17.481424 519.4915,17.481424 C 520.14668,17.481424 520.71732,17.375749 521.20343,17.164399 C 521.7001,16.942482 522.11751,16.641309 522.45568,16.260878 C 522.79383,15.869882 523.04745,15.41548 523.21654,14.897671 C 523.38561,14.379867 523.47015,13.81979 523.47016,13.217439 C 523.47015,12.615096 523.38561,12.05502 523.21654,11.537207 C 523.04745,11.008839 522.79383,10.554437 522.45568,10.174 C 522.11751,9.7830102 521.7001,9.4765531 521.20343,9.2546278 C 520.71732,9.0327187 520.14668,8.9217601 519.4915,8.9217517 C 518.84687,8.9217601 518.27623,9.0327187 517.77956,9.2546278 C 517.28289,9.4765531 516.86547,9.7830102 516.52731,10.174 C 516.18915,10.554437 515.93553,11.008839 515.76645,11.537207 C 515.59737,12.05502 515.51283,12.615096 515.51283,13.217439 M 528.2456,18.384945 L 531.81213,9.1119666 L 530.38551,9.1119666 L 528.08708,15.817043 L 528.05538,15.817043 L 525.66184,9.1119666 L 524.14012,9.1119666 L 527.38963,17.259507 L 526.83483,18.638565 C 526.70802,18.881616 526.56008,19.066547 526.391,19.193358 C 526.22192,19.320166 526,19.383571 525.72525,19.383573 C 525.58787,19.383571 525.45049,19.362436 525.31312,19.320168 C 525.1863,19.277896 525.05949,19.235626 524.93269,19.193358 L 524.93269,20.429755 C 525.08063,20.48259 525.23386,20.519576 525.39237,20.540714 C 525.55088,20.561846 525.70939,20.572413 525.86791,20.572417 C 526.17436,20.572413 526.43855,20.530143 526.66047,20.445607 C 526.88239,20.371631 527.08317,20.244821 527.26282,20.065177 C 527.45303,19.896094 527.62211,19.674177 527.77006,19.399425 C 527.92857,19.124668 528.08708,18.786508 528.2456,18.384945 M 537.39721,9.1119666 L 537.39721,20.429755 L 538.74456,20.429755 L 538.74456,16.213324 L 538.77627,16.213324 C 538.92421,16.456378 539.10386,16.662444 539.31521,16.831523 C 539.53712,16.990036 539.76961,17.116845 540.01266,17.211953 C 540.25571,17.30706 540.49876,17.375749 540.74182,17.418019 C 540.99544,17.460289 541.22264,17.481424 541.42342,17.481424 C 542.0469,17.481424 542.59113,17.370465 543.0561,17.148548 C 543.53163,16.926631 543.92263,16.625457 544.22909,16.245027 C 544.54611,15.854031 544.7786,15.399629 544.92655,14.88182 C 545.08505,14.364015 545.16431,13.814506 545.16432,13.23329 C 545.16431,12.652083 545.08505,12.102573 544.92655,11.584761 C 544.76803,11.06696 544.53026,10.612558 544.21324,10.221554 C 543.90678,9.8199964 543.51578,9.5029718 543.04025,9.2704791 C 542.57528,9.0380024 542.02577,8.9217601 541.39172,8.9217517 C 540.82107,8.9217601 540.29798,9.0274349 539.82245,9.2387766 C 539.34691,9.4395669 538.99818,9.7671589 538.77627,10.221554 L 538.74456,10.221554 L 538.74456,9.1119666 L 537.39721,9.1119666 M 543.73771,13.138183 C 543.7377,13.539751 543.69543,13.930748 543.6109,14.311175 C 543.52635,14.691607 543.38897,15.029767 543.19876,15.325655 C 543.00854,15.621546 542.75492,15.859315 542.4379,16.038961 C 542.13144,16.218609 541.74573,16.308433 541.28076,16.308432 C 540.81579,16.308433 540.41951,16.223893 540.09192,16.054812 C 539.76432,15.875166 539.49485,15.642681 539.28351,15.357357 C 539.08272,15.072037 538.93478,14.744445 538.83967,14.37458 C 538.74456,13.994153 538.69701,13.603156 538.69701,13.201588 C 538.69701,12.821162 538.73928,12.446017 538.82382,12.076149 C 538.91892,11.706293 539.06687,11.378701 539.26765,11.093372 C 539.46843,10.797489 539.72734,10.55972 540.04437,10.380066 C 540.36139,10.200426 540.7471,10.110602 541.20151,10.110595 C 541.63477,10.110602 542.00991,10.195142 542.32695,10.364215 C 542.65453,10.533302 542.91872,10.760503 543.11951,11.045818 C 543.33085,11.331147 543.48408,11.658739 543.57919,12.028596 C 543.68486,12.387895 543.7377,12.757757 543.73771,13.138183 M 552.42097,12.424877 L 547.71315,12.424877 C 547.73429,12.107857 547.80298,11.811967 547.91922,11.537207 C 548.03546,11.251891 548.19397,11.003555 548.39476,10.792199 C 548.59554,10.580855 548.8333,10.417059 549.10806,10.30081 C 549.39338,10.174007 549.71041,10.110602 550.05914,10.110595 C 550.39729,10.110602 550.70375,10.174007 550.97851,10.30081 C 551.26383,10.417059 551.50688,10.580855 551.70767,10.792199 C 551.91901,10.992987 552.08281,11.23604 552.19906,11.521356 C 552.32586,11.806684 552.39983,12.107857 552.42097,12.424877 M 553.72078,14.707456 L 552.38927,14.707456 C 552.27302,15.2464 552.02997,15.647965 551.66011,15.912151 C 551.30081,16.176339 550.83584,16.308433 550.2652,16.308432 C 549.82136,16.308433 549.43565,16.23446 549.10806,16.086514 C 548.78047,15.938571 548.511,15.743072 548.29965,15.500018 C 548.0883,15.2464 547.93507,14.961078 547.83996,14.644051 C 547.74485,14.316462 547.70258,13.973018 547.71315,13.61372 L 553.84759,13.61372 C 553.86871,13.117052 553.82116,12.593961 553.70492,12.044447 C 553.59924,11.494943 553.39846,10.987704 553.10258,10.522727 C 552.81725,10.057765 552.43153,9.6773353 551.94544,9.3814378 C 551.46989,9.0749886 550.86755,8.9217601 550.13839,8.9217517 C 549.57831,8.9217601 549.06051,9.0274349 548.58497,9.2387766 C 548.12,9.4501344 547.71315,9.746024 547.36443,10.126446 C 547.02626,10.506883 546.76208,10.956001 546.57186,11.473802 C 546.38165,11.991615 546.28654,12.562259 546.28654,13.185737 C 546.30768,13.809222 546.3975,14.38515 546.55601,14.913522 C 546.72509,15.441899 546.97343,15.896301 547.30102,16.276729 C 547.62861,16.65716 548.03018,16.953049 548.50572,17.164399 C 548.99182,17.375749 549.56246,17.481424 550.21765,17.481424 C 551.14758,17.481424 551.91901,17.248939 552.53193,16.783969 C 553.14484,16.319 553.54112,15.62683 553.72078,14.707456 M 555.19667,9.1119666 L 555.19667,17.30706 L 556.54403,17.30706 L 556.54403,13.661274 C 556.54402,13.132903 556.59686,12.667934 556.70254,12.266364 C 556.80821,11.854237 556.97729,11.50551 557.20978,11.220182 C 557.44226,10.934866 557.74872,10.718233 558.12915,10.570281 C 558.50958,10.422343 558.96926,10.348371 559.50821,10.348364 L 559.50821,8.9217517 C 558.77905,8.9006251 558.1767,9.0485699 557.70117,9.3655865 C 557.22563,9.6826191 556.82406,10.174007 556.49647,10.839752 L 556.46477,10.839752 L 556.46477,9.1119666 L 555.19667,9.1119666 M 561.36256,14.723307 L 560.0152,14.723307 C 560.03633,15.230549 560.14201,15.663816 560.33222,16.023109 C 560.52244,16.371838 560.77606,16.65716 561.09308,16.879077 C 561.41011,17.090427 561.77469,17.243655 562.18682,17.338763 C 562.59895,17.43387 563.03222,17.481424 563.48662,17.481424 C 563.89875,17.481424 564.31088,17.439154 564.72302,17.354614 C 565.14571,17.280642 565.52086,17.143264 565.84846,16.942482 C 566.18661,16.7417 566.45608,16.477513 566.65687,16.149919 C 566.86821,15.822328 566.97389,15.410196 566.9739,14.913522 C 566.97389,14.522528 566.89463,14.194936 566.73613,13.930745 C 566.58818,13.666561 566.38739,13.449928 566.13378,13.280844 C 565.89072,13.101201 565.6054,12.95854 565.27781,12.85286 C 564.96078,12.74719 564.63319,12.657366 564.29504,12.583389 C 563.97801,12.509422 563.66098,12.440733 563.34396,12.377323 C 563.02693,12.303356 562.74161,12.218816 562.48799,12.123703 C 562.23437,12.018033 562.02302,11.891224 561.85394,11.743273 C 561.69543,11.584767 561.61617,11.389268 561.61618,11.156777 C 561.61617,10.945434 561.66901,10.776354 561.77469,10.649537 C 561.88036,10.512167 562.01774,10.406492 562.18682,10.332513 C 562.3559,10.24798 562.54083,10.189858 562.74161,10.158149 C 562.95296,10.126454 563.15903,10.110602 563.35981,10.110595 C 563.58173,10.110602 563.79836,10.137021 564.00971,10.189851 C 564.23163,10.232128 564.43241,10.306101 564.61206,10.411769 C 564.7917,10.517451 564.93965,10.660111 565.0559,10.839752 C 565.17213,11.008839 565.24082,11.225472 565.26196,11.489653 L 566.60932,11.489653 C 566.57761,10.992987 566.47193,10.580855 566.29229,10.253256 C 566.11264,9.9151037 565.86959,9.6509166 565.56314,9.460694 C 565.26724,9.2599196 564.9238,9.1225423 564.5328,9.0485616 C 564.1418,8.96403 563.71382,8.9217601 563.24885,8.9217517 C 562.88956,8.9217601 562.52498,8.9693137 562.15512,9.0644129 C 561.79582,9.148961 561.46823,9.2863383 561.17234,9.4765452 C 560.88702,9.6562003 560.64925,9.8939688 560.45903,10.189851 C 560.27939,10.485748 560.18956,10.839759 560.18956,11.251885 C 560.18956,11.780265 560.32166,12.192397 560.58584,12.488282 C 560.85003,12.784176 561.17762,13.016661 561.56862,13.185737 C 561.97018,13.344253 562.40345,13.471063 562.86842,13.566166 C 563.33339,13.65071 563.76137,13.751101 564.15237,13.86734 C 564.55393,13.973018 564.88681,14.115679 565.151,14.295324 C 565.41518,14.474974 565.54728,14.739161 565.54728,15.087886 C 565.54728,15.341508 565.48387,15.552858 565.35707,15.721936 C 565.23025,15.88045 565.06646,16.001976 564.86568,16.086514 C 564.67546,16.171055 564.46411,16.229177 564.23163,16.260878 C 563.99914,16.292582 563.77722,16.308433 563.56588,16.308432 C 563.29112,16.308433 563.02165,16.282014 562.75747,16.229176 C 562.50384,16.176339 562.27136,16.091799 562.06001,15.975556 C 561.85923,15.848747 561.69543,15.684951 561.56862,15.484167 C 561.44181,15.272819 561.37312,15.0192 561.36256,14.723307 M 569.41574,13.217439 C 569.41573,12.720771 569.47914,12.282221 569.60595,11.901786 C 569.74333,11.510794 569.92826,11.183202 570.16075,10.919009 C 570.39323,10.654828 570.6627,10.454046 570.96916,10.316661 C 571.28618,10.179291 571.61906,10.110602 571.96779,10.110595 C 572.31651,10.110602 572.6441,10.179291 572.95056,10.316661 C 573.26758,10.454046 573.54234,10.654828 573.77483,10.919009 C 574.00731,11.183202 574.18695,11.510794 574.31377,11.901786 C 574.45114,12.282221 574.51983,12.720771 574.51984,13.217439 C 574.51983,13.714115 574.45114,14.157949 574.31377,14.548944 C 574.18695,14.929376 574.00731,15.251684 573.77483,15.51587 C 573.54234,15.769491 573.26758,15.96499 572.95056,16.102366 C 572.6441,16.239744 572.31651,16.308433 571.96779,16.308432 C 571.61906,16.308433 571.28618,16.239744 570.96916,16.102366 C 570.6627,15.96499 570.39323,15.769491 570.16075,15.51587 C 569.92826,15.251684 569.74333,14.929376 569.60595,14.548944 C 569.47914,14.157949 569.41573,13.714115 569.41574,13.217439 M 567.98912,13.217439 C 567.98912,13.81979 568.07366,14.379867 568.24274,14.897671 C 568.41182,15.41548 568.66544,15.869882 569.0036,16.260878 C 569.34176,16.641309 569.75918,16.942482 570.25585,17.164399 C 570.75252,17.375749 571.32317,17.481424 571.96779,17.481424 C 572.62297,17.481424 573.19361,17.375749 573.67972,17.164399 C 574.17639,16.942482 574.5938,16.641309 574.93197,16.260878 C 575.27012,15.869882 575.52374,15.41548 575.69283,14.897671 C 575.8619,14.379867 575.94644,13.81979 575.94645,13.217439 C 575.94644,12.615096 575.8619,12.05502 575.69283,11.537207 C 575.52374,11.008839 575.27012,10.554437 574.93197,10.174 C 574.5938,9.7830102 574.17639,9.4765531 573.67972,9.2546278 C 573.19361,9.0327187 572.62297,8.9217601 571.96779,8.9217517 C 571.32317,8.9217601 570.75252,9.0327187 570.25585,9.2546278 C 569.75918,9.4765531 569.34176,9.7830102 569.0036,10.174 C 568.66544,10.554437 568.41182,11.008839 568.24274,11.537207 C 568.07366,12.05502 567.98912,12.615096 567.98912,13.217439 M 577.50408,9.1119666 L 577.50408,17.30706 L 578.85144,17.30706 L 578.85144,12.678497 C 578.85143,12.308639 578.89899,11.97048 578.9941,11.664017 C 579.09977,11.346998 579.253,11.072244 579.45378,10.839752 C 579.65456,10.607274 579.9029,10.427627 580.19879,10.30081 C 580.50525,10.174007 580.86454,10.110602 581.27668,10.110595 C 581.79448,10.110602 582.20133,10.258547 582.49722,10.55443 C 582.79311,10.850326 582.94105,11.251891 582.94106,11.759125 L 582.94106,17.30706 L 584.28841,17.30706 L 584.28841,11.917637 C 584.28841,11.473808 584.24085,11.072244 584.14575,10.712942 C 584.0612,10.343087 583.90798,10.026062 583.68607,9.7618677 C 583.46414,9.4976881 583.17354,9.2916221 582.81425,9.1436691 C 582.45495,8.9957325 582.00583,8.9217601 581.46689,8.9217517 C 580.25163,8.9217601 579.36396,9.4184319 578.80388,10.411769 L 578.77218,10.411769 L 578.77218,9.1119666 L 577.50408,9.1119666 M 593.5874,17.275358 L 593.5874,16.229176 C 593.42888,16.282014 593.2915,16.308433 593.17527,16.308432 C 592.96391,16.308433 592.8371,16.23446 592.79484,16.086514 C 592.76313,15.938571 592.74728,15.706086 592.74728,15.38906 L 592.74728,11.172629 C 592.74728,10.697098 592.65745,10.311385 592.47781,10.015488 C 592.29816,9.7196053 592.06039,9.4924043 591.76451,9.333884 C 591.46861,9.1648122 591.13573,9.0538536 590.76588,9.0010079 C 590.40658,8.9481788 590.042,8.9217601 589.67214,8.9217517 C 589.21774,8.9217601 588.78447,8.9693137 588.37234,9.0644129 C 587.9602,9.1595285 587.59563,9.3180408 587.2786,9.5399502 C 586.96158,9.7513077 586.70796,10.031346 586.51774,10.380066 C 586.32753,10.7288 586.22185,11.156783 586.20072,11.664017 L 587.54807,11.664017 C 587.57978,11.061676 587.78584,10.654828 588.16627,10.443471 C 588.5467,10.221561 589.02224,10.110602 589.59289,10.110595 C 589.80423,10.110602 590.01558,10.126454 590.22694,10.158149 C 590.44885,10.189858 590.64435,10.253263 590.81343,10.348364 C 590.99307,10.443478 591.13573,10.580855 591.24141,10.760496 C 591.35765,10.94015 591.41577,11.177918 591.41578,11.473802 C 591.41577,11.727428 591.3418,11.922926 591.19386,12.060298 C 591.04591,12.187113 590.84513,12.287504 590.59151,12.361472 C 590.33789,12.424882 590.042,12.477719 589.70384,12.519984 C 589.37625,12.551692 589.02752,12.604529 588.65766,12.678497 C 588.30893,12.741906 587.96549,12.821162 587.62733,12.916265 C 587.29974,13.011377 587.00385,13.154038 586.73966,13.344249 C 586.48604,13.5239 586.27997,13.761669 586.12146,14.057555 C 585.96295,14.353448 585.88369,14.733877 585.88369,15.198845 C 585.88369,15.610979 585.95238,15.96499 586.08976,16.260878 C 586.2377,16.546201 586.4332,16.78397 586.67626,16.974184 C 586.92987,17.153832 587.22048,17.280642 587.54807,17.354614 C 587.87566,17.439154 588.22439,17.481424 588.59426,17.481424 C 589.1649,17.481424 589.69327,17.386316 590.17938,17.196102 C 590.67605,16.995319 591.10932,16.673011 591.47918,16.229176 C 591.47918,16.673011 591.57957,16.995319 591.78036,17.196102 C 591.9917,17.386316 592.27174,17.481424 592.62047,17.481424 C 593.0326,17.481424 593.35491,17.412735 593.5874,17.275358 M 591.39993,13.074778 L 591.39993,14.453836 C 591.39992,14.644054 591.35237,14.85012 591.25727,15.072035 C 591.16215,15.283387 591.01421,15.484169 590.81343,15.674382 C 590.61264,15.854031 590.35374,16.007259 590.03672,16.134068 C 589.71969,16.250312 589.33926,16.308433 588.89543,16.308432 C 588.69464,16.308433 588.49386,16.287298 588.29308,16.245027 C 588.10287,16.202758 587.93379,16.134069 587.78584,16.038961 C 587.64846,15.943855 587.53222,15.822328 587.43712,15.674382 C 587.35257,15.515871 587.3103,15.325657 587.31031,15.103737 C 587.3103,14.76558 587.38428,14.501393 587.53222,14.311175 C 587.69073,14.110396 587.89152,13.957167 588.13457,13.851489 C 588.37762,13.745817 588.65237,13.671845 588.95884,13.629571 C 589.26529,13.576738 589.56646,13.534468 589.86236,13.502761 C 590.16881,13.460495 590.45942,13.412942 590.73418,13.3601 C 591.00892,13.296699 591.23084,13.201592 591.39993,13.074778 M 595.66565,14.723307 L 594.31829,14.723307 C 594.33943,15.230549 594.4451,15.663816 594.63532,16.023109 C 594.82553,16.371838 595.07915,16.65716 595.39618,16.879077 C 595.7132,17.090427 596.07778,17.243655 596.48991,17.338763 C 596.90204,17.43387 597.33531,17.481424 597.78972,17.481424 C 598.20184,17.481424 598.61398,17.439154 599.02611,17.354614 C 599.44881,17.280642 599.82395,17.143264 600.15155,16.942482 C 600.4897,16.7417 600.75918,16.477513 600.95996,16.149919 C 601.17131,15.822328 601.27698,15.410196 601.27699,14.913522 C 601.27698,14.522528 601.19773,14.194936 601.03922,13.930745 C 600.89127,13.666561 600.69049,13.449928 600.43687,13.280844 C 600.19381,13.101201 599.90849,12.95854 599.58091,12.85286 C 599.26388,12.74719 598.93628,12.657366 598.59813,12.583389 C 598.2811,12.509422 597.96408,12.440733 597.64705,12.377323 C 597.33003,12.303356 597.0447,12.218816 596.79109,12.123703 C 596.53746,12.018033 596.32611,11.891224 596.15704,11.743273 C 595.99852,11.584767 595.91927,11.389268 595.91927,11.156777 C 595.91927,10.945434 595.9721,10.776354 596.07778,10.649537 C 596.18345,10.512167 596.32083,10.406492 596.48991,10.332513 C 596.65899,10.24798 596.84392,10.189858 597.04471,10.158149 C 597.25605,10.126454 597.46212,10.110602 597.66291,10.110595 C 597.88482,10.110602 598.10145,10.137021 598.31281,10.189851 C 598.53472,10.232128 598.7355,10.306101 598.91515,10.411769 C 599.0948,10.517451 599.24274,10.660111 599.35899,10.839752 C 599.47523,11.008839 599.54391,11.225472 599.56505,11.489653 L 600.91241,11.489653 C 600.8807,10.992987 600.77503,10.580855 600.59539,10.253256 C 600.41573,9.9151037 600.17268,9.6509166 599.86623,9.460694 C 599.57033,9.2599196 599.22689,9.1225423 598.8359,9.0485616 C 598.4449,8.96403 598.01691,8.9217601 597.55195,8.9217517 C 597.19265,8.9217601 596.82807,8.9693137 596.45821,9.0644129 C 596.09891,9.148961 595.77132,9.2863383 595.47543,9.4765452 C 595.19011,9.6562003 594.95234,9.8939688 594.76213,10.189851 C 594.58248,10.485748 594.49266,10.839759 594.49266,11.251885 C 594.49266,11.780265 594.62475,12.192397 594.88894,12.488282 C 595.15312,12.784176 595.48072,13.016661 595.87171,13.185737 C 596.27328,13.344253 596.70654,13.471063 597.17152,13.566166 C 597.63648,13.65071 598.06447,13.751101 598.45547,13.86734 C 598.85703,13.973018 599.1899,14.115679 599.4541,14.295324 C 599.71828,14.474974 599.85037,14.739161 599.85038,15.087886 C 599.85037,15.341508 599.78697,15.552858 599.66016,15.721936 C 599.53335,15.88045 599.36955,16.001976 599.16877,16.086514 C 598.97855,16.171055 598.7672,16.229177 598.53472,16.260878 C 598.30223,16.292582 598.08032,16.308433 597.86897,16.308432 C 597.59421,16.308433 597.32474,16.282014 597.06056,16.229176 C 596.80694,16.176339 596.57445,16.091799 596.3631,15.975556 C 596.16232,15.848747 595.99852,15.684951 595.87171,15.484167 C 595.7449,15.272819 595.67621,15.0192 595.66565,14.723307 M 602.89455,15.547572 L 602.89455,17.30706 L 604.65404,17.30706 L 604.65404,15.547572 L 602.89455,15.547572 M 604.52723,9.4765452 L 604.52723,5.9892714 L 603.02136,5.9892714 L 603.02136,9.4765452 L 603.41764,14.406282 L 604.13095,14.406282 L 604.52723,9.4765452 M 607.01216,15.547572 L 607.01216,17.30706 L 608.77165,17.30706 L 608.77165,15.547572 L 607.01216,15.547572 M 608.64484,9.4765452 L 608.64484,5.9892714 L 607.13897,5.9892714 L 607.13897,9.4765452 L 607.53526,14.406282 L 608.24856,14.406282 L 608.64484,9.4765452"
       style="enable-background:new 0 0 1060 800;font-size:15.85124493000000001px;font-style:normal;font-variant:normal;font-weight:normal;font-stretch:normal;text-align:start;line-height:125%;writing-mode:lr-tb;text-anchor:start;fill:#000000;fill-opacity:1;stroke:none;stroke-width:1px;stroke-linecap:butt;stroke-linejoin:miter;stroke-opacity:1;font-family:Helvetica Neue;-inkscape-font-specification:Helvetica Neue" /></g><rect
     style="opacity:0;fill:none;fill-opacity:1;stroke:none;stroke-width:0.5;stroke-linecap:round;stroke-linejoin:round;stroke-miterlimit:4;stroke-dasharray:none;stroke-dashoffset:0;stroke-opacity:1"
     id="rect25749"
     width="1060"
     height="800"
     x="0"
     y="3.4332275e-05" /></g></svg>