<?xml version="1.0" encoding="UTF-8" standalone="no"?>
<!-- Created with Inkscape (http://www.inkscape.org/) -->

<svg
   xmlns:dc="http://purl.org/dc/elements/1.1/"
   xmlns:cc="http://creativecommons.org/ns#"
   xmlns:rdf="http://www.w3.org/1999/02/22-rdf-syntax-ns#"
   xmlns:svg="http://www.w3.org/2000/svg"
   xmlns="http://www.w3.org/2000/svg"
   xmlns:xlink="http://www.w3.org/1999/xlink"
   xmlns:sodipodi="http://sodipodi.sourceforge.net/DTD/sodipodi-0.dtd"
   xmlns:inkscape="http://www.inkscape.org/namespaces/inkscape"
   version="1.0"
   width="576.71252"
   height="370.52005"
   id="svg5061"
   inkscape:version="0.47 r22583"
   sodipodi:docname="2010_7.svg">
  <metadata
     id="metadata454">
    <rdf:RDF>
      <cc:Work
         rdf:about="">
        <dc:format>image/svg+xml</dc:format>
        <dc:type
           rdf:resource="http://purl.org/dc/dcmitype/StillImage" />
      </cc:Work>
    </rdf:RDF>
  </metadata>
  <sodipodi:namedview
     pagecolor="#ffffff"
     bordercolor="#666666"
     borderopacity="1"
     objecttolerance="10"
     gridtolerance="10"
     guidetolerance="10"
     inkscape:pageopacity="0"
     inkscape:pageshadow="2"
     inkscape:window-width="640"
     inkscape:window-height="480"
     id="namedview452" />
  <defs
     id="defs5063">
    <filter
       id="filter5057">
      <feGaussianBlur
         id="feGaussianBlur5059"
         stdDeviation="4.4582074"
         inkscape:collect="always" />
    </filter>
    <filter
       height="1.5783621"
       y="-0.28918105"
       width="3.4833779"
       x="-1.241689"
       id="filter5053">
      <feGaussianBlur
         id="feGaussianBlur5055"
         stdDeviation="4.4582074"
         inkscape:collect="always" />
    </filter>
    <filter
       height="2.325593"
       y="-0.66279656"
       width="3.462409"
       x="-1.2312045"
       id="filter5049">
      <feGaussianBlur
         id="feGaussianBlur5051"
         stdDeviation="4.4582074"
         inkscape:collect="always" />
    </filter>
    <linearGradient
       x1="-88.815903"
       y1="-60.179699"
       x2="-23.790701"
       y2="-203.9816"
       id="linearGradient5035"
       xlink:href="#linearGradient4529"
       gradientUnits="userSpaceOnUse"
       gradientTransform="matrix(1.112713,-0.464595,0.464595,1.112713,617.11351,265.74372)" />
    <linearGradient
       x1="-358.15091"
       y1="97.515602"
       x2="-293.0593"
       y2="-46.433201"
       id="linearGradient5033"
       xlink:href="#linearGradient4499"
       gradientUnits="userSpaceOnUse"
       gradientTransform="matrix(1.2055596,-2.4960077e-2,2.4960077e-2,1.2055596,845.45999,110.74598)" />
    <linearGradient
       x1="-606.02051"
       y1="747.91992"
       x2="-550.76678"
       y2="625.72748"
       id="linearGradient5031"
       xlink:href="#linearGradient4469"
       gradientUnits="userSpaceOnUse"
       gradientTransform="matrix(1.1748117,0.2719081,-0.2719081,1.1748117,1335.3532,-500.49844)" />
    <linearGradient
       x1="-249.86909"
       y1="-17.752899"
       x2="-240.9897"
       y2="-17.752899"
       id="linearGradient4682"
       xlink:href="#linearGradient4684"
       gradientUnits="userSpaceOnUse"
       gradientTransform="matrix(1.1166922,0.4549487,-0.4549487,1.1166922,679.3976,359.84584)" />
    <linearGradient
       x1="-699.03522"
       y1="708.83588"
       x2="-690.15582"
       y2="708.83588"
       id="linearGradient4679"
       xlink:href="#linearGradient4690"
       gradientUnits="userSpaceOnUse"
       gradientTransform="matrix(-0.2429689,1.1810819,-1.1810819,-0.2429689,1086.8131,1226.5406)" />
    <linearGradient
       x1="300.41599"
       y1="1201.3057"
       x2="309.29489"
       y2="1201.3057"
       id="linearGradient4676"
       xlink:href="#linearGradient4696"
       gradientUnits="userSpaceOnUse"
       gradientTransform="matrix(-1.0242072,-0.6364217,0.6364217,-1.0242072,-41.655984,1664.2899)" />
    <linearGradient
       x1="620.33008"
       y1="363.51761"
       x2="629.21088"
       y2="363.51761"
       id="linearGradient4673"
       xlink:href="#linearGradient4702"
       gradientUnits="userSpaceOnUse"
       gradientTransform="matrix(0.4800293,-1.1062017,1.1062017,0.4800293,-296.00472,748.91568)" />
    <linearGradient
       x1="345.98239"
       y1="886.88867"
       x2="355.3447"
       y2="886.88867"
       id="linearGradient4607"
       xlink:href="#linearGradient4615"
       gradientUnits="userSpaceOnUse"
       gradientTransform="matrix(-0.3006061,-1.1676975,1.1676975,-0.3006061,-542.15389,912.52489)" />
    <linearGradient
       x1="-75.494598"
       y1="717.3457"
       x2="-67.351601"
       y2="717.3457"
       id="linearGradient4604"
       xlink:href="#linearGradient4621"
       gradientUnits="userSpaceOnUse"
       gradientTransform="matrix(0.9453479,-0.7485612,0.7485612,0.9453479,-76.964003,-498.78661)" />
    <linearGradient
       x1="-406.30569"
       y1="1124.0947"
       x2="-395.5278"
       y2="1124.0947"
       id="linearGradient4601"
       xlink:href="#linearGradient4627"
       gradientUnits="userSpaceOnUse"
       gradientTransform="matrix(0.9408864,0.7541078,-0.9703079,1.210624,1870.0929,-827.16199)" />
    <linearGradient
       x1="-30.104"
       y1="1533.0508"
       x2="-22.404301"
       y2="1533.0508"
       id="linearGradient4598"
       xlink:href="#linearGradient4609"
       gradientUnits="userSpaceOnUse"
       gradientTransform="matrix(-0.6382304,1.023122,-1.023122,-0.6382304,1972.6013,1244.9188)" />
    <radialGradient
       cx="25.874001"
       cy="1912.8848"
       r="27.4242"
       id="radialGradient4569"
       xlink:href="#radialGradient4571"
       gradientUnits="userSpaceOnUse"
       gradientTransform="matrix(0.1770116,1.1927782,-1.1927782,0.1770116,2376.9173,-97.985159)" />
    <radialGradient
       cx="-5.4487"
       cy="271.9082"
       r="24.096399"
       id="radialGradient4467"
       xlink:href="#radialGradient4720"
       gradientUnits="userSpaceOnUse"
       gradientTransform="matrix(1.1937428,0.1703797,-0.1686915,1.1820466,83.40582,-35.515753)" />
    <linearGradient
       x1="-6.2582998"
       y1="257.08301"
       x2="9.0523996"
       y2="280.69461"
       id="linearGradient4465"
       xlink:href="#linearGradient4732"
       gradientUnits="userSpaceOnUse"
       gradientTransform="matrix(1.1937428,0.1703797,-0.1703797,1.1937428,83.934805,-40.305194)" />
    <radialGradient
       cx="-0.076200001"
       cy="281.21481"
       r="24.5564"
       id="radialGradient4463"
       xlink:href="#radialGradient4577"
       gradientUnits="userSpaceOnUse"
       gradientTransform="matrix(1.1937428,0.1703797,-0.1686915,1.1820466,83.40582,-35.515753)" />
    <linearGradient
       x1="410.16501"
       y1="685.23541"
       x2="410.16501"
       y2="679.12891"
       id="linearGradient4459"
       xlink:href="#linearGradient4714"
       gradientUnits="userSpaceOnUse"
       gradientTransform="matrix(1.2053185,-3.5088804e-2,-3.3280103e-2,-1.1450285,17.38111,1061.7676)" />
    <linearGradient
       x1="409.6221"
       y1="178.9189"
       x2="409.6221"
       y2="172.33009"
       id="linearGradient4457"
       xlink:href="#linearGradient4708"
       gradientUnits="userSpaceOnUse"
       gradientTransform="matrix(1.2053185,-3.5088804e-2,3.5088804e-2,1.2053185,-12.779225,22.259229)" />
    <linearGradient
       x1="619.73932"
       y1="171.87399"
       x2="619.73932"
       y2="-136.3228"
       id="linearGradient4439"
       xlink:href="#linearGradient4559"
       gradientUnits="userSpaceOnUse"
       gradientTransform="matrix(-7.0418769e-2,-1.203751,1.203751,-7.0418769e-2,362.80422,999.50528)" />
    <filter
       height="1.5777884"
       y="-0.28889415"
       width="1.1151288"
       x="-0.057564367"
       id="filter4040">
      <feGaussianBlur
         id="feGaussianBlur4042"
         stdDeviation="7.0900591"
         inkscape:collect="always" />
    </filter>
    <filter
       height="1.4116372"
       y="-0.20581859"
       width="1.1693764"
       x="-0.084688209"
       id="filter4020">
      <feGaussianBlur
         id="feGaussianBlur4022"
         stdDeviation="5.2891799"
         inkscape:collect="always" />
    </filter>
    <filter
       height="1.751736"
       y="-0.37586799"
       width="1.2110794"
       x="-0.10553965"
       id="filter3932">
      <feGaussianBlur
         id="feGaussianBlur3934"
         stdDeviation="4.651836"
         inkscape:collect="always" />
    </filter>
    <linearGradient
       x1="-606.02051"
       y1="747.91992"
       x2="-550.76678"
       y2="625.72748"
       id="linearGradient4469"
       gradientUnits="userSpaceOnUse"
       gradientTransform="matrix(0.9743,0.2255,-0.2255,0.9743,1106.4214,-417.2556)">
      <stop
         id="stop4471"
         style="stop-color:#ae1f24;stop-opacity:1"
         offset="0" />
      <stop
         id="stop4473"
         style="stop-color:#b02124;stop-opacity:1"
         offset="0.078" />
      <stop
         id="stop4475"
         style="stop-color:#b62e22;stop-opacity:1"
         offset="0.1822" />
      <stop
         id="stop4477"
         style="stop-color:#be471f;stop-opacity:1"
         offset="0.30129999" />
      <stop
         id="stop4479"
         style="stop-color:#cb6a15;stop-opacity:1"
         offset="0.4314" />
      <stop
         id="stop4481"
         style="stop-color:#d99a18;stop-opacity:1"
         offset="0.57059997" />
      <stop
         id="stop4483"
         style="stop-color:#ead223;stop-opacity:1"
         offset="0.71509999" />
      <stop
         id="stop4485"
         style="stop-color:#efea3c;stop-opacity:1"
         offset="0.79210001" />
      <stop
         id="stop4487"
         style="stop-color:#efea3d;stop-opacity:1"
         offset="0.8136" />
      <stop
         id="stop4489"
         style="stop-color:#efea43;stop-opacity:1"
         offset="0.84549999" />
      <stop
         id="stop4491"
         style="stop-color:#f0eb53;stop-opacity:1"
         offset="0.88370001" />
      <stop
         id="stop4493"
         style="stop-color:#f3ef74;stop-opacity:1"
         offset="0.92680001" />
      <stop
         id="stop4495"
         style="stop-color:#f6f3a4;stop-opacity:1"
         offset="0.97359997" />
      <stop
         id="stop4497"
         style="stop-color:#f9f8c6;stop-opacity:1"
         offset="1" />
    </linearGradient>
    <linearGradient
       x1="-358.15091"
       y1="97.515602"
       x2="-293.0593"
       y2="-46.433201"
       id="linearGradient4499"
       gradientUnits="userSpaceOnUse"
       gradientTransform="matrix(0.9998,-2.07e-2,2.07e-2,0.9998,700.141,89.6643)">
      <stop
         id="stop4501"
         style="stop-color:#ae1f24;stop-opacity:1"
         offset="0" />
      <stop
         id="stop4503"
         style="stop-color:#b02124;stop-opacity:1"
         offset="0.078" />
      <stop
         id="stop4505"
         style="stop-color:#b62e22;stop-opacity:1"
         offset="0.1822" />
      <stop
         id="stop4507"
         style="stop-color:#be471f;stop-opacity:1"
         offset="0.30129999" />
      <stop
         id="stop4509"
         style="stop-color:#cb6a15;stop-opacity:1"
         offset="0.4314" />
      <stop
         id="stop4511"
         style="stop-color:#d99a18;stop-opacity:1"
         offset="0.57059997" />
      <stop
         id="stop4513"
         style="stop-color:#ead223;stop-opacity:1"
         offset="0.71509999" />
      <stop
         id="stop4515"
         style="stop-color:#efea3c;stop-opacity:1"
         offset="0.79210001" />
      <stop
         id="stop4517"
         style="stop-color:#efea3d;stop-opacity:1"
         offset="0.8136" />
      <stop
         id="stop4519"
         style="stop-color:#efea43;stop-opacity:1"
         offset="0.84549999" />
      <stop
         id="stop4521"
         style="stop-color:#f0eb53;stop-opacity:1"
         offset="0.88370001" />
      <stop
         id="stop4523"
         style="stop-color:#f3ef74;stop-opacity:1"
         offset="0.92680001" />
      <stop
         id="stop4525"
         style="stop-color:#f6f3a4;stop-opacity:1"
         offset="0.97359997" />
      <stop
         id="stop4527"
         style="stop-color:#f9f8c6;stop-opacity:1"
         offset="1" />
    </linearGradient>
    <linearGradient
       x1="-88.815903"
       y1="-60.179699"
       x2="-23.790701"
       y2="-203.9816"
       id="linearGradient4529"
       gradientUnits="userSpaceOnUse"
       gradientTransform="matrix(0.9228,-0.3853,0.3853,0.9228,510.7677,218.2077)">
      <stop
         id="stop4531"
         style="stop-color:#ae1f24;stop-opacity:1"
         offset="0" />
      <stop
         id="stop4533"
         style="stop-color:#b02124;stop-opacity:1"
         offset="0.078" />
      <stop
         id="stop4535"
         style="stop-color:#b62e22;stop-opacity:1"
         offset="0.1822" />
      <stop
         id="stop4537"
         style="stop-color:#be471f;stop-opacity:1"
         offset="0.30129999" />
      <stop
         id="stop4539"
         style="stop-color:#cb6a15;stop-opacity:1"
         offset="0.4314" />
      <stop
         id="stop4541"
         style="stop-color:#d99a18;stop-opacity:1"
         offset="0.57059997" />
      <stop
         id="stop4543"
         style="stop-color:#ead223;stop-opacity:1"
         offset="0.71509999" />
      <stop
         id="stop4545"
         style="stop-color:#efea3c;stop-opacity:1"
         offset="0.79210001" />
      <stop
         id="stop4547"
         style="stop-color:#efea3d;stop-opacity:1"
         offset="0.8136" />
      <stop
         id="stop4549"
         style="stop-color:#efea43;stop-opacity:1"
         offset="0.84549999" />
      <stop
         id="stop4551"
         style="stop-color:#f0eb53;stop-opacity:1"
         offset="0.88370001" />
      <stop
         id="stop4553"
         style="stop-color:#f3ef74;stop-opacity:1"
         offset="0.92680001" />
      <stop
         id="stop4555"
         style="stop-color:#f6f3a4;stop-opacity:1"
         offset="0.97359997" />
      <stop
         id="stop4557"
         style="stop-color:#f9f8c6;stop-opacity:1"
         offset="1" />
    </linearGradient>
    <linearGradient
       x1="619.73932"
       y1="171.87399"
       x2="619.73932"
       y2="-136.3228"
       id="linearGradient4559"
       gradientUnits="userSpaceOnUse"
       gradientTransform="matrix(-5.84e-2,-0.9983,0.9983,-5.84e-2,299.8628,828.9352)">
      <stop
         id="stop4561"
         style="stop-color:#d1c21e;stop-opacity:1"
         offset="0" />
      <stop
         id="stop4563"
         style="stop-color:#729432;stop-opacity:1"
         offset="1" />
    </linearGradient>
    <radialGradient
       cx="25.874001"
       cy="1912.8848"
       r="27.4242"
       id="radialGradient4571"
       gradientUnits="userSpaceOnUse"
       gradientTransform="matrix(0.1468,0.9892,-0.9892,0.1468,1970.2158,-81.2403)">
      <stop
         id="stop4573"
         style="stop-color:#8e732b;stop-opacity:1"
         offset="0" />
      <stop
         id="stop4575"
         style="stop-color:#593d1b;stop-opacity:1"
         offset="1" />
    </radialGradient>
    <radialGradient
       cx="-0.076200001"
       cy="281.21481"
       r="24.5564"
       id="radialGradient4577"
       gradientUnits="userSpaceOnUse"
       gradientTransform="matrix(0.99,0.1413,-0.1399,0.9803,68.1509,-29.4329)">
      <stop
         id="stop4579"
         style="stop-color:#8e732b;stop-opacity:1"
         offset="0" />
      <stop
         id="stop4581"
         style="stop-color:#593d1b;stop-opacity:1"
         offset="1" />
    </radialGradient>
    <linearGradient
       x1="-30.104"
       y1="1533.0508"
       x2="-22.404301"
       y2="1533.0508"
       id="linearGradient4609"
       gradientUnits="userSpaceOnUse"
       gradientTransform="matrix(-0.5293,0.8485,-0.8485,-0.5293,1634.9067,1032.4626)">
      <stop
         id="stop4611"
         style="stop-color:#75af2c;stop-opacity:1"
         offset="0" />
      <stop
         id="stop4613"
         style="stop-color:#117f4c;stop-opacity:1"
         offset="1" />
    </linearGradient>
    <linearGradient
       x1="345.98239"
       y1="886.88867"
       x2="355.3447"
       y2="886.88867"
       id="linearGradient4615"
       gradientUnits="userSpaceOnUse"
       gradientTransform="matrix(-0.2493,-0.9684,0.9684,-0.2493,-450.641,756.8003)">
      <stop
         id="stop4617"
         style="stop-color:#75af2c;stop-opacity:1"
         offset="0" />
      <stop
         id="stop4619"
         style="stop-color:#117f4c;stop-opacity:1"
         offset="1" />
    </linearGradient>
    <linearGradient
       x1="-75.494598"
       y1="717.3457"
       x2="-67.351601"
       y2="717.3457"
       id="linearGradient4621"
       gradientUnits="userSpaceOnUse"
       gradientTransform="matrix(0.784,-0.6208,0.6208,0.784,-64.8477,-413.6347)">
      <stop
         id="stop4623"
         style="stop-color:#75af2c;stop-opacity:1"
         offset="0" />
      <stop
         id="stop4625"
         style="stop-color:#117f4c;stop-opacity:1"
         offset="1" />
    </linearGradient>
    <linearGradient
       x1="-406.30569"
       y1="1124.0947"
       x2="-395.5278"
       y2="1124.0947"
       id="linearGradient4627"
       gradientUnits="userSpaceOnUse"
       gradientTransform="matrix(0.7803,0.6254,-0.8047,1.004,1549.894,-685.9644)">
      <stop
         id="stop4629"
         style="stop-color:#75af2c;stop-opacity:1"
         offset="0" />
      <stop
         id="stop4631"
         style="stop-color:#117f4c;stop-opacity:1"
         offset="1" />
    </linearGradient>
    <linearGradient
       x1="-249.86909"
       y1="-17.752899"
       x2="-240.9897"
       y2="-17.752899"
       id="linearGradient4684"
       gradientUnits="userSpaceOnUse"
       gradientTransform="matrix(0.9261,0.3773,-0.3773,0.9261,562.4214,298.4501)">
      <stop
         id="stop4686"
         style="stop-color:#e69dbd;stop-opacity:1"
         offset="0" />
      <stop
         id="stop4688"
         style="stop-color:#dc4793;stop-opacity:1"
         offset="1" />
    </linearGradient>
    <linearGradient
       x1="-699.03522"
       y1="708.83588"
       x2="-690.15582"
       y2="708.83588"
       id="linearGradient4690"
       gradientUnits="userSpaceOnUse"
       gradientTransform="matrix(-0.2015,0.9795,-0.9795,-0.2015,900.301,1017.2211)">
      <stop
         id="stop4692"
         style="stop-color:#e69dbd;stop-opacity:1"
         offset="0" />
      <stop
         id="stop4694"
         style="stop-color:#dc4793;stop-opacity:1"
         offset="1" />
    </linearGradient>
    <linearGradient
       x1="300.41599"
       y1="1201.3057"
       x2="309.29489"
       y2="1201.3057"
       id="linearGradient4696"
       gradientUnits="userSpaceOnUse"
       gradientTransform="matrix(-0.8494,-0.5278,0.5278,-0.8494,-35.5659,1380.2573)">
      <stop
         id="stop4698"
         style="stop-color:#e69dbd;stop-opacity:1"
         offset="0" />
      <stop
         id="stop4700"
         style="stop-color:#dc4793;stop-opacity:1"
         offset="1" />
    </linearGradient>
    <linearGradient
       x1="620.33008"
       y1="363.51761"
       x2="629.21088"
       y2="363.51761"
       id="linearGradient4702"
       gradientUnits="userSpaceOnUse"
       gradientTransform="matrix(0.3981,-0.9174,0.9174,0.3981,-246.5035,621.1152)">
      <stop
         id="stop4704"
         style="stop-color:#e69dbd;stop-opacity:1"
         offset="0" />
      <stop
         id="stop4706"
         style="stop-color:#dc4793;stop-opacity:1"
         offset="1" />
    </linearGradient>
    <linearGradient
       x1="409.6221"
       y1="178.9189"
       x2="409.6221"
       y2="172.33009"
       id="linearGradient4708"
       gradientUnits="userSpaceOnUse"
       gradientTransform="matrix(0.9996,-2.91e-2,2.91e-2,0.9996,-11.6177,18.4813)">
      <stop
         id="stop4710"
         style="stop-color:#e1b588;stop-opacity:1"
         offset="0" />
      <stop
         id="stop4712"
         style="stop-color:#f9f8c6;stop-opacity:1"
         offset="1" />
    </linearGradient>
    <linearGradient
       x1="410.16501"
       y1="685.23541"
       x2="410.16501"
       y2="679.12891"
       id="linearGradient4714"
       gradientUnits="userSpaceOnUse"
       gradientTransform="matrix(0.9996,-2.91e-2,-2.76e-2,-0.9496,13.395,880.5709)">
      <stop
         id="stop4716"
         style="stop-color:#e1b588;stop-opacity:1"
         offset="0" />
      <stop
         id="stop4718"
         style="stop-color:#f9f8c6;stop-opacity:1"
         offset="1" />
    </linearGradient>
    <radialGradient
       cx="-5.4487"
       cy="271.9082"
       r="24.096399"
       id="radialGradient4720"
       gradientUnits="userSpaceOnUse"
       gradientTransform="matrix(0.99,0.1413,-0.1399,0.9803,68.1509,-29.4329)">
      <stop
         id="stop4722"
         style="stop-color:#96a79b;stop-opacity:1"
         offset="0.0035" />
      <stop
         id="stop4724"
         style="stop-color:#9caca2;stop-opacity:1"
         offset="0.17020001" />
      <stop
         id="stop4726"
         style="stop-color:#adb9b4;stop-opacity:1"
         offset="0.42269999" />
      <stop
         id="stop4728"
         style="stop-color:#c7ced3;stop-opacity:1"
         offset="0.72790003" />
      <stop
         id="stop4730"
         style="stop-color:#e2e6f4;stop-opacity:1"
         offset="1" />
    </radialGradient>
    <linearGradient
       x1="-6.2582998"
       y1="257.08301"
       x2="9.0523996"
       y2="280.69461"
       id="linearGradient4732"
       gradientUnits="userSpaceOnUse"
       gradientTransform="matrix(0.99,0.1413,-0.1413,0.99,68.5896,-33.4049)">
      <stop
         id="stop4734"
         style="stop-color:#96a79b;stop-opacity:1"
         offset="0.0035" />
      <stop
         id="stop4736"
         style="stop-color:#acb8b4;stop-opacity:1"
         offset="0.1022" />
      <stop
         id="stop4738"
         style="stop-color:#c0c9cb;stop-opacity:1"
         offset="0.2228" />
      <stop
         id="stop4740"
         style="stop-color:#cfd5de;stop-opacity:1"
         offset="0.3563" />
      <stop
         id="stop4742"
         style="stop-color:#dadfeb;stop-opacity:1"
         offset="0.50749999" />
      <stop
         id="stop4744"
         style="stop-color:#e0e4f2;stop-opacity:1"
         offset="0.69139999" />
      <stop
         id="stop4746"
         style="stop-color:#e2e6f4;stop-opacity:1"
         offset="1" />
    </linearGradient>
  </defs>
  <g
     transform="translate(-86.643749,-347.10216)"
     id="layer1">
    <g
       transform="translate(154.45763,399.22618)"
       id="g6769">
      <g
         transform="matrix(1.0593787,0,0,1.0593787,-61.485392,-35.780727)"
         id="g4292">
        <g
           id="g4821">
          <path
             d="M 283.243,262.889 C 268.339,262.889 243.817,264.646 230.511,263.923 C 217.205,263.2 177.262,257.201 173.643,255.651 C 171.685,254.812 160.901,251.841 145.465,241.735 C 130.029,231.629 129.495,215.985 147.327,212.617 C 165.158,209.248 184.32,209.971 184.32,209.971 C 184.32,209.971 189.377,209.73 202.152,209.489 C 214.924,209.249 222.378,208.527 231.158,213.099 C 239.942,217.671 251.119,218.393 255.909,218.393 C 260.699,218.393 283.323,214.302 298.224,211.414 C 313.127,208.526 338.411,203.713 364.492,205.639 C 390.573,207.564 409.471,207.083 422.243,216.227 C 435.017,225.372 432.86,238.388 400.42,246.067 C 366.478,254.1 283.243,262.889 283.243,262.889 z"
             transform="matrix(1.2058008,0,0,1.2058008,1.2294077,-2.5538555e-2)"
             id="path236"
             style="fill:#34a1d2;filter:url(#filter4040)" />
          <path
             d="M 402.06533,227.43069 C 426.21028,233.50069 469.75537,240.98992 502.86907,198.34919 C 528.14868,171.82398 528.95536,129.73309 515.45281,99.305913 C 505.7859,75.766277 505.58212,64.885131 505.58212,64.885131 C 505.58212,64.885131 502.34213,71.431424 501.23038,79.640515 C 500.6721,87.598801 501.77661,95.489561 501.77661,95.489561 C 501.77661,95.489561 493.35289,90.836376 490.40832,78.341868 C 485.62853,57.955394 466.18137,53.472226 466.18137,53.472226 C 480.67269,72.847034 479.52959,92.313482 461.04707,99.362593 C 418.75723,115.45762 412.0795,131.10529 418.28214,162.85162 C 423.28742,188.54964 425.5278,200.25435 415.58718,210.42769 C 405.66344,220.57692 402.06533,227.43069 402.06533,227.43069 z"
             id="path271"
             style="fill:#e50000;fill-opacity:1;stroke:#e50000;stroke-width:1.20580077;stroke-miterlimit:4;stroke-dasharray:none;stroke-opacity:1;filter:url(#filter5057)" />
          <path
             d="M 495.70179,25.96791 C 493.21663,33.407701 492.24958,37.643679 494.0004,45.524793 C 495.75243,53.40229 499.60738,61.762107 499.60738,61.762107 C 499.60738,61.762107 499.47836,54.913158 500.38391,48.028036 C 501.29429,41.146531 497.42488,32.259779 495.70179,25.96791 z"
             id="path302"
             style="fill:#e50000;fill-opacity:1;stroke:#e50000;stroke-width:1.20580077;stroke-miterlimit:4;stroke-dasharray:none;stroke-opacity:1;filter:url(#filter5053)" />
          <path
             d="M 493.28777,-0.025538555 C 493.28054,2.8575312 493.44694,5.2462226 494.46946,7.7024392 C 495.51007,10.136951 498.62344,11.712933 500.77218,14.911923 C 500.21389,10.63977 499.93415,9.9355826 498.47754,6.436348 C 497.01129,2.9347025 494.61777,3.1179842 493.28777,-0.025538555 z"
             id="path333"
             style="fill:#e50000;fill-opacity:1;stroke:#e50000;stroke-width:1.20580077;stroke-miterlimit:4;stroke-dasharray:none;stroke-opacity:1;filter:url(#filter5049)" />
          <g
             transform="translate(0,-2.6542348)"
             id="g5026">
            <path
               d="M 402.06533,230.08493 C 426.21028,236.15493 469.75537,243.64416 502.86907,201.00343 C 528.14868,174.47822 528.95536,132.38733 515.45281,101.96015 C 505.7859,78.420511 505.58212,67.539365 505.58212,67.539365 C 505.58212,67.539365 502.34213,74.085658 501.23038,82.294749 C 500.6721,90.253035 501.77661,98.143795 501.77661,98.143795 C 501.77661,98.143795 493.35289,93.49061 490.40832,80.996102 C 485.62853,60.609628 466.18137,56.12646 466.18137,56.12646 C 480.67269,75.501268 479.52959,94.967716 461.04707,102.01683 C 418.75723,118.11186 412.0795,133.75953 418.28214,165.50586 C 423.28742,191.20388 425.5278,202.90859 415.58718,213.08193 C 405.66344,223.23116 402.06533,230.08493 402.06533,230.08493 z"
               id="path4222"
               style="fill:url(#linearGradient5031);fill-opacity:1" />
            <path
               d="M 495.70179,28.622144 C 493.21663,36.061935 492.24958,40.297913 494.0004,48.179027 C 495.75243,56.056524 499.60738,64.416341 499.60738,64.416341 C 499.60738,64.416341 499.47836,57.567392 500.38391,50.68227 C 501.29429,43.800765 497.42488,34.914013 495.70179,28.622144 z"
               id="path4224"
               style="fill:url(#linearGradient5033);fill-opacity:1" />
            <path
               d="M 493.28777,2.6286963 C 493.28054,5.511766 493.44694,7.9004574 494.46946,10.356674 C 495.51007,12.791185 498.62344,14.367167 500.77218,17.566157 C 500.21389,13.294004 499.93415,12.589817 498.47754,9.0905828 C 497.01129,5.5889373 494.61777,5.772219 493.28777,2.6286963 z"
               id="path4226"
               style="fill:url(#linearGradient5035);fill-opacity:1" />
          </g>
          <g
             transform="matrix(1.2058008,0,0,1.2058008,1.2294077,-2.5538555e-2)"
             id="g337">
            <path
               d="M 339.398,141.779 C 353.799,149.386 360.143,163.08 360.674,177.631 C 361.385,197.192 350.005,203.238 351.43,205.371 C 352.852,207.504 363.875,214.971 355.696,219.239 C 347.515,223.507 327.601,217.463 322.268,213.549 C 316.934,209.637 320.592,207 320.592,204.154 C 320.592,204.154 331.096,194.288 334.391,184.986 C 336.208,179.856 336.451,173.09 335.805,169.268"
               id="path339"
               style="fill:#d67121" />
            <path
               d="M 322.269,213.549 C 327.602,217.463 347.516,223.507 355.697,219.239 C 363.877,214.97 352.853,207.504 351.431,205.371 C 351.327,205.216 351.297,205.036 351.319,204.838 C 341.853,204.503 329.225,206.301 324.372,208.436 C 322.724,209.161 321.177,209.989 319.893,210.885 C 320.326,211.775 321.069,212.672 322.269,213.549 z"
               id="path341"
               style="fill:#332f1f" />
            <path
               d="M 339.398,141.779 C 353.799,149.386 360.143,163.08 360.674,177.631 C 361.385,197.192 350.005,203.238 351.43,205.371 C 352.852,207.504 363.875,214.971 355.696,219.239 C 347.515,223.507 327.601,217.463 322.268,213.549 C 316.934,209.637 320.592,207 320.592,204.154 C 320.592,204.154 331.096,194.288 334.391,184.986 C 336.208,179.856 336.451,173.09 335.805,169.268"
               id="path343"
               style="fill:none;stroke:#070001;stroke-width:2.47460008;stroke-linecap:round;stroke-linejoin:round" />
          </g>
          <g
             transform="matrix(1.2058008,0,0,1.2058008,1.2294077,-2.5538555e-2)"
             id="g345">
            <path
               d="M 257.451,141.779 C 243.05,149.386 236.705,163.08 236.178,177.631 C 235.464,197.192 246.844,203.238 245.42,205.371 C 243.998,207.504 232.974,214.971 241.154,219.239 C 249.334,223.507 269.248,217.463 274.582,213.549 C 279.915,209.637 276.257,207 276.257,204.154 C 276.257,204.154 265.754,194.288 262.457,184.986 C 260.641,179.856 260.398,173.09 261.044,169.268"
               id="path347"
               style="fill:#d67121" />
            <path
               d="M 274.582,213.549 C 269.248,217.463 249.334,223.507 241.154,219.239 C 232.976,214.97 244,207.504 245.42,205.371 C 245.524,205.216 245.553,205.036 245.531,204.838 C 254.996,204.503 267.625,206.301 272.478,208.436 C 274.126,209.161 275.673,209.989 276.957,210.885 C 276.523,211.775 275.783,212.672 274.582,213.549 z"
               id="path349"
               style="fill:#332f1f" />
            <path
               d="M 257.451,141.779 C 243.05,149.386 236.705,163.08 236.178,177.631 C 235.464,197.192 246.844,203.238 245.42,205.371 C 243.998,207.504 232.974,214.971 241.154,219.239 C 249.334,223.507 269.248,217.463 274.582,213.549 C 279.915,209.637 276.257,207 276.257,204.154 C 276.257,204.154 265.754,194.288 262.457,184.986 C 260.641,179.856 260.398,173.09 261.044,169.268"
               id="path351"
               style="fill:none;stroke:#070001;stroke-width:2.47460008;stroke-linecap:round;stroke-linejoin:round" />
          </g>
          <path
             d="M 305.82675,161.18038 C 305.82675,168.70457 311.35534,182.38438 307.59083,194.95486 C 304.63903,204.81831 313.1749,212.16525 313.1749,216.08049 C 313.1749,236.52363 336.48423,252.27019 364.2478,252.27019 C 392.02101,252.27019 415.633,237.64021 415.633,214.65282 C 415.633,210.73758 424.41967,204.73631 421.21706,194.95606 C 417.18366,182.64604 422.98115,168.70578 422.98115,161.18158 C 422.98115,137.34893 396.70554,117.96086 364.40576,117.96086 C 332.10597,117.96086 305.82675,137.34893 305.82675,161.18038 z"
             id="path355"
             style="fill:#d67121" />
          <path
             d="M 399.30766,161.56864 C 411.19686,152.43832 398.10186,132.79944 371.91428,131.07515 C 368.87325,130.87499 359.89606,130.87499 356.85141,131.07515 C 330.66504,132.79944 317.57366,152.43832 329.45924,161.56864 C 338.31826,178.64761 348.20462,175.18937 345.87983,178.64761 C 334.35599,186.93025 326.30607,201.89786 326.30607,217.71073 C 326.30607,227.67667 328.12924,236.45852 331.30532,243.78255 C 340.26201,249.10375 351.79308,252.27019 364.22489,252.27019 C 376.66996,252.27019 388.26735,249.32683 397.29036,244.01527 C 400.57134,236.64904 402.45962,227.78037 402.45962,217.71073 C 402.45962,201.89906 394.85584,184.04959 381.89228,177.92774 C 379.36733,174.09692 388.71108,169.7078 399.30766,161.56864 z"
             id="path357"
             style="fill:#f4f4c7" />
          <path
             d="M 306.41277,161.18038 C 306.41277,168.70457 311.35655,182.38438 307.59204,194.95486 C 304.64024,204.81831 313.1761,212.16525 313.1761,216.08049 C 313.1761,236.52363 336.48544,252.27019 364.249,252.27019 C 392.02221,252.27019 415.6342,237.64021 415.6342,214.65282 C 415.6342,210.73758 424.42087,204.73631 421.21827,194.95606 C 417.18486,182.64604 422.39754,168.70578 422.39754,161.18158 C 422.39754,137.34893 396.70675,117.96086 364.40696,117.96086 C 332.10235,117.96086 306.41277,137.34893 306.41277,161.18038 z"
             id="path359"
             style="fill:none;stroke:#070001;stroke-width:2.9838748;stroke-linecap:round;stroke-linejoin:round" />
          <path
             d="M 499.02378,242.71422 C 499.02378,242.71422 516.49946,230.43917 520.49066,224.09786 C 524.48427,217.75656 525.10646,211.62988 523.63297,209.69578 C 522.15466,207.76167 508.82574,205.56953 491.77451,203.27489 C 474.71484,200.98628 350.39074,186.93508 260.46332,203.15551 C 170.54073,219.36992 155.03775,262.63044 155.03775,262.63044 L 155.0908,263.56011 C 155.0908,263.56011 175.52792,304.71288 266.73469,310.33553 C 357.94509,315.95336 479.78523,287.49767 496.45302,283.23275 C 513.12442,278.96421 526.10245,275.23347 527.34563,273.13537 C 528.57917,271.04813 527.24917,265.0336 522.53931,259.20234 C 517.84031,253.36627 499.05393,243.21463 499.05393,243.21463 L 499.02378,242.71422 z"
             id="path366"
             style="fill:url(#linearGradient4439);fill-opacity:1" />
          <ellipse
             cx="214.825"
             cy="196.645"
             rx="76.424004"
             ry="26.957001"
             transform="matrix(1.1790321,-0.2524947,0.2524947,1.1790321,-42.68815,59.488089)"
             id="ellipse368"
             style="opacity:0.22000002;fill:#ffffff;filter:url(#filter4020)" />
          <path
             d="M 495.2026,242.43327 C 495.2026,242.43327 215.82217,254.61548 189.02083,255.42698 C 162.21949,256.23849 155.03775,262.62923 155.03775,262.62923"
             id="path370"
             style="fill:none;stroke:#a3c648;stroke-width:0.30145022" />
          <path
             d="M 518.70125,211.26573 C 521.30096,212.04588 523.05178,212.99847 524.26964,214.16689 C 524.50477,212.11823 524.2624,210.52055 523.63297,209.69337 C 522.15466,207.75926 508.82574,205.56712 491.77451,203.27248 C 477.56174,201.3649 388.89799,191.29767 307.69937,197.37008 C 324.46964,197.03849 343.36575,196.79492 362.75141,196.79492 C 423.84572,196.79612 510.66338,208.85413 518.70125,211.26573 z"
             id="path374"
             style="fill:#c3c5a0" />
          <path
             d="M 522.53931,259.20234 C 519.48502,255.40889 510.48372,249.79589 504.55359,246.32801 C 505.49532,247.53984 507.10024,248.99886 509.85911,250.65442 C 517.89819,255.47762 525.13299,265.9283 523.52445,270.7515 C 521.91591,275.57471 510.66338,278.79058 481.72416,284.41684 C 452.78494,290.04311 367.57341,302.61238 307.28457,302.90659 C 235.96025,303.25507 194.43488,284.80391 183.16546,276.60205 C 175.89931,271.3122 169.73887,260.32977 172.95353,251.48763 C 174.82253,246.34851 183.16426,234.65224 195.27894,224.61636 C 162.24482,242.54541 155.03775,262.62923 155.03775,262.62923 L 155.0908,263.5589 C 155.0908,263.5589 175.52792,304.71168 266.73469,310.33433 C 357.94509,315.95215 479.78523,287.49646 496.45302,283.23154 C 513.12442,278.96301 526.10245,275.23226 527.34563,273.13417 C 528.58037,271.04813 527.24917,265.0336 522.53931,259.20234 z"
             id="path376"
             style="fill:#c3c5a0" />
          <g
             transform="matrix(1.2058008,0,0,1.2058008,1.2294077,-2.5538555e-2)"
             id="g380">
            <path
               d="M 321.126,161.665 C 320.04,168.568 323.096,219.728 324.303,221.035 C 325.508,222.342 338.705,222.073 341.429,220.725 C 344.151,219.375 344.18,216.155 346.341,195.204 C 349.335,166.143 348.712,143.493 346.25,129.801 C 344.419,119.628 335.097,107.783 328.605,107.328"
               id="path382"
               style="fill:#d67121" />
            <path
               d="M 341.429,220.724 C 338.705,222.074 325.508,222.342 324.303,221.036 C 323.718,220.402 322.697,208.015 321.924,194.648 C 328.664,193.727 337.486,193.499 346.435,194.249 C 346.404,194.567 346.373,194.885 346.341,195.205 C 344.18,216.155 344.15,219.376 341.429,220.724 z"
               id="path384"
               style="fill:#332f1f" />
            <path
               d="M 328.605,107.328 C 335.096,107.783 344.418,119.628 346.25,129.801 C 348.712,143.493 349.335,166.144 346.341,195.204 C 344.18,216.155 344.151,219.376 341.429,220.725 C 338.705,222.073 325.508,222.341 324.303,221.035 C 323.096,219.728 320.252,168.598 321.126,161.665"
               id="path386"
               style="fill:none;stroke:#070001;stroke-width:2.47460008;stroke-linecap:round;stroke-linejoin:round" />
          </g>
          <g
             transform="matrix(1.2058008,0,0,1.2058008,1.2294077,-2.5538555e-2)"
             id="g388">
            <path
               d="M 272.024,161.625 C 272.331,168.191 263.592,215.38 262.251,216.436 C 260.911,217.493 247.868,215.498 245.32,213.884 C 242.775,212.268 243.106,209.268 243.302,189.493 C 243.58,162.061 246.726,141.073 250.694,128.662 C 253.643,119.439 264.199,109.653 270.68,110.088"
               id="path390"
               style="fill:#d67121" />
            <path
               d="M 245.32,213.882 C 247.868,215.498 260.911,217.492 262.251,216.436 C 262.9,215.924 265.296,204.536 267.554,192.203 C 260.98,190.456 252.266,189.077 243.318,188.592 C 243.313,188.892 243.308,189.192 243.303,189.494 C 243.106,209.268 242.775,212.268 245.32,213.882 z"
               id="path392"
               style="fill:#332f1f" />
            <path
               d="M 270.681,110.088 C 264.2,109.653 253.644,119.44 250.695,128.662 C 246.727,141.073 243.582,162.061 243.303,189.493 C 243.107,209.267 242.776,212.267 245.321,213.884 C 247.869,215.498 260.912,217.492 262.252,216.436 C 263.594,215.38 272.117,168.191 272.025,161.625"
               id="path394"
               style="fill:none;stroke:#070001;stroke-width:2.47460008;stroke-linecap:round;stroke-linejoin:round" />
          </g>
          <path
             d="M 394.39283,234.60521 C 394.39283,234.60521 395.31647,242.25361 389.02219,241.62659 C 382.73273,241.00078 378.58116,234.01196 382.13586,232.22617 C 385.68936,230.44038 394.39283,234.60521 394.39283,234.60521 z"
             id="path403"
             style="fill:url(#linearGradient4607);fill-opacity:1" />
          <path
             d="M 398.72165,236.96858 C 398.72165,236.96858 390.51015,238.95695 387.1737,233.97699 C 383.83725,228.99703 389.2103,224.61395 393.55841,227.07137 C 397.90774,229.52879 398.72165,236.96858 398.72165,236.96858 z"
             id="path410"
             style="fill:url(#linearGradient4604);fill-opacity:1" />
          <path
             d="M 398.48291,237.45331 C 398.48291,237.45331 392.47319,230.24262 397.97526,226.66863 C 403.47733,223.09102 411.63699,227.46446 410.00192,231.67391 C 408.36685,235.88457 398.48291,237.45331 398.48291,237.45331 z"
             id="path417"
             style="fill:url(#linearGradient4601);fill-opacity:1" />
          <path
             d="M 413.7399,236.95894 C 413.7399,236.95894 419.90637,232.56741 424.86703,236.7431 C 429.8277,240.91999 427.10018,246.96346 422.34812,245.67326 C 417.59244,244.38546 413.7399,236.95894 413.7399,236.95894 z"
             id="path424"
             style="fill:url(#linearGradient4598);fill-opacity:1" />
          <path
             d="M 412.55942,234.727 C 412.55942,234.727 405.9034,229.85315 409.01316,225.25543 C 412.12051,220.65892 419.56513,222.45918 419.56513,226.62643 C 419.56633,230.78885 412.55942,234.727 412.55942,234.727 z"
             id="path435"
             style="fill:url(#linearGradient4682);fill-opacity:1" />
          <path
             d="M 411.97461,234.27603 C 411.97461,234.27603 415.5486,226.84106 420.63829,229.05491 C 425.72677,231.26997 425.32041,238.91836 421.2231,239.68043 C 417.12579,240.44129 411.97461,234.27603 411.97461,234.27603 z"
             id="path442"
             style="fill:url(#linearGradient4679);fill-opacity:1" />
          <path
             d="M 412.55219,233.75874 C 412.55219,233.75874 418.2918,239.68284 414.45494,243.68972 C 410.61808,247.6978 403.57983,244.67365 404.2816,240.56549 C 404.98458,236.45853 412.55219,233.75874 412.55219,233.75874 z"
             id="path449"
             style="fill:url(#linearGradient4676);fill-opacity:1" />
          <path
             d="M 412.3665,233.28245 C 412.3665,233.28245 407.34675,239.82633 402.81896,236.61769 C 398.29239,233.40785 400.25784,226.00303 404.42509,226.09467 C 408.58993,226.19113 412.3665,233.28245 412.3665,233.28245 z"
             id="path456"
             style="fill:url(#linearGradient4673);fill-opacity:1" />
          <path
             d="M 411.94085,233.37771 C 411.94085,233.37771 411.69728,229.08385 412.77044,229.08385 C 413.8436,229.08385 412.90911,230.37647 412.70171,231.30855 C 412.49431,232.24064 411.94085,233.37771 411.94085,233.37771 z"
             id="path458"
             style="fill:#f4f087" />
          <path
             d="M 412.19768,233.79974 C 412.19768,233.79974 414.6744,230.28362 415.51484,230.94922 C 416.35649,231.61724 414.82151,232.05012 414.08114,232.65061 C 413.33717,233.2511 412.19768,233.79974 412.19768,233.79974 z"
             id="path460"
             style="fill:#f4f087" />
          <g
             transform="matrix(1.2058008,0,0,1.2058008,1.2294077,-2.5538555e-2)"
             id="g464">
            <path
               d="M 198.383,195.692 C 198.452,195.716 198.513,195.753 198.567,195.799 C 198.619,195.846 198.663,195.902 198.695,195.967 C 198.728,196.032 198.746,196.101 198.75,196.176 C 198.755,196.251 198.745,196.323 198.72,196.391 C 198.696,196.459 198.659,196.519 198.613,196.573 C 198.566,196.625 198.509,196.668 198.443,196.7 C 198.378,196.732 198.306,196.752 198.228,196.756 C 198.151,196.761 198.076,196.75 198.008,196.726 C 197.939,196.702 197.877,196.666 197.823,196.619 C 197.771,196.572 197.727,196.517 197.696,196.452 C 197.663,196.388 197.644,196.318 197.64,196.243 C 197.635,196.168 197.646,196.097 197.67,196.028 C 197.694,195.959 197.732,195.899 197.777,195.845 C 197.824,195.793 197.881,195.75 197.947,195.718 C 198.012,195.685 198.085,195.665 198.162,195.661 C 198.24,195.656 198.313,195.667 198.383,195.692 z M 197.988,195.812 C 197.933,195.837 197.885,195.873 197.845,195.916 C 197.807,195.957 197.777,196.007 197.756,196.062 C 197.735,196.117 197.727,196.175 197.731,196.237 C 197.735,196.299 197.749,196.356 197.777,196.408 C 197.803,196.461 197.839,196.506 197.882,196.543 C 197.927,196.581 197.978,196.609 198.034,196.628 C 198.093,196.649 198.153,196.657 198.219,196.652 C 198.284,196.649 198.344,196.633 198.4,196.607 C 198.455,196.582 198.503,196.547 198.543,196.504 C 198.581,196.462 198.612,196.413 198.633,196.358 C 198.654,196.302 198.663,196.245 198.66,196.183 C 198.656,196.121 198.639,196.065 198.613,196.012 C 198.585,195.959 198.55,195.912 198.506,195.877 C 198.462,195.839 198.41,195.81 198.353,195.79 C 198.295,195.769 198.234,195.762 198.169,195.766 C 198.104,195.769 198.043,195.784 197.988,195.812 z M 198.402,196.125 C 198.365,196.147 198.336,196.168 198.313,196.186 C 198.29,196.204 198.271,196.221 198.256,196.239 C 198.249,196.245 198.245,196.25 198.242,196.256 C 198.24,196.263 198.238,196.27 198.238,196.279 L 198.507,196.263 L 198.512,196.367 L 197.893,196.403 L 197.882,196.215 C 197.88,196.181 197.883,196.151 197.89,196.126 C 197.898,196.1 197.911,196.078 197.925,196.062 C 197.94,196.043 197.958,196.032 197.98,196.022 C 198.001,196.012 198.023,196.006 198.047,196.005 C 198.095,196.002 198.136,196.014 198.17,196.039 C 198.205,196.063 198.223,196.1 198.226,196.146 C 198.229,196.139 198.235,196.132 198.243,196.125 C 198.25,196.117 198.261,196.109 198.27,196.101 C 198.282,196.092 198.293,196.084 198.307,196.074 C 198.319,196.065 198.332,196.055 198.344,196.046 L 198.489,195.947 L 198.495,196.067 L 198.402,196.125 z M 197.986,196.142 C 197.97,196.162 197.965,196.194 197.967,196.239 L 197.971,196.295 L 198.166,196.283 L 198.163,196.23 C 198.161,196.204 198.158,196.183 198.154,196.169 C 198.148,196.153 198.141,196.143 198.131,196.133 C 198.11,196.116 198.086,196.108 198.055,196.11 C 198.024,196.112 198,196.122 197.986,196.142 z"
               id="path466"
               style="fill:#c3c5a0" />
          </g>
          <g
             transform="matrix(1.2058008,0,0,1.2058008,1.2294077,-2.5538555e-2)"
             id="g468">
            <path
               d="M 198.463,223.41 L 200.1,223.315 L 199.992,221.459 L 201.199,221.389 L 201.307,223.245 L 204.548,223.057 L 204.634,224.525 L 197.342,224.95 L 197.112,220.995 L 198.328,221.093 L 198.463,223.41 z"
               id="path470"
               style="fill:#c3c5a0" />
            <path
               d="M 198.064,219.1 C 198.242,219.257 198.336,219.459 198.35,219.704 C 198.365,219.942 198.294,220.149 198.135,220.327 C 197.977,220.505 197.775,220.6 197.53,220.614 C 197.286,220.629 197.074,220.556 196.896,220.393 C 196.719,220.232 196.623,220.028 196.608,219.784 C 196.594,219.546 196.668,219.34 196.825,219.166 C 196.983,218.992 197.185,218.897 197.429,218.883 C 197.675,218.869 197.886,218.941 198.064,219.1 z M 199.096,220.365 L 198.794,218.962 L 204.291,218.642 L 204.373,220.058 L 199.096,220.365 z"
               id="path472"
               style="fill:#c3c5a0" />
            <path
               d="M 199.846,215.537 C 199.865,215.852 200.032,216.131 200.347,216.373 L 204.146,216.15 L 204.229,217.567 L 200.641,217.776 C 200.278,217.797 199.964,217.836 199.7,217.888 C 199.436,217.943 199.229,218.002 199.079,218.067 L 198.669,216.82 C 198.879,216.679 199.13,216.591 199.422,216.553 C 199.21,216.411 199.021,216.24 198.855,216.038 C 198.689,215.836 198.599,215.602 198.584,215.337 C 198.578,215.232 198.58,215.146 198.59,215.079 C 198.601,215.012 198.627,214.921 198.669,214.806 L 199.93,215.122 C 199.865,215.26 199.838,215.398 199.846,215.537 z"
               id="path474"
               style="fill:#c3c5a0" />
            <path
               d="M 201.768,213.275 C 202.188,213.251 202.504,213.133 202.716,212.923 C 202.928,212.714 203.024,212.427 203.002,212.061 C 202.976,211.584 202.769,211.138 202.387,210.724 L 203.196,210.128 C 203.728,210.716 204.015,211.378 204.058,212.114 C 204.081,212.507 204.037,212.862 203.92,213.182 C 203.806,213.501 203.634,213.78 203.406,214.014 C 203.177,214.248 202.894,214.436 202.558,214.575 C 202.224,214.715 201.844,214.796 201.426,214.82 C 200.943,214.849 200.53,214.821 200.189,214.734 C 199.846,214.649 199.536,214.494 199.256,214.272 C 198.998,214.061 198.802,213.823 198.667,213.557 C 198.531,213.29 198.454,212.978 198.433,212.62 C 198.414,212.304 198.447,212.008 198.529,211.727 C 198.611,211.449 198.738,211.215 198.911,211.03 C 199.147,210.77 199.45,210.572 199.817,210.434 C 200.185,210.297 200.651,210.211 201.217,210.177 L 201.543,210.159 L 201.725,213.274 L 201.768,213.275 z M 200.057,211.76 C 199.943,211.791 199.841,211.842 199.75,211.911 C 199.555,212.064 199.466,212.279 199.482,212.555 C 199.498,212.825 199.607,213.029 199.807,213.165 C 200.008,213.303 200.291,213.361 200.655,213.341 L 200.676,213.339 L 200.58,211.693 L 200.519,211.696 C 200.323,211.707 200.17,211.729 200.057,211.76 z"
               id="path476"
               style="fill:#c3c5a0" />
            <path
               d="M 196.922,207.465 C 196.905,207.54 196.9,207.619 196.904,207.703 C 196.915,207.886 196.975,208.025 197.087,208.124 C 197.199,208.222 197.352,208.267 197.547,208.255 L 198.314,208.21 L 198.234,206.835 L 199.22,207.136 L 199.278,208.134 L 203.665,207.878 L 203.744,209.242 L 199.357,209.497 L 199.385,209.98 L 198.42,210.036 L 198.39,209.522 C 198.278,209.543 198.159,209.561 198.028,209.579 C 197.898,209.599 197.772,209.61 197.653,209.617 C 197.117,209.648 196.694,209.526 196.384,209.246 C 196.072,208.967 195.902,208.554 195.87,208.005 C 195.856,207.775 195.871,207.559 195.912,207.356 C 195.954,207.153 196.03,206.94 196.139,206.716 L 197.05,207.116 C 196.982,207.274 196.939,207.39 196.922,207.465 z"
               id="path478"
               style="fill:#c3c5a0" />
            <path
               d="M 201.79,201.922 C 202.125,202.012 202.433,202.164 202.712,202.378 C 202.954,202.567 203.15,202.798 203.299,203.068 C 203.449,203.339 203.535,203.684 203.561,204.103 C 203.582,204.466 203.535,204.8 203.418,205.104 C 203.303,205.409 203.13,205.673 202.9,205.897 C 202.671,206.12 202.388,206.299 202.052,206.434 C 201.717,206.569 201.338,206.65 200.919,206.673 C 200.499,206.698 200.112,206.662 199.76,206.569 C 199.406,206.473 199.1,206.328 198.839,206.133 C 198.578,205.938 198.373,205.695 198.224,205.407 C 198.075,205.119 197.988,204.792 197.966,204.429 C 197.922,203.668 198.156,203.045 198.668,202.559 C 198.907,202.329 199.178,202.155 199.48,202.039 C 199.782,201.924 200.153,201.852 200.592,201.827 C 201.057,201.803 201.455,201.833 201.79,201.922 z M 199.262,203.718 C 199.082,203.876 199,204.084 199.015,204.343 C 199.024,204.51 199.082,204.657 199.188,204.781 C 199.292,204.904 199.431,204.991 199.601,205.036 C 199.745,205.076 199.913,205.103 200.11,205.117 C 200.307,205.13 200.538,205.129 200.803,205.113 C 201.409,205.077 201.856,204.993 202.141,204.856 C 202.286,204.785 202.389,204.678 202.453,204.538 C 202.518,204.397 202.548,204.257 202.539,204.117 C 202.52,203.803 202.364,203.587 202.071,203.471 C 201.776,203.356 201.313,203.315 200.679,203.352 C 199.968,203.392 199.494,203.515 199.262,203.718 z"
               id="path480"
               style="fill:#c3c5a0" />
            <path
               d="M 202.153,198.937 C 202.111,198.96 202.052,198.996 201.974,199.041 C 201.897,199.089 201.817,199.138 201.735,199.187 C 201.654,199.238 201.579,199.286 201.512,199.332 C 201.451,199.371 201.41,199.394 201.389,199.402 C 201.454,199.426 201.588,199.478 201.788,199.557 C 201.99,199.645 202.21,199.751 202.449,199.876 L 203.22,200.284 L 203.324,202.089 L 200.345,200.273 L 198.175,201.895 L 197.683,200.461 C 197.858,200.352 198.001,200.259 198.113,200.183 C 198.224,200.105 198.327,200.039 198.423,199.981 C 198.518,199.921 198.609,199.869 198.692,199.817 C 198.778,199.766 198.872,199.713 198.972,199.66 C 199.027,199.628 199.086,199.594 199.152,199.559 C 199.216,199.524 199.272,199.494 199.32,199.469 C 199.277,199.458 199.162,199.417 198.976,199.347 C 198.789,199.278 198.545,199.182 198.243,199.059 C 198.15,199.022 198.056,198.98 197.963,198.933 C 197.87,198.886 197.803,198.852 197.768,198.833 L 197.67,197.176 L 200.23,198.626 L 203.002,196.527 L 203.106,198.312 L 202.153,198.937 z"
               id="path482"
               style="fill:#c3c5a0" />
          </g>
          <g
             transform="matrix(1.2058008,0,0,1.2058008,1.2294077,-2.5538555e-2)"
             id="g484">
            <path
               d="M 193.277,222.839 C 193.143,222.846 193.053,222.863 193.013,222.889 C 192.972,222.914 192.952,222.968 192.958,223.049 C 192.961,223.107 192.982,223.17 193.021,223.241 C 193.06,223.31 193.112,223.378 193.176,223.44 L 194.843,223.343 L 194.876,223.918 L 193.37,224.007 C 193.225,224.014 193.132,224.033 193.086,224.063 C 193.041,224.094 193.022,224.152 193.026,224.237 C 193.029,224.295 193.047,224.358 193.08,224.428 C 193.113,224.497 193.161,224.565 193.226,224.628 L 194.912,224.529 L 194.947,225.118 L 193.329,225.213 C 193.244,225.217 193.172,225.223 193.11,225.231 C 193.048,225.238 192.995,225.244 192.949,225.253 C 192.905,225.262 192.865,225.273 192.831,225.285 C 192.798,225.298 192.767,225.314 192.741,225.333 L 192.559,224.794 C 192.591,224.771 192.622,224.753 192.654,224.74 C 192.686,224.727 192.73,224.715 192.789,224.698 C 192.624,224.547 192.535,224.364 192.521,224.146 C 192.51,223.955 192.565,223.794 192.684,223.664 C 192.699,223.647 192.714,223.632 192.731,223.615 C 192.75,223.599 192.768,223.582 192.793,223.566 C 192.678,223.467 192.594,223.367 192.541,223.267 C 192.488,223.166 192.458,223.053 192.451,222.926 C 192.445,222.835 192.453,222.749 192.473,222.665 C 192.495,222.583 192.527,222.515 192.569,222.46 C 192.616,222.391 192.681,222.341 192.765,222.313 C 192.847,222.285 192.967,222.264 193.124,222.255 L 194.773,222.158 L 194.807,222.747 L 193.277,222.839 z"
               id="path486"
               style="fill:#c3c5a0" />
            <path
               d="M 193.983,219.883 C 194.128,219.921 194.26,219.987 194.381,220.079 C 194.485,220.161 194.569,220.26 194.634,220.378 C 194.698,220.494 194.737,220.644 194.747,220.824 C 194.756,220.98 194.736,221.125 194.685,221.257 C 194.635,221.388 194.561,221.502 194.461,221.599 C 194.362,221.696 194.24,221.773 194.095,221.831 C 193.95,221.889 193.787,221.924 193.606,221.935 C 193.425,221.946 193.258,221.929 193.105,221.889 C 192.954,221.848 192.821,221.785 192.709,221.701 C 192.596,221.616 192.507,221.512 192.442,221.388 C 192.379,221.262 192.34,221.121 192.331,220.966 C 192.312,220.636 192.414,220.367 192.635,220.158 C 192.739,220.058 192.856,219.983 192.986,219.933 C 193.116,219.882 193.277,219.853 193.466,219.841 C 193.667,219.83 193.84,219.844 193.983,219.883 z M 192.892,220.656 C 192.815,220.725 192.78,220.815 192.786,220.927 C 192.791,221 192.816,221.063 192.86,221.116 C 192.906,221.17 192.965,221.206 193.039,221.226 C 193.101,221.244 193.174,221.255 193.259,221.26 C 193.344,221.266 193.444,221.266 193.558,221.259 C 193.821,221.244 194.013,221.206 194.137,221.148 C 194.199,221.118 194.243,221.071 194.272,221.01 C 194.299,220.95 194.312,220.89 194.308,220.829 C 194.299,220.692 194.233,220.6 194.106,220.549 C 193.98,220.499 193.779,220.483 193.505,220.499 C 193.196,220.517 192.992,220.57 192.892,220.656 z"
               id="path488"
               style="fill:#c3c5a0" />
            <path
               d="M 194.619,219.467 L 194.245,219.488 L 192.675,218.485 L 192.734,219.486 L 192.303,219.511 L 192.202,217.789 L 192.615,217.765 L 194.142,218.703 L 194.08,217.638 L 194.518,217.758 L 194.619,219.467 z"
               id="path490"
               style="fill:#c3c5a0" />
            <path
               d="M 191.767,216.85 C 191.843,216.919 191.884,217.006 191.89,217.112 C 191.896,217.215 191.865,217.304 191.797,217.381 C 191.728,217.459 191.642,217.5 191.535,217.507 C 191.43,217.512 191.339,217.481 191.261,217.411 C 191.185,217.341 191.144,217.253 191.138,217.146 C 191.131,217.044 191.163,216.956 191.231,216.879 C 191.3,216.804 191.387,216.764 191.492,216.758 C 191.598,216.751 191.688,216.781 191.767,216.85 z M 192.21,217.397 L 192.081,216.792 L 194.455,216.653 L 194.489,217.264 L 192.21,217.397 z"
               id="path492"
               style="fill:#c3c5a0" />
            <path
               d="M 194.437,215.412 C 194.444,215.54 194.422,215.652 194.371,215.751 C 194.319,215.851 194.247,215.92 194.152,215.962 C 194.122,215.975 194.093,215.985 194.066,215.993 C 194.041,216.001 194.008,216.008 193.973,216.014 C 193.937,216.021 193.891,216.028 193.836,216.031 C 193.781,216.037 193.714,216.041 193.632,216.047 L 191.903,216.148 C 191.749,216.157 191.62,216.167 191.517,216.176 C 191.414,216.187 191.312,216.201 191.206,216.22 L 191.029,215.616 C 191.092,215.6 191.168,215.589 191.256,215.579 C 191.342,215.568 191.468,215.559 191.63,215.551 L 193.439,215.445 C 193.54,215.44 193.619,215.433 193.678,215.429 C 193.739,215.423 193.786,215.42 193.824,215.416 C 193.86,215.412 193.887,215.407 193.905,215.4 C 193.923,215.392 193.939,215.383 193.953,215.374 C 193.995,215.348 194.014,215.305 194.01,215.248 L 194.008,215.218 C 194.008,215.211 194.004,215.198 193.996,215.181 L 194.353,215.055 C 194.4,215.163 194.43,215.282 194.437,215.412 z"
               id="path494"
               style="fill:#c3c5a0" />
            <path
               d="M 194.366,214.191 C 194.373,214.319 194.35,214.432 194.3,214.532 C 194.248,214.63 194.174,214.7 194.079,214.742 C 194.051,214.756 194.021,214.766 193.994,214.773 C 193.969,214.781 193.937,214.789 193.901,214.794 C 193.865,214.801 193.819,214.806 193.764,214.811 C 193.71,214.816 193.643,214.82 193.561,214.825 L 191.831,214.926 C 191.677,214.936 191.549,214.946 191.446,214.956 C 191.342,214.967 191.24,214.98 191.134,214.998 L 190.958,214.394 C 191.02,214.379 191.097,214.367 191.183,214.357 C 191.27,214.347 191.396,214.337 191.559,214.328 L 193.366,214.224 C 193.467,214.217 193.547,214.213 193.607,214.207 C 193.668,214.202 193.715,214.197 193.752,214.193 C 193.788,214.19 193.815,214.184 193.833,214.177 C 193.852,214.169 193.866,214.161 193.881,214.152 C 193.922,214.125 193.941,214.084 193.938,214.026 L 193.936,213.994 C 193.936,213.988 193.932,213.976 193.925,213.959 L 194.281,213.833 C 194.33,213.942 194.358,214.063 194.366,214.191 z"
               id="path496"
               style="fill:#c3c5a0" />
            <path
               d="M 194.191,212.146 C 194.147,212.208 194.095,212.255 194.037,212.289 C 194.062,212.311 194.086,212.334 194.108,212.355 C 194.13,212.376 194.15,212.398 194.166,212.421 C 194.258,212.529 194.311,212.682 194.321,212.878 C 194.337,213.14 194.286,213.34 194.169,213.482 C 194.052,213.623 193.875,213.701 193.638,213.715 C 193.362,213.731 193.155,213.65 193.014,213.473 C 192.874,213.296 192.793,213.021 192.772,212.646 L 192.768,212.578 C 192.766,212.549 192.766,212.525 192.767,212.511 L 192.673,212.516 C 192.547,212.524 192.46,212.546 192.414,212.584 C 192.367,212.621 192.347,212.696 192.353,212.809 C 192.358,212.905 192.386,213.008 192.438,213.117 C 192.49,213.226 192.562,213.341 192.654,213.464 L 192.234,213.748 C 192.191,213.689 192.155,213.634 192.125,213.581 C 192.095,213.528 192.061,213.462 192.022,213.383 C 191.968,213.272 191.926,213.165 191.899,213.065 C 191.872,212.966 191.855,212.862 191.85,212.756 C 191.837,212.558 191.863,212.395 191.924,212.266 C 191.987,212.137 192.082,212.046 192.208,211.994 C 192.241,211.978 192.276,211.966 192.312,211.958 C 192.35,211.948 192.401,211.943 192.464,211.939 L 192.622,211.93 L 193.402,211.897 C 193.465,211.893 193.521,211.889 193.567,211.883 C 193.614,211.877 193.657,211.865 193.694,211.849 C 193.734,211.832 193.769,211.807 193.801,211.776 C 193.835,211.746 193.869,211.704 193.905,211.65 L 194.296,211.95 C 194.272,212.018 194.236,212.083 194.191,212.146 z M 193.292,212.952 C 193.346,213.031 193.439,213.065 193.576,213.057 C 193.665,213.051 193.736,213.023 193.789,212.971 C 193.842,212.919 193.865,212.855 193.861,212.778 C 193.854,212.659 193.795,212.557 193.685,212.474 L 193.193,212.493 L 193.195,212.519 C 193.208,212.729 193.24,212.873 193.292,212.952 z"
               id="path498"
               style="fill:#c3c5a0" />
          </g>
          <g
             transform="matrix(1.2058008,0,0,1.2058008,1.2294077,-2.5538555e-2)"
             id="g502">
            <path
               d="M 229.683,83.411 L 229.683,83.411 C 227.739,102.357 220.451,116.911 220.416,117.002 L 220.14,117.682 C 220.14,117.682 224.696,119.596 226.018,120.576 C 224.783,121.371 221.642,123.4 221.642,123.4 C 221.642,123.4 225.538,125.987 226.863,126.868 C 225.781,127.764 222.867,130.183 222.867,130.183 L 224.235,130.808 C 224.338,130.858 233.887,130.319 241.79,141.957 C 245.939,148.067 261.015,159.067 298.527,153.077 L 298.552,153.074 C 335.561,147.164 346.701,133.55 349.189,124.324 C 352.381,112.509 362.143,108.838 362.235,108.749 L 363.248,107.731 C 363.248,107.731 359.79,106.367 358.479,105.851 C 359.466,104.601 362.361,100.93 362.361,100.93 C 362.361,100.93 358.748,99.98 357.325,99.608 C 358.274,98.266 360.495,95.132 360.495,95.132 L 360,94.574 C 359.933,94.497 350.821,82.239 342.269,65.37 C 330.952,43.052 306.353,33.319 280.1,37.511 C 257.695,41.087 232.724,55.957 229.683,83.411 z"
               id="path504"
               style="fill:#d67121" />
            <path
               d="M 224.234,130.808 C 227.881,131.106 238.056,138.389 241.694,143.747 C 245.842,149.859 262.691,166.759 299.836,160.494 C 339.06,153.883 344.778,134.373 349.686,125.263 C 352.434,120.159 356.964,112.882 362.235,108.749 C 363.686,106.685 358.869,106.511 359.855,105.355 C 352.587,102.109 334.572,103.784 323.328,109.525 C 311.971,115.324 309.09,120.945 293.722,123.397 C 293.832,123.38 293.947,123.374 294.057,123.355 L 293.391,123.462 C 293.502,123.442 293.612,123.416 293.722,123.397 C 280.024,125.711 274.039,121.88 260.884,119.773 C 246.438,117.458 230.911,122.239 225.561,126.844 C 226.832,127.596 221.753,130.607 224.234,130.808 z"
               id="path506"
               style="fill:#f4f4c7" />
            <path
               d="M 295.333,132.573 C 293.384,135.842 290.071,138.356 286.028,139.399 C 287.717,142.312 290.349,144.628 293.726,145.377 C 296.944,146.09 301.11,145.793 304.246,141.753 C 305.368,140.308 307.252,135.901 306.925,135.955 C 302.203,136.705 298.549,135.373 295.333,132.573 z"
               id="path508"
               style="fill:#ea5348;stroke:#040000;stroke-width:2.06520009;stroke-linecap:round;stroke-linejoin:round" />
            <path
               d="M 279.117,160.338 C 269.671,159.929 261.676,156.97 255.345,153.275 C 249.017,149.586 244.358,145.146 241.66,141.867 C 238.502,138.036 234.315,135.026 230.9,132.938 C 229.188,131.892 227.67,131.084 226.567,130.527 C 226.017,130.251 225.571,130.039 225.256,129.891 C 225.098,129.815 224.971,129.759 224.886,129.72 L 224.782,129.675 L 224.756,129.663 L 224.749,129.658 L 224.415,130.413 L 224.758,129.662 L 224.749,129.658 L 224.415,130.413 L 224.758,129.662 L 224.758,129.662 L 223.39,129.039 L 222.866,130.183 L 223.668,131.149 C 223.668,131.149 226.585,128.737 227.668,127.837 C 227.976,127.583 228.142,127.199 228.121,126.801 C 228.1,126.402 227.892,126.041 227.559,125.82 C 226.896,125.382 225.592,124.51 224.454,123.755 C 223.313,123.001 222.342,122.352 222.339,122.353 L 221.642,123.402 L 222.326,124.46 C 222.326,124.46 225.467,122.432 226.7,121.636 C 227.048,121.41 227.264,121.034 227.277,120.618 C 227.29,120.207 227.099,119.813 226.77,119.569 C 226.323,119.24 225.762,118.932 225.121,118.595 C 223.211,117.607 220.644,116.531 220.626,116.524 L 220.141,117.684 L 221.306,118.16 L 221.583,117.482 L 221.585,117.476 L 220.447,117.018 L 221.556,117.538 L 221.584,117.476 L 220.446,117.018 L 221.555,117.538 L 220.7,117.134 L 221.548,117.556 L 221.556,117.538 L 220.701,117.134 L 221.549,117.556 C 221.549,117.556 221.594,117.468 221.653,117.348 C 222.578,115.496 228.531,103.138 230.933,83.564 L 229.683,83.415 L 230.919,83.644 C 233.066,72.224 238.549,62.121 246.913,54.302 C 255.278,46.491 266.539,40.958 280.298,38.757 C 294.057,36.564 306.322,38.336 316.55,43.18 C 326.779,48.023 334.986,55.939 340.587,66.133 L 341.692,65.53 L 340.55,66.06 C 345.072,75.695 349.921,83.009 353.654,87.932 C 355.522,90.397 357.112,92.262 358.244,93.522 C 358.81,94.151 359.26,94.629 359.575,94.955 C 359.732,95.115 359.852,95.239 359.934,95.324 L 360.033,95.42 L 360.053,95.441 L 360.324,95.171 L 360.053,95.441 L 360.053,95.441 L 360.324,95.171 L 360.053,95.441 L 360.822,94.695 L 360.04,95.426 L 360.054,95.441 L 360.823,94.695 L 360.041,95.426 L 360.935,94.586 L 359.997,95.376 L 360.042,95.426 L 360.936,94.586 L 359.998,95.376 L 360,95.379 L 360.474,95.937 L 361.435,95.121 L 360.61,94.17 C 360.603,94.178 359.661,94.992 358.593,95.985 C 358.057,96.481 357.489,97.026 356.985,97.54 C 356.479,98.058 356.042,98.526 355.72,98.976 C 355.482,99.312 355.424,99.746 355.566,100.133 C 355.709,100.523 356.031,100.814 356.428,100.918 C 357.853,101.291 361.466,102.243 361.466,102.243 L 361.785,101.024 L 360.796,100.243 C 360.792,100.244 360.073,101.162 359.225,102.234 C 358.378,103.308 357.409,104.541 356.916,105.165 C 356.668,105.478 356.584,105.885 356.688,106.273 C 356.791,106.658 357.069,106.969 357.442,107.115 C 358.75,107.634 362.272,109.018 362.272,109.018 L 362.736,107.851 L 361.882,106.925 L 360.776,107.944 L 360.773,107.945 L 361.334,108.551 L 360.782,107.937 L 360.773,107.945 L 361.334,108.551 L 360.782,107.937 C 360.758,107.958 360.59,108.109 360.33,108.356 C 359.41,109.218 357.245,111.337 354.913,114.231 C 352.581,117.125 350.081,120.793 348.514,124.805 C 346.972,128.762 343.927,134.431 339.064,139.907 C 334.198,145.39 327.52,150.693 318.671,154.023 C 318.023,154.267 317.692,154.993 317.937,155.645 C 318.183,156.293 318.911,156.624 319.559,156.38 C 328.847,152.886 335.861,147.314 340.947,141.577 C 346.037,135.84 349.209,129.951 350.86,125.721 C 352.496,121.513 355.385,117.52 357.876,114.6 C 359.124,113.141 360.264,111.946 361.102,111.116 C 361.518,110.702 361.86,110.378 362.097,110.154 C 362.215,110.046 362.306,109.958 362.368,109.9 L 362.443,109.835 L 362.463,109.814 L 362.484,109.795 L 362.484,109.795 L 363.59,108.774 C 363.907,108.478 364.051,108.044 363.973,107.618 C 363.893,107.189 363.6,106.835 363.197,106.676 C 363.197,106.676 362.316,106.331 361.273,105.916 C 360.228,105.506 359.02,105.029 358.367,104.771 L 357.907,105.942 L 358.894,106.722 C 359.879,105.472 362.776,101.8 362.776,101.8 C 363.037,101.468 363.113,101.023 362.98,100.619 C 362.844,100.217 362.515,99.911 362.105,99.802 C 362.105,99.802 361.199,99.566 360.119,99.283 C 359.037,99 357.779,98.668 357.067,98.483 L 356.749,99.699 L 357.777,100.427 C 357.93,100.206 358.32,99.767 358.779,99.3 C 359.476,98.594 360.35,97.781 361.047,97.147 C 361.395,96.834 361.699,96.56 361.918,96.371 C 362.023,96.276 362.11,96.201 362.169,96.148 C 362.23,96.097 362.26,96.073 362.26,96.073 C 362.782,95.618 362.841,94.83 362.395,94.304 L 361.922,93.744 L 361.926,93.751 L 361.878,93.696 L 361.837,93.658 C 361.775,93.594 361.588,93.406 361.26,93.065 C 358.989,90.692 350.441,81.204 342.832,64.989 L 342.795,64.917 C 336.964,54.292 328.351,45.97 317.629,40.899 C 306.91,35.823 294.099,33.999 279.902,36.265 C 265.705,38.531 253.953,44.275 245.193,52.459 C 236.435,60.641 230.684,71.25 228.447,83.174 L 228.433,83.255 C 227.162,93.616 224.878,101.902 222.911,107.603 C 221.926,110.456 221.024,112.66 220.365,114.146 C 220.038,114.894 219.771,115.459 219.586,115.842 C 219.496,116.031 219.424,116.177 219.374,116.272 L 219.316,116.386 L 219.296,116.423 L 219.285,116.445 L 219.274,116.465 L 219.246,116.531 L 219.252,116.525 L 218.971,117.203 C 218.712,117.844 219.014,118.571 219.651,118.842 C 219.651,118.842 219.72,118.869 219.845,118.922 C 220.281,119.107 221.399,119.589 222.541,120.127 C 223.111,120.397 223.687,120.679 224.177,120.938 C 224.665,121.196 225.082,121.445 225.267,121.584 L 226.018,120.574 L 225.335,119.517 C 224.716,119.914 223.625,120.621 222.685,121.227 C 221.747,121.832 220.962,122.337 220.96,122.338 C 220.603,122.569 220.386,122.963 220.383,123.388 C 220.381,123.811 220.593,124.21 220.945,124.447 C 220.945,124.447 224.84,127.034 226.168,127.914 L 226.863,126.866 L 226.059,125.895 C 225.518,126.344 224.52,127.171 223.654,127.888 C 222.792,128.608 222.062,129.209 222.062,129.209 C 221.728,129.487 221.56,129.919 221.618,130.348 C 221.675,130.776 221.947,131.144 222.342,131.326 L 223.71,131.951 L 223.71,131.951 L 223.738,131.964 C 223.916,132.043 226.493,133.179 229.743,135.177 C 232.99,137.174 236.896,140.031 239.719,143.467 C 242.605,146.973 247.454,151.581 254.074,155.446 C 260.696,159.315 269.095,162.425 279.01,162.853 C 279.704,162.882 280.29,162.343 280.321,161.649 C 280.349,160.955 279.809,160.368 279.117,160.338 z"
               id="path510"
               style="fill:#070001" />
            <path
               d="M 249.817,51.526 C 243.06,48.348 238.629,49.262 232.719,48.978 C 226.686,48.683 216.024,47.488 215.188,49.309 C 214.357,51.128 218.534,70.205 221.788,79.862 C 223.602,85.229 227.72,93.131 228.798,97.369"
               id="path512"
               style="fill:#d67121" />
            <path
               d="M 250.351,50.386 C 246.838,48.728 243.847,48.122 241.048,47.911 C 238.241,47.703 235.652,47.858 232.779,47.716 L 232.779,47.716 C 230.448,47.606 227.363,47.351 224.424,47.195 C 222.952,47.117 221.515,47.06 220.209,47.061 C 218.901,47.063 217.733,47.115 216.756,47.27 C 216.217,47.356 215.735,47.472 215.279,47.666 C 215.054,47.766 214.83,47.886 214.614,48.061 C 214.4,48.236 214.188,48.473 214.047,48.781 L 214.044,48.784 C 213.947,49.004 213.907,49.18 213.879,49.352 C 213.83,49.658 213.821,49.954 213.825,50.296 C 213.84,51.307 214.011,52.708 214.286,54.447 C 215.382,61.296 218.211,73.176 220.598,80.262 L 220.598,80.262 C 221.535,83.036 223.028,86.369 224.415,89.542 C 225.108,91.127 225.776,92.668 226.333,94.063 C 226.89,95.458 227.334,96.709 227.577,97.676 C 227.751,98.351 228.435,98.757 229.107,98.586 C 229.782,98.413 230.189,97.732 230.02,97.056 C 229.723,95.903 229.248,94.579 228.67,93.133 C 227.809,90.963 226.714,88.53 225.674,86.138 C 224.629,83.75 223.637,81.398 222.981,79.458 L 222.981,79.46 C 220.668,72.595 217.829,60.697 216.771,54.05 C 216.566,52.771 216.431,51.69 216.372,50.903 C 216.344,50.508 216.336,50.189 216.346,49.98 C 216.35,49.873 216.357,49.798 216.362,49.763 L 216.366,49.746 L 216.349,49.743 L 216.366,49.746 L 216.366,49.746 L 216.349,49.743 L 216.366,49.746 L 215.877,49.621 L 216.335,49.833 L 216.366,49.746 L 215.877,49.621 L 216.335,49.833 L 216.335,49.833 L 215.89,49.626 L 216.203,50.014 C 216.219,50.006 216.282,49.945 216.335,49.833 L 215.89,49.626 L 216.203,50.014 L 216.204,50.017 C 216.226,49.999 216.331,49.949 216.494,49.901 C 216.66,49.85 216.886,49.798 217.153,49.755 C 217.904,49.635 218.977,49.574 220.21,49.578 C 222.064,49.577 224.283,49.693 226.481,49.837 C 228.681,49.981 230.857,50.144 232.657,50.233 L 232.657,50.233 C 235.699,50.377 238.279,50.223 240.857,50.421 C 243.437,50.616 246.04,51.14 249.279,52.661 C 249.909,52.959 250.66,52.686 250.956,52.059 C 251.251,51.432 250.982,50.684 250.351,50.386 z"
               id="path514"
               style="fill:#070001" />
            <path
               d="M 245.37,57.019 C 244.86,53.868 235.291,53.845 231.494,53.386 C 227.811,52.94 222.239,52.199 221.706,53.26 C 221.175,54.32 224.722,66.657 226.668,72.236 C 227.753,75.338 228.856,76.912 230.022,79.157 C 230.79,80.63 232.667,82.71 233.288,81.292 C 233.91,79.873 234.815,75.686 238.522,67.424 C 242.249,59.118 245.498,57.799 245.37,57.019 z"
               id="path516"
               style="fill:#f4f4c7" />
            <path
               d="M 313.555,41.021 C 319.083,36.003 323.586,35.579 329.153,33.572 C 334.836,31.521 344.675,27.253 346.007,28.749 C 347.34,30.246 348.94,49.706 348.657,59.894 C 348.499,65.558 346.881,74.318 347.094,78.685"
               id="path518"
               style="fill:#d67121" />
            <path
               d="M 314.402,41.95 C 317.053,39.546 319.388,38.282 321.798,37.339 C 324.203,36.392 326.717,35.783 329.581,34.754 C 331.841,33.941 334.704,32.794 337.424,31.799 C 338.787,31.304 340.109,30.841 341.289,30.478 C 342.466,30.116 343.512,29.856 344.264,29.751 C 344.674,29.693 344.996,29.688 345.153,29.705 L 345.238,29.722 L 345.255,29.725 L 345.41,29.281 L 345.071,29.586 C 345.163,29.693 345.249,29.723 345.255,29.726 L 345.41,29.282 L 345.071,29.587 L 345.071,29.587 L 345.467,29.232 L 345.016,29.518 L 345.072,29.587 L 345.468,29.232 L 345.017,29.518 L 345.083,29.477 L 345.013,29.514 L 345.017,29.518 L 345.083,29.477 L 345.013,29.514 C 345.026,29.53 345.097,29.687 345.165,29.918 C 345.273,30.266 345.394,30.798 345.52,31.447 C 345.64,32.097 345.766,32.874 345.888,33.747 C 346.826,40.412 347.601,52.622 347.403,59.861 L 347.403,59.859 C 347.326,62.591 346.885,66.185 346.489,69.632 C 346.288,71.358 346.099,73.048 345.972,74.602 C 345.846,76.153 345.78,77.558 345.836,78.747 C 345.869,79.443 346.459,79.976 347.154,79.944 C 347.847,79.911 348.383,79.32 348.349,78.624 C 348.3,77.63 348.357,76.301 348.48,74.806 C 348.664,72.563 348.993,69.929 349.291,67.323 C 349.587,64.713 349.855,62.128 349.917,59.929 L 349.917,59.929 C 350.12,52.453 349.344,40.273 348.382,33.397 C 348.195,32.077 348.004,30.946 347.801,30.057 C 347.699,29.614 347.596,29.23 347.479,28.895 C 347.419,28.725 347.354,28.566 347.277,28.408 C 347.2,28.252 347.11,28.096 346.951,27.914 L 346.95,27.911 C 346.722,27.657 346.452,27.494 346.196,27.389 C 345.808,27.238 345.443,27.192 345.071,27.183 C 344.701,27.172 344.319,27.204 343.915,27.261 C 342.936,27.399 341.805,27.692 340.553,28.073 C 338.683,28.648 336.558,29.428 334.482,30.214 C 332.404,31.004 330.375,31.795 328.728,32.388 L 328.728,32.388 C 326.025,33.366 323.501,33.976 320.881,34.998 C 318.268,36.02 315.585,37.477 312.709,40.091 C 312.194,40.562 312.157,41.355 312.626,41.869 C 313.09,42.38 313.888,42.419 314.402,41.95 z"
               id="path520"
               style="fill:#070001" />
            <path
               d="M 319.416,44.969 C 318.978,41.807 328.123,38.978 331.616,37.426 C 335.006,35.921 340.117,33.577 340.936,34.437 C 341.757,35.293 341.983,48.127 341.756,54.033 C 341.632,57.315 341.037,59.145 340.579,61.634 C 340.277,63.267 339.095,65.807 338.083,64.632 C 337.073,63.458 334.979,59.721 329.013,52.909 C 323.016,46.061 319.523,45.753 319.416,44.969 z"
               id="path522"
               style="fill:#f4f4c7" />
            <path
               d="M 267.804,129.77 C 268.404,133.544 270.63,136.691 273.683,138.702 C 276.742,140.718 280.641,141.623 284.664,140.982 C 290.052,140.12 294.36,136.692 296.284,132.236 L 295.127,131.735 L 294.186,132.57 C 297.399,136.207 302.561,138.124 307.949,137.264 C 311.974,136.619 315.396,134.546 317.673,131.677 C 319.951,128.816 321.085,125.133 320.481,121.359 C 320.373,120.675 319.724,120.206 319.041,120.314 C 318.353,120.424 317.884,121.072 317.993,121.755 C 318.476,124.784 317.582,127.739 315.704,130.111 C 313.821,132.481 310.96,134.232 307.553,134.776 C 302.993,135.506 298.688,133.866 296.074,130.905 C 295.79,130.579 295.354,130.424 294.93,130.491 C 294.506,130.559 294.144,130.842 293.975,131.239 C 292.412,134.869 288.829,137.769 284.27,138.494 C 280.864,139.037 277.599,138.265 275.074,136.599 C 272.547,134.93 270.777,132.399 270.294,129.37 C 270.184,128.686 269.539,128.218 268.852,128.326 C 268.161,128.438 267.694,129.086 267.804,129.77 z"
               id="path524"
               style="fill:#070001" />
            <path
               d="M 293.355,118.023 C 301.471,116.727 304.432,120.214 301.508,126.678 C 298.587,133.141 292.276,134.149 287.485,128.917 C 282.697,123.686 285.237,119.318 293.355,118.023 z"
               id="path526"
               style="fill:#332f1f;stroke:#040000;stroke-width:2.34089994" />
            <path
               d="M 264.48,128.622 C 263.42,128.629 262.391,128.661 261.389,128.726 C 250.926,129.392 243.778,133.281 239.282,137.014 C 234.779,140.748 232.909,144.315 232.866,144.389 C 232.627,144.855 232.805,145.423 233.267,145.662 C 233.731,145.904 234.299,145.726 234.541,145.265 L 234.273,145.126 L 234.539,145.265 L 234.541,145.265 L 234.273,145.126 L 234.539,145.265 C 234.553,145.236 236.338,141.876 240.587,138.386 C 244.842,134.895 251.537,131.253 261.511,130.613 C 262.474,130.551 263.463,130.514 264.485,130.509 C 265.008,130.51 265.432,130.089 265.428,129.567 C 265.429,129.043 265.004,128.62 264.48,128.622 z"
               id="path528"
               style="fill:#070001" />
            <path
               d="M 266.074,134.708 C 256.107,136.779 249.928,141.53 246.286,145.773 C 242.64,150.016 241.505,153.741 241.477,153.825 C 241.325,154.324 241.606,154.85 242.105,155.003 C 242.604,155.153 243.133,154.872 243.285,154.371 L 242.957,154.275 L 243.283,154.376 L 243.285,154.371 L 242.957,154.275 L 243.283,154.376 C 243.291,154.348 244.373,150.862 247.8,146.913 C 251.233,142.961 256.982,138.531 266.461,136.556 C 266.972,136.451 267.301,135.95 267.192,135.437 C 267.088,134.927 266.585,134.6 266.074,134.708 z"
               id="path530"
               style="fill:#070001" />
            <path
               d="M 262.848,122.021 C 258.053,121.079 253.697,120.855 249.797,121.108 C 241.944,121.612 235.945,124.04 231.914,126.344 C 227.879,128.653 225.806,130.837 225.755,130.889 C 225.396,131.268 225.412,131.862 225.791,132.221 C 226.173,132.579 226.77,132.564 227.129,132.185 L 226.883,131.955 L 227.129,132.185 L 227.129,132.185 L 226.883,131.955 L 227.129,132.185 C 227.142,132.173 229.113,130.108 232.941,127.934 C 236.771,125.76 242.45,123.471 249.92,122.991 C 253.659,122.751 257.847,122.965 262.483,123.872 C 262.996,123.974 263.49,123.64 263.592,123.129 C 263.691,122.616 263.361,122.12 262.848,122.021 z"
               id="path532"
               style="fill:#070001" />
            <path
               d="M 324.819,119.452 C 325.817,119.23 326.792,119.047 327.742,118.894 C 337.688,117.306 345.065,119.425 349.983,121.918 C 352.443,123.164 354.281,124.51 355.497,125.536 C 356.107,126.046 356.56,126.479 356.858,126.781 C 357.008,126.934 357.117,127.047 357.188,127.124 L 357.264,127.212 L 357.282,127.233 L 357.285,127.232 L 357.512,127.039 L 357.285,127.232 L 357.285,127.232 L 357.512,127.039 L 357.285,127.232 C 357.619,127.63 358.218,127.677 358.616,127.339 C 359.013,127.003 359.061,126.41 358.722,126.009 C 358.667,125.945 356.052,122.88 350.837,120.232 C 345.626,117.583 337.8,115.368 327.444,117.028 C 326.454,117.186 325.441,117.381 324.406,117.609 C 323.896,117.723 323.576,118.23 323.691,118.739 C 323.807,119.249 324.31,119.567 324.819,119.452 z"
               id="path534"
               style="fill:#070001" />
            <path
               d="M 324.229,125.784 C 333.985,125.618 340.599,128.719 344.813,131.841 C 346.917,133.399 348.417,134.971 349.385,136.142 C 349.868,136.728 350.222,137.215 350.45,137.55 C 350.562,137.718 350.644,137.844 350.698,137.931 L 350.755,138.022 L 350.766,138.044 L 350.767,138.049 L 351.063,137.879 L 350.766,138.044 L 350.767,138.049 L 351.063,137.879 L 350.766,138.044 C 351.025,138.499 351.599,138.658 352.053,138.4 C 352.506,138.142 352.667,137.566 352.409,137.114 C 352.362,137.037 350.433,133.654 345.937,130.322 C 341.448,126.988 334.373,123.715 324.197,123.897 C 323.673,123.905 323.259,124.333 323.269,124.853 C 323.277,125.377 323.71,125.794 324.229,125.784 z"
               id="path536"
               style="fill:#070001" />
            <path
               d="M 325.307,112.535 C 329.628,110.626 333.671,109.492 337.369,108.901 C 344.818,107.712 350.898,108.712 355.117,110.003 C 357.226,110.649 358.869,111.367 359.975,111.918 C 360.528,112.193 360.951,112.429 361.227,112.594 C 361.366,112.676 361.469,112.74 361.537,112.782 L 361.609,112.831 L 361.625,112.84 L 361.628,112.84 L 361.814,112.56 L 361.628,112.84 L 361.628,112.84 L 361.814,112.56 L 361.628,112.84 C 362.059,113.13 362.648,113.014 362.939,112.579 C 363.228,112.145 363.113,111.563 362.679,111.272 C 362.62,111.232 360.115,109.561 355.671,108.198 C 351.229,106.842 344.843,105.797 337.072,107.039 C 333.212,107.655 329.01,108.834 324.546,110.81 C 324.068,111.021 323.852,111.579 324.063,112.056 C 324.273,112.531 324.833,112.744 325.307,112.535 z"
               id="path538"
               style="fill:#070001" />
            <ellipse
               cx="267.10001"
               cy="103.13"
               rx="7.8959999"
               ry="7.9590001"
               transform="matrix(0.9875,-0.1577,0.1577,0.9875,-12.9206,43.4083)"
               id="ellipse540"
               style="fill:#070001" />
            <path
               d="M 270.898,98.754 C 271.164,100.412 270.119,101.964 268.56,102.213 C 267.004,102.462 265.523,101.313 265.258,99.655 C 264.991,97.989 266.042,96.44 267.599,96.191 C 269.156,95.943 270.633,97.09 270.898,98.754 z"
               id="path542"
               style="fill:#ffffff" />
            <ellipse
               cx="312.62701"
               cy="95.917"
               rx="7.8959999"
               ry="7.9590001"
               transform="matrix(0.9875,-0.1578,0.1578,0.9875,-11.2169,50.52)"
               id="ellipse544"
               style="fill:#070001" />
            <path
               d="M 316.425,91.541 C 316.691,93.2 315.647,94.751 314.088,95 C 312.531,95.248 311.053,94.101 310.788,92.441 C 310.522,90.776 311.569,89.227 313.128,88.98 C 314.685,88.73 316.159,89.878 316.425,91.541 z"
               id="path546"
               style="fill:#ffffff" />
          </g>
          <path
             d="M 333.48179,196.02681 L 333.48299,196.03043 C 332.63893,195.92914 332.04206,195.16225 332.14214,194.32061 L 332.14214,194.32061 C 332.24464,193.48137 333.00912,192.88329 333.84956,192.98458 L 333.84956,192.98458 C 333.85197,192.98096 334.69724,193.08587 336.25393,193.19559 L 336.25393,193.19559 C 338.35202,193.34391 341.71017,193.50187 345.82557,193.4054 L 345.82557,193.4054 C 353.01094,193.2378 357.9716,192.61802 357.98607,192.6156 L 357.98607,192.6156 C 358.82652,192.5119 359.59341,193.10636 359.6971,193.94801 L 359.6971,193.94801 C 359.7996,194.78725 359.20634,195.55293 358.3659,195.65784 L 358.3659,195.65784 C 358.32852,195.66146 353.22678,196.30174 345.89551,196.47175 L 345.89551,196.47175 C 341.66435,196.57063 338.21576,196.41146 336.03688,196.25712 L 336.03688,196.25712 C 334.4199,196.14257 333.50349,196.03284 333.48179,196.02681 L 333.48179,196.02681 z"
             id="path548"
             style="fill:#070001" />
          <path
             d="M 460.03421,223.58299 C 460.03421,223.58299 475.5589,224.46202 491.01968,223.12478 C 506.48166,221.78876 509.95678,219.47482 513.84911,216.26136 C 517.74264,213.0479 487.28893,216.59055 477.59309,218.20029 C 467.89604,219.81245 460.03421,223.58299 460.03421,223.58299 z"
             id="path555"
             style="fill:url(#linearGradient4457);fill-opacity:1" />
          <path
             d="M 463.79752,264.15216 C 463.79752,264.15216 478.1152,262.56532 492.49076,262.92706 C 506.8639,263.2888 510.20156,265.13971 513.97089,267.76112 C 517.74143,270.38012 489.37979,268.86684 480.32543,267.96128 C 471.26987,267.05211 463.79752,264.15216 463.79752,264.15216 z"
             id="path562"
             style="fill:url(#linearGradient4459);fill-opacity:1" />
          <path
             d="M 74.763,238.022 C 55.443,238.022 39.782,242.455 39.782,247.923 C 39.782,248.084 39.798,248.243 39.825,248.402 C 37.166,248.092 34.332,247.923 31.387,247.923 C 16.24,247.923 3.961,252.356 3.961,257.824 C 3.961,263.292 16.239,267.725 31.387,267.725 C 46.533,267.725 58.812,263.292 58.812,257.824 C 58.812,257.446 58.748,257.074 58.633,256.708 C 63.461,257.42 68.944,257.824 74.764,257.824 C 94.084,257.824 109.745,253.391 109.745,247.923 C 109.745,242.455 94.083,238.022 74.763,238.022 z"
             transform="matrix(1.2058008,0,0,1.2058008,1.2294077,-2.5538555e-2)"
             id="path564"
             style="fill:#34a1d2;filter:url(#filter3932)" />
          <path
             d="M 104.36517,301.9094 C 85.121795,304.76473 67.501427,293.45432 65.006626,276.64787 C 62.513029,259.84142 76.090347,243.90314 95.333722,241.04781 C 114.57589,238.19368 133.10664,255.638 134.69106,266.30933 C 136.27428,276.98188 123.60734,299.05406 104.36517,301.9094 z"
             id="path573"
             style="fill:url(#radialGradient4569);fill-opacity:1" />
          <path
             d="M 66.372798,263.08261 C 66.372798,263.08261 73.078256,254.0379 83.65313,250.31318 C 94.226797,246.58967 102.47689,245.79263 113.3098,249.24966 C 124.1403,252.7079 129.55797,261.48492 129.55797,261.48492 C 129.55797,261.48492 118.46942,247.3855 101.44834,248.18494 C 84.426048,248.98439 69.468089,260.68789 66.372798,263.08261 z"
             id="path575"
             style="fill:#593d1b" />
          <path
             d="M 66.372798,265.47733 C 66.372798,265.47733 73.406234,252.53185 84.49719,247.20221 C 95.589352,241.87137 104.24459,240.73068 115.60685,245.68049 C 126.97032,250.6291 132.65205,263.19113 132.65205,263.19113 C 132.65205,263.19113 121.0209,243.01326 103.1654,244.15515 C 85.308694,245.29705 69.62002,262.05045 66.372798,265.47733 z"
             id="path577"
             style="fill:#593d1b" />
          <path
             d="M 68.7844,265.47733 C 68.7844,265.47733 75.562206,259.57735 86.249219,257.14886 C 96.937438,254.71797 105.27796,254.19948 116.22663,256.45553 C 127.17651,258.70917 132.65085,264.43672 132.65085,264.43672 C 132.65085,264.43672 121.44172,255.23888 104.23736,255.75978 C 87.031784,256.28069 71.913453,263.91461 68.7844,265.47733 z"
             id="path579"
             style="fill:#593d1b" />
          <path
             d="M 71.082656,263.9544 C 71.082656,263.9544 77.347997,264.43431 87.229535,264.63206 C 97.109867,264.82982 104.82096,264.87202 114.94246,264.68874 C 125.06515,264.50666 130.1259,264.04002 130.1259,264.04002 C 130.1259,264.04002 119.76325,264.78761 103.85873,264.74541 C 87.95181,264.702 73.974166,264.08101 71.082656,263.9544 z"
             id="path581"
             style="fill:#593d1b" />
          <path
             d="M 71.082656,267.04367 C 71.082656,267.04367 77.347997,268.57503 87.229535,269.20205 C 97.109867,269.83148 104.82096,269.96773 114.94246,269.38171 C 125.06515,268.79931 130.1259,267.31256 130.1259,267.31256 C 130.1259,267.31256 119.76325,269.69643 103.85873,269.56138 C 87.95181,269.42753 73.974166,267.44882 71.082656,267.04367 z"
             id="path583"
             style="fill:#593d1b" />
          <path
             d="M 71.082656,269.12247 C 71.082656,269.12247 77.347997,277.25439 87.229535,280.58963 C 97.109867,283.93573 104.82096,284.65559 114.94246,281.54704 C 125.06515,278.45054 130.1259,270.55616 130.1259,270.55616 C 130.1259,270.55616 119.76325,283.21707 103.85873,282.50324 C 87.95181,281.78458 73.974166,271.27362 71.082656,269.12247 z"
             id="path585"
             style="fill:#593d1b" />
          <path
             d="M 64.878811,269.12247 C 64.878811,269.12247 71.802519,285.55512 82.722251,292.29314 C 93.640778,299.05406 102.16097,300.50705 113.34598,294.22724 C 124.53098,287.96913 130.12469,272.01639 130.12469,272.01639 C 130.12469,272.01639 118.6732,297.60107 101.09745,296.15893 C 83.520492,294.70835 68.075389,273.46938 64.878811,269.12247 z"
             id="path587"
             style="fill:#593d1b" />
          <path
             d="M 35.679138,298.24979 C 15.28784,295.34019 0.036870653,284.01049 1.6164697,272.94847 C -1.3256843,293.56646 12.819565,312.6362 33.210863,315.5458 C 53.604573,318.4554 72.521176,304.10275 75.462125,283.48597 C 73.884937,294.54919 56.072847,301.15939 35.679138,298.24979 z"
             id="path594"
             style="fill:url(#radialGradient4463);fill-opacity:1" />
          <path
             d="M 35.679138,298.24979 C 56.072847,301.15939 73.884937,294.54919 75.462125,283.48597 C 77.041724,272.41913 61.789549,261.09304 41.397045,258.18344 C 21.004541,255.27264 3.194863,261.88163 1.6164697,272.94847 C 0.038076454,284.0117 15.28784,295.34019 35.679138,298.24979 z M 40.631362,263.54805 C 56.233219,265.77516 67.964455,273.99873 66.833414,281.91722 C 65.702373,289.83813 52.140731,294.45273 36.538874,292.22802 C 20.938222,290.00091 9.206986,281.77735 10.338027,273.85644 C 11.467863,265.93674 25.03071,261.32214 40.631362,263.54805 z"
             id="path611"
             style="fill:url(#linearGradient4465);fill-opacity:1" />
          <path
             d="M 36.538874,292.22802 C 52.140731,294.45393 65.703578,289.83933 66.833414,281.91722 C 67.964455,273.99873 56.233219,265.77396 40.631362,263.54805 C 25.03071,261.32214 11.467863,265.93674 10.338027,273.85644 C 9.206986,281.77735 20.938222,290.00091 36.538874,292.22802 z"
             id="path624"
             style="fill:url(#radialGradient4467);fill-opacity:1" />
          <path
             d="M 4.9191582,286.81277 C 4.9191582,286.81277 12.20943,300.65054 23.704329,306.32504 C 35.199229,312.02004 44.170387,313.24272 55.946238,307.95528 C 67.723295,302.68473 73.610015,289.2509 73.610015,289.2509 C 73.610015,289.2509 61.554418,310.79615 43.050198,309.58191 C 24.544773,308.35802 8.2833426,290.47358 4.9191582,286.81277 z"
             id="path626"
             style="fill:#593d1b" />
          <rect
             width="542.39856"
             height="104.44593"
             x="-5.973774"
             y="229.87904"
             id="rect4044"
             style="opacity:0;fill:#231815;fill-opacity:1;stroke:none;stroke-width:3;stroke-linecap:round;stroke-linejoin:round;stroke-miterlimit:4;stroke-dasharray:none;stroke-dashoffset:0;stroke-opacity:1" />
          <rect
             width="302.64105"
             height="295.40625"
             x="235.16226"
             y="-14.816856"
             id="rect4290"
             style="opacity:0;fill:#e50000;fill-opacity:1;stroke:#e50000;stroke-width:1.22078145;stroke-linecap:round;stroke-linejoin:round;stroke-miterlimit:4;stroke-dasharray:none;stroke-dashoffset:0;stroke-opacity:1" />
        </g>
      </g>
    </g>
  </g>
</svg>
