<?xml version="1.0" encoding="UTF-8" standalone="no"?>
<!-- Created with Inkscape (http://www.inkscape.org/) -->

<svg
   xmlns:dc="http://purl.org/dc/elements/1.1/"
   xmlns:cc="http://creativecommons.org/ns#"
   xmlns:rdf="http://www.w3.org/1999/02/22-rdf-syntax-ns#"
   xmlns:svg="http://www.w3.org/2000/svg"
   xmlns="http://www.w3.org/2000/svg"
   xmlns:sodipodi="http://sodipodi.sourceforge.net/DTD/sodipodi-0.dtd"
   xmlns:inkscape="http://www.inkscape.org/namespaces/inkscape"
   version="1.1"
   width="202"
   height="15"
   id="svg4109"
   inkscape:version="0.48.0 r9654"
   sodipodi:docname="copyright_2010.svg">
  <sodipodi:namedview
     pagecolor="#ffffff"
     bordercolor="#666666"
     borderopacity="1"
     objecttolerance="10"
     gridtolerance="10"
     guidetolerance="10"
     inkscape:pageopacity="0"
     inkscape:pageshadow="2"
     inkscape:window-width="1175"
     inkscape:window-height="735"
     id="namedview61"
     showgrid="false"
     inkscape:zoom="1.3928126"
     inkscape:cx="96.56719"
     inkscape:cy="-20.95816"
     inkscape:window-x="491"
     inkscape:window-y="100"
     inkscape:window-maximized="0"
     inkscape:current-layer="g4616" />
  <defs
     id="defs4111">
    <filter
       inkscape:collect="always"
       id="filter4090"
       x="-0.0127227"
       width="1.0254454"
       y="-0.21125275"
       height="1.4225055">
      <feGaussianBlur
         inkscape:collect="always"
         stdDeviation="0.801"
         id="feGaussianBlur4092" />
    </filter>
  </defs>
  <metadata
     id="metadata4114">
    <rdf:RDF>
      <cc:Work
         rdf:about="">
        <dc:format>image/svg+xml</dc:format>
        <dc:type
           rdf:resource="http://purl.org/dc/dcmitype/StillImage" />
        <dc:title />
      </cc:Work>
    </rdf:RDF>
  </metadata>
  <g
     transform="translate(-290.84892,-537.27118)"
     id="layer1">
    <g
       id="g4661">
      <g
         transform="translate(282.24892,531.17118)"
         id="g3140">
        <g
           id="g4609">
          <path
             d="m 204,6.6 c -2.9,0.1 -5.3,2.5 -5.3,5.4 0,3 2.4,5.4 5.4,5.4 3,0 5.4,-2.4 5.4,-5.4 0,-3 -2.4,-5.4 -5.4,-5.4 0,0 -0.1,0 -0.1,0 z"
             id="path3142"
             inkscape:connector-curvature="0" />
          <path
             d="m 204,7.5 c 0,0 0.1,0 0.1,0 2.5,0 4.5,2 4.5,4.5 0,2.5 -2,4.5 -4.5,4.5 -2.5,0 -4.5,-2 -4.5,-4.5 0.1,-2.5 2,-4.4 4.4,-4.5 z"
             id="path3144"
             style="fill:#ffffff"
             inkscape:connector-curvature="0" />
          <path
             d="m 203.1,13.1 c 0.3,0.5 1.4,0.5 1.8,0.3 0.1,-0.1 0.2,-0.3 0.2,-0.4 0,-0.1 0,-0.2 -0.1,-0.2 -0.1,-0.1 -0.2,-0.2 -0.4,-0.2 -0.8,-0.2 -1.4,-0.5 -1.7,-0.7 -0.3,-0.2 -0.3,-0.4 -0.3,-0.8 0,-0.4 0.1,-0.8 0.4,-1.1 0.3,-0.3 0.7,-0.4 1.2,-0.4 0.5,0 1.2,0.1 1.6,0.5 l -0.6,0.6 c -0.3,-0.3 -0.6,-0.3 -1,-0.3 -0.3,0 -0.4,0 -0.5,0.1 -0.1,0.1 -0.2,0.2 -0.2,0.3 0,0.1 0,0.2 0.1,0.3 0.1,0.1 0.4,0.2 0.9,0.3 0.6,0.2 1,0.3 1.2,0.6 0.2,0.2 0.3,0.5 0.3,0.9 0,0.4 -0.2,0.8 -0.5,1.1 -0.3,0.3 -0.7,0.5 -1.3,0.5 -0.7,0 -1.7,-0.3 -1.9,-0.7"
             id="text1367"
             inkscape:connector-curvature="0" />
          <path
             d="m 208.7,13.3 -0.4,0.9 -8.6,-3.9 0.4,-0.9 8.6,3.9 z"
             id="rect2247"
             inkscape:connector-curvature="0" />
          <path
             d="m 203.9,8.7 v 1.2 h 0.5 V 8.7 h -0.5 z m 0,5.4 v 1 h 0.5 v -1 h -0.5 z"
             id="rect2278"
             inkscape:connector-curvature="0" />
        </g>
      </g>
      <g
         transform="translate(282.24892,531.17118)"
         id="g3161">
        <path
           d="M 204.1,18.5 V 21 h -0.8 l -0.7,-1.4 c 0,-0.1 -0.1,-0.2 -0.2,-0.4 l -0.1,-0.2 -0.1,-0.2 h 0 l 0,0.2 0,0.2 0,0.3 v 1.4 h -0.5 v -2.5 h 0.8 l 0.6,1.3 c 0.1,0.1 0.1,0.2 0.2,0.4 l 0.1,0.2 0.1,0.2 h 0 l 0,-0.2 0,-0.2 0,-0.3 v -1.4 h 0.6 z"
           id="path3163"
           inkscape:connector-curvature="0" />
        <path
           d="m 206,20.1 h 0.5 v 0.1 c 0,0.3 -0.1,0.6 -0.2,0.7 -0.1,0.1 -0.4,0.2 -0.8,0.2 -0.5,0 -0.8,-0.1 -0.9,-0.2 -0.1,-0.1 -0.2,-0.6 -0.2,-1.3 0,-0.4 0.1,-0.7 0.2,-0.8 0.2,-0.1 0.5,-0.2 1,-0.2 0.4,0 0.6,0.1 0.7,0.2 0.1,0.1 0.2,0.3 0.2,0.6 l 0,0.1 H 206 v -0.1 c 0,-0.2 0,-0.3 -0.1,-0.3 -0.1,0 -0.2,-0.1 -0.4,-0.1 -0.3,0 -0.5,0 -0.5,0.1 0,0.1 -0.1,0.3 -0.1,0.6 0,0.5 0,0.8 0.1,0.8 0.1,0 0.2,0.1 0.5,0.1 0.2,0 0.4,0 0.5,-0.1 0.1,0 0.1,-0.2 0.1,-0.3 L 206,20.1 z"
           id="path3165"
           inkscape:connector-curvature="0" />
      </g>
      <g
         id="g4616">
        <g
           style="fill:#000000;fill-opacity:1;stroke:#000000;stroke-width:1.50000000000000000;stroke-linecap:round;stroke-linejoin:round;stroke-miterlimit:4;stroke-opacity:1;stroke-dasharray:none;filter:url(#filter4090)"
           id="g3240"
           transform="translate(282.24892,531.17118)">
          <g
             style="fill:#000000;fill-opacity:1;stroke:#000000;stroke-width:1.5;stroke-linecap:round;stroke-linejoin:round;stroke-miterlimit:4;stroke-opacity:1;stroke-dasharray:none"
             id="g3242">
            <path
               inkscape:connector-curvature="0"
               style="fill:#000000;fill-opacity:1;stroke:#000000;stroke-width:1.5;stroke-linecap:round;stroke-linejoin:round;stroke-miterlimit:4;stroke-opacity:1;stroke-dasharray:none"
               id="path3244"
               d="m 11,9.3 -0.1,2.9 H 10.3 L 10.1,9.3 H 11 z m 1.7,0 -0.1,2.9 H 12 L 11.8,9.3 h 0.9 z" />
            <path
               inkscape:connector-curvature="0"
               style="fill:#000000;fill-opacity:1;stroke:#000000;stroke-width:1.5;stroke-linecap:round;stroke-linejoin:round;stroke-miterlimit:4;stroke-opacity:1;stroke-dasharray:none"
               id="path3246"
               d="m 14.7,9.3 h 5 v 0.9 h -4 v 2.2 h 3.5 v 0.9 h -3.5 v 3.3 h -1 V 9.3 z" />
            <path
               inkscape:connector-curvature="0"
               style="fill:#000000;fill-opacity:1;stroke:#000000;stroke-width:1.5;stroke-linecap:round;stroke-linejoin:round;stroke-miterlimit:4;stroke-opacity:1;stroke-dasharray:none"
               id="path3248"
               d="m 24.8,11.7 c 0.5,0.4 0.7,1.1 0.7,2 0,0.8 -0.2,1.5 -0.6,2.1 -0.4,0.5 -1,0.8 -1.9,0.8 -0.7,0 -1.3,-0.2 -1.7,-0.7 -0.4,-0.5 -0.6,-1.1 -0.6,-2 0,-0.9 0.2,-1.6 0.7,-2.1 0.4,-0.5 1,-0.8 1.8,-0.8 0.6,0.1 1.2,0.3 1.6,0.7 z m -0.5,3.5 c 0.2,-0.4 0.3,-0.9 0.3,-1.5 0,-0.5 -0.1,-0.9 -0.2,-1.2 -0.2,-0.5 -0.7,-0.7 -1.3,-0.7 -0.5,0 -0.9,0.2 -1.2,0.6 -0.2,0.4 -0.4,0.9 -0.4,1.5 0,0.6 0.1,1 0.4,1.4 0.2,0.4 0.6,0.6 1.2,0.6 0.6,0 1,-0.2 1.2,-0.7 z" />
            <path
               inkscape:connector-curvature="0"
               style="fill:#000000;fill-opacity:1;stroke:#000000;stroke-width:1.5;stroke-linecap:round;stroke-linejoin:round;stroke-miterlimit:4;stroke-opacity:1;stroke-dasharray:none"
               id="path3250"
               d="m 26.5,11.2 h 1.1 l 1.2,1.8 1.2,-1.8 1.1,0 -1.8,2.5 1.8,2.7 H 30 l -1.3,-2 -1.3,2 h -1.1 l 1.8,-2.7 -1.6,-2.5 z" />
            <path
               inkscape:connector-curvature="0"
               style="fill:#000000;fill-opacity:1;stroke:#000000;stroke-width:1.5;stroke-linecap:round;stroke-linejoin:round;stroke-miterlimit:4;stroke-opacity:1;stroke-dasharray:none"
               id="path3252"
               d="m 32.5,9.3 h 0.8 v 4.2 l 2.3,-2.2 h 1.1 l -2,1.9 2.1,3.3 h -1.1 l -1.6,-2.7 -0.7,0.7 v 2 H 32.6 V 9.3 z" />
            <path
               inkscape:connector-curvature="0"
               style="fill:#000000;fill-opacity:1;stroke:#000000;stroke-width:1.5;stroke-linecap:round;stroke-linejoin:round;stroke-miterlimit:4;stroke-opacity:1;stroke-dasharray:none"
               id="path3254"
               d="m 41.1,11.4 c 0.3,0.2 0.6,0.4 0.8,0.7 0.2,0.3 0.3,0.6 0.3,0.9 0.1,0.2 0.1,0.6 0.1,1.2 h -3.8 c 0,0.5 0.1,1 0.4,1.3 0.3,0.3 0.6,0.5 1.1,0.5 0.5,0 0.8,-0.2 1.1,-0.5 0.2,-0.2 0.3,-0.4 0.3,-0.6 h 0.9 c 0,0.2 -0.1,0.4 -0.2,0.6 -0.1,0.2 -0.3,0.4 -0.4,0.6 -0.3,0.3 -0.6,0.4 -1,0.5 -0.2,0.1 -0.4,0.1 -0.7,0.1 -0.6,0 -1.2,-0.2 -1.6,-0.7 -0.4,-0.5 -0.7,-1.1 -0.7,-2 0,-0.8 0.2,-1.5 0.7,-2 0.5,-0.5 1,-0.8 1.8,-0.8 0.2,-0.1 0.5,0 0.9,0.2 z m 0.3,2 C 41.4,13 41.3,12.7 41.2,12.5 41,12.1 40.6,11.9 40,11.9 c -0.4,0 -0.7,0.1 -1,0.4 -0.3,0.3 -0.4,0.7 -0.4,1.1 h 2.8 z" />
            <path
               inkscape:connector-curvature="0"
               style="fill:#000000;fill-opacity:1;stroke:#000000;stroke-width:1.5;stroke-linecap:round;stroke-linejoin:round;stroke-miterlimit:4;stroke-opacity:1;stroke-dasharray:none"
               id="path3256"
               d="m 43.9,9.3 h 0.9 V 12 c 0.2,-0.3 0.4,-0.4 0.6,-0.6 0.3,-0.2 0.6,-0.3 1.1,-0.3 0.8,0 1.3,0.3 1.5,0.8 0.1,0.3 0.2,0.7 0.2,1.2 v 3.4 h -0.9 v -3.3 c 0,-0.4 0,-0.7 -0.1,-0.8 C 47,12.1 46.7,12 46.3,12 c -0.4,0 -0.7,0.1 -1,0.4 -0.3,0.3 -0.4,0.7 -0.4,1.4 v 2.8 H 44 V 9.3 z" />
            <path
               inkscape:connector-curvature="0"
               style="fill:#000000;fill-opacity:1;stroke:#000000;stroke-width:1.5;stroke-linecap:round;stroke-linejoin:round;stroke-miterlimit:4;stroke-opacity:1;stroke-dasharray:none"
               id="path3258"
               d="m 50.6,9.3 -0.1,2.9 H 49.9 L 49.7,9.3 h 0.9 z m 1.7,0 -0.1,2.9 H 51.6 L 51.4,9.3 h 0.9 z" />
            <path
               inkscape:connector-curvature="0"
               style="fill:#000000;fill-opacity:1;stroke:#000000;stroke-width:1.5;stroke-linecap:round;stroke-linejoin:round;stroke-miterlimit:4;stroke-opacity:1;stroke-dasharray:none"
               id="path3260"
               d="m 62.8,15.4 c -0.7,0.7 -1.5,1.1 -2.5,1.1 -1,0 -1.8,-0.4 -2.5,-1.1 -0.7,-0.7 -1,-1.6 -1,-2.5 0,-1 0.3,-1.8 1,-2.5 0.7,-0.7 1.5,-1 2.5,-1 1,0 1.8,0.3 2.5,1 0.7,0.7 1,1.5 1,2.5 0.1,0.9 -0.3,1.8 -1,2.5 z m -4.7,-4.7 c -0.6,0.6 -0.9,1.3 -0.9,2.2 0,0.9 0.3,1.6 0.9,2.2 0.6,0.6 1.3,0.9 2.2,0.9 0.9,0 1.6,-0.3 2.2,-0.9 0.6,-0.6 0.9,-1.3 0.9,-2.2 0,-0.9 -0.3,-1.6 -0.9,-2.2 -0.6,-0.6 -1.3,-0.9 -2.2,-0.9 -0.8,0 -1.6,0.3 -2.2,0.9 z m 3.4,3.9 c -0.3,0.2 -0.7,0.4 -1.1,0.4 -0.5,0 -1,-0.2 -1.4,-0.6 -0.4,-0.4 -0.6,-0.9 -0.6,-1.5 0,-0.6 0.2,-1.1 0.5,-1.5 0.3,-0.4 0.8,-0.6 1.3,-0.6 0.3,0 0.7,0.1 0.9,0.2 0.5,0.3 0.7,0.7 0.8,1.2 h -0.6 c 0,-0.2 -0.1,-0.5 -0.3,-0.6 -0.2,-0.1 -0.4,-0.3 -0.8,-0.3 -0.5,0 -0.8,0.2 -1,0.6 -0.1,0.3 -0.2,0.6 -0.2,0.9 0,0.4 0.1,0.8 0.3,1.1 0.2,0.3 0.5,0.5 1,0.5 0.3,0 0.5,-0.1 0.7,-0.2 0.2,-0.1 0.3,-0.3 0.4,-0.6 H 62 c 0,0.4 -0.2,0.7 -0.5,1 z" />
            <path
               inkscape:connector-curvature="0"
               style="fill:#000000;fill-opacity:1;stroke:#000000;stroke-width:1.5;stroke-linecap:round;stroke-linejoin:round;stroke-miterlimit:4;stroke-opacity:1;stroke-dasharray:none"
               id="path3262"
               d="m 68.5,14.9 c 0.2,-0.4 0.6,-0.9 1.3,-1.2 l 0.9,-0.5 c 0.4,-0.2 0.7,-0.5 0.9,-0.6 0.3,-0.3 0.4,-0.6 0.4,-0.9 0,-0.4 -0.1,-0.7 -0.4,-1 -0.2,-0.2 -0.6,-0.4 -1,-0.4 -0.6,0 -1,0.2 -1.2,0.7 -0.1,0.2 -0.2,0.6 -0.2,1 h -0.9 c 0,-0.6 0.1,-1.1 0.3,-1.5 0.4,-0.7 1.1,-1 2,-1 0.8,0 1.4,0.2 1.8,0.6 0.4,0.4 0.6,0.9 0.6,1.4 0,0.6 -0.2,1 -0.6,1.4 -0.2,0.2 -0.6,0.5 -1.2,0.8 l -0.7,0.4 c -0.3,0.2 -0.6,0.3 -0.8,0.5 -0.3,0.3 -0.5,0.6 -0.6,0.9 h 3.8 v 0.8 h -4.8 c 0,-0.5 0.2,-1 0.4,-1.4 z" />
            <path
               inkscape:connector-curvature="0"
               style="fill:#000000;fill-opacity:1;stroke:#000000;stroke-width:1.5;stroke-linecap:round;stroke-linejoin:round;stroke-miterlimit:4;stroke-opacity:1;stroke-dasharray:none"
               id="path3264"
               d="m 78.6,10.6 c 0.3,0.6 0.5,1.4 0.5,2.4 0,1 -0.1,1.7 -0.4,2.4 -0.4,0.9 -1.1,1.3 -2,1.3 -0.8,0 -1.5,-0.4 -1.9,-1.1 -0.3,-0.6 -0.5,-1.4 -0.5,-2.5 0,-0.8 0.1,-1.5 0.3,-2 0.4,-1.1 1.1,-1.6 2.1,-1.6 0.8,0 1.5,0.3 1.9,1.1 z m -0.9,4.6 c 0.3,-0.4 0.4,-1.2 0.4,-2.3 0,-0.8 -0.1,-1.4 -0.3,-2 -0.2,-0.5 -0.6,-0.8 -1.1,-0.8 -0.5,0 -0.9,0.2 -1.1,0.7 -0.2,0.5 -0.4,1.2 -0.4,2.2 0,0.7 0.1,1.3 0.2,1.7 0.2,0.7 0.6,1 1.2,1 0.5,0.1 0.8,-0.1 1.1,-0.5 z" />
            <path
               inkscape:connector-curvature="0"
               style="fill:#000000;fill-opacity:1;stroke:#000000;stroke-width:1.5;stroke-linecap:round;stroke-linejoin:round;stroke-miterlimit:4;stroke-opacity:1;stroke-dasharray:none"
               id="path3266"
               d="m 80.7,11.5 v -0.7 c 0.6,-0.1 1.1,-0.2 1.3,-0.3 0.3,-0.1 0.4,-0.5 0.6,-1 h 0.7 v 7 h -0.9 v -5 h -1.7 z" />
            <path
               inkscape:connector-curvature="0"
               style="fill:#000000;fill-opacity:1;stroke:#000000;stroke-width:1.5;stroke-linecap:round;stroke-linejoin:round;stroke-miterlimit:4;stroke-opacity:1;stroke-dasharray:none"
               id="path3268"
               d="m 90,10.6 c 0.3,0.6 0.5,1.4 0.5,2.4 0,1 -0.1,1.7 -0.4,2.4 -0.4,0.9 -1.1,1.3 -2,1.3 -0.8,0 -1.5,-0.4 -1.9,-1.1 -0.3,-0.6 -0.5,-1.4 -0.5,-2.5 0,-0.8 0.1,-1.5 0.3,-2 0.3,-1.1 1,-1.6 2,-1.6 0.9,0 1.6,0.3 2,1.1 z m -0.9,4.6 c 0.3,-0.4 0.4,-1.2 0.4,-2.3 0,-0.8 -0.1,-1.4 -0.3,-2 -0.2,-0.5 -0.6,-0.8 -1.1,-0.8 -0.5,0 -0.9,0.2 -1.1,0.7 -0.2,0.5 -0.4,1.2 -0.4,2.2 0,0.7 0.1,1.3 0.2,1.7 0.2,0.7 0.6,1 1.2,1 0.5,0.1 0.8,-0.1 1.1,-0.5 z" />
            <path
               inkscape:connector-curvature="0"
               style="fill:#000000;fill-opacity:1;stroke:#000000;stroke-width:1.5;stroke-linecap:round;stroke-linejoin:round;stroke-miterlimit:4;stroke-opacity:1;stroke-dasharray:none"
               id="path3270"
               d="m 95.4,9.3 h 1.4 l 2.1,6.1 2,-6.1 h 1.4 v 7.2 h -0.9 v -4.2 c 0,-0.1 0,-0.4 0,-0.7 0,-0.3 0,-0.7 0,-1.1 l -2,6 h -1 l -2.1,-6 v 0.2 c 0,0.2 0,0.4 0,0.8 0,0.4 0,0.6 0,0.8 v 4.2 H 95.4 V 9.3 z" />
            <path
               inkscape:connector-curvature="0"
               style="fill:#000000;fill-opacity:1;stroke:#000000;stroke-width:1.5;stroke-linecap:round;stroke-linejoin:round;stroke-miterlimit:4;stroke-opacity:1;stroke-dasharray:none"
               id="path3272"
               d="m 108.1,11.7 c 0.5,0.4 0.7,1.1 0.7,2 0,0.8 -0.2,1.5 -0.6,2.1 -0.4,0.5 -1,0.8 -1.9,0.8 -0.7,0 -1.3,-0.2 -1.7,-0.7 -0.4,-0.5 -0.6,-1.1 -0.6,-2 0,-0.9 0.2,-1.6 0.7,-2.1 0.5,-0.5 1,-0.8 1.8,-0.8 0.6,0.1 1.1,0.3 1.6,0.7 z m -0.6,3.5 c 0.2,-0.4 0.3,-0.9 0.3,-1.5 0,-0.5 -0.1,-0.9 -0.2,-1.2 -0.2,-0.5 -0.7,-0.7 -1.3,-0.7 -0.5,0 -0.9,0.2 -1.2,0.6 -0.2,0.4 -0.4,0.9 -0.4,1.5 0,0.6 0.1,1 0.4,1.4 0.2,0.4 0.6,0.6 1.1,0.6 0.7,0 1.1,-0.2 1.3,-0.7 z" />
            <path
               inkscape:connector-curvature="0"
               style="fill:#000000;fill-opacity:1;stroke:#000000;stroke-width:1.5;stroke-linecap:round;stroke-linejoin:round;stroke-miterlimit:4;stroke-opacity:1;stroke-dasharray:none"
               id="path3274"
               d="M 109.8,15.8 113,12 h -2.9 v -0.8 h 4.1 v 0.7 l -3.1,3.7 h 3.2 v 0.8 h -4.4 v -0.6 z" />
            <path
               inkscape:connector-curvature="0"
               style="fill:#000000;fill-opacity:1;stroke:#000000;stroke-width:1.5;stroke-linecap:round;stroke-linejoin:round;stroke-miterlimit:4;stroke-opacity:1;stroke-dasharray:none"
               id="path3276"
               d="m 115.7,9.3 h 0.9 v 1 h -0.9 v -1 z m 0,1.9 h 0.9 v 5.2 h -0.9 v -5.2 z" />
            <path
               inkscape:connector-curvature="0"
               style="fill:#000000;fill-opacity:1;stroke:#000000;stroke-width:1.5;stroke-linecap:round;stroke-linejoin:round;stroke-miterlimit:4;stroke-opacity:1;stroke-dasharray:none"
               id="path3278"
               d="m 118.4,9.3 h 0.9 v 7.2 h -0.9 V 9.3 z" />
            <path
               inkscape:connector-curvature="0"
               style="fill:#000000;fill-opacity:1;stroke:#000000;stroke-width:1.5;stroke-linecap:round;stroke-linejoin:round;stroke-miterlimit:4;stroke-opacity:1;stroke-dasharray:none"
               id="path3280"
               d="m 121.2,9.3 h 0.9 v 7.2 h -0.9 V 9.3 z" />
            <path
               inkscape:connector-curvature="0"
               style="fill:#000000;fill-opacity:1;stroke:#000000;stroke-width:1.5;stroke-linecap:round;stroke-linejoin:round;stroke-miterlimit:4;stroke-opacity:1;stroke-dasharray:none"
               id="path3282"
               d="m 126.7,13.3 c 0.2,0 0.3,-0.1 0.4,-0.3 0,-0.1 0.1,-0.2 0.1,-0.3 0,-0.3 -0.1,-0.5 -0.3,-0.7 -0.2,-0.2 -0.5,-0.2 -0.9,-0.2 -0.5,0 -0.8,0.1 -1,0.4 -0.1,0.1 -0.2,0.3 -0.2,0.6 H 124 c 0,-0.6 0.2,-1.1 0.6,-1.3 0.4,-0.3 0.9,-0.4 1.4,-0.4 0.6,0 1.1,0.1 1.5,0.4 0.4,0.2 0.6,0.6 0.6,1.1 v 3 c 0,0.1 0,0.2 0.1,0.2 0,0.1 0.1,0.1 0.2,0.1 0,0 0.1,0 0.1,0 0,0 0.1,0 0.2,0 v 0.6 c -0.1,0 -0.2,0.1 -0.3,0.1 -0.1,0 -0.2,0 -0.3,0 -0.3,0 -0.5,-0.1 -0.7,-0.3 -0.1,-0.1 -0.1,-0.3 -0.2,-0.5 -0.2,0.2 -0.4,0.4 -0.8,0.6 -0.3,0.2 -0.7,0.3 -1.1,0.3 -0.5,0 -0.9,-0.1 -1.2,-0.4 -0.3,-0.3 -0.5,-0.7 -0.5,-1.1 0,-0.5 0.2,-0.9 0.5,-1.1 0.3,-0.2 0.7,-0.4 1.2,-0.5 l 1.4,-0.3 z m -1.9,2.4 c 0.2,0.1 0.4,0.2 0.7,0.2 0.3,0 0.6,-0.1 0.9,-0.2 0.5,-0.2 0.7,-0.6 0.7,-1.2 v -0.7 c -0.1,0.1 -0.2,0.1 -0.4,0.2 -0.2,0 -0.3,0.1 -0.5,0.1 l -0.5,0.1 c -0.3,0 -0.6,0.1 -0.7,0.2 -0.3,0.2 -0.4,0.4 -0.4,0.7 -0.1,0.2 0,0.4 0.2,0.6 z" />
            <path
               inkscape:connector-curvature="0"
               style="fill:#000000;fill-opacity:1;stroke:#000000;stroke-width:1.5;stroke-linecap:round;stroke-linejoin:round;stroke-miterlimit:4;stroke-opacity:1;stroke-dasharray:none"
               id="path3284"
               d="m 136.9,14.3 c 0,0.6 -0.1,1.1 -0.3,1.4 -0.3,0.6 -1,0.9 -1.9,0.9 -0.5,0 -1,-0.1 -1.4,-0.4 -0.4,-0.3 -0.6,-0.8 -0.6,-1.6 v -0.5 h 0.9 v 0.5 c 0,0.4 0.1,0.7 0.3,0.9 0.2,0.2 0.4,0.3 0.8,0.3 0.5,0 0.9,-0.2 1,-0.5 0.1,-0.2 0.1,-0.6 0.1,-1.2 V 9.3 h 1 v 5 z" />
            <path
               inkscape:connector-curvature="0"
               style="fill:#000000;fill-opacity:1;stroke:#000000;stroke-width:1.5;stroke-linecap:round;stroke-linejoin:round;stroke-miterlimit:4;stroke-opacity:1;stroke-dasharray:none"
               id="path3286"
               d="m 141.5,13.3 c 0.2,0 0.3,-0.1 0.4,-0.3 0,-0.1 0.1,-0.2 0.1,-0.3 0,-0.3 -0.1,-0.5 -0.3,-0.7 -0.2,-0.2 -0.5,-0.2 -0.9,-0.2 -0.5,0 -0.8,0.1 -1,0.4 -0.1,0.1 -0.2,0.3 -0.2,0.6 h -0.8 c 0,-0.6 0.2,-1.1 0.6,-1.3 0.4,-0.3 0.9,-0.4 1.4,-0.4 0.6,0 1.1,0.1 1.5,0.4 0.4,0.2 0.6,0.6 0.6,1.1 v 3 c 0,0.1 0,0.2 0.1,0.2 0,0.1 0.1,0.1 0.2,0.1 0,0 0.1,0 0.1,0 0,0 0.1,0 0.2,0 v 0.6 c -0.1,0 -0.2,0.1 -0.3,0.1 -0.1,0 -0.2,0 -0.3,0 -0.3,0 -0.5,-0.1 -0.7,-0.3 -0.1,-0.1 -0.1,-0.3 -0.2,-0.5 -0.2,0.2 -0.4,0.4 -0.8,0.6 -0.3,0.2 -0.7,0.3 -1.1,0.3 -0.5,0 -0.9,-0.1 -1.2,-0.4 -0.3,-0.3 -0.5,-0.7 -0.5,-1.1 0,-0.5 0.2,-0.9 0.5,-1.1 0.3,-0.2 0.7,-0.4 1.2,-0.5 l 1.4,-0.3 z m -1.8,2.4 c 0.2,0.1 0.4,0.2 0.7,0.2 0.3,0 0.6,-0.1 0.9,-0.2 0.5,-0.2 0.7,-0.6 0.7,-1.2 v -0.7 c -0.1,0.1 -0.2,0.1 -0.4,0.2 -0.2,0 -0.3,0.1 -0.5,0.1 l -0.5,0.1 c -0.3,0 -0.6,0.1 -0.7,0.2 -0.3,0.2 -0.4,0.4 -0.4,0.7 -0.1,0.2 0,0.4 0.2,0.6 z" />
            <path
               inkscape:connector-curvature="0"
               style="fill:#000000;fill-opacity:1;stroke:#000000;stroke-width:1.5;stroke-linecap:round;stroke-linejoin:round;stroke-miterlimit:4;stroke-opacity:1;stroke-dasharray:none"
               id="path3288"
               d="m 144.8,11.2 h 0.9 v 0.7 c 0.2,-0.2 0.4,-0.4 0.6,-0.6 0.3,-0.2 0.6,-0.3 1,-0.3 0.6,0 1.1,0.2 1.5,0.7 0.4,0.5 0.6,1.1 0.6,1.9 0,1.1 -0.3,2 -0.9,2.4 -0.4,0.3 -0.8,0.5 -1.3,0.5 -0.4,0 -0.7,-0.1 -1,-0.3 -0.2,-0.1 -0.3,-0.3 -0.5,-0.5 v 2.7 h -0.9 v -7.2 z m 3.3,4.1 c 0.3,-0.3 0.4,-0.9 0.4,-1.5 0,-0.4 -0.1,-0.8 -0.2,-1.1 -0.2,-0.6 -0.6,-0.9 -1.3,-0.9 -0.6,0 -1,0.3 -1.3,0.9 -0.1,0.3 -0.2,0.7 -0.2,1.2 0,0.4 0.1,0.7 0.2,1 0.2,0.5 0.6,0.8 1.3,0.8 0.5,0.2 0.8,0 1.1,-0.4 z" />
            <path
               inkscape:connector-curvature="0"
               style="fill:#000000;fill-opacity:1;stroke:#000000;stroke-width:1.5;stroke-linecap:round;stroke-linejoin:round;stroke-miterlimit:4;stroke-opacity:1;stroke-dasharray:none"
               id="path3290"
               d="m 153.7,13.3 c 0.2,0 0.3,-0.1 0.4,-0.3 0,-0.1 0.1,-0.2 0.1,-0.3 0,-0.3 -0.1,-0.5 -0.3,-0.7 -0.2,-0.2 -0.5,-0.2 -0.9,-0.2 -0.5,0 -0.8,0.1 -1,0.4 -0.1,0.1 -0.2,0.3 -0.2,0.6 H 151 c 0,-0.6 0.2,-1.1 0.6,-1.3 0.4,-0.3 0.9,-0.4 1.4,-0.4 0.6,0 1.1,0.1 1.5,0.4 0.4,0.2 0.6,0.6 0.6,1.1 v 3 c 0,0.1 0,0.2 0.1,0.2 0,0.1 0.1,0.1 0.2,0.1 0,0 0.1,0 0.1,0 0,0 0.1,0 0.2,0 v 0.6 c -0.1,0 -0.2,0.1 -0.3,0.1 -0.1,0 -0.2,0 -0.3,0 -0.3,0 -0.5,-0.1 -0.7,-0.3 -0.1,-0.1 -0.1,-0.3 -0.2,-0.5 -0.2,0.2 -0.4,0.4 -0.8,0.6 -0.3,0.2 -0.7,0.3 -1.1,0.3 -0.5,0 -0.9,-0.1 -1.2,-0.4 -0.3,-0.3 -0.5,-0.7 -0.5,-1.1 0,-0.5 0.2,-0.9 0.5,-1.1 0.3,-0.2 0.7,-0.4 1.2,-0.5 l 1.4,-0.3 z m -1.8,2.4 c 0.2,0.1 0.4,0.2 0.7,0.2 0.3,0 0.6,-0.1 0.9,-0.2 0.5,-0.2 0.7,-0.6 0.7,-1.2 v -0.7 c -0.1,0.1 -0.2,0.1 -0.4,0.2 -0.2,0 -0.3,0.1 -0.5,0.1 l -0.5,0.1 c -0.3,0 -0.6,0.1 -0.7,0.2 -0.3,0.2 -0.4,0.4 -0.4,0.7 -0.1,0.2 0,0.4 0.2,0.6 z" />
            <path
               inkscape:connector-curvature="0"
               style="fill:#000000;fill-opacity:1;stroke:#000000;stroke-width:1.5;stroke-linecap:round;stroke-linejoin:round;stroke-miterlimit:4;stroke-opacity:1;stroke-dasharray:none"
               id="path3292"
               d="m 157,11.2 h 0.8 V 12 c 0.2,-0.3 0.5,-0.5 0.8,-0.7 0.3,-0.1 0.6,-0.2 0.9,-0.2 0.7,0 1.2,0.3 1.5,0.8 0.1,0.3 0.2,0.7 0.2,1.2 v 3.4 h -0.9 v -3.3 c 0,-0.3 0,-0.6 -0.1,-0.8 -0.2,-0.3 -0.4,-0.5 -0.8,-0.5 -0.2,0 -0.4,0 -0.5,0.1 -0.2,0.1 -0.5,0.2 -0.6,0.4 -0.1,0.2 -0.2,0.4 -0.3,0.5 0,0.2 -0.1,0.4 -0.1,0.8 v 2.7 H 157 v -5.2 z" />
          </g>
        </g>
        <g
           transform="translate(282.24892,531.17118)"
           id="g3167"
           style="fill:#ffffff">
          <g
             id="g3169"
             style="fill:#ffffff">
            <path
               d="m 11,9.3 -0.1,2.9 H 10.3 L 10.1,9.3 H 11 z m 1.7,0 -0.1,2.9 H 12 L 11.8,9.3 h 0.9 z"
               id="path3171"
               style="fill:#ffffff"
               inkscape:connector-curvature="0" />
            <path
               d="m 14.7,9.3 h 5 v 0.9 h -4 v 2.2 h 3.5 v 0.9 h -3.5 v 3.3 h -1 V 9.3 z"
               id="path3173"
               style="fill:#ffffff"
               inkscape:connector-curvature="0" />
            <path
               d="m 24.8,11.7 c 0.5,0.4 0.7,1.1 0.7,2 0,0.8 -0.2,1.5 -0.6,2.1 -0.4,0.5 -1,0.8 -1.9,0.8 -0.7,0 -1.3,-0.2 -1.7,-0.7 -0.4,-0.5 -0.6,-1.1 -0.6,-2 0,-0.9 0.2,-1.6 0.7,-2.1 0.4,-0.5 1,-0.8 1.8,-0.8 0.6,0.1 1.2,0.3 1.6,0.7 z m -0.5,3.5 c 0.2,-0.4 0.3,-0.9 0.3,-1.5 0,-0.5 -0.1,-0.9 -0.2,-1.2 -0.2,-0.5 -0.7,-0.7 -1.3,-0.7 -0.5,0 -0.9,0.2 -1.2,0.6 -0.2,0.4 -0.4,0.9 -0.4,1.5 0,0.6 0.1,1 0.4,1.4 0.2,0.4 0.6,0.6 1.2,0.6 0.6,0 1,-0.2 1.2,-0.7 z"
               id="path3175"
               style="fill:#ffffff"
               inkscape:connector-curvature="0" />
            <path
               d="m 26.5,11.2 h 1.1 l 1.2,1.8 1.2,-1.8 1.1,0 -1.8,2.5 1.8,2.7 H 30 l -1.3,-2 -1.3,2 h -1.1 l 1.8,-2.7 -1.6,-2.5 z"
               id="path3177"
               style="fill:#ffffff"
               inkscape:connector-curvature="0" />
            <path
               d="m 32.5,9.3 h 0.8 v 4.2 l 2.3,-2.2 h 1.1 l -2,1.9 2.1,3.3 h -1.1 l -1.6,-2.7 -0.7,0.7 v 2 H 32.6 V 9.3 z"
               id="path3179"
               style="fill:#ffffff"
               inkscape:connector-curvature="0" />
            <path
               d="m 41.1,11.4 c 0.3,0.2 0.6,0.4 0.8,0.7 0.2,0.3 0.3,0.6 0.3,0.9 0.1,0.2 0.1,0.6 0.1,1.2 h -3.8 c 0,0.5 0.1,1 0.4,1.3 0.3,0.3 0.6,0.5 1.1,0.5 0.5,0 0.8,-0.2 1.1,-0.5 0.2,-0.2 0.3,-0.4 0.3,-0.6 h 0.9 c 0,0.2 -0.1,0.4 -0.2,0.6 -0.1,0.2 -0.3,0.4 -0.4,0.6 -0.3,0.3 -0.6,0.4 -1,0.5 -0.2,0.1 -0.4,0.1 -0.7,0.1 -0.6,0 -1.2,-0.2 -1.6,-0.7 -0.4,-0.5 -0.7,-1.1 -0.7,-2 0,-0.8 0.2,-1.5 0.7,-2 0.5,-0.5 1,-0.8 1.8,-0.8 0.2,-0.1 0.5,0 0.9,0.2 z m 0.3,2 C 41.4,13 41.3,12.7 41.2,12.5 41,12.1 40.6,11.9 40,11.9 c -0.4,0 -0.7,0.1 -1,0.4 -0.3,0.3 -0.4,0.7 -0.4,1.1 h 2.8 z"
               id="path3181"
               style="fill:#ffffff"
               inkscape:connector-curvature="0" />
            <path
               d="m 43.9,9.3 h 0.9 V 12 c 0.2,-0.3 0.4,-0.4 0.6,-0.6 0.3,-0.2 0.6,-0.3 1.1,-0.3 0.8,0 1.3,0.3 1.5,0.8 0.1,0.3 0.2,0.7 0.2,1.2 v 3.4 h -0.9 v -3.3 c 0,-0.4 0,-0.7 -0.1,-0.8 C 47,12.1 46.7,12 46.3,12 c -0.4,0 -0.7,0.1 -1,0.4 -0.3,0.3 -0.4,0.7 -0.4,1.4 v 2.8 H 44 V 9.3 z"
               id="path3183"
               style="fill:#ffffff"
               inkscape:connector-curvature="0" />
            <path
               d="m 50.6,9.3 -0.1,2.9 H 49.9 L 49.7,9.3 h 0.9 z m 1.7,0 -0.1,2.9 H 51.6 L 51.4,9.3 h 0.9 z"
               id="path3185"
               style="fill:#ffffff"
               inkscape:connector-curvature="0" />
            <path
               d="m 62.8,15.4 c -0.7,0.7 -1.5,1.1 -2.5,1.1 -1,0 -1.8,-0.4 -2.5,-1.1 -0.7,-0.7 -1,-1.6 -1,-2.5 0,-1 0.3,-1.8 1,-2.5 0.7,-0.7 1.5,-1 2.5,-1 1,0 1.8,0.3 2.5,1 0.7,0.7 1,1.5 1,2.5 0.1,0.9 -0.3,1.8 -1,2.5 z m -4.7,-4.7 c -0.6,0.6 -0.9,1.3 -0.9,2.2 0,0.9 0.3,1.6 0.9,2.2 0.6,0.6 1.3,0.9 2.2,0.9 0.9,0 1.6,-0.3 2.2,-0.9 0.6,-0.6 0.9,-1.3 0.9,-2.2 0,-0.9 -0.3,-1.6 -0.9,-2.2 -0.6,-0.6 -1.3,-0.9 -2.2,-0.9 -0.8,0 -1.6,0.3 -2.2,0.9 z m 3.4,3.9 c -0.3,0.2 -0.7,0.4 -1.1,0.4 -0.5,0 -1,-0.2 -1.4,-0.6 -0.4,-0.4 -0.6,-0.9 -0.6,-1.5 0,-0.6 0.2,-1.1 0.5,-1.5 0.3,-0.4 0.8,-0.6 1.3,-0.6 0.3,0 0.7,0.1 0.9,0.2 0.5,0.3 0.7,0.7 0.8,1.2 h -0.6 c 0,-0.2 -0.1,-0.5 -0.3,-0.6 -0.2,-0.1 -0.4,-0.3 -0.8,-0.3 -0.5,0 -0.8,0.2 -1,0.6 -0.1,0.3 -0.2,0.6 -0.2,0.9 0,0.4 0.1,0.8 0.3,1.1 0.2,0.3 0.5,0.5 1,0.5 0.3,0 0.5,-0.1 0.7,-0.2 0.2,-0.1 0.3,-0.3 0.4,-0.6 H 62 c 0,0.4 -0.2,0.7 -0.5,1 z"
               id="path3187"
               style="fill:#ffffff"
               inkscape:connector-curvature="0" />
            <path
               d="m 68.5,14.9 c 0.2,-0.4 0.6,-0.9 1.3,-1.2 l 0.9,-0.5 c 0.4,-0.2 0.7,-0.5 0.9,-0.6 0.3,-0.3 0.4,-0.6 0.4,-0.9 0,-0.4 -0.1,-0.7 -0.4,-1 -0.2,-0.2 -0.6,-0.4 -1,-0.4 -0.6,0 -1,0.2 -1.2,0.7 -0.1,0.2 -0.2,0.6 -0.2,1 h -0.9 c 0,-0.6 0.1,-1.1 0.3,-1.5 0.4,-0.7 1.1,-1 2,-1 0.8,0 1.4,0.2 1.8,0.6 0.4,0.4 0.6,0.9 0.6,1.4 0,0.6 -0.2,1 -0.6,1.4 -0.2,0.2 -0.6,0.5 -1.2,0.8 l -0.7,0.4 c -0.3,0.2 -0.6,0.3 -0.8,0.5 -0.3,0.3 -0.5,0.6 -0.6,0.9 h 3.8 v 0.8 h -4.8 c 0,-0.5 0.2,-1 0.4,-1.4 z"
               id="path3189"
               style="fill:#ffffff"
               inkscape:connector-curvature="0" />
            <path
               d="m 78.6,10.6 c 0.3,0.6 0.5,1.4 0.5,2.4 0,1 -0.1,1.7 -0.4,2.4 -0.4,0.9 -1.1,1.3 -2,1.3 -0.8,0 -1.5,-0.4 -1.9,-1.1 -0.3,-0.6 -0.5,-1.4 -0.5,-2.5 0,-0.8 0.1,-1.5 0.3,-2 0.4,-1.1 1.1,-1.6 2.1,-1.6 0.8,0 1.5,0.3 1.9,1.1 z m -0.9,4.6 c 0.3,-0.4 0.4,-1.2 0.4,-2.3 0,-0.8 -0.1,-1.4 -0.3,-2 -0.2,-0.5 -0.6,-0.8 -1.1,-0.8 -0.5,0 -0.9,0.2 -1.1,0.7 -0.2,0.5 -0.4,1.2 -0.4,2.2 0,0.7 0.1,1.3 0.2,1.7 0.2,0.7 0.6,1 1.2,1 0.5,0.1 0.8,-0.1 1.1,-0.5 z"
               id="path3191"
               style="fill:#ffffff"
               inkscape:connector-curvature="0" />
            <path
               d="m 80.7,11.5 v -0.7 c 0.6,-0.1 1.1,-0.2 1.3,-0.3 0.3,-0.1 0.4,-0.5 0.6,-1 h 0.7 v 7 h -0.9 v -5 h -1.7 z"
               id="path3193"
               style="fill:#ffffff"
               inkscape:connector-curvature="0" />
            <path
               d="m 90,10.6 c 0.3,0.6 0.5,1.4 0.5,2.4 0,1 -0.1,1.7 -0.4,2.4 -0.4,0.9 -1.1,1.3 -2,1.3 -0.8,0 -1.5,-0.4 -1.9,-1.1 -0.3,-0.6 -0.5,-1.4 -0.5,-2.5 0,-0.8 0.1,-1.5 0.3,-2 0.3,-1.1 1,-1.6 2,-1.6 0.9,0 1.6,0.3 2,1.1 z m -0.9,4.6 c 0.3,-0.4 0.4,-1.2 0.4,-2.3 0,-0.8 -0.1,-1.4 -0.3,-2 -0.2,-0.5 -0.6,-0.8 -1.1,-0.8 -0.5,0 -0.9,0.2 -1.1,0.7 -0.2,0.5 -0.4,1.2 -0.4,2.2 0,0.7 0.1,1.3 0.2,1.7 0.2,0.7 0.6,1 1.2,1 0.5,0.1 0.8,-0.1 1.1,-0.5 z"
               id="path3195"
               style="fill:#ffffff"
               inkscape:connector-curvature="0" />
            <path
               d="m 95.4,9.3 h 1.4 l 2.1,6.1 2,-6.1 h 1.4 v 7.2 h -0.9 v -4.2 c 0,-0.1 0,-0.4 0,-0.7 0,-0.3 0,-0.7 0,-1.1 l -2,6 h -1 l -2.1,-6 v 0.2 c 0,0.2 0,0.4 0,0.8 0,0.4 0,0.6 0,0.8 v 4.2 H 95.4 V 9.3 z"
               id="path3197"
               style="fill:#ffffff"
               inkscape:connector-curvature="0" />
            <path
               d="m 108.1,11.7 c 0.5,0.4 0.7,1.1 0.7,2 0,0.8 -0.2,1.5 -0.6,2.1 -0.4,0.5 -1,0.8 -1.9,0.8 -0.7,0 -1.3,-0.2 -1.7,-0.7 -0.4,-0.5 -0.6,-1.1 -0.6,-2 0,-0.9 0.2,-1.6 0.7,-2.1 0.5,-0.5 1,-0.8 1.8,-0.8 0.6,0.1 1.1,0.3 1.6,0.7 z m -0.6,3.5 c 0.2,-0.4 0.3,-0.9 0.3,-1.5 0,-0.5 -0.1,-0.9 -0.2,-1.2 -0.2,-0.5 -0.7,-0.7 -1.3,-0.7 -0.5,0 -0.9,0.2 -1.2,0.6 -0.2,0.4 -0.4,0.9 -0.4,1.5 0,0.6 0.1,1 0.4,1.4 0.2,0.4 0.6,0.6 1.1,0.6 0.7,0 1.1,-0.2 1.3,-0.7 z"
               id="path3199"
               style="fill:#ffffff"
               inkscape:connector-curvature="0" />
            <path
               d="M 109.8,15.8 113,12 h -2.9 v -0.8 h 4.1 v 0.7 l -3.1,3.7 h 3.2 v 0.8 h -4.4 v -0.6 z"
               id="path3201"
               style="fill:#ffffff"
               inkscape:connector-curvature="0" />
            <path
               d="m 115.7,9.3 h 0.9 v 1 h -0.9 v -1 z m 0,1.9 h 0.9 v 5.2 h -0.9 v -5.2 z"
               id="path3203"
               style="fill:#ffffff"
               inkscape:connector-curvature="0" />
            <path
               d="m 118.4,9.3 h 0.9 v 7.2 h -0.9 V 9.3 z"
               id="path3205"
               style="fill:#ffffff"
               inkscape:connector-curvature="0" />
            <path
               d="m 121.2,9.3 h 0.9 v 7.2 h -0.9 V 9.3 z"
               id="path3207"
               style="fill:#ffffff"
               inkscape:connector-curvature="0" />
            <path
               d="m 126.7,13.3 c 0.2,0 0.3,-0.1 0.4,-0.3 0,-0.1 0.1,-0.2 0.1,-0.3 0,-0.3 -0.1,-0.5 -0.3,-0.7 -0.2,-0.2 -0.5,-0.2 -0.9,-0.2 -0.5,0 -0.8,0.1 -1,0.4 -0.1,0.1 -0.2,0.3 -0.2,0.6 H 124 c 0,-0.6 0.2,-1.1 0.6,-1.3 0.4,-0.3 0.9,-0.4 1.4,-0.4 0.6,0 1.1,0.1 1.5,0.4 0.4,0.2 0.6,0.6 0.6,1.1 v 3 c 0,0.1 0,0.2 0.1,0.2 0,0.1 0.1,0.1 0.2,0.1 0,0 0.1,0 0.1,0 0,0 0.1,0 0.2,0 v 0.6 c -0.1,0 -0.2,0.1 -0.3,0.1 -0.1,0 -0.2,0 -0.3,0 -0.3,0 -0.5,-0.1 -0.7,-0.3 -0.1,-0.1 -0.1,-0.3 -0.2,-0.5 -0.2,0.2 -0.4,0.4 -0.8,0.6 -0.3,0.2 -0.7,0.3 -1.1,0.3 -0.5,0 -0.9,-0.1 -1.2,-0.4 -0.3,-0.3 -0.5,-0.7 -0.5,-1.1 0,-0.5 0.2,-0.9 0.5,-1.1 0.3,-0.2 0.7,-0.4 1.2,-0.5 l 1.4,-0.3 z m -1.9,2.4 c 0.2,0.1 0.4,0.2 0.7,0.2 0.3,0 0.6,-0.1 0.9,-0.2 0.5,-0.2 0.7,-0.6 0.7,-1.2 v -0.7 c -0.1,0.1 -0.2,0.1 -0.4,0.2 -0.2,0 -0.3,0.1 -0.5,0.1 l -0.5,0.1 c -0.3,0 -0.6,0.1 -0.7,0.2 -0.3,0.2 -0.4,0.4 -0.4,0.7 -0.1,0.2 0,0.4 0.2,0.6 z"
               id="path3209"
               style="fill:#ffffff"
               inkscape:connector-curvature="0" />
            <path
               d="m 136.9,14.3 c 0,0.6 -0.1,1.1 -0.3,1.4 -0.3,0.6 -1,0.9 -1.9,0.9 -0.5,0 -1,-0.1 -1.4,-0.4 -0.4,-0.3 -0.6,-0.8 -0.6,-1.6 v -0.5 h 0.9 v 0.5 c 0,0.4 0.1,0.7 0.3,0.9 0.2,0.2 0.4,0.3 0.8,0.3 0.5,0 0.9,-0.2 1,-0.5 0.1,-0.2 0.1,-0.6 0.1,-1.2 V 9.3 h 1 v 5 z"
               id="path3211"
               style="fill:#ffffff"
               inkscape:connector-curvature="0" />
            <path
               d="m 141.5,13.3 c 0.2,0 0.3,-0.1 0.4,-0.3 0,-0.1 0.1,-0.2 0.1,-0.3 0,-0.3 -0.1,-0.5 -0.3,-0.7 -0.2,-0.2 -0.5,-0.2 -0.9,-0.2 -0.5,0 -0.8,0.1 -1,0.4 -0.1,0.1 -0.2,0.3 -0.2,0.6 h -0.8 c 0,-0.6 0.2,-1.1 0.6,-1.3 0.4,-0.3 0.9,-0.4 1.4,-0.4 0.6,0 1.1,0.1 1.5,0.4 0.4,0.2 0.6,0.6 0.6,1.1 v 3 c 0,0.1 0,0.2 0.1,0.2 0,0.1 0.1,0.1 0.2,0.1 0,0 0.1,0 0.1,0 0,0 0.1,0 0.2,0 v 0.6 c -0.1,0 -0.2,0.1 -0.3,0.1 -0.1,0 -0.2,0 -0.3,0 -0.3,0 -0.5,-0.1 -0.7,-0.3 -0.1,-0.1 -0.1,-0.3 -0.2,-0.5 -0.2,0.2 -0.4,0.4 -0.8,0.6 -0.3,0.2 -0.7,0.3 -1.1,0.3 -0.5,0 -0.9,-0.1 -1.2,-0.4 -0.3,-0.3 -0.5,-0.7 -0.5,-1.1 0,-0.5 0.2,-0.9 0.5,-1.1 0.3,-0.2 0.7,-0.4 1.2,-0.5 l 1.4,-0.3 z m -1.8,2.4 c 0.2,0.1 0.4,0.2 0.7,0.2 0.3,0 0.6,-0.1 0.9,-0.2 0.5,-0.2 0.7,-0.6 0.7,-1.2 v -0.7 c -0.1,0.1 -0.2,0.1 -0.4,0.2 -0.2,0 -0.3,0.1 -0.5,0.1 l -0.5,0.1 c -0.3,0 -0.6,0.1 -0.7,0.2 -0.3,0.2 -0.4,0.4 -0.4,0.7 -0.1,0.2 0,0.4 0.2,0.6 z"
               id="path3213"
               style="fill:#ffffff"
               inkscape:connector-curvature="0" />
            <path
               d="m 144.8,11.2 h 0.9 v 0.7 c 0.2,-0.2 0.4,-0.4 0.6,-0.6 0.3,-0.2 0.6,-0.3 1,-0.3 0.6,0 1.1,0.2 1.5,0.7 0.4,0.5 0.6,1.1 0.6,1.9 0,1.1 -0.3,2 -0.9,2.4 -0.4,0.3 -0.8,0.5 -1.3,0.5 -0.4,0 -0.7,-0.1 -1,-0.3 -0.2,-0.1 -0.3,-0.3 -0.5,-0.5 v 2.7 h -0.9 v -7.2 z m 3.3,4.1 c 0.3,-0.3 0.4,-0.9 0.4,-1.5 0,-0.4 -0.1,-0.8 -0.2,-1.1 -0.2,-0.6 -0.6,-0.9 -1.3,-0.9 -0.6,0 -1,0.3 -1.3,0.9 -0.1,0.3 -0.2,0.7 -0.2,1.2 0,0.4 0.1,0.7 0.2,1 0.2,0.5 0.6,0.8 1.3,0.8 0.5,0.2 0.8,0 1.1,-0.4 z"
               id="path3215"
               style="fill:#ffffff"
               inkscape:connector-curvature="0" />
            <path
               d="m 153.7,13.3 c 0.2,0 0.3,-0.1 0.4,-0.3 0,-0.1 0.1,-0.2 0.1,-0.3 0,-0.3 -0.1,-0.5 -0.3,-0.7 -0.2,-0.2 -0.5,-0.2 -0.9,-0.2 -0.5,0 -0.8,0.1 -1,0.4 -0.1,0.1 -0.2,0.3 -0.2,0.6 H 151 c 0,-0.6 0.2,-1.1 0.6,-1.3 0.4,-0.3 0.9,-0.4 1.4,-0.4 0.6,0 1.1,0.1 1.5,0.4 0.4,0.2 0.6,0.6 0.6,1.1 v 3 c 0,0.1 0,0.2 0.1,0.2 0,0.1 0.1,0.1 0.2,0.1 0,0 0.1,0 0.1,0 0,0 0.1,0 0.2,0 v 0.6 c -0.1,0 -0.2,0.1 -0.3,0.1 -0.1,0 -0.2,0 -0.3,0 -0.3,0 -0.5,-0.1 -0.7,-0.3 -0.1,-0.1 -0.1,-0.3 -0.2,-0.5 -0.2,0.2 -0.4,0.4 -0.8,0.6 -0.3,0.2 -0.7,0.3 -1.1,0.3 -0.5,0 -0.9,-0.1 -1.2,-0.4 -0.3,-0.3 -0.5,-0.7 -0.5,-1.1 0,-0.5 0.2,-0.9 0.5,-1.1 0.3,-0.2 0.7,-0.4 1.2,-0.5 l 1.4,-0.3 z m -1.8,2.4 c 0.2,0.1 0.4,0.2 0.7,0.2 0.3,0 0.6,-0.1 0.9,-0.2 0.5,-0.2 0.7,-0.6 0.7,-1.2 v -0.7 c -0.1,0.1 -0.2,0.1 -0.4,0.2 -0.2,0 -0.3,0.1 -0.5,0.1 l -0.5,0.1 c -0.3,0 -0.6,0.1 -0.7,0.2 -0.3,0.2 -0.4,0.4 -0.4,0.7 -0.1,0.2 0,0.4 0.2,0.6 z"
               id="path3217"
               style="fill:#ffffff"
               inkscape:connector-curvature="0" />
            <path
               d="m 157,11.2 h 0.8 V 12 c 0.2,-0.3 0.5,-0.5 0.8,-0.7 0.3,-0.1 0.6,-0.2 0.9,-0.2 0.7,0 1.2,0.3 1.5,0.8 0.1,0.3 0.2,0.7 0.2,1.2 v 3.4 h -0.9 v -3.3 c 0,-0.3 0,-0.6 -0.1,-0.8 -0.2,-0.3 -0.4,-0.5 -0.8,-0.5 -0.2,0 -0.4,0 -0.5,0.1 -0.2,0.1 -0.5,0.2 -0.6,0.4 -0.1,0.2 -0.2,0.4 -0.3,0.5 0,0.2 -0.1,0.4 -0.1,0.8 v 2.7 H 157 v -5.2 z"
               id="path3219"
               style="fill:#ffffff"
               inkscape:connector-curvature="0" />
          </g>
        </g>
        <g
           transform="translate(282.24892,531.17118)"
           id="g3128">
          <path
             d="m 176.3,6.3 c -3.9,0.1 -7,3.3 -7,7.2 0,4 3.2,7.2 7.2,7.2 4,0 7.2,-3.2 7.2,-7.2 0,-4 -3.2,-7.2 -7.2,-7.2 -0.1,0 -0.2,0 -0.2,0 z"
             id="path3130"
             inkscape:connector-curvature="0" />
          <path
             d="m 176.2,7.5 c 0.1,0 0.1,0 0.2,0 3.3,0 6,2.7 6,6 0,3.3 -2.7,6 -6,6 -3.3,0 -6,-2.7 -6,-6 0.1,-3.2 2.6,-5.9 5.8,-6 z"
             id="path3132"
             style="fill:#ffffff"
             inkscape:connector-curvature="0" />
          <g
             id="g3134">
            <path
               d="m 179.5,14.1 0,0 c -0.2,0.4 -0.5,0.7 -0.8,0.7 -0.5,0 -0.9,-0.4 -0.9,-1 v -0.4 c 0,-0.6 0.4,-1 0.9,-1 0.3,0 0.6,0.2 0.8,0.5 l 0,0.1 1,-0.6 0,-0.1 c -0.4,-0.6 -1.1,-1 -1.9,-1 -0.6,0 -1.2,0.3 -1.5,0.7 -0.4,0.4 -0.6,1 -0.6,1.6 0,0.6 0.2,1.2 0.6,1.6 0.4,0.4 0.9,0.7 1.5,0.7 0.8,0 1.6,-0.5 2,-1.2 l 0,-0.1 -1.1,-0.5 z"
               id="path3136"
               inkscape:connector-curvature="0" />
            <path
               d="m 175.4,14.1 c -0.1,0.4 -0.5,0.6 -0.8,0.6 -0.5,0 -0.9,-0.4 -0.9,-1 v -0.4 c 0,-0.6 0.4,-1 0.9,-1 0.3,0 0.6,0.2 0.8,0.5 l 0,0.1 1,-0.6 0,-0.1 c -0.4,-0.6 -1.1,-1 -1.9,-1 -0.6,0 -1.2,0.3 -1.5,0.7 -0.4,0.4 -0.6,1 -0.6,1.6 0,0.6 0.2,1.2 0.6,1.6 0.4,0.4 0.9,0.7 1.5,0.7 0.8,0 1.6,-0.5 2,-1.2 l 0,-0.1 -1.1,-0.4 0,0 z"
               id="path3138"
               inkscape:connector-curvature="0" />
          </g>
        </g>
        <g
           transform="translate(282.24892,531.17118)"
           id="layer3">
          <path
             d="m 191.6,6.6 c -2.9,0.1 -5.3,2.5 -5.3,5.4 0,3 2.4,5.4 5.4,5.4 3,0 5.4,-2.4 5.4,-5.4 0,-3 -2.4,-5.4 -5.4,-5.4 0,0 0,0 -0.1,0 z m 0,0.9 c 0,0 0.1,0 0.1,0 2.5,0 4.5,2 4.5,4.5 0,2.5 -2,4.5 -4.5,4.5 -2.5,0 -4.5,-2 -4.5,-4.5 0.1,-2.5 2,-4.4 4.4,-4.5 z"
             id="path1334_2_"
             inkscape:connector-curvature="0" />
          <path
             d="m 196.3,12 c 0,2.5 -2,4.6 -4.6,4.6 -2.5,0 -4.6,-2 -4.6,-4.6 0,-2.5 2,-4.6 4.6,-4.6 2.6,0 4.6,2 4.6,4.6 z"
             id="path7255"
             style="fill:#ffffff"
             inkscape:connector-curvature="0" />
          <g
             id="g6525">
            <path
               d="m 192.5,9.2 c 0,0.4 -0.3,0.8 -0.8,0.8 -0.5,0 -0.7,-0.3 -0.7,-0.8 0,-0.5 0.3,-0.8 0.8,-0.8 0.5,0 0.7,0.4 0.7,0.8 z"
               id="path2838"
               inkscape:connector-curvature="0" />
            <path
               d="m 191,15.4 h 1.6 v -2.6 h 0.5 c 0,0 0,-1.9 0,-2.1 0,-0.1 0,-0.2 -0.1,-0.3 -0.1,-0.1 -0.3,-0.1 -0.3,-0.1 -0.1,0 -1.6,0 -1.7,0 -0.1,0 -0.2,0 -0.3,0.1 -0.1,0.1 -0.1,0.3 -0.1,0.3 0,0.3 0,2.1 0,2.1 h 0.5 v 2.6 z"
               id="path3572"
               inkscape:connector-curvature="0" />
          </g>
        </g>
        <g
           transform="translate(282.24892,531.17118)"
           id="g3155">
          <path
             d="m 189.5,20.8 v -2.5 h 1.2 c 0.3,0 0.5,0 0.6,0.1 0.1,0.1 0.2,0.3 0.2,0.5 0,0.3 -0.1,0.5 -0.4,0.5 v 0 c 0.3,0 0.4,0.2 0.4,0.6 0,0.3 -0.1,0.4 -0.2,0.5 -0.1,0.1 -0.3,0.2 -0.6,0.2 h -1.2 z m 0.5,-1.4 h 0.6 c 0.2,0 0.3,0 0.4,-0.1 0.1,0 0.1,-0.1 0.1,-0.3 0,-0.2 -0.1,-0.3 -0.3,-0.3 H 190 v 0.7 z m 0,1.1 h 0.5 l 0.2,0 c 0.2,0 0.3,0 0.3,-0.1 0,0 0.1,-0.1 0.1,-0.3 0,-0.1 0,-0.2 -0.1,-0.3 -0.1,0 -0.2,-0.1 -0.4,-0.1 H 190 v 0.8 z"
             id="path3157"
             inkscape:connector-curvature="0" />
          <path
             d="m 193.9,18.4 -0.9,1.5 v 0.9 h -0.5 v -0.9 l -0.9,-1.5 h 0.5 l 0.4,0.7 c 0,0 0.1,0.1 0.1,0.2 l 0.1,0.1 0,0.1 h 0 l 0.1,-0.1 0.1,-0.1 c 0,-0.1 0.1,-0.2 0.1,-0.2 l 0.4,-0.7 h 0.5 z"
             id="path3159"
             inkscape:connector-curvature="0" />
        </g>
      </g>
    </g>
  </g>
</svg>
